<svg width="185" height="121" viewBox="0 0 185 121" fill="none" xmlns="http://www.w3.org/2000/svg">
<g clip-path="url(#clip0_9_360)">
<path d="M0 0H184.809V1.20022V120V121H184.591H136.815H102.485H79.4255H49.7663H0.0741479H0V120.026V96.094V95.3704V1.21848V0Z" fill="#D1C8B6"/>
<path d="M122.823 13.9825C125.21 15.2981 126.913 15.6252 129.38 16.5667C131.283 17.2924 132.944 18.2242 134.97 18.9353L144.932 22.3231C146.178 22.7475 147.456 23.0978 148.695 23.5131C158.06 26.6514 165.128 33.697 168.641 42.9053C169.173 44.2987 169.881 47.1795 171.214 47.8054C173.144 48.0281 174.451 59.5014 174.835 61.4044C175.179 63.1144 175.913 64.7028 175.72 66.4617L175.741 66.5762C175.885 67.4047 176.006 70.3913 176.38 70.7796C176.537 70.6188 176.598 70.5509 176.731 70.3697C176.89 71.4879 176.9 72.6298 177.01 73.759C177.537 79.1719 179.602 84.2965 180.852 89.559C180.924 89.8615 180.928 90.5114 180.934 90.8365C180.323 91.0747 179.688 91.3005 179.115 91.6164C178.411 91.9221 175.847 93.1615 175.268 93.1935C174.903 93.354 174.507 93.5237 174.129 93.6485C168.712 95.4358 162.686 97.5735 157.069 98.4918C154.475 98.9252 151.795 99.1593 149.164 99.0086C148.712 98.9356 148.563 98.8747 148.134 98.7116L147.905 98.9387C147.459 98.0322 147.049 95.42 146.636 94.1516C147.543 94.2793 147.315 93.3837 147.536 92.9059L147.613 91.9113C148.121 87.6702 147.488 85.7275 147.699 82.0673C148.069 80.4066 148.428 79.3712 149.293 77.9111C149.601 77.2677 149.884 76.8357 150.267 76.2395L150.171 75.7862L150.001 75.7616C149.284 76.3352 149.301 76.5827 148.482 77.054C148.017 78.4541 147.314 80.064 146.926 81.4221C146.56 83.0404 146.64 84.5961 146.432 86.2364C146.256 87.6275 145.837 89.2045 145.691 90.5702C145.228 94.9457 144.746 99.3645 144.426 103.75C144.269 105.898 143.938 107.991 143.756 110.081C143.625 111.601 143.668 113.839 143.628 115.414C143.603 116.415 143.419 119.483 143.511 120.287L143.446 120.643C142.8 120.913 139.028 120.747 138.043 120.725C137.765 120.746 137.012 120.79 136.779 120.845L136.815 121H102.485C102.768 120.885 103.209 120.805 103.517 120.738C103.236 120.728 102.954 120.713 102.673 120.692C102.427 120.383 102.506 120.423 102.501 119.94C102.43 119.088 102.541 116.564 102.549 115.566L102.578 106.617C102.436 104.306 102.549 100.146 102.569 97.7371C102.609 93.0451 102.51 86.9526 103.028 82.3207C102.871 77.4879 103.176 71.939 103.148 66.9802C103.02 58.4913 102.849 50.0031 102.635 41.5159C102.569 37.5446 102.683 32.6253 102.415 28.7277C107.667 26.739 109.16 25.5614 113.218 21.8656L114.252 21.2724C115.872 21.7463 117.582 22.3974 119.004 23.3191C120.534 21.7729 120.957 19.2941 122.066 17.9432C122.493 17.8166 122.49 17.898 122.991 18.0217C123.57 18.3087 124.368 18.5654 124.99 18.7867L124.774 18.4289C124.822 17.8644 124.932 17.6397 125.453 17.3997C124.397 16.8138 123.893 16.5937 123.063 15.6994C122.972 15.1301 122.87 14.5565 122.823 13.9825Z" fill="#DDDEDE"/>
<path d="M126.029 25.9789C127.692 27.0403 130.662 28.0395 132.489 28.9992C135.811 30.8479 143.653 34.6973 144.952 38.3472C145.88 40.9551 144.986 47.8727 144.998 50.7386C145.02 55.8076 144.621 60.8905 144.218 65.9067C143.66 72.8499 142.955 79.558 141.217 86.3188C140.706 88.3947 140.373 90.5653 139.903 92.6553C137.957 99.6162 137.778 106.772 137.212 113.932C137.056 115.894 137.223 118.168 137.027 120.044C136.826 120.367 136.793 120.427 136.672 120.793C136.579 120.805 136.485 120.814 136.392 120.818C134.786 120.904 129.377 120.546 127.446 120.55C127.284 120.55 126.189 119.525 125.946 119.298C125.955 118.79 126.426 118.732 126.498 118.211C125.698 117.534 126.633 117.255 126.042 116.666L125.678 116.815L125.56 116.744C125.559 116.307 125.565 115.963 125.506 115.528C125.302 115.462 125.111 115.409 124.904 115.352C124.461 114.676 125.136 112.104 124.798 110.445C124.771 110.257 124.78 109.772 124.779 109.559C124.751 106.433 124.618 102.819 124.836 99.7292C125.263 93.6119 126.074 87.5457 126.112 81.3947C126.125 79.1816 126.412 76.929 126.27 74.7068L126.33 74.0884C126.232 73.4044 126.31 72.8744 126.092 72.2176L126.076 72.1061C126.08 71.7357 126.085 71.5104 126.132 71.1396C126.27 70.9589 126.356 70.7696 126.601 70.7954C128.973 71.0446 130.503 70.694 132.787 70.1494C132.841 68.2498 132.835 66.0908 132.812 64.1878C132.118 64.0475 132.092 64.302 131.511 63.791C131.332 62.8269 132.626 62.5042 132.505 61.2003C132.553 60.3917 132.812 58.2545 132.513 57.697C132.23 57.1717 131.368 57.4438 130.641 57.2751C131.306 56.802 133.087 56.8003 133.697 56.3787C133.75 56.1176 133.84 55.8114 133.909 55.5494C134.083 54.5951 134.464 53.2911 133.951 52.4456C132.924 51.6877 128.101 51.6129 126.612 51.5792C126.61 50.5351 126.726 46.0729 126.327 45.3436L126.31 45.2901C126.554 44.5377 126.137 41.0208 126.267 40.3893C126.681 40.0418 126.85 40.3387 127.579 40.1196C126.969 39.8818 126.517 40.3407 125.969 40.0616C125.958 35.9533 125.767 29.9533 126.029 25.9789Z" fill="#669EB8"/>
<path d="M132.812 64.1878C133.188 64.6468 133.056 64.8577 133.451 65.3081L133.562 65.2912C133.865 64.1066 133.353 60.4222 133.53 59.9671C134.484 61.0765 133.534 69.3776 133.515 71.1562C132.256 72.2473 130.534 73.2974 128.954 73.8307L130.665 73.8861C129.63 73.8905 128.596 73.888 127.564 73.9796C126.857 74.0422 126.724 74.2243 126.27 74.7069L126.33 74.0884C126.232 73.4045 126.31 72.8744 126.092 72.2176L126.076 72.1061C126.08 71.7358 126.085 71.5104 126.132 71.1396C126.27 70.959 126.356 70.7697 126.601 70.7954C128.973 71.0446 130.503 70.694 132.787 70.1494C132.841 68.2498 132.835 66.0908 132.812 64.1878Z" fill="#8D977A"/>
<path d="M129.449 45.0193C130.06 44.8975 130.736 45.3002 131.297 45.5687C131.299 46.4462 131.624 48.1024 131.232 48.614C130.802 48.7136 130.857 48.6471 130.368 48.4687C129.502 48.2607 129.144 47.9933 128.638 47.2422C127.791 45.9837 127.846 45.2461 129.449 45.0193Z" fill="#A3C2CC"/>
<path d="M116.968 54.3775C117.326 54.3725 117.651 54.3229 117.922 54.5538C118.128 54.9952 118.166 55.3007 118.653 55.4542C119.206 55.6288 120.459 55.5677 121.048 55.5235C126.359 55.5857 128.412 55.385 133.697 56.3787C133.087 56.8003 131.306 56.8021 130.641 57.2751C131.368 57.4438 132.23 57.1717 132.513 57.697C132.812 58.2545 132.553 60.3918 132.504 61.2004C132.626 62.5042 131.332 62.8269 131.511 63.791C132.092 64.3021 132.118 64.0475 132.812 64.1878C132.835 66.0908 132.841 68.2498 132.787 70.1494C130.503 70.694 128.973 71.0446 126.601 70.7954C126.356 70.7697 126.27 70.959 126.132 71.1396C126.085 71.5104 126.08 71.7358 126.076 72.1061L126.092 72.2176C126.072 72.7431 126.157 72.7526 125.9 73.1115C123.516 73.9678 119.011 71.0098 117.52 69.1139C117.242 68.4819 116.717 66.3068 116.672 66.2447L116.831 65.8137C117.021 65.1927 117.01 62.3145 116.597 61.8866C116.717 61.5512 116.682 61.3991 116.649 61.0534C114.128 60.0925 116.339 58.1064 116.678 56.5656L116.689 56.5153C116.751 55.7805 116.857 55.1052 116.968 54.3775Z" fill="#B5AD89"/>
<path d="M116.689 56.5153C117.133 56.5188 117.787 56.5038 118.211 56.5611C117.755 56.5846 117.247 56.5723 116.845 56.773C116.771 57.2058 116.751 57.0334 116.907 57.4296C117.314 57.5572 118.567 57.1335 118.677 57.5019C118.877 58.1687 118.877 60.5431 118.397 61.0179C118.12 61.7005 118.06 66.2185 118.017 67.2886C118.969 69.1798 120.254 69.7085 122.093 70.3906C123.013 70.7324 125.399 71.0833 125.868 71.3613L126.076 72.1061L126.092 72.2176C126.072 72.7431 126.157 72.7525 125.9 73.1115C123.516 73.9677 119.011 71.0097 117.52 69.1139C117.242 68.4819 116.717 66.3068 116.672 66.2447L116.831 65.8137C117.021 65.1926 117.01 62.3145 116.597 61.8865C116.717 61.5512 116.682 61.3991 116.649 61.0533C114.128 60.0924 116.339 58.1063 116.678 56.5656L116.689 56.5153Z" fill="#D1C8B6"/>
<path d="M116.689 56.5153C117.133 56.5188 117.787 56.5038 118.211 56.5611C117.755 56.5846 117.247 56.5723 116.845 56.773C116.771 57.2058 116.751 57.0334 116.907 57.4296C117.314 57.5572 118.567 57.1335 118.677 57.5019C118.877 58.1687 118.877 60.5431 118.397 61.0179C118.424 60.2894 118.684 58.0266 118.325 57.5833C115.767 57.2241 117.579 60.0079 116.649 61.0533C114.128 60.0924 116.339 58.1063 116.678 56.5656L116.689 56.5153Z" fill="#D4C9A3"/>
<path d="M116.968 54.3775C117.326 54.3725 117.651 54.3229 117.922 54.5538C118.128 54.9952 118.166 55.3007 118.653 55.4542C119.206 55.6288 120.459 55.5677 121.048 55.5235C126.359 55.5857 128.412 55.385 133.697 56.3787C133.087 56.8003 131.306 56.8021 130.641 57.2751C131.368 57.4438 132.23 57.1717 132.513 57.697C132.812 58.2545 132.553 60.3918 132.504 61.2004C132.178 61.1494 132.041 61.1322 131.776 60.9151L131.702 60.6795L131.857 60.5683L132.109 60.6742C132.256 60.3775 132.249 58.2388 132.14 57.8132C131.681 57.4397 130.951 57.646 130.569 58.0463C130.24 58.6604 130.915 60.9408 130.444 62.1099C130.207 59.2894 131.12 57.1216 127.182 57.6936C126.759 57.7552 126.115 57.7645 125.669 57.782L125.205 57.9291C125.159 58.5392 124.814 58.5835 124.327 58.6919C123.767 58.9672 123.46 59.198 122.853 59.3036C122.736 58.7856 122.704 58.73 122.335 58.3474C122.042 58.091 121.936 57.4899 121.822 57.0841L121.776 57.1074C121.686 56.9234 121.632 56.7479 121.474 56.6412C121.039 56.3483 118.658 56.4544 118.211 56.5611C117.787 56.5038 117.133 56.5188 116.689 56.5153C116.751 55.7805 116.857 55.1052 116.968 54.3775Z" fill="#B2B6A7"/>
<path d="M122.335 58.3474C122.524 57.8239 122.404 57.9964 122.814 57.6324C123.247 57.4971 123.329 57.5208 123.77 57.5877C124.514 57.7458 124.917 57.7535 125.669 57.7819L125.205 57.9291C125.159 58.5391 124.814 58.5835 124.327 58.6918C123.767 58.9671 123.46 59.1979 122.853 59.3035C122.736 58.7855 122.704 58.73 122.335 58.3474Z" fill="#554F2F"/>
<path d="M121.823 57.0841C122.433 56.7224 123.106 56.2716 123.714 56.7862C123.806 57.133 123.789 57.2425 123.77 57.5877C123.329 57.5209 123.248 57.4971 122.814 57.6324C122.404 57.9965 122.524 57.8239 122.335 58.3474C122.042 58.091 121.936 57.4899 121.823 57.0841Z" fill="#AFA275"/>
<path d="M121.493 61.0778C122.183 60.8171 122.826 60.9848 123.53 61.1355C123.747 61.8531 124.053 63.856 124.403 64.142C124.755 63.8535 124.766 62.644 124.791 62.1687C125.136 61.8514 126.828 62.171 127.658 62.1614C128.385 62.3111 128.793 62.4814 129.446 62.1282C129.865 63.0311 129.496 63.0918 129.498 64.0879C129.177 64.1649 128.718 64.292 128.405 64.3094L128.224 64.4006C128.215 64.6373 128.207 64.8741 128.201 65.1109C127.974 65.4427 127.753 65.7771 127.534 66.1138L126.912 66.3127C126.339 66.4418 126.183 66.4942 125.851 67.0217C125.812 67.0834 125.774 67.1458 125.738 67.209C125.19 66.852 124.088 66.4695 123.838 66.1006C123.265 65.4205 122.783 65.5711 122.351 64.9994C122.101 64.6692 122.497 64.1413 122.623 63.7129C122.56 63.3479 122.314 63.1788 122.041 62.9306C121.759 63.0528 121.747 63.0671 121.46 62.9987L121.278 62.6554C121.321 62.1311 121.412 61.5989 121.493 61.0778Z" fill="#7B7453"/>
<path d="M126.912 66.3128C126.717 66.3015 126.36 66.3353 126.252 66.1704C125.815 65.4938 125.477 63.7345 126.228 63.1721C126.916 63.1356 126.94 63.5018 127.353 63.914C127.917 64.4793 127.981 64.31 128.201 65.1109C127.974 65.4427 127.753 65.7771 127.534 66.1139L126.912 66.3128Z" fill="#908D71"/>
<path d="M128.405 64.3094C127.977 63.9209 127.894 63.4284 128.324 63.0138C129.164 62.8909 129.295 63.396 129.498 64.088C129.177 64.1649 128.718 64.292 128.405 64.3094Z" fill="#AFA275"/>
<path d="M125.669 57.782C126.115 57.7645 126.759 57.7552 127.182 57.6936C131.12 57.1216 130.207 59.2894 130.444 62.1099C130.198 64.0612 131.145 65.212 131.126 66.3908L130.967 66.4893C130.601 66.3256 130.376 65.91 130.145 65.5673C129.673 65.7011 128.33 65.9952 128.092 66.3525L127.535 66.1139C127.753 65.7771 127.974 65.4427 128.201 65.1109C128.207 64.8741 128.215 64.6373 128.225 64.4006L128.405 64.3094C128.719 64.292 129.177 64.1649 129.498 64.0879C129.496 63.0918 129.865 63.0311 129.446 62.1282C129.367 61.0989 129.411 61.0731 129.114 60.0884C128.447 60.1871 127.743 59.9775 127.068 59.8353C126.396 59.7648 126.01 59.8768 125.85 59.2022L125.649 58.8815C125.313 58.6523 124.753 58.6987 124.328 58.6919C124.814 58.5835 125.16 58.5392 125.206 57.9291L125.669 57.782Z" fill="#666548"/>
<path d="M127.367 58.9926L127.498 58.8525C127.993 58.9943 128.799 59.6694 129.114 60.0884C128.447 60.1871 127.742 59.9775 127.068 59.8353L127.367 58.9926Z" fill="#908D71"/>
<path d="M125.849 59.2022C126.296 58.6858 126.812 58.7544 127.367 58.9926L127.068 59.8353C126.395 59.7648 126.01 59.8768 125.849 59.2022Z" fill="#343527"/>
<path d="M127.068 59.8353C127.743 59.9775 128.447 60.1871 129.114 60.0884C129.411 61.0731 129.367 61.0989 129.446 62.1282C128.793 62.4814 128.385 62.3111 127.659 62.1614C126.853 62.0472 125.565 61.0347 125.976 60.1096C126.282 59.8476 126.658 59.8686 127.068 59.8353Z" fill="#AFA275"/>
<path d="M124.327 58.6919C124.753 58.6987 125.313 58.6523 125.649 58.8815L125.849 59.2022C126.01 59.8768 126.395 59.7648 127.068 59.8354C126.658 59.8687 126.282 59.8477 125.976 60.1096C125.565 61.0347 126.853 62.0473 127.659 62.1614C126.828 62.171 125.136 61.8515 124.791 62.1688C124.797 61.3158 124.908 60.5056 124.472 59.7866C124.012 59.6025 123.984 59.7834 123.354 59.8322C122.946 59.6005 123.082 59.7354 122.853 59.3036C123.46 59.198 123.767 58.9672 124.327 58.6919Z" fill="#908D71"/>
<path d="M122.041 62.9306C122.314 63.1787 122.56 63.3478 122.624 63.7128C122.497 64.1413 122.101 64.6692 122.351 64.9994C122.783 65.5711 123.265 65.4204 123.838 66.1006C123.148 66.0687 121.313 66.3078 120.459 66.3594C121.447 65.8903 121.533 65.2308 121.464 64.1922C121.405 63.5711 121.647 63.3579 122.041 62.9306Z" fill="#908D71"/>
<path d="M126.912 66.3127L127.534 66.1138L128.092 66.3525C127.957 68.1014 127.025 68.3136 125.738 67.209C125.774 67.1458 125.812 67.0834 125.851 67.0217C126.183 66.4942 126.339 66.4417 126.912 66.3127Z" fill="#554F2F"/>
<path d="M120.776 64.1124L121.464 64.1922C121.533 65.2308 121.447 65.8903 120.459 66.3594C120.4 65.7253 120.228 64.7604 120.423 64.1959L120.776 64.1124Z" fill="#7B7453"/>
<path d="M120.775 64.1124C120.91 63.4375 120.975 63.2783 121.278 62.6555L121.46 62.9987C121.747 63.0671 121.759 63.0528 122.041 62.9307C121.647 63.3579 121.405 63.5711 121.464 64.1923L120.775 64.1124Z" fill="#8D977A"/>
<path d="M149.293 77.9111C149.586 77.7075 150.059 77.1778 150.325 76.8997C150.307 76.9955 150.174 77.7435 150.191 77.8114C150.558 79.2944 151.015 80.8606 151.567 82.2829C151.504 82.4722 151.497 82.466 151.504 82.6631C152.257 82.3828 154.669 77.8901 155.847 77.0866C155.652 77.4826 154.299 79.2543 154.329 79.4199C154.929 82.5551 154.971 85.693 155.218 88.8647C155.283 89.6977 155.684 90.7269 155.691 91.6007C155.411 93.8159 154.553 95.4265 155.127 97.7915C155.167 97.9576 155.3 98.3525 155.445 98.4628C156.079 98.399 156.447 98.3243 157.07 98.4918C154.475 98.9252 151.795 99.1593 149.164 99.0086C148.712 98.9356 148.563 98.8748 148.134 98.7116L147.905 98.9387C147.459 98.0322 147.049 95.42 146.636 94.1516C147.543 94.2793 147.315 93.3837 147.536 92.9059L147.613 91.9113C148.121 87.6702 147.488 85.7275 147.699 82.0673C148.069 80.4067 148.428 79.3712 149.293 77.9111Z" fill="#A3A2A3"/>
<path d="M147.613 91.9113L147.905 91.9641C148.503 93.1743 148.441 96.1735 148.613 97.5214C148.65 97.8263 149.018 98.6839 149.164 99.0086C148.712 98.9356 148.563 98.8747 148.134 98.7115L147.905 98.9387C147.459 98.0322 147.049 95.42 146.636 94.1516C147.543 94.2793 147.315 93.3836 147.536 92.9059L147.613 91.9113Z" fill="#8E8F8F"/>
<path d="M146.636 94.1516C147.543 94.2793 147.315 93.3836 147.536 92.9059C147.639 94.5293 148.223 97.5419 148.134 98.7115L147.905 98.9386C147.459 98.0322 147.049 95.4199 146.636 94.1516Z" fill="#2D2F31"/>
<path d="M159.08 58.5738C159.299 57.488 160.56 55.7199 160.669 54.4573C160.694 54.1646 160.769 54.1344 160.952 54.027C161.16 54.2695 161.11 54.1475 161.1 54.5126C161.029 54.6173 160.961 54.7244 160.897 54.8336C160.628 55.2957 159.903 56.9941 160.499 57.2935C161.084 56.4466 161.289 55.1395 161.708 54.6236L161.8 54.7127C161.654 55.3797 161.067 56.5941 160.767 57.2653C160.398 58.8298 159.505 60.1403 158.92 61.5134C158.649 62.1472 161.186 63.9447 161.671 61.7735C161.722 61.5462 162.226 60.8689 162.235 60.5733C162.301 60.1072 162.185 59.4741 162.359 59.0361L162.447 59.1087L162.309 59.1117L162.485 59.2479C162.596 60.5904 162.433 60.9444 161.758 62.0795C160.182 64.7289 159.023 67.5743 157.363 70.1814C157.308 70.2673 157.19 70.5683 157.298 70.6378C157.703 71.5606 157.379 73.2824 158.208 74.0878L158.158 74.0502L158.558 73.9472C158.821 73.3779 158.836 73.138 159.362 72.846C159.324 73.3135 156.325 76.7916 155.847 77.0866C154.669 77.8901 152.257 82.3828 151.504 82.6631C151.497 82.466 151.504 82.4721 151.567 82.2828C151.015 80.8606 150.558 79.2944 150.191 77.8114C150.174 77.7434 150.307 76.9955 150.325 76.8996C150.059 77.1778 149.586 77.7075 149.293 77.9111C149.602 77.2677 149.884 76.8357 150.267 76.2395C150.376 76.1458 150.685 75.6847 150.788 75.5399C150.51 75.1788 150.229 75.1567 150.058 74.8286L150.28 74.545C150.972 74.314 152.52 71.0249 152.933 70.2064C153.409 69.2458 154.836 67.2125 155.129 66.4068C155.72 64.787 158.878 59.9459 159.08 58.5738Z" fill="#ACABAC"/>
<path d="M159.08 58.5738C159.299 57.488 160.56 55.7199 160.669 54.4573C160.694 54.1646 160.769 54.1344 160.952 54.027C161.16 54.2695 161.11 54.1475 161.1 54.5126C161.029 54.6173 160.961 54.7244 160.897 54.8336C160.627 55.2957 159.903 56.9941 160.499 57.2935C161.084 56.4466 161.289 55.1395 161.707 54.6236L161.8 54.7127C161.654 55.3797 161.067 56.5941 160.767 57.2653C160.429 57.5556 160.015 58.5648 159.838 59.0046C159.209 60.5665 158.334 61.9339 157.606 63.4201C156.625 65.4219 155.725 67.3149 154.521 69.2099C154.384 69.4261 153.773 70.5527 153.683 70.6462C153.665 70.6239 153.343 70.3727 153.241 70.2587L153.189 70.1986L152.933 70.2064C153.409 69.2458 154.836 67.2125 155.129 66.4068C155.72 64.787 158.877 59.9459 159.08 58.5738Z" fill="#9B9B9A"/>
<path d="M152.933 70.2063L153.189 70.1985L153.241 70.2587C153.343 70.3727 153.665 70.6239 153.683 70.6461C153.361 71.2351 151.077 75.2416 150.788 75.5399C150.51 75.1788 150.229 75.1567 150.058 74.8286L150.28 74.545C150.972 74.314 152.52 71.0249 152.933 70.2063Z" fill="#626467"/>
<path d="M154.971 72.0474L155.134 72.4182L155.511 72.3191C155.51 72.3307 153.176 76.4321 152.831 77.3682L152.716 77.7858C151.635 76.226 154.18 73.456 154.914 72.1505L154.971 72.0474Z" fill="#8E8F8F"/>
<path d="M117.992 120.072C119.035 119.951 122.27 120.133 123.02 119.821C123.24 118.813 121.971 118.56 121.87 117.19L121.862 117.081L121.74 117.047C121.742 117.277 121.783 117.592 121.659 117.767C121.33 116.941 121.569 115.63 121.447 114.84C121.25 114.202 120.91 113.533 120.719 112.899C120.3 111.476 119.662 109.896 119.484 108.426C119.238 106.392 119.379 104.151 120.244 102.271C120.495 101.725 120.928 101.34 120.847 100.707C120.623 100.404 120.543 100.017 120.606 99.6476C121.56 101.618 122.835 108.742 124.112 109.786C124.488 109.852 124.372 109.834 124.779 109.559C124.78 109.772 124.77 110.257 124.798 110.445C125.136 112.104 124.461 114.676 124.904 115.352C125.111 115.409 125.302 115.462 125.505 115.528C125.565 115.963 125.559 116.307 125.56 116.744L125.678 116.815L126.042 116.666C126.633 117.255 125.698 117.534 126.498 118.211C126.426 118.732 125.954 118.79 125.946 119.298C126.188 119.525 127.284 120.55 127.446 120.55C129.377 120.546 134.786 120.904 136.392 120.818C136.485 120.814 136.579 120.805 136.672 120.793L136.78 120.845L136.815 121H102.485C102.768 120.885 103.209 120.805 103.518 120.738C103.236 120.728 102.954 120.713 102.673 120.692C102.427 120.383 102.506 120.423 102.501 119.94C107.203 120.087 111.914 120.01 116.618 120.069C117.075 120.075 117.535 120.091 117.992 120.072Z" fill="#A8ACAD"/>
<path d="M124.798 110.445C125.136 112.104 124.461 114.676 124.904 115.352C125.111 115.409 125.302 115.462 125.505 115.528C125.565 115.963 125.559 116.307 125.56 116.744L125.678 116.815L126.042 116.666C126.633 117.255 125.698 117.534 126.498 118.211C126.426 118.732 125.954 118.79 125.946 119.298C126.188 119.525 127.284 120.55 127.446 120.55C129.377 120.546 134.786 120.904 136.392 120.818C136.485 120.814 136.579 120.805 136.672 120.793L136.78 120.845L136.815 121H102.485C102.768 120.885 103.209 120.805 103.518 120.738C103.236 120.728 102.954 120.713 102.673 120.692C102.427 120.383 102.506 120.423 102.501 119.94C107.203 120.087 111.914 120.01 116.618 120.069C117.075 120.075 117.535 120.091 117.992 120.072C119.223 120.183 123.85 120.122 124.383 120.251C124.154 119.226 124.707 111.847 124.798 110.445Z" fill="#3F6A83"/>
<path d="M102.501 119.94C107.203 120.087 111.914 120.01 116.618 120.069C117.075 120.075 117.535 120.091 117.992 120.072C119.223 120.183 123.85 120.122 124.383 120.251C124.342 120.406 124.345 120.557 124.202 120.645C123.524 121.064 106.166 120.365 103.518 120.738C103.236 120.728 102.954 120.713 102.673 120.692C102.427 120.383 102.506 120.423 102.501 119.94Z" fill="#76949B"/>
<path d="M124.99 18.7867L124.774 18.4289C124.823 17.8644 124.933 17.6396 125.454 17.3997C129.24 19.0685 133.753 21.0659 137.688 22.299C145.351 24.7005 153.619 26.2675 159.509 32.2322C163.168 35.8119 165.364 38.9622 167.138 43.7959C167.45 44.6451 169.222 49.1796 169.06 49.6905C167.453 50.0918 166.226 44.7565 165.704 43.5537C165.117 42.2166 164.437 40.922 163.669 39.6793C161.804 36.5695 159.4 33.8178 156.567 31.5541C150.662 26.8171 141.555 25.1363 134.523 22.8669C131.506 21.893 127.923 20.1378 124.99 18.7867Z" fill="#050505"/>
<path d="M126.327 45.3436C126.726 46.0729 126.61 50.5351 126.612 51.5792C128.1 51.6129 132.924 51.6877 133.951 52.4456C134.464 53.2912 134.083 54.5951 133.909 55.5494C133.84 55.8114 133.75 56.1176 133.697 56.3787C128.412 55.385 126.359 55.5857 121.048 55.5235C120.459 55.5677 119.206 55.6288 118.653 55.4542C118.166 55.3007 118.128 54.9952 117.922 54.5537C117.651 54.3229 117.326 54.3725 116.968 54.3774C117.061 53.3311 117.009 52.1114 116.991 51.0481C118.815 51.4285 124.398 51.5774 126.261 51.5475C126.336 49.7357 126.157 46.9735 126.327 45.3436Z" fill="#A8ACAD"/>
<path d="M121.048 55.5235C120.602 55.4443 119.762 55.4328 119.213 55.3614L119.124 55.2225C119.685 53.9079 121.898 54.2295 123.119 54.2892C126.62 54.4607 130.268 54.2368 133.746 54.5158C133.938 54.8061 133.889 55.1555 133.909 55.5494C133.84 55.8114 133.75 56.1176 133.697 56.3787C128.412 55.385 126.359 55.5857 121.048 55.5235Z" fill="#ECEDED"/>
<path d="M151.837 63.0862C151.815 61.919 151.86 60.8112 151.902 59.6473C152.015 60.2055 151.925 61.2116 152.136 61.4797L152.656 61.5235C153.546 62.2499 152.192 64.1824 153.697 64.3054C154.626 64.3813 154.975 63.9673 155.867 64.41C156.664 63.3938 157.881 60.1778 159.018 58.655L159.08 58.5739C158.877 59.946 155.72 64.787 155.129 66.4068C154.836 67.2126 153.409 69.2458 152.933 70.2064C152.52 71.0249 150.972 74.314 150.28 74.545C150.276 74.5261 150.274 74.5071 150.27 74.4883C149.862 72.5075 152.654 65.5826 152.603 62.1309C152.237 62.5281 152.148 62.6217 151.837 63.0862Z" fill="#A8ACAD"/>
<path d="M151.837 63.0861C152.148 62.6216 152.237 62.528 152.603 62.1309C152.654 65.5825 149.862 72.5074 150.27 74.4882C150.274 74.507 150.276 74.526 150.28 74.5449L150.058 74.8285C150.229 75.1567 150.51 75.1788 150.788 75.5399C150.685 75.6846 150.376 76.1457 150.267 76.2394L150.171 75.7861L150.001 75.7616C149.284 76.3351 149.302 76.5827 148.483 77.0539C148.652 75.6969 149.302 73.5885 149.677 72.2207C150.471 69.3369 151.412 66.0552 151.837 63.0861Z" fill="#858484"/>
<path d="M117.059 69.7314C116.971 69.0558 116.735 68.9316 116.872 68.4122C117.157 68.4438 117.109 68.9056 117.52 69.1139C119.011 71.0098 123.516 73.9678 125.9 73.1116C126.157 72.7526 126.072 72.7431 126.092 72.2176C126.31 72.8744 126.232 73.4045 126.33 74.0884C125.686 74.163 124.89 74.1048 124.57 74.6718C124.122 74.8113 123.101 73.8489 122.593 73.6933C120.397 73.0209 117.955 72.1169 117.059 69.7314Z" fill="#AFA275"/>
<path d="M102.578 106.617C102.436 104.306 102.549 100.146 102.569 97.7371C102.609 93.0451 102.51 86.9526 103.028 82.3207C103.078 84.1254 103.519 85.5323 103.588 87.2595C103.783 92.1394 103.997 97.9023 103.694 102.744L103.627 102.792C103.568 102.372 103.612 98.0005 103.634 97.3859C103.739 94.4928 103.487 91.6268 103.489 88.8182L103.36 88.8513C103.333 89.1157 103.365 89.3336 103.21 89.4817C103.081 89.1039 103.046 88.8848 102.975 88.4951C102.715 90.1853 102.913 91.5023 102.854 93.1068C102.714 96.9281 103.181 103.034 102.578 106.617Z" fill="#A3C2CC"/>
<path d="M175.268 93.1935C175.5 92.6605 180.009 91.2683 180.628 90.523C180.684 89.4072 180.531 89.045 180.249 88.0138C179.289 84.5008 178.201 80.9768 177.313 77.4495C176.986 76.147 176.993 74.0824 176.635 72.7076C176.522 72.2735 176.125 71.8032 176.082 71.6501C175.799 70.648 175.451 67.2986 175.721 66.4617L175.741 66.5762C175.885 67.4047 176.007 70.3913 176.38 70.7796C176.537 70.6187 176.599 70.5509 176.731 70.3697C176.89 71.4878 176.9 72.6298 177.01 73.759C177.537 79.1719 179.602 84.2965 180.853 89.559C180.925 89.8615 180.928 90.5114 180.934 90.8365C180.323 91.0747 179.689 91.3005 179.115 91.6164C178.411 91.9221 175.847 93.1615 175.268 93.1935Z" fill="#ECEDED"/>
<path d="M125.969 40.0617C126.517 40.3408 126.968 39.8818 127.579 40.1197C126.85 40.3388 126.681 40.0418 126.267 40.3893C126.137 41.0208 126.554 44.5377 126.31 45.2902C125.88 42.991 125.002 41.9935 123.584 40.1341C124.408 40.0078 125.145 39.8782 125.969 40.0617Z" fill="#B2B6A7"/>
<path d="M116.597 61.8865C117.01 62.3145 117.021 65.1926 116.831 65.8137C115.112 64.3081 114.484 63.2067 116.597 61.8865Z" fill="#D4C9A3"/>
<path d="M140.346 120.257C141.401 120.274 142.456 120.284 143.512 120.287L143.447 120.643C142.8 120.913 139.028 120.747 138.043 120.725C138.341 120.53 139.75 120.663 140.399 120.558L140.095 120.465L140.346 120.257Z" fill="#3F6A83"/>
<path d="M116.672 66.2447C116.717 66.3068 117.242 68.4819 117.52 69.1139C117.109 68.9056 117.157 68.4438 116.872 68.4122C116.735 68.9316 116.971 69.0558 117.059 69.7314C116.673 69.1965 116.01 67.6188 116.156 66.933C116.252 66.4859 116.348 66.499 116.672 66.2447Z" fill="#B2B6A7"/>
<path d="M137.027 120.044C137.448 120.068 140.121 120.197 140.346 120.257L140.095 120.465L140.399 120.558C139.75 120.663 138.341 120.53 138.043 120.725C137.765 120.746 137.012 120.79 136.78 120.845L136.672 120.793C136.793 120.427 136.826 120.367 137.027 120.044Z" fill="#669EB8"/>
<path d="M121.726 44.4305C122.348 44.3721 122.532 44.7793 122.754 45.2746C123.407 46.7328 123.933 48.2144 121.681 47.8947C120.784 47.8289 120.377 47.7565 119.498 47.5561C119.372 45.3336 119.641 45.1243 121.726 44.4305Z" fill="#D1C8B6"/>
<path d="M56.6307 30.8075L56.9042 31.2615C57.1454 30.9492 56.8193 29.4489 57.1618 28.8989C57.6414 29.3029 58.1081 29.7347 58.6662 30.0169C60.1886 30.1609 60.9688 29.5272 62.3066 29.3083C63.2389 29.1557 64.3504 29.3884 65.4553 29.1232C67.7747 28.5668 69.9931 25.2034 71.5609 24.4572C72.3351 25.2561 76.5556 28.1303 77.6279 27.9345C78.2477 28.1711 78.8699 28.401 79.4946 28.6241C80.9096 29.054 83.2041 29.8282 84.5844 30.0109C90.509 30.7949 96.776 30.7237 102.415 28.7277C102.683 32.6254 102.569 37.5447 102.635 41.5159C102.849 50.0032 103.02 58.4914 103.148 66.9803C103.176 71.939 102.871 77.4879 103.028 82.3207C102.51 86.9526 102.609 93.0451 102.57 97.7371C102.549 100.146 102.436 104.306 102.578 106.617L102.549 115.566C102.541 116.564 102.43 119.088 102.501 119.94C102.506 120.423 102.428 120.383 102.673 120.692C102.954 120.713 103.236 120.728 103.518 120.738C103.209 120.805 102.768 120.885 102.485 121H79.4256H49.7664C49.1296 120.565 46.0195 120.999 44.9098 120.751L45.1366 120.559C45.2596 119.896 45.2279 119.213 45.0441 118.565C44.8211 109.095 44.3118 100.29 41.835 91.1539C41.3158 88.917 41.178 86.597 40.7423 84.3523C40.4438 82.8142 40.068 81.2442 39.7017 79.7166C37.6703 71.2495 37.3762 62.4627 37.3218 53.7926C37.3061 51.2743 37.4884 48.0206 37.2308 45.5926C37.2523 43.889 36.7647 40.2986 37.5134 38.8076C39.1124 35.6233 42.7207 33.4884 45.6321 31.4906C49.0236 29.1633 52.7663 27.5245 56.6128 25.9785L56.6307 30.8075Z" fill="#DBDCDC"/>
<path d="M79.4945 28.6241C80.9096 29.054 83.2041 29.8282 84.5843 30.0109C90.509 30.7949 96.7759 30.7237 102.415 28.7277C102.683 32.6254 102.569 37.5446 102.635 41.5159C102.849 50.0032 103.02 58.4914 103.148 66.9803C103.176 71.939 102.871 77.4879 103.028 82.3207C102.51 86.9526 102.609 93.0451 102.57 97.7371C102.549 100.146 102.436 104.306 102.578 106.617L102.549 115.566C102.541 116.564 102.43 119.088 102.501 119.94C102.506 120.423 102.427 120.383 102.673 120.692C102.954 120.713 103.236 120.728 103.518 120.738C103.209 120.805 102.768 120.885 102.485 121H79.4255C78.4475 120.338 64.4175 121.319 61.9373 120.745C62.2193 120.709 62.4736 120.716 62.7551 120.712C68.3635 120.597 73.9846 120.725 79.5905 120.656C79.5614 119.922 79.5101 119.189 79.4366 118.458C79.3206 108.464 79.5862 98.338 78.9942 88.3521C78.9665 87.8831 78.8022 87.3254 78.7524 86.8013C78.6315 86.9721 78.924 87.9333 78.6127 88.2973C78.5054 87.0488 78.7661 83.3901 78.7262 81.7156C78.5427 73.9952 78.9229 65.9814 78.6849 58.2857L78.9744 46.9484C79.5391 45.5599 79.2143 31.5456 79.4945 28.6241Z" fill="#619BB8"/>
<path d="M83.3454 52.7001C84.8163 51.1069 87.9731 51.2197 90.1038 51.0936C91.9084 50.9868 95.8102 50.9715 97.4066 51.5043C99.1021 53.344 99.2367 55.8025 99.1969 58.2238C99.1235 62.6863 100.288 67.0145 96.0788 69.9428C95.4972 70.8025 93.8307 71.2779 93.2371 71.8448C92.4138 73.0825 90.231 72.9201 89.219 72.0743C88.3442 71.8883 86.7053 70.4016 85.9817 69.7692C84.4804 68.8838 82.7818 66.1347 82.6315 64.4013C82.3193 60.7988 82.6598 56.2279 83.3454 52.7001Z" fill="#AFA275"/>
<path d="M85.9817 69.7692L86.0999 69.5804C87.1585 69.6923 88.1417 71.8503 89.3618 71.254C89.9554 70.9638 92.0612 72.472 92.7139 71.1917C92.7292 71.1616 93.4271 71.2977 93.4915 71.332C94.0834 71.1336 95.6352 69.8686 96.0788 69.9427C95.4972 70.8025 93.8307 71.2779 93.2371 71.8448C92.4138 73.0825 90.231 72.9201 89.219 72.0743C88.3443 71.8883 86.7053 70.4016 85.9817 69.7692Z" fill="#908D71"/>
<path d="M89.219 72.0743C89.5942 72.0574 90.0058 71.9075 90.3401 71.9022C91.3106 71.8869 92.2657 71.8774 93.237 71.8448C92.4138 73.0824 90.231 72.9201 89.219 72.0743Z" fill="#8D977A"/>
<path d="M90.8133 60.055H91.3271C91.2749 60.4341 91.2218 61.7314 91.2901 62.0884L91.7415 62.3297C92.2062 62.4635 92.0829 62.3629 92.3866 62.7021C92.5454 63.1589 92.4231 63.6122 92.3419 64.0912C92.8511 64.3237 93.3691 64.2958 93.7414 64.6564L93.7999 64.873C93.3888 65.3012 92.7238 65.752 92.5197 66.1742L92.5488 66.3863C93.3774 66.9627 94.2597 65.9932 95.0268 66.489C95.2637 66.835 95.2103 66.6731 95.2155 67.1064C95.1055 67.2863 95.0247 67.4951 94.7799 67.4954C92.7663 67.4992 89.0738 67.7697 87.2087 67.5682C86.9319 66.9983 87.4459 66.5392 87.8914 66.2109C88.2158 65.9665 88.9065 65.226 89.2215 64.9054L89.4716 64.2789C89.5622 64.0339 89.4676 61.6676 89.4729 61.1621C90.4058 60.9262 90.3575 60.9136 90.8133 60.055Z" fill="#D4C9A3"/>
<path d="M90.8135 60.055H91.3272C91.275 60.4341 91.222 61.7314 91.2903 62.0884L91.7416 62.3297C92.2064 62.4635 92.083 62.3629 92.3867 62.7021C92.5455 63.1589 92.4232 63.6122 92.342 64.0912C91.5113 64.4744 91.516 64.6894 91.4707 65.5757C91.1582 65.4452 90.733 65.5481 90.3744 65.5933L89.4923 65.5395C89.448 65.3816 89.2952 65.069 89.2217 64.9054L89.4717 64.2789C89.5623 64.0339 89.4677 61.6676 89.473 61.1621C90.4059 60.9262 90.3576 60.9136 90.8135 60.055Z" fill="#B5AD89"/>
<path d="M89.4717 64.2789C90.1747 64.1508 90.4859 64.352 90.6576 65.0496C90.5463 65.4213 90.6216 65.355 90.3744 65.5934L89.4923 65.5395C89.448 65.3816 89.2952 65.0691 89.2217 64.9054L89.4717 64.2789Z" fill="#D4C9A3"/>
<path d="M91.7414 62.3296C91.5956 62.7627 91.5779 62.9863 91.1767 63.2492C90.7718 63.2447 90.9261 63.3014 90.6026 63.0174C90.4542 62.554 90.4509 62.7344 90.5597 62.309C90.9113 62.0224 90.7734 62.1002 91.2901 62.0883L91.7414 62.3296Z" fill="#D4C9A3"/>
<path d="M90.3742 65.5934C90.7328 65.5481 91.1579 65.4452 91.4705 65.5758C91.4589 66.1341 91.5461 66.1225 91.2845 66.5218C90.7445 66.721 89.9098 66.3706 89.156 66.2867C89.2046 65.8854 89.2355 65.8444 89.4921 65.5395L90.3742 65.5934Z" fill="#AFA275"/>
<path d="M87.8914 66.2109C88.2158 65.9665 88.9065 65.226 89.2215 64.9054C89.295 65.0691 89.4478 65.3816 89.4921 65.5395C89.2356 65.8443 89.2046 65.8853 89.1561 66.2866C88.5787 66.3673 88.4663 66.3401 87.8914 66.2109Z" fill="#B5AD89"/>
<path d="M90.8133 60.055C90.3821 59.8307 89.9676 59.6762 89.8171 59.1635C89.532 58.1925 90.3466 56.2341 91.5567 56.4371C91.6542 56.7235 91.5215 59.6782 91.3271 60.055H90.8133Z" fill="#D4C9A3"/>
<path d="M37.2308 45.5926C37.2523 43.889 36.7647 40.2986 37.5134 38.8076C39.1124 35.6233 42.7207 33.4884 45.6321 31.4906C49.0236 29.1633 52.7663 27.5245 56.6128 25.9785L56.6307 30.8075C56.5957 34.2976 55.5262 57.011 56.2691 58.23C55.8496 58.8695 56.0742 59.1358 56.3504 59.8313C55.8934 59.8957 55.2094 59.9357 54.9207 60.2945C54.8407 60.3958 54.7818 60.5121 54.7474 60.6365C53.8787 60.7684 52.0888 62.5654 51.5599 63.279L51.5033 63.3563C52.5437 64.7847 53.5263 66.2544 54.4485 67.7618C54.8594 67.7009 55.3584 67.6121 55.763 67.57C55.8845 73.3284 55.8227 79.2322 56.3607 84.9468C57.0213 91.964 57.3542 98.9436 58.1913 105.947C58.6779 110.017 58.3717 114.52 58.4955 118.624C58.5084 119.048 58.4992 119.635 58.4659 120.059L58.6124 120.505C59.3249 120.845 61.1398 120.647 61.9373 120.745C64.4176 121.319 78.4475 120.338 79.4256 121H49.7664C49.1296 120.565 46.0195 120.999 44.9098 120.751L45.1366 120.559C45.2596 119.896 45.2279 119.213 45.0441 118.565C44.8211 109.095 44.3118 100.29 41.835 91.1539C41.3158 88.917 41.178 86.597 40.7423 84.3523C40.4438 82.8142 40.068 81.2442 39.7017 79.7166C37.6703 71.2495 37.3762 62.4627 37.3218 53.7926C37.3061 51.2743 37.4884 48.0206 37.2308 45.5926Z" fill="#5994B4"/>
<path d="M50.31 64.84C50.9297 65.3754 52.256 66.51 52.0414 67.3625C51.4559 67.9268 50.5583 67.8219 49.7177 67.8534C49.0678 67.8605 48.4181 67.8806 47.769 67.9139C48.4016 66.5069 49.1719 65.8288 50.31 64.84Z" fill="#050505"/>
<path d="M58.7894 55.9181C59.3955 57.2584 61.0982 59.5146 61.9558 60.8894C63.0938 62.7135 64.4554 65.4973 65.7148 67.1255C64.1307 67.1347 62.4368 67.1649 60.8561 67.1003C59.9698 66.1016 56.7287 61.0307 56.3503 59.8313C56.0741 59.1358 55.8495 58.8695 56.269 58.23C57.259 57.4328 57.8975 56.8056 58.7894 55.9181Z" fill="#2D2F31"/>
<path d="M78.6849 58.2857C78.3648 57.1848 78.6976 55.5355 78.3855 54.3985C78.0206 53.0689 77.3086 51.8538 77.0042 50.5079C76.8621 49.8799 77.2169 49.1993 77.0238 48.6532C76.7962 48.8288 76.6961 48.8845 76.4411 49.0184L76.2458 48.9133C75.9173 47.6588 76.6822 45.6118 76.5476 44.4663C76.244 42.3042 76.4525 40.1114 76.0595 37.9764C75.7327 36.201 75.5314 33.5333 76.8145 32.1136C76.942 32.683 77.1254 33.3165 77.2759 33.8865L77.3767 33.9022L77.6445 32.5939L77.6362 32.6027L77.7499 32.8858L77.9225 32.698C78.1898 32.8483 78.3386 33.5052 78.4662 33.8665C78.0561 35.5566 78.5051 36.6785 78.5571 38.344C78.635 40.8353 78.2937 44.6156 78.9744 46.9484L78.6849 58.2857Z" fill="#ECEDED"/>
<path d="M51.5032 63.3563L51.5598 63.279C52.0887 62.5654 53.8786 60.7684 54.7473 60.6365C56.4795 62.6947 57.3894 65.1389 58.8937 67.2907C57.8534 67.4176 56.8092 67.5107 55.7629 67.57C55.3583 67.6121 54.8593 67.701 54.4484 67.7618C53.5261 66.2544 52.5436 64.7847 51.5032 63.3563Z" fill="#2D2F31"/>
<path d="M79.4366 118.458C79.5101 119.189 79.5614 119.922 79.5905 120.656C73.9845 120.725 68.3635 120.597 62.7551 120.712C62.4736 120.716 62.2193 120.709 61.9372 120.745C61.1398 120.647 59.3249 120.845 58.6123 120.505L58.4658 120.059C59.655 120.018 61.1822 120.136 62.431 120.134L71.213 120.067C73.8268 120.07 76.8288 120.142 79.4124 120.024L79.4366 118.458Z" fill="#7D98A0"/>
<path d="M58.1248 13.1331C58.5616 13.3819 58.6653 13.4447 59.0318 13.7848L59.0725 14.1108C59.2829 14.5145 59.4043 15.8787 59.4696 16.4059C55.0935 18.5552 49.5562 20.4046 44.9474 22.2225C41.7224 23.4946 37.3925 24.0481 34.1056 25.4808C25.9092 28.3137 18.0517 34.9959 15.1733 43.3186C14.5521 45.115 13.6196 47.6998 13.0633 49.515C13.457 49.5983 14.1358 49.7851 14.5012 49.7071C14.9463 49.2087 15.545 46.1127 15.859 45.2262C18.5136 37.7344 24.5057 30.8042 32.0388 27.9711C32.8293 28.3054 33.7491 27.1565 34.5006 27.2273C34.5158 27.6049 33.5131 29.2 33.6657 29.9559C33.9819 31.5216 34.6604 32.7715 35.2724 34.2204C35.6086 35.0481 35.8662 36.0418 36.22 36.883C37.0229 37.2892 37.0813 37.2905 37.9537 37.3148L38.0124 37.4721C37.8182 37.7979 37.3052 38.5161 37.2053 38.7559C37.0063 39.2331 37.0433 40.3786 36.8 40.8533L36.7144 40.5708L36.5421 40.6629C36.4772 40.9137 36.4486 41.2913 36.6007 41.4957C37.5174 42.7279 36.7468 47.6231 37.1361 48.5796C37.3038 47.7342 37.0949 46.6396 37.2308 45.5925C37.4884 48.0206 37.306 51.2742 37.3218 53.7925C37.3761 62.4627 37.6702 71.2495 39.7016 79.7166C40.0679 81.2442 40.4438 82.8142 40.7423 84.3523C41.1779 86.597 41.3157 88.9169 41.8349 91.1539C44.3118 100.29 44.821 109.095 45.044 118.565C45.2279 119.213 45.2596 119.896 45.1365 120.559L44.9098 120.751C46.0195 120.999 49.1295 120.565 49.7663 121H0.0741479H0V120.026V96.094V95.3705C0.305468 94.9641 0.650999 92.0171 0.919086 91.13L0.788692 91.0336C1.96077 87.3754 2.41465 83.3096 3.66187 79.8826C5.77022 74.0895 5.67239 68.6283 7.21309 62.7743C7.50458 61.6668 7.75549 60.7079 7.96096 59.5754C8.32833 57.4999 8.65503 55.4175 8.94088 53.3293C9.14257 51.7517 9.19839 50.0848 9.62215 48.5604C9.81064 47.8823 10.5035 47.6238 11.1059 47.961L11.0557 47.7213C11.2782 47.3172 11.445 47.151 11.7546 46.8069C12.3014 45.5921 12.3856 43.897 12.8217 42.7527C14.1457 39.2794 15.6248 36.4489 17.8779 33.5396C21.4171 28.9695 25.1134 26.3161 30.3325 23.9396C31.5751 23.3126 33.2011 23.0015 34.4246 22.4173C37.6291 20.8869 40.954 20.1842 44.2444 19.0472C49.0135 17.4281 53.6536 15.4511 58.1248 13.1331Z" fill="#CECECF"/>
<path d="M0 95.3704C0.305468 94.9641 0.650999 92.0171 0.919086 91.13C4.87201 92.0799 8.83112 94.3194 12.7949 95.3111C17.3407 96.4486 22.8035 98.4207 27.4007 98.7867C29.4161 99.1463 31.2872 99.1492 33.319 99.2021C33.8316 98.8373 33.6185 98.7328 34.2086 98.6554C34.7201 97.8158 35.2469 94.447 35.5546 93.3251L35.7629 93.353C36.2092 96.75 36.8574 100.366 37.0767 103.745C37.3868 108.523 37.4681 113.678 38.1673 118.424L38.5691 118.295C38.8397 117.842 38.7536 117.635 38.7643 117.062C38.8802 117.715 39.2432 119.617 39.1509 120.24L39.2261 120.623C39.7088 120.915 44.0166 120.74 44.9098 120.751C46.0195 120.999 49.1295 120.565 49.7663 121H0.0741479H0V120.026V96.094V95.3704Z" fill="#D1C8B6"/>
<path d="M0 95.3704C0.305468 94.9641 0.650999 92.0171 0.919086 91.13C4.87201 92.0799 8.83112 94.3194 12.7949 95.3111C17.3407 96.4486 22.8035 98.4207 27.4007 98.7867C29.4161 99.1463 31.2872 99.1492 33.319 99.2021C33.8316 98.8373 33.6185 98.7328 34.2086 98.6554C33.6983 100.615 32.9491 103.304 31.8403 104.999C31.4995 105.52 29.8727 104.991 29.2682 104.959C25.1675 104.738 21.2009 103.831 17.2252 102.859C15.6163 102.466 13.9111 102.11 12.3133 101.648C9.13174 100.443 5.73564 99.4777 2.61229 98.1843C1.67838 97.7975 0.656186 96.7995 0 96.094V95.3704Z" fill="#050505"/>
<path d="M38.7643 117.062C38.8802 117.715 39.2432 119.617 39.1509 120.24L39.2261 120.623C39.7088 120.915 44.0166 120.74 44.9098 120.751C46.0195 120.999 49.1295 120.565 49.7663 121H0.0741479H0V120.026L23.4322 120.043C28.2925 120.071 33.6717 120.304 38.4701 120.185C38.3055 119.489 38.2326 119.149 38.1673 118.424L38.5691 118.295C38.8397 117.842 38.7536 117.635 38.7643 117.062Z" fill="#669EB8"/>
<path d="M38.7644 117.062C38.8803 117.715 39.2433 119.617 39.151 120.24L39.2262 120.623C39.7089 120.915 44.0167 120.74 44.9099 120.751C46.0195 120.999 49.1296 120.565 49.7664 121H0.0742188C0.106429 120.983 0.138857 120.967 0.170849 120.949C1.10466 120.442 7.21724 120.729 8.61863 120.731L29.2508 120.723L34.6068 120.725C35.3491 120.732 37.9943 120.959 38.5039 120.579L38.4702 120.185C38.3056 119.489 38.2326 119.149 38.1674 118.424L38.5692 118.295C38.8398 117.842 38.7536 117.635 38.7644 117.062Z" fill="#0B1B18"/>
<path d="M29.9553 70.6013C30.7362 71.3491 32.9997 73.9126 33.6595 74.7325L33.7824 74.7291C33.49 70.9949 32.0377 67.6558 31.5766 63.9532C31.5382 63.6445 31.3556 63.3622 31.2652 62.987L31.3599 62.8436C31.5398 63.3961 31.7147 63.7844 31.7916 64.3816C32.2487 67.925 34.1107 72.0216 33.9781 75.5515C34.1809 76.123 34.4495 76.8084 34.5652 77.393C34.0144 77.2317 34.1789 76.0491 33.6082 75.5203L33.457 75.601C32.861 76.7445 33.6313 76.3936 33.6031 77.2992C34.989 80.7317 34.7241 81.7124 34.646 85.394C34.6233 86.466 34.8253 88.7686 34.9755 89.866C35.1079 90.4884 35.7432 92.9838 35.7629 93.3531L35.5546 93.3252C35.2469 94.447 34.7201 97.8159 34.2086 98.6554C33.6185 98.7328 33.8315 98.8373 33.3189 99.2022C31.2872 99.1492 29.4161 99.1463 27.4007 98.7867C28.6287 98.626 29.6581 98.9416 30.7772 98.8028C31.4112 97.8841 31.4269 95.0801 31.5261 94.0337C31.6204 93.0392 31.9154 91.2235 32.1431 90.2798C32.641 88.2153 33.7107 87.771 33.7084 85.4304C33.7053 82.1486 31.7451 81.4369 31.0088 78.5959C30.8312 77.9106 30.9468 76.3208 31.1369 75.6017C31.1218 75.4482 31.7111 74.8168 31.6105 74.6933C29.4151 71.9999 26.8653 69.782 25.3387 66.5715C25.1241 66.12 24.6548 65.3711 24.6099 64.8661C25.3198 65.3404 26.4297 68.9161 27.555 69.4654C27.4504 69.4143 29.1765 69.0532 29.2875 69.0187C30.3224 67.7572 27.664 64.0921 27.6535 63.517C28.197 63.7148 28.3499 64.3317 28.6066 64.7979C29.5767 66.5592 29.9646 68.6022 29.9553 70.6013Z" fill="#8E8F8F"/>
<path d="M34.9754 89.866C35.1079 90.4884 35.7431 92.9838 35.7628 93.3531L35.5545 93.3252C35.2468 94.447 34.72 97.8159 34.2085 98.6554C33.6184 98.7328 33.8314 98.8373 33.3188 99.2022C33.6267 98.2955 33.1988 97.5866 33.5098 96.4757C34.0612 94.5062 34.8831 91.9279 34.9754 89.866Z" fill="#626467"/>
<path d="M29.9797 72.3616C30.1284 72.0365 30.367 71.9286 30.6684 71.7425C31.3656 72.5219 33.5349 74.8311 33.9783 75.5515C34.1811 76.123 34.4496 76.8084 34.5653 77.393C34.0146 77.2317 34.1791 76.0491 33.6083 75.5203L33.4572 75.601C32.8612 76.7445 33.6315 76.3936 33.6032 77.2992C33.4891 77.2076 32.7779 76.0779 32.6605 75.8925C31.8479 74.6083 30.9772 73.5011 29.9797 72.3616Z" fill="#333132"/>
<path d="M29.9797 72.3616C29.5195 71.9142 29.0941 71.6033 29.3938 70.9361L29.6961 70.8528C30.1101 70.9465 30.3917 71.3971 30.6683 71.7425C30.3669 71.9286 30.1283 72.0365 29.9797 72.3616Z" fill="#626467"/>
<path d="M58.1249 13.1331C58.5617 13.3819 58.6653 13.4447 59.0319 13.7848L59.0725 14.1108C57.1634 15.78 53.8713 16.1046 51.7621 17.251C48.8995 18.8068 46.2151 19.377 43.1413 20.344C40.9349 21.0381 38.7059 21.9912 36.5082 22.7376C30.0661 24.8855 24.7528 27.1549 20.0986 32.2834C18.3988 34.1565 16.985 35.6877 15.7341 38.0251C14.7838 39.8009 13.8075 41.6761 13.1606 43.6001C12.8033 44.6626 12.6356 46.1049 12.1712 47.0538C11.9788 47.0217 11.9045 46.9324 11.7546 46.8069C12.3014 45.5921 12.3857 43.897 12.8218 42.7527C14.1457 39.2794 15.6249 36.4489 17.8779 33.5396C21.4172 28.9695 25.1135 26.3161 30.3325 23.9396C31.5752 23.3126 33.2012 23.0015 34.4247 22.4173C37.6292 20.8869 40.9541 20.1842 44.2445 19.0472C49.0136 17.4281 53.6536 15.4511 58.1249 13.1331Z" fill="#050505"/>
<path d="M33.6031 77.2992C33.6313 76.3936 32.861 76.7445 33.457 75.601L33.6082 75.5203C34.1789 76.0491 34.0144 77.2317 34.5652 77.393C35.0883 78.9538 35.6487 81.1713 35.6246 82.8415C35.6251 83.6051 35.3461 84.5817 35.4636 85.3236C35.6789 86.5229 35.9672 87.717 36.2568 88.9005C36.5603 90.1406 36.7611 91.4017 37.0125 92.6499C37.593 95.5337 37.4881 98.4638 37.713 101.383C37.9233 104.114 38.3795 106.841 38.4716 109.583C38.5982 112.035 38.5455 114.665 38.7643 117.062C38.7535 117.635 38.8397 117.842 38.5691 118.295L38.1673 118.424C37.468 113.678 37.3867 108.523 37.0766 103.745C36.8573 100.366 36.2092 96.75 35.7629 93.3531C35.7432 92.9838 35.1079 90.4884 34.9755 89.866C34.8253 88.7686 34.6233 86.466 34.646 85.394C34.7241 81.7124 34.989 80.7317 33.6031 77.2992Z" fill="#050505"/>
<path d="M45.044 118.565C45.2278 119.213 45.2595 119.896 45.1365 120.559L44.9097 120.751C44.0165 120.74 39.7087 120.915 39.226 120.623L39.1509 120.24C40.4038 120.052 43.432 120.233 45.0363 120.142C45.0241 119.627 45.0388 119.082 45.044 118.565Z" fill="#669EB8"/>
<path d="M11.7546 46.8069C11.9044 46.9324 11.9788 47.0217 12.1711 47.0537C11.9141 47.5045 11.6622 47.8987 11.1059 47.961L11.0557 47.7212C11.2782 47.3171 11.445 47.151 11.7546 46.8069Z" fill="#2D2F31"/>
<path d="M65.9309 6.91651L67.4734 6.16754C67.6009 6.61639 67.753 7.19533 67.5363 7.64536C67.4554 8.36707 67.2162 10.5708 67.3413 11.1713C70.9719 11.6774 72.9311 12.4279 76.9027 12.7119C76.9087 11.826 76.8816 10.6484 77.035 9.80156C77.0482 10.002 77.024 12.4185 77.0547 12.4699C77.8193 13.7456 78.8095 15.5791 79.3658 17.0474C79.3894 17.0666 79.4132 17.0857 79.4369 17.1049C79.5103 16.9095 79.6178 15.1609 79.7465 14.519C79.7795 15.5479 79.7303 16.4433 79.6768 17.4663C80.0715 18.1973 79.7414 18.6062 79.8511 19.5846C80.9103 19.6521 86.4456 19.8746 87.2766 19.6194L87.284 19.5321C87.3032 19.3168 87.2924 19.2032 87.4057 19.0203L87.469 19.5828C89.4205 19.6118 92.0651 19.6819 93.9826 19.6015C94.1777 19.5269 94.5747 19.4592 94.7942 19.4146L94.8894 19.1473L95.0834 18.6298C95.1648 18.8348 95.4087 19.7574 95.3599 19.669C97.393 19.9062 100.942 18.6796 102.684 18.9232C102.673 20.3002 102.32 25.425 103.118 26.2437C103.134 26.2603 103.151 26.2764 103.168 26.2927C106.806 24.4085 108.414 24.1578 111.123 20.8203C113.754 16.9905 114.193 15.6968 114.798 11.2906L115.03 10.386C114.931 10.0888 114.904 8.98184 114.945 8.64031C115.05 7.76169 115.644 7.46173 116.248 6.98435C116.91 7.31722 122.856 10.1143 123.023 10.8175C123.082 12.2439 123.132 12.4259 124.442 13.1176C129.96 16.0294 135.765 18.1518 141.693 20.0469C146.168 21.4774 151.522 23.464 155.65 25.7035C159.804 27.957 163.864 32.4664 166.322 36.4795C167.027 37.6609 171.306 46.7521 171.214 47.8054C169.881 47.1795 169.173 44.2987 168.641 42.9053C165.128 33.697 158.06 26.6514 148.695 23.5131C147.456 23.0978 146.178 22.7475 144.932 22.3231L134.97 18.9353C132.944 18.2242 131.283 17.2924 129.38 16.5667C126.913 15.6252 125.21 15.2981 122.823 13.9825C122.871 14.5565 122.972 15.1301 123.063 15.6994C123.893 16.5937 124.397 16.8138 125.454 17.3997C124.932 17.6397 124.823 17.8644 124.774 18.4289L124.99 18.7867C124.368 18.5654 123.57 18.3087 122.991 18.0217C122.49 17.898 122.494 17.8166 122.066 17.9432C120.957 19.2941 120.534 21.7729 119.004 23.3191C117.583 22.3974 115.872 21.7463 114.252 21.2724L113.218 21.8656C109.16 25.5614 107.667 26.739 102.415 28.7277C96.7759 30.7237 90.5089 30.7949 84.5843 30.0109C83.204 29.8282 80.9095 29.054 79.4945 28.6241C78.8697 28.401 78.2476 28.171 77.6278 27.9345C76.5555 28.1303 72.335 25.256 71.5608 24.4571C69.993 25.2033 67.7746 28.5668 65.4552 29.1232C64.3503 29.3884 63.2388 29.1557 62.3065 29.3082C60.9687 29.5272 60.1885 30.1609 58.6661 30.0169C58.108 29.7347 57.6413 29.3029 57.1617 28.8989C56.8191 29.4489 57.1453 30.9492 56.9041 31.2615L56.6306 30.8075L56.6127 25.9785C52.7662 27.5244 49.0235 29.1633 45.632 31.4906C42.7206 33.4884 39.1123 35.6233 37.5133 38.8076C36.7646 40.2986 37.2522 43.889 37.2307 45.5926C37.0948 46.6396 37.3038 47.7342 37.1361 48.5796C36.7467 47.6231 37.5174 42.7279 36.6007 41.4957C36.4486 41.2913 36.4772 40.9137 36.5421 40.6629L36.7144 40.5708L36.7999 40.8533C37.0432 40.3786 37.0062 39.2331 37.2052 38.7559C37.3052 38.5161 37.8181 37.7979 38.0124 37.4721L37.9537 37.3148C37.0813 37.2905 37.0229 37.2892 36.22 36.883C35.8662 36.0418 35.6086 35.0481 35.2724 34.2204C34.6603 32.7715 33.9818 31.5216 33.6656 29.9559C33.5131 29.2 34.5158 27.6049 34.5006 27.2273C33.749 27.1565 32.8292 28.3054 32.0387 27.9711C24.5056 30.8042 18.5136 37.7344 15.859 45.2262C15.5449 46.1127 14.9463 49.2087 14.5012 49.7071C14.1358 49.7851 13.457 49.5983 13.0632 49.515C13.6195 47.6998 14.5521 45.1151 15.1733 43.3186C18.0516 34.996 25.9092 28.3137 34.1055 25.4808C37.3925 24.0481 41.7224 23.4946 44.9473 22.2225C49.5562 20.4046 55.0935 18.5552 59.4696 16.4059C59.4042 15.8787 59.2829 14.5145 59.0724 14.1108L59.0318 13.7848C58.6652 13.4447 58.5616 13.3819 58.1247 13.1331L58.9026 12.6049C59.298 11.7727 59.3087 11.4539 59.3213 10.5577C61.3428 9.04005 63.5679 7.81432 65.9309 6.91651Z" fill="#171718"/>
<path d="M32.0388 27.9711C36.7256 25.9578 41.4698 24.8514 46.3022 23.3393C49.0781 22.4708 51.8953 21.0994 54.6376 20.0344C55.7244 19.6123 59.3471 18.3317 60.1498 17.8221C60.8668 19.3785 62.1207 21.9188 63.3462 23.1457C65.1653 22.547 66.7382 21.7558 68.5879 21.2454C69.4838 21.767 70.501 23.1395 71.3404 23.8857C73.2472 25.5807 75.3399 26.8347 77.6279 27.9344C76.5556 28.1302 72.3351 25.256 71.5609 24.4571C69.9931 25.2033 67.7747 28.5667 65.4553 29.1232C64.3504 29.3883 63.2389 29.1557 62.3065 29.3082C60.9688 29.5272 60.1886 30.1609 58.6661 30.0168C58.1081 29.7347 57.6414 29.3029 57.1618 28.8989C56.8192 29.4488 57.1454 30.9492 56.9042 31.2615L56.6307 30.8075L56.6128 25.9785C52.7663 27.5244 49.0236 29.1632 45.6321 31.4906C42.7207 33.4884 39.1124 35.6233 37.5134 38.8075C36.7647 40.2985 37.2523 43.889 37.2308 45.5925C37.0949 46.6396 37.3039 47.7341 37.1362 48.5796C36.7468 47.6231 37.5175 42.7279 36.6008 41.4957C36.4487 41.2912 36.4773 40.9137 36.5422 40.6628L36.7145 40.5708L36.8 40.8533C37.0433 40.3785 37.0063 39.2331 37.2053 38.7559C37.3053 38.516 37.8182 37.7978 38.0125 37.4721L37.9538 37.3148C37.0814 37.2904 37.023 37.2891 36.2201 36.883C35.8663 36.0418 35.6087 35.048 35.2725 34.2204C34.6604 32.7715 33.9819 31.5216 33.6657 29.9559C33.5132 29.2 34.5159 27.6049 34.5006 27.2272C33.7491 27.1565 32.8293 28.3054 32.0388 27.9711Z" fill="#ECEDED"/>
<path d="M95.0833 18.6298C95.1648 18.8348 95.4087 19.7574 95.3599 19.669C97.393 19.9062 100.942 18.6796 102.684 18.9232C102.673 20.3002 102.32 25.425 103.118 26.2437C103.134 26.2603 103.151 26.2764 103.168 26.2927C100.527 28.2435 97.1062 28.4466 93.9234 28.3454L92.086 28.3764C90.5633 28.2702 89.0588 28.4764 87.4277 28.3384C87.5244 25.5671 87.4605 22.3855 87.469 19.5828C89.4205 19.6118 92.0651 19.6819 93.9825 19.6015C94.1776 19.5269 94.5747 19.4592 94.7942 19.4146L94.8893 19.1473L95.0833 18.6298Z" fill="#A8ACAD"/>
<path d="M95.0835 18.6298C95.1649 18.8348 95.4088 19.7574 95.36 19.669C97.3931 19.9062 100.942 18.6796 102.684 18.9232C102.674 20.3002 102.32 25.425 103.118 26.2437C103.134 26.2603 103.151 26.2764 103.168 26.2927C100.527 28.2435 97.1063 28.4466 93.9236 28.3454C94.2206 28.2868 94.8618 28.2419 95.1888 28.2096C94.9498 25.7383 95.3321 22.2126 95.047 19.8381C94.7831 19.5954 94.3714 19.6288 93.9827 19.6015C94.1778 19.5269 94.5748 19.4592 94.7943 19.4146L94.8895 19.1473L95.0835 18.6298Z" fill="#3F6A83"/>
<path d="M77.0351 9.80151C77.0484 10.0019 77.0241 12.4184 77.0549 12.4698C77.8194 13.7455 78.8096 15.5791 79.3659 17.0474C79.3896 17.0665 79.4133 17.0857 79.4371 17.1048C79.5104 16.9095 79.618 15.1609 79.7467 14.5189C79.7796 15.5479 79.7305 16.4432 79.6769 17.4663C79.5536 20.0968 79.6624 22.8296 79.4186 25.4458C79.3821 25.8375 79.1882 26.0931 78.9372 26.3868C77.9753 25.7456 76.7586 25.1631 75.675 24.5702C72.0328 22.5777 69.215 19.0011 67.8709 15.1011C67.591 14.2892 67.1111 11.9193 67.3414 11.1713C70.972 11.6774 72.9312 12.4279 76.9028 12.7118C76.9088 11.8259 76.8818 10.6484 77.0351 9.80151Z" fill="#8E8F8F"/>
<path d="M79.677 17.4663C80.0716 18.1973 79.7416 18.6062 79.8513 19.5846C80.9105 19.6521 86.4458 19.8746 87.2768 19.6194L87.2841 19.5321C87.3034 19.3168 87.2925 19.2032 87.4058 19.0203L87.4692 19.5827C87.4607 22.3855 87.5246 25.567 87.4279 28.3383C89.059 28.4764 90.5635 28.2702 92.0862 28.3764C91.6847 28.4413 90.9281 28.4532 90.5167 28.4669C87.4197 28.5698 81.3441 28.6566 78.9373 26.3869C79.1882 26.0931 79.3821 25.8375 79.4187 25.4458C79.6624 22.8297 79.5536 20.0969 79.677 17.4663Z" fill="#3F6A83"/>
<path d="M115.03 10.3859C115.152 11.17 115.304 11.7099 115.409 12.5329L115.46 12.5443C116.242 12.7227 116.863 13.8914 117.263 14.5632C117.804 15.4705 118.258 18.3727 117.184 19.0827C117.094 19.1416 116.354 19.1923 116.185 19.2435C115.3 19.824 113.433 19.5157 112.669 18.7777C112.275 19.4874 111.846 20.4987 111.123 20.8203C113.753 16.9904 114.193 15.6968 114.797 11.2906L115.03 10.3859Z" fill="#2D2F31"/>
<path d="M113.218 21.8656C113.17 21.6711 113.174 21.6842 113.213 21.4865C113.905 21.098 115.348 20.3491 115.973 21.1548L115.891 21.5325C117.072 22.0479 116.671 22.1071 117.987 21.9113C118.348 22.1093 118.272 22.1443 118.484 22.6035C118.649 22.5469 118.62 22.5463 118.753 22.4214L118.794 22.3822C118.88 22.3868 119.341 22.4113 119.4 22.3758C121.099 21.3631 119.316 20.533 119.941 19.1599C120.486 18.7709 120.41 19.0958 120.914 18.9583C121.707 18.7417 121.255 17.4901 122.188 17.3818C122.598 17.6053 122.664 17.6861 122.991 18.0217C122.49 17.898 122.494 17.8166 122.066 17.9432C120.958 19.2941 120.535 21.7729 119.004 23.3191C117.583 22.3974 115.872 21.7463 114.252 21.2724L113.218 21.8656Z" fill="#2D2F31"/>
<path d="M65.9309 6.91651L67.4734 6.16754C67.6009 6.61639 67.753 7.19533 67.5363 7.64536L67.4828 7.37345C66.9817 6.97529 66.473 7.5015 65.9309 6.91651Z" fill="#0B1B18"/>
<path d="M0 0H184.809V1.20022L94.182 1.14072L34.9865 1.16531L0 1.21848V0Z" fill="#A8ACAD"/>
<path d="M175.268 93.1935C175.847 93.1615 178.411 91.9221 179.115 91.6164C178.154 92.9722 177.935 92.9567 178.025 94.5431C179.073 96.0746 180.377 96.5044 179.217 98.3588C178.051 98.9488 176.18 99.4026 174.883 99.8452C173.337 100.373 171.699 101.129 170.166 101.599C168.748 102.033 166.969 102.376 165.504 102.745C161.436 103.769 157.689 104.756 153.457 104.879C152.407 104.909 151.165 105.062 150.111 104.978C149.16 102.658 148.581 101.383 147.905 98.9387L148.134 98.7116C148.563 98.8747 148.712 98.9356 149.164 99.0086C151.795 99.1593 154.475 98.9252 157.07 98.4918C162.686 97.5735 168.712 95.4358 174.129 93.6485C174.507 93.5237 174.903 93.354 175.268 93.1935Z" fill="#0F0F0F"/>
<path d="M114.798 11.2906C114.193 15.6968 113.754 16.9904 111.123 20.8203C108.414 24.1578 106.806 24.4084 103.168 26.2927C103.151 26.2764 103.134 26.2603 103.118 26.2436C102.32 25.425 102.673 20.3002 102.684 18.9231L102.696 17.8415C102.716 15.7741 102.5 13.7073 102.584 11.6471C102.654 12.1229 102.628 12.534 102.908 12.8464C103.515 13.0887 104.793 13.2007 105.258 12.6482C105.813 12.823 113.77 11.5059 114.798 11.2906Z" fill="#8E8F8F"/>
<path d="M79.8976 4.60005C82.4292 4.60644 84.9361 4.46524 87.4275 4.47551L87.4316 13.7994C87.4394 15.3939 87.5134 17.3752 87.4611 18.9407L87.4056 19.0203C87.2923 19.2032 87.3032 19.3167 87.2839 19.532L87.2766 19.6193C86.4456 19.8746 80.9103 19.6521 79.8511 19.5846C79.7414 18.6062 80.0714 18.1972 79.6768 17.4663C79.7303 16.4432 79.7794 15.5479 79.7465 14.5189C79.7752 11.2764 79.9162 7.79898 79.8976 4.60005Z" fill="#4A7C9A"/>
<path d="M95.0982 4.41455C97.4708 4.50893 100.045 4.47828 102.432 4.49395L102.584 11.6471C102.5 13.7072 102.716 15.7741 102.697 17.8415L102.684 18.9231C100.942 18.6796 97.3932 19.9061 95.3601 19.669C95.4089 19.7574 95.165 18.8347 95.0836 18.6297C94.7878 17.4669 95.0141 6.01098 95.0982 4.41455Z" fill="#487A96"/>
<path d="M97.1451 18.667L97.123 18.5339C99.2178 18.1603 100.522 17.9066 102.696 17.8415L102.684 18.9232C100.942 18.6796 97.393 19.9062 95.3599 19.669L95.4162 19.5423C96.0023 19.6193 97.1809 19.2948 98.1322 19.3655C98.6804 18.9513 99.3021 18.8423 99.8926 18.3019C99.5787 18.1293 97.559 18.6767 97.0608 18.7935L97.1451 18.667Z" fill="#29536D"/>
<path d="M148.482 77.054C149.301 76.5827 149.284 76.3352 150.001 75.7616L150.171 75.7862L150.267 76.2395C149.884 76.8357 149.602 77.2677 149.293 77.9111C148.428 79.3712 148.069 80.4066 147.699 82.0673C147.488 85.7274 148.121 87.6702 147.613 91.9113L147.536 92.9059C147.315 93.3836 147.543 94.2793 146.636 94.1516C146.47 93.7128 146.542 93.7072 146.227 93.4467C145.563 94.2708 144.882 116.182 144.487 119.186L144.503 119.947C144.739 120.165 144.756 120.152 145.156 120.157C148.761 120.217 152.4 120.1 156 120.087L175.895 120.038C178.779 120.033 181.954 119.955 184.809 120V121H184.591H136.815L136.78 120.845C137.012 120.79 137.765 120.746 138.043 120.725C139.028 120.747 142.8 120.913 143.446 120.643L143.511 120.287C143.419 119.483 143.604 116.415 143.628 115.414C143.669 113.839 143.625 111.601 143.756 110.081C143.938 107.99 144.269 105.898 144.426 103.75C144.746 99.3645 145.228 94.9457 145.691 90.5702C145.837 89.2045 146.256 87.6275 146.432 86.2364C146.64 84.5961 146.56 83.0404 146.926 81.4221C147.314 80.0639 148.017 78.4541 148.482 77.054Z" fill="#030303"/>
<path d="M144.487 119.186L144.503 119.947C144.739 120.165 144.756 120.152 145.156 120.157C148.761 120.217 152.4 120.1 156 120.087L175.895 120.038C178.779 120.033 181.954 119.955 184.809 120V121H184.591C183.965 120.611 172.144 120.749 170.289 120.749L144.211 120.753C144.248 120.221 144.374 119.707 144.487 119.186Z" fill="#778E90"/>
<path d="M148.482 77.054C149.301 76.5827 149.284 76.3352 150.001 75.7616L150.171 75.7862L150.267 76.2395C149.884 76.8357 149.601 77.2677 149.293 77.9111C148.428 79.3712 148.069 80.4066 147.699 82.0673C147.613 80.5874 148.152 80.2216 148.18 78.8241C148.186 78.5595 148.108 78.8675 148.188 78.613C147.965 79.3751 147.497 80.926 146.926 81.4221C147.314 80.0639 148.017 78.4541 148.482 77.054Z" fill="#2D2F31"/>
<path d="M104.798 4.9296C110.414 4.76285 111.401 4.33414 116.248 6.98433C115.644 7.46171 115.05 7.76167 114.945 8.64029C114.904 8.98182 114.931 10.0888 115.03 10.3859L114.798 11.2906C113.769 11.5059 105.813 12.823 105.258 12.6482C105.49 10.3872 104.865 7.31595 104.798 4.9296Z" fill="#050505"/>
<path d="M67.4736 6.16752C71.2533 4.19355 73.0313 4.75653 77.2542 5.0142C77.2054 6.32046 77.0135 8.61142 77.0352 9.80154C76.8818 10.6484 76.9088 11.826 76.9028 12.7119C72.9312 12.4279 70.972 11.6774 67.3414 11.1713C67.2163 10.5708 67.4556 8.36705 67.5364 7.64534C67.7531 7.19531 67.6011 6.61637 67.4736 6.16752Z" fill="#050505"/>
<path d="M180.934 90.8365C181.153 91.2153 182.188 95.2934 182.384 96.0102C181.488 96.8878 180.386 97.8576 179.217 98.3588C180.377 96.5043 179.073 96.0746 178.025 94.5431C177.935 92.9567 178.154 92.9722 179.115 91.6164C179.689 91.3005 180.323 91.0747 180.934 90.8365Z" fill="#2D2F31"/>
<path d="M87.4612 18.9407C89.0625 19.338 92.9945 19.0014 94.8894 19.1473L94.7943 19.4146C94.5748 19.4591 94.1777 19.5268 93.9827 19.6015C92.0652 19.6819 89.4206 19.6118 87.4691 19.5827L87.4058 19.0203L87.4612 18.9407Z" fill="#626467"/>
</g>
<defs>
<clipPath id="clip0_9_360">
<rect width="184.809" height="121" fill="white"/>
</clipPath>
</defs>
</svg>
