<svg width="185" height="119" viewBox="0 0 185 119" fill="none" xmlns="http://www.w3.org/2000/svg">
<g clip-path="url(#clip0_9_461)">
<path d="M0 0H184.543V119H141.451H137.575H133.08H118.168H94.6146H53.7256H43.1585H41.0491H0V0Z" fill="#D3C7B3"/>
<path d="M115.557 21.0474C119.796 23.1875 124.117 25.5054 128.398 27.5225C134.525 30.3184 139.933 32.1844 144.128 37.8294C147.618 42.5271 147.762 45.5682 148.225 51.0943C148.81 58.0875 148.025 63.4621 146.332 70.211C145.038 75.3616 143.878 81.0013 143.062 86.2703C142.834 87.9978 142.456 89.8675 142.355 91.6038C142.253 96.3293 141.686 101.139 141.404 105.858C141.375 106.345 141.31 106.879 141.31 107.363C141.158 108.156 141.127 109.199 141.079 110.026C141.07 111.169 140.919 111.638 141.583 112.553C141.516 114.055 141.3 117.658 141.451 119H137.575H133.08H118.168H94.6147H53.7256H43.1586H41.0491C41.3643 118.795 41.528 119.049 41.9693 118.725C42.0164 117.928 41.8267 116.214 41.7473 115.329C41.5623 113.236 41.3347 111.147 41.0648 109.062C40.8117 107.139 40.4384 104.838 40.4378 102.921C40.2978 102.21 40.1393 100.467 40.039 99.642C39.6529 96.4669 39.2847 92.8234 39.2402 89.626C39.1468 89.4621 39.1704 89.4296 39.1887 89.2412C39.5446 89.0771 39.6328 89.0378 40.024 88.986L40.1113 88.975C40.1981 88.8285 40.2055 88.8645 40.3986 88.7835C39.4399 82.2671 37.8539 75.8325 36.6103 69.3724C36.2061 67.2731 35.3056 63.9512 35.0925 61.9895C34.5135 56.6585 34.6641 48.4376 36.372 43.3133C37.0712 41.27 38.0793 39.3459 39.361 37.6078C42.9495 32.7588 47.0373 31.0654 52.1863 28.6358L60.3539 24.7695C62.482 23.7526 64.9602 22.2656 67.0511 21.0871C68.8322 22.7551 71.4256 25.2713 73.4034 26.6359C78.7716 30.3399 86.2445 32.2091 92.7431 32.0901C94.8915 32.0508 96.2144 31.7449 98.205 31.4396C105.961 30.2503 110.355 26.4353 115.557 21.0474Z" fill="#C11816"/>
<path d="M41.6426 102.89C42.7176 105.285 43.1452 116.144 43.1585 119H41.049C41.3642 118.795 41.5279 119.049 41.9692 118.725C42.0164 117.929 41.8266 116.214 41.7472 115.329C41.5622 113.236 41.3347 111.147 41.0647 109.062C40.8116 107.139 40.4383 104.838 40.4377 102.921C40.5542 103.197 40.5644 103.299 40.619 103.597L40.7736 103.011L40.9077 102.96C41.0689 102.993 41.2393 103.056 41.3939 102.978L41.5252 103.082L41.6426 102.89Z" fill="#6D0D07"/>
<path d="M39.2401 89.626C39.1468 89.4621 39.1704 89.4296 39.1887 89.2412C39.5446 89.0771 39.6328 89.0378 40.024 88.986L40.1113 88.975C40.1981 88.8285 40.2055 88.8644 40.3985 88.7834C40.8585 91.9102 40.9104 95.258 41.1896 98.4113C41.3028 99.689 41.3767 101.666 41.6427 102.89L41.5253 103.082L41.394 102.978C41.2393 103.055 41.069 102.993 40.9078 102.96L40.7737 103.011L40.6191 103.597C40.5645 103.299 40.5543 103.197 40.4378 102.921C40.2978 102.21 40.1393 100.467 40.039 99.642C39.6529 96.4668 39.2846 92.8234 39.2401 89.626Z" fill="#0F0C09"/>
<path d="M53.7256 119C55.0728 118.477 55.6357 118.953 56.487 117.095C56.597 116.855 56.888 115.999 57.0739 115.925L57.0563 115.98C56.9975 116.171 56.9807 116.199 56.9923 116.405C58.5329 118.017 59.7036 117.361 61.1429 118.564C71.7944 119.108 82.8354 118.712 93.5195 118.809C93.9185 118.813 94.2781 118.787 94.6146 119H53.7256Z" fill="#851E13"/>
<path d="M118.168 119C118.866 118.56 124.821 118.861 125.765 118.577L125.719 118.551C125.602 118.485 125.54 118.464 125.467 118.352C125.797 117.976 126.64 117.919 126.945 117.719C127.875 117.112 128.264 116.198 129.494 116.107C130.059 116.348 130.206 116.669 130.592 116.582C130.963 115.536 129.657 113.972 129.982 113.482C130.7 115.513 131.05 116.729 131.638 118.826C132.168 118.819 132.633 118.747 133.08 119H118.168Z" fill="#851E13"/>
<path d="M141.079 110.026C141.07 111.169 140.919 111.639 141.583 112.553C141.516 114.055 141.3 117.658 141.451 119H137.575C137.902 118.765 139.184 118.747 139.646 118.715C140.833 117.021 140.41 116.223 140.591 114.246C140.713 112.904 140.814 111.341 141.079 110.026Z" fill="#851E13"/>
<path d="M121.996 51.5706C121.866 49.9062 121.902 48.2402 121.768 46.5951C121.756 46.4468 121.222 45.7854 121.103 45.6072C121.734 45.3192 124.808 45.7018 125.677 45.7861C127.71 45.9434 129.622 46.0191 131.644 46.1343C131.599 49.089 131.53 51.953 131.591 54.9078C131.763 57.2889 132.233 60.057 131.969 62.391C131.925 62.7919 131.261 63.8484 131.195 64.2523C130.961 65.6727 131.122 65.9302 130.657 67.3354C130.849 67.5572 131.081 67.7846 131.182 68.0512C130.886 68.1248 130.623 68.1214 130.461 68.4127L130.418 68.4066C130.227 68.2554 130.189 68.2375 129.968 68.1322L129.732 68.0256C129.032 67.3019 130.19 66.8585 130.586 66.4343C130.832 65.7531 130.906 64.1239 130.643 63.4451C130.57 63.5712 130.566 63.5642 130.484 63.6588C128.878 65.4884 128.313 67.2109 125.66 67.7306C125.128 67.8349 123.928 68.1797 123.421 67.8792C123.16 65.9196 123.36 64.3516 123.278 62.4547C123.15 59.4829 123.178 56.5126 123.015 53.5619C123.025 53.3097 123.029 53.0575 123.028 52.8052C123.016 52.1591 122.719 51.553 121.996 51.5706Z" fill="#0F0C09"/>
<path d="M121.996 51.5706C121.866 49.9062 121.902 48.2402 121.768 46.5951C121.756 46.4468 121.222 45.7854 121.103 45.6072C121.734 45.3192 124.808 45.7018 125.677 45.7861C127.71 45.9434 129.622 46.0191 131.644 46.1343C131.599 49.089 131.53 51.953 131.591 54.9078C131.592 56.0436 131.665 58.1405 131.285 59.1517C131.132 59.2645 130.978 59.3761 130.823 59.4864C130.521 55.4301 127.364 52.3434 123.295 52.1493L123.326 53.4621L123.015 53.5619C123.025 53.3097 123.029 53.0575 123.028 52.8052C123.016 52.1591 122.719 51.553 121.996 51.5706Z" fill="#AA7745"/>
<path d="M123.327 53.462C123.442 55.228 123.403 66.9928 123.764 67.5273C124.235 67.828 124.714 67.829 125.239 67.6718C129.224 66.4794 130.96 63.4 130.823 59.4863C130.978 59.376 131.132 59.2644 131.285 59.1516C131.665 58.1405 131.593 56.0435 131.591 54.9077C131.763 57.2889 132.233 60.0569 131.969 62.391C131.925 62.7918 131.261 63.8484 131.195 64.2522C130.962 65.6727 131.122 65.9302 130.657 67.3353C130.849 67.5571 131.081 67.7846 131.182 68.0512C130.886 68.1247 130.623 68.1213 130.461 68.4127L130.418 68.4065C130.227 68.2553 130.189 68.2374 129.968 68.1322L129.732 68.0256C129.033 67.3018 130.19 66.8585 130.586 66.4342C130.833 65.7531 130.906 64.1238 130.643 63.445C130.57 63.5711 130.567 63.5641 130.484 63.6587C128.878 65.4884 128.313 67.2108 125.66 67.7305C125.128 67.8349 123.929 68.1797 123.421 67.8792C123.16 65.9195 123.36 64.3516 123.278 62.4547C123.15 59.4828 123.178 56.5126 123.015 53.5619L123.327 53.462Z" fill="#94443B"/>
<path d="M129.732 68.0256C129.755 67.5365 129.727 67.5575 129.984 67.2002C130.408 67.1173 130.23 67.0941 130.657 67.3353C130.849 67.5572 131.081 67.7846 131.182 68.0512C130.886 68.1248 130.623 68.1214 130.461 68.4127L130.418 68.4066C130.227 68.2554 130.189 68.2375 129.968 68.1322L129.732 68.0256Z" fill="#C6442D"/>
<path d="M115.171 46.231L114.821 46.1261C114.511 45.8179 114.481 45.7547 114.291 45.363L114.37 45.1854C115.424 45.1026 117.036 45.4159 118.003 45.3704C119.243 45.3122 124.898 45.1267 125.677 45.786C124.808 45.7016 121.734 45.3191 121.103 45.607C121.222 45.7853 121.757 46.4466 121.768 46.5949C121.902 48.24 121.866 49.906 121.996 51.5705C122.021 52.0852 121.966 54.1303 121.703 54.4556L121.754 54.2882C121.293 53.5186 122.061 46.7663 121.17 46.1139C120.375 47.1264 121.006 58.2623 120.791 60.4246C120.714 61.1978 120.438 67.5063 120.603 68.1115C120.827 68.2495 121.258 68.4665 121.36 68.6785C120.484 68.7351 117.015 66.3716 117.632 65.0775L117.603 64.9874C114.311 63.1525 114.977 49.967 115.171 46.231Z" fill="#EBAC4E"/>
<path d="M115.171 46.2311C115.809 46.0716 116.726 45.8993 117.374 46.1122C117.257 48.6115 117.467 52.3771 117.502 55.0266C117.54 57.9725 117.354 62.1991 117.603 64.9875C114.311 63.1526 114.977 49.9671 115.171 46.2311Z" fill="#4B1914"/>
<path d="M115.171 46.231L114.821 46.1261C114.511 45.8179 114.481 45.7547 114.291 45.363L114.37 45.1854C115.424 45.1026 117.036 45.4159 118.003 45.3704C119.243 45.3122 124.898 45.1267 125.677 45.786C124.808 45.7016 121.734 45.3191 121.103 45.607C121.222 45.7853 121.757 46.4466 121.768 46.5949C121.902 48.24 121.866 49.906 121.996 51.5705C122.021 52.0852 121.966 54.1303 121.703 54.4556L121.754 54.2882C121.293 53.5186 122.061 46.7663 121.17 46.1139C120.375 47.1264 121.006 58.2623 120.791 60.4246C120.714 61.1978 120.438 67.5063 120.603 68.1115C120.827 68.2495 121.258 68.4665 121.36 68.6785C120.484 68.7351 117.015 66.3716 117.632 65.0775C118.105 66.7274 118.711 67.2414 120.239 67.9173C120.463 63.1191 120.131 58.3292 119.956 53.539C119.859 50.8437 119.941 48.1623 120.024 45.4682C119.222 45.4908 118.347 45.4392 117.604 45.66C117.474 45.8518 117.459 45.8948 117.374 46.1121C116.726 45.8992 115.809 46.0715 115.171 46.231Z" fill="#B15F2C"/>
<path d="M58.077 53.555C58.7196 52.6985 60.4731 51.4718 61.4172 50.9446C63.1824 53.4446 66.431 58.667 67.5484 61.3976C66.9398 61.3481 63.4491 61.3188 63.2398 61.2218L63.0696 60.9794C62.7518 61.0951 62.4668 61.2342 62.1366 61.2166C61.1201 61.5336 59.3677 61.3441 58.2919 61.6736C58.1924 61.7041 58.0496 61.7143 57.944 61.7244C56.969 62.0417 56.5371 61.8913 55.5315 61.7181C53.5076 62.2568 52.367 61.8883 50.6482 60.9649C51.9951 60.6014 53.0916 59.852 53.8861 58.6977C53.9024 58.5178 54.2844 58.0169 54.4055 57.8424C55.2013 56.6838 56.5 55.4489 57.5252 54.4553C57.6566 54.189 57.9096 53.8173 58.077 53.555Z" fill="#4B1914"/>
<path d="M54.4055 57.8424C55.2013 56.6838 56.5 55.4489 57.5252 54.4553C58.0285 55.4654 61.3188 60.3501 62.1366 61.2166C61.1201 61.5336 59.3677 61.3441 58.2919 61.6736C58.1924 61.7041 58.0496 61.7143 57.944 61.7244C56.969 62.0417 56.5371 61.8913 55.5315 61.7182C53.5076 62.2568 52.367 61.8883 50.6482 60.9649C51.9951 60.6014 53.0916 59.852 53.8861 58.6977C53.9024 58.5178 54.2844 58.017 54.4055 57.8424Z" fill="#4B1914"/>
<path d="M53.8861 58.6978C54.465 59.503 55.547 60.7224 55.5323 61.6323L55.5315 61.7182C53.5076 62.2568 52.367 61.8883 50.6482 60.9649C51.9951 60.6014 53.0916 59.8521 53.8861 58.6978Z" fill="#6D0D07"/>
<path d="M53.8862 58.6977C53.9026 58.5178 54.2846 58.017 54.4057 57.8424C54.5441 57.955 57.8985 61.6419 57.9442 61.7244C56.9692 62.0417 56.5372 61.8913 55.5317 61.7182L55.5325 61.6323C55.5471 60.7224 54.4652 59.5029 53.8862 58.6977Z" fill="#94443B"/>
<path d="M58.0769 53.5549C58.4202 53.9464 59.7072 55.9469 60.0352 56.4948C60.7167 57.6336 62.5383 59.9091 63.0696 60.9793C62.7517 61.095 62.4668 61.2342 62.1365 61.2165C61.3187 60.35 58.0285 55.4653 57.5251 54.4552C57.6566 54.1889 57.9096 53.8172 58.0769 53.5549Z" fill="#94443B"/>
<path d="M53.2929 100.259C53.503 101.112 50.5657 105.588 51.093 106.281C51.4111 106.173 51.8729 105.686 52.1882 105.431L52.233 105.681L52.3132 105.692C52.787 105.214 53.635 104.408 53.8129 103.757C53.8385 103.664 53.8399 103.299 53.9002 103.043C54.2447 102.813 54.3358 102.809 54.737 102.735C56.4722 103.23 55.0326 106.211 55.6815 107.064L55.879 106.93L55.908 107.033C55.6237 107.985 55.1994 109.414 54.6842 110.253L54.523 110.271C54.4392 109.909 54.6013 109.55 54.7173 109.185C54.4865 109.337 54.5217 109.333 54.4219 109.594C54.1465 109.618 54.1354 109.621 53.8818 109.524L53.8976 109.172L53.7331 109.237C53.5188 109.553 50.7791 111.563 50.6318 111.522C48.8734 111.036 49.1089 111.916 48.4255 113.509L48.3523 113.432C48.5429 112.612 48.9437 111.952 49.1222 111.197C50.0547 107.255 51.6648 103.942 53.2929 100.259Z" fill="#851E13"/>
<path d="M121.925 43.0355C121.289 43.3253 119.886 43.3003 119.224 43.075C118.359 42.7799 118.368 41.0263 119.127 40.5449C120.278 40.3848 121.549 40.5525 122.713 40.5999C123.286 40.6234 124.519 40.4864 124.912 40.829C125.551 41.3869 126.273 42.8158 126.044 43.6619C125.694 43.9534 122.151 43.2031 121.925 43.0355Z" fill="#D54736"/>
<path d="M121.925 43.0355C122.347 42.8237 123.258 43.2091 123.5 43.0487C123.757 42.8781 124.252 42.1516 124.73 42.0782C125.371 42.666 124.84 42.8027 125.284 43.4818C125.588 43.5805 125.736 43.6081 126.044 43.662C125.694 43.9534 122.15 43.2032 121.925 43.0355Z" fill="#C6442D"/>
<path d="M129.968 68.1321C130.189 68.2374 130.227 68.2553 130.418 68.4065L130.461 68.4127C130.623 68.1213 130.886 68.1247 131.182 68.0511C131.581 68.4231 131.595 68.3147 131.651 68.7472C131.247 69.7166 129.611 70.5905 128.718 71.1299C128.394 71.0181 128.31 70.8572 128.107 70.5902C127.935 70.6784 127.51 70.8824 127.371 70.9784C126.45 71.3379 124.318 71.2846 123.397 70.9565C123.191 70.74 122.763 70.2475 122.468 70.1777C122.037 70.0757 120.92 71.2806 120.477 71.3544C119.051 71.5927 117.057 70.6288 115.728 70.1969C114.85 69.9117 115.494 69.2307 115.145 68.5294C115.049 68.3369 115.038 68.3138 115.055 68.1291L115.238 68.172C115.876 69.2458 114.629 69.613 116.494 70.2782C117.59 70.6688 120.917 72.2082 121.557 70.2158C121.094 70.1069 120.584 69.6451 120.243 69.3059C120.476 69.2224 120.733 69.384 120.966 69.5053C121.813 69.9452 122.678 70.0841 123.509 70.2807C126.044 70.8798 126.143 69.5676 128.245 68.9404C128.576 68.8414 130.218 69.1023 130.489 68.9216C130.254 68.6142 130.157 68.4666 129.968 68.1321Z" fill="#94443B"/>
<path d="M131.182 68.0511C131.581 68.4231 131.595 68.3147 131.651 68.7472C131.247 69.7166 129.611 70.5905 128.717 71.1299C128.394 71.0181 128.31 70.8572 128.107 70.5902C127.889 70.2949 127.36 69.8886 127.059 69.6375C128.867 68.8093 129.898 69.5017 130.712 68.9947L130.746 68.7847L130.461 68.4127C130.623 68.1213 130.886 68.1247 131.182 68.0511Z" fill="#D54736"/>
<path d="M123.397 70.9566C123.6 70.7164 123.661 70.5751 124.044 70.5862C125.193 70.6198 126.46 70.2206 127.371 70.9784C126.45 71.338 124.318 71.2847 123.397 70.9566Z" fill="#D54736"/>
<path d="M68.1584 5.12989C68.8758 4.59627 69.7678 3.92949 70.6157 3.6924C72.589 3.14067 77.0556 3.46147 79.0829 3.81833C85.5453 4.9559 91.1445 5.33568 97.7146 4.81359C102.269 4.4517 106.714 3.29205 111.27 3.624C112.538 3.71641 113.473 4.5346 114.398 5.33956C115.563 6.15791 116.351 6.70291 117.612 7.39294C118.127 7.67453 120.048 8.5727 120.363 8.79418C121.926 9.40349 123.409 10.199 124.951 10.8603C128.055 12.192 130.996 13.7217 134.114 15.025C136.518 15.6746 139.422 16.973 141.839 17.8058C144.342 18.6687 147.144 19.5783 149.574 20.5909C156.068 23.2972 160.895 28.0698 164.358 34.1011C166.309 37.5006 168.548 42.9443 169.256 46.7728C169.877 50.5124 170.795 54.3831 171.425 58.146C171.77 60.213 172.796 62.5476 173.2 64.6294C173.753 66.859 174.222 69.1093 174.773 71.3358C174.649 71.6093 174.674 71.8595 174.667 72.1635L174.595 72.16C174.201 70.9372 173.16 69.4661 172.559 68.1822C172.24 68.0412 172.128 67.9685 171.77 68.0001C171.126 68.3918 171.111 69.5935 170.744 69.9187C170.453 70.7388 169.881 72.2289 169.858 73.0366C169.74 74.0343 169.604 75.03 169.452 76.0233C169.068 76.5087 169.008 77.7877 169.064 78.3742C169.245 79.0867 169.268 81.3024 169.236 82.1094L169.174 83.7955C169.016 84.5684 169.107 86.4497 169.978 86.7303C170.114 87.8881 170.489 89.7225 170.003 90.7528C169.265 92.312 170.115 92.9689 170.481 94.4815C170.536 94.7078 169.926 94.7739 170.442 95.3724C170.858 95.5109 171.155 95.3983 171.593 95.3204L171.764 95.4428C165.955 97.4421 158.421 100.214 152.29 100.643C150.815 100.831 149.198 100.904 147.72 100.738C146.537 99.0084 144.762 90.8959 144.192 90.4496L143.97 90.5204C143.706 90.8204 143.682 91.0412 143.587 91.4284L143.503 91.2389C143.173 90.9906 143.327 91.0573 142.909 90.9958C142.422 91.2221 142.571 91.0776 142.355 91.6038C142.456 89.8675 142.834 87.9978 143.061 86.2703C143.878 81.0013 145.038 75.3616 146.332 70.211C148.025 63.4622 148.81 58.0875 148.225 51.0943C147.762 45.5682 147.618 42.5271 144.128 37.8294C139.933 32.1845 134.525 30.3185 128.398 27.5225C124.117 25.5055 119.796 23.1875 115.557 21.0474C110.354 26.4353 105.961 30.2504 98.2049 31.4397C96.2143 31.745 94.8913 32.0508 92.743 32.0901C86.2443 32.2091 78.7715 30.34 73.4032 26.636C71.4255 25.2713 68.8321 22.7551 67.0509 21.0871C64.9601 22.2656 62.4819 23.7527 60.3538 24.7695L52.1862 28.6358C47.0372 31.0655 42.9494 32.7588 39.3609 37.6078C38.0792 39.346 37.0711 41.2701 36.3718 43.3133C34.664 48.4376 34.5134 56.6585 35.0923 61.9895C35.3055 63.9512 36.206 67.2731 36.6102 69.3724C37.8537 75.8325 39.4398 82.2671 40.3984 88.7835C40.2054 88.8645 40.1979 88.8286 40.1111 88.975L40.0239 88.986C39.6327 89.0379 39.5445 89.0772 39.1885 89.2412C39.1703 89.4296 39.1467 89.4622 39.24 89.626C38.0283 89.9102 37.9038 92.851 37.5321 93.9935C36.7724 96.328 36.1284 98.7603 35.0565 100.98C34.4224 100.979 32.3307 100.926 31.7481 100.775C29.9124 100.772 24.6324 99.6821 22.7347 99.1923C19.1729 98.273 15.3509 96.9078 11.8921 95.631C8.51059 94.3828 4.59749 93.0352 1.63525 90.9558C2.83964 87.6866 3.91236 84.0736 4.99055 80.7179C6.32818 76.5548 7.00303 72.2235 8.4492 68.0017C9.57407 64.4811 10.4776 62.2239 11.3457 58.5272C12.295 54.4849 12.6343 50.1183 13.6218 46.2746C14.792 39.8121 18.6728 32.1211 23.2572 27.3693C27.4783 22.9939 32.2745 21.0324 37.8062 18.9083L46.3367 15.6246C48.9353 14.6286 51.417 13.5479 53.9348 12.3595C54.8439 11.9304 55.8636 11.4495 56.8141 11.1401C58.9918 10.2367 61.0694 9.0311 63.2139 8.07371C65.1181 7.22357 66.4542 6.28905 68.1584 5.12989Z" fill="#261917"/>
<path d="M23.3619 64.4673C23.9213 64.5154 25.2015 64.885 25.559 65.2784C25.478 65.9292 24.8056 67.8864 24.5142 68.5544C23.2672 71.4144 22.9928 73.7396 23.1862 76.8797C24.2502 75.8536 24.9751 75.1325 25.4344 73.6301C25.5437 73.2722 25.691 72.3413 25.7808 72.0882C25.8913 71.8976 25.9849 71.7361 26.1092 71.5542C26.3004 71.623 26.3217 71.6639 26.4572 71.8086C27.1126 71.6985 27.8604 71.0718 28.5224 71.2647C28.4767 71.5976 28.5196 71.4704 28.2712 71.7709C27.7918 71.9176 27.2199 71.9586 26.9509 72.2847L26.9364 72.4525C27.3368 72.4634 27.5334 72.4014 27.9199 72.3088C27.7787 72.6756 27.4462 72.9893 27.2718 73.3467C26.7471 74.422 26.1274 75.454 25.5978 76.5225C25.3905 76.9411 25.8745 77.2026 25.6912 77.6154C25.3542 78.2966 25.187 78.1284 25.0605 78.9478C23.69 81.1081 23.2882 81.7659 22.5466 84.2443C23.1375 84.4089 24.2044 84.8177 24.7154 84.5282C25.7385 83.9485 27.8407 80.6848 28.6813 80.5339C29.0408 81.2103 27.841 82.1924 27.5149 82.8702C26.9598 84.0242 26.9971 85.1477 26.6997 86.3352C25.8774 87.9598 25.3374 89.7186 24.0766 91.1297C23.7072 91.5432 22.0768 92.9157 22.1645 93.3392C22.9463 93.9284 24.8429 92.8236 25.6981 92.5483C25.8015 94.1478 25.512 96.4801 24.3651 97.6739C24.1539 97.6166 24.1554 97.6287 24.0049 97.454C23.6317 97.5388 22.8507 98.2907 22.5141 98.3412C22.0764 98.4066 21.5701 98.0815 20.9817 98.2478C21.6293 99.0498 30.1146 100.219 31.4109 100.389C31.4891 100.399 31.7055 100.698 31.7481 100.775C29.9124 100.772 24.6324 99.6822 22.7347 99.1924C19.1729 98.2732 15.3509 96.9079 11.8921 95.6311C8.51059 94.3829 4.59749 93.0353 1.63525 90.9559C2.83964 87.6867 3.91236 84.0737 4.99055 80.718C6.32818 76.555 7.00303 72.2237 8.4492 68.0018L8.45753 68.0948C8.54103 69.1359 7.98228 70.0071 7.97563 70.4252C8.13456 70.4165 8.35607 70.4424 8.41688 70.3485C8.64058 70.0026 8.97058 68.6884 9.26389 68.4242L9.50149 68.4194C9.80856 67.9025 10.0651 67.3867 10.6574 67.2023C11.4246 67.3143 11.7006 67.8748 12.1009 68.5054L11.4224 70.0633C11.4172 70.5343 11.5066 70.9946 11.4888 71.4501C11.3582 74.7926 15.3491 71.8295 12.907 75.6224C12.3425 77.0338 12.1309 77.8859 12.0431 79.4219C12.3826 79.2129 13.5123 78.4922 13.8099 78.3717C15.9645 77.3473 17.7826 74.8911 19.1211 73.0067C19.6022 71.7923 23.0787 69.0204 23.2852 67.002C23.4346 65.5419 22.8256 66.2294 22.2493 65.331L23.3619 64.4673Z" fill="#851E13"/>
<path d="M19.1212 73.0066C19.122 74.0453 17.2942 75.2417 17.282 76.1889C17.977 76.5609 17.9879 76.1333 18.4407 76.3097C19.2437 76.6224 19.6303 77.0674 20.5478 77.2154C19.3784 78.4961 13.4649 86.815 11.47 85.3811C11.4979 84.1469 15.7231 80.4621 14.2356 79.0865C14.1583 79.0151 13.9908 78.8577 13.9084 78.7859L13.81 78.3716C15.9646 77.3472 17.7827 74.891 19.1212 73.0066Z" fill="#B15F2C"/>
<path d="M9.50157 68.4192C9.80864 67.9023 10.0651 67.3866 10.6575 67.2021C11.4247 67.3142 11.7007 67.8747 12.101 68.5052L11.4225 70.0631C10.7852 71.0544 10.3212 71.6545 9.58384 72.5704C9.19275 72.9051 8.41177 73.8846 7.92741 73.8264C7.67601 72.3468 8.88687 69.7691 9.50157 68.4192Z" fill="#AA7745"/>
<path d="M9.58398 72.5705C10.3214 71.6546 10.7853 71.0545 11.4226 70.0632C11.4174 70.5342 11.5068 70.9946 11.489 71.45C11.3584 74.7926 15.3494 71.8294 12.9072 75.6223C12.8291 74.4528 13.5062 74.5702 13.3275 73.6501C12.7731 73.7392 11.3487 75.251 10.5736 75.1938C9.48333 74.2926 10.4596 72.2937 10.3652 72.0077L9.64985 72.7037L9.58398 72.5705Z" fill="#512617"/>
<path d="M68.1584 5.12989C68.8758 4.59627 69.7678 3.92949 70.6157 3.6924C72.589 3.14067 77.0557 3.46147 79.083 3.81833C85.5453 4.9559 91.1445 5.33568 97.7146 4.81359C102.269 4.4517 106.714 3.29205 111.27 3.624C112.538 3.71641 113.473 4.5346 114.398 5.33956C113.783 6.09836 114.254 12.0946 112.011 12.2133C108.386 12.493 105.63 13.5543 101.954 13.8851C96.5487 14.3715 91.3455 14.3647 85.9371 14.055C84.1929 13.955 82.3353 13.9288 80.613 13.7154C77.931 13.383 75.4208 12.6122 72.7382 12.2066C69.4915 11.2244 69.2516 9.65335 68.6493 6.55638C68.5381 5.98434 68.563 5.54445 68.1584 5.12989Z" fill="#0F0C09"/>
<path d="M112.011 12.2133L112.156 12.3314C112.138 12.73 111.499 13.8065 111.298 14.2003C108.887 18.7721 102.126 23.9672 97.2689 25.4268C93.319 26.614 85.2112 26.1675 81.6731 23.8189C78.4919 21.7071 74.9767 19.572 72.8825 16.2774C72.6435 15.9014 71.7749 14.7804 72.0043 14.391C72.5944 15.2057 73.816 17.869 74.8566 18.1763C75.5429 17.375 75.1846 16.0851 75.7262 15.1985C75.9767 14.7883 75.909 13.5587 75.7487 13.0823C75.2663 12.5868 74.8854 12.8286 74.2413 12.7067C73.6602 12.5966 73.1512 12.3467 72.5549 12.3138L72.7384 12.2067C75.421 12.6122 77.9311 13.3831 80.6132 13.7154C82.3354 13.9288 84.1931 13.9551 85.9373 14.055C91.3457 14.3647 96.5488 14.3716 101.955 13.8851C105.63 13.5544 108.386 12.493 112.011 12.2133Z" fill="#6D0D07"/>
<path d="M90.2619 17.2182C90.8583 17.1953 92.81 16.9335 92.9479 17.6631C92.7269 18.0062 92.8541 17.915 92.4792 18.0167C91.7685 18.1175 90.4285 18.4406 89.9502 17.8523C89.9765 17.5186 90.0363 17.4736 90.2619 17.2182Z" fill="#94443B"/>
<path d="M166.135 73.3429C166.105 74.6979 165.455 74.9956 165.332 75.9457L165.455 76.0453C165.052 76.9604 165.997 77.4348 165.502 78.8498C166.426 79.8365 166.702 81.732 166.763 83.0278L166.787 82.9252C167.159 81.3064 166.757 78.4198 167.633 77.0572L167.955 77.0261C168.598 77.9751 168.033 82.6959 168.835 83.8308C169.016 83.8554 169.007 83.8641 169.174 83.7955C169.016 84.5684 169.107 86.4497 169.978 86.7303C170.114 87.8881 170.49 89.7225 170.003 90.7528C169.265 92.312 170.115 92.9689 170.481 94.4815C170.536 94.7078 169.926 94.7739 170.442 95.3724C170.858 95.5109 171.155 95.3983 171.594 95.3204L171.764 95.4428C165.955 97.4421 158.421 100.214 152.29 100.643C154.501 99.7446 155.878 100.179 158.056 99.2482L157.999 99.2575C157.837 99.1616 157.919 99.2137 157.73 99.1841C154.354 98.6593 155.352 94.9634 153.844 93.1014C154.217 92.8076 155.244 90.7181 155.552 90.148C155.427 91.0352 155.238 91.4885 154.903 92.3087C157.857 89.9232 159.013 84.8845 160.678 81.2185C160.801 81.1078 161.612 80.0081 161.754 79.8067C162.437 78.8323 164.751 76.7772 164.982 75.7715C165.379 75.1622 165.845 74.0371 166.135 73.3429Z" fill="#851E13"/>
<path d="M165.502 78.8499C166.426 79.8366 166.702 81.7321 166.763 83.0279C166.642 83.1427 166.601 83.1207 166.416 83.1679C166.026 83.0777 165.735 82.7221 165.444 82.4318C165.185 81.2871 165.04 79.9563 165.502 78.8499Z" fill="#6D0D07"/>
<path d="M120.363 8.79419C121.926 9.40351 123.409 10.199 124.951 10.8603C128.055 12.192 130.997 13.7217 134.114 15.025C136.518 15.6746 139.422 16.973 141.839 17.8058C144.342 18.6687 147.144 19.5783 149.574 20.5909C156.068 23.2972 160.895 28.0698 164.358 34.1011C166.31 37.5007 168.548 42.9443 169.257 46.7728C167.305 46.7904 167.214 46.4599 166.458 44.7772C165.904 44.2988 165.934 43.5106 165.552 43.4063L165.337 43.6366C165.433 44.1289 165.574 44.6294 165.506 45.1196C163.601 39.0394 159.324 31.4821 154.235 27.4892C152.623 26.2251 149.192 24.6957 147.304 23.8626C144.291 22.5366 141.217 21.3487 138.095 20.3025C136.291 19.7132 134.418 19.353 132.629 18.6833C131.317 18.28 130.069 17.4741 128.807 16.9997C125.762 15.8552 122.737 14.1958 119.738 13.0546L119.936 12.6484C119.962 12.6875 120.132 12.9776 120.111 12.9671C121.006 13.4233 122.605 14.013 123.404 14.5148L123.472 14.558L123.63 14.4601L123.657 14.2413C123.074 12.9474 121.493 12.3689 120.632 11.6123L120.676 11.494C120.269 11.0962 120.152 10.954 119.827 10.4849L119.732 10.2942C119.927 10.1633 120.126 10.0424 120.326 9.91872C121.773 10.6871 121.81 10.4565 123.001 10.9642C123.062 10.8172 123.038 10.7547 123.033 10.586C122.679 9.7802 121.08 9.49828 120.363 8.79419Z" fill="#94443B"/>
<path d="M120.676 11.494C125.871 14.6213 131.742 16.9329 137.486 18.8757C139.594 19.5891 141.777 20.0851 143.879 20.8126C147.567 22.0889 152.512 24.5057 155.492 26.9868C157.819 28.924 159.85 31.3811 161.505 33.9018C164.064 37.8002 165.203 40.2184 166.458 44.7773C165.904 44.2988 165.934 43.5107 165.552 43.4063L165.337 43.6367C165.433 44.1289 165.574 44.6295 165.506 45.1196C163.6 39.0395 159.324 31.4822 154.235 27.4893C152.623 26.2251 149.191 24.6958 147.304 23.8627C144.291 22.5367 141.217 21.3488 138.094 20.3026C136.291 19.7132 134.418 19.3531 132.629 18.6834C131.317 18.28 130.069 17.4742 128.807 16.9997C125.762 15.8553 122.737 14.1959 119.738 13.0547L119.935 12.6484C119.962 12.6876 120.132 12.9777 120.111 12.9672C121.006 13.4233 122.605 14.0131 123.404 14.5149L123.472 14.558L123.63 14.4602L123.656 14.2413C123.074 12.9474 121.493 12.3689 120.631 11.6123L120.676 11.494Z" fill="#701A14"/>
<path d="M120.363 8.79419C121.926 9.40351 123.409 10.199 124.951 10.8603C128.055 12.192 130.997 13.7217 134.114 15.025C132.398 15.2267 125.393 10.5233 124.456 11.2753C124.687 11.8129 127.368 12.9628 127.994 13.1428L128.09 13.1697L128.11 13.3448C127.852 13.3276 125.78 12.2803 125.298 12.101C124.225 11.7016 120.798 10.0987 119.827 10.4849L119.732 10.2942C119.927 10.1633 120.126 10.0424 120.326 9.91872C121.773 10.6871 121.81 10.4565 123.001 10.9642C123.062 10.8172 123.038 10.7547 123.033 10.586C122.679 9.7802 121.08 9.49828 120.363 8.79419Z" fill="#6D0D07"/>
<path d="M56.8142 11.1402L56.8532 11.3174C57.8615 11.031 59.064 10.3524 60.0022 9.8698C60.6093 9.55749 60.7443 9.16782 61.49 9.51011L61.6107 9.74007L61.5199 9.77507C60.1758 10.3009 58.7443 11.1804 57.2916 11.7427C57.7951 11.9321 62.0388 9.52542 62.5938 9.54635C63.3551 10.6249 62.0255 11.1892 61.6107 11.799C55.4406 15.1599 49.3217 17.6167 42.651 19.7505C41.1506 20.2305 39.6094 20.5921 38.138 21.1604C35.0611 22.5229 29.2613 25.3419 26.7779 27.3464C22.5273 30.7772 18.3436 38.1161 16.7756 43.2979C16.733 43.4401 16.6979 43.5844 16.6704 43.7303C16.4526 44.4668 16.2428 45.2056 16.041 45.9466C14.3079 45.7745 14.9463 46.0145 13.6218 46.2747C14.7921 39.8122 18.6728 32.1212 23.2572 27.3693C27.4784 22.994 32.2745 21.0325 37.8063 18.9084L46.3367 15.6247C48.9353 14.6287 51.417 13.548 53.9348 12.3595C54.8439 11.9305 55.8637 11.4496 56.8142 11.1402Z" fill="#94443B"/>
<path d="M62.0714 13.7955C62.8221 13.615 63.4146 13.483 63.7104 14.4064C63.6906 14.81 63.5071 15.1826 63.1664 15.4308C61.0249 16.9904 58.3649 17.9157 55.9819 19.074C54.7322 19.6816 53.1104 19.9473 51.7695 20.3833C48.0676 21.5869 44.4387 23.0771 40.8271 24.5296C39.0935 25.2268 37.2237 25.6283 35.5082 26.3846C28.8102 29.453 25.0171 33.6672 21.6798 40.1446C20.7544 41.9406 19.4391 47.7458 18.164 48.1099C17.063 47.4832 17.7759 44.5522 18.0594 43.5316C18.1785 43.4021 19.5738 40.1541 19.7272 39.6921C20.9398 36.0415 23.194 33.1732 25.7246 30.3266C26.5436 29.4053 28.3795 28.0781 29.4386 27.3179C30.8063 26.3362 32.6642 25.5752 34.1796 24.797C38.8383 22.4063 43.6476 20.5111 48.7517 19.3405C49.7424 19.1133 51.3906 18.0894 52.4468 17.7288C55.7058 16.6161 58.8588 14.9509 62.0714 13.7955Z" fill="#94443B"/>
<path d="M119.738 13.0547C122.737 14.1959 125.762 15.8553 128.807 16.9997C130.069 17.4742 131.317 18.28 132.629 18.6834C134.418 19.3531 136.291 19.7132 138.095 20.3025C141.217 21.3488 144.291 22.5367 147.304 23.8627C149.192 24.6958 152.623 26.2251 154.235 27.4892C159.324 31.4821 163.601 39.0395 165.506 45.1196C165.797 46.4499 165.849 47.0664 165.821 48.4231C162.967 46.127 162.488 42.7445 160.774 39.2794C158.267 34.3188 154.522 30.0883 149.904 26.9955C149.648 26.8236 149.002 26.4149 148.717 26.3311C141.878 24.3185 135.446 21.412 128.586 19.4569C127.252 19.0766 119.759 15.7345 119.257 14.8728C119.134 14.2632 119.467 13.5866 119.738 13.0547Z" fill="#94443B"/>
<path d="M61.6107 11.799C61.5997 11.8228 61.5897 11.8472 61.5776 11.8705C61.0504 12.8945 51.809 16.7323 50.235 17.3376C47.6169 18.3443 44.4303 19.4894 41.7559 20.2607C39.8703 20.8046 34.7915 22.1986 33.9166 23.8494C33.805 24.0599 33.7815 24.2346 33.7998 24.4687C34.4346 25.0759 35.2959 23.9108 35.8828 23.6503C38.7148 22.3932 41.6268 21.2378 44.5455 20.1937C45.7258 19.7713 47.2767 19.7034 48.4754 19.2246C51.1981 18.1025 53.7474 16.8087 56.5797 15.9436C57.9398 15.5282 60.6811 13.6245 62.0712 13.7955C58.8587 14.9508 55.7057 16.616 52.4466 17.7287C51.3905 18.0893 49.7423 19.1133 48.7516 19.3405C43.6475 20.5111 38.8382 22.4062 34.1794 24.7969C32.6641 25.5752 30.8062 26.3361 29.4385 27.3179C28.3794 28.078 26.5435 29.4053 25.7245 30.3266C23.1939 33.1732 20.9397 36.0415 19.7271 39.692C19.5737 40.1541 18.1784 43.402 18.0592 43.5315L17.8926 43.4326C18.6854 41.4542 19.6079 39.5137 20.3681 37.5225C20.687 36.6871 22.262 34.8171 21.8226 34.0773L21.6274 34.0348C20.7423 34.3707 18.5641 39.3175 18.1112 40.2827C17.7193 41.118 17.2666 43.1577 16.6704 43.7302C16.698 43.5843 16.733 43.44 16.7756 43.2978C18.3436 38.116 22.5273 30.7771 26.778 27.3463C29.2613 25.3418 35.0611 22.5228 38.1381 21.1603C39.6094 20.5921 41.1506 20.2304 42.651 19.7505C49.3217 17.6166 55.4406 15.1598 61.6107 11.799Z" fill="#6D0D07"/>
<path d="M156.95 78.3746C157.231 79.1856 155.987 80.2222 156.752 80.9539C157.675 81.1788 158.784 80.5004 159.73 80.9377L159.944 80.6663L159.877 80.4774C159.329 80.3136 159.024 80.4745 158.846 80.2335C159.064 80.0666 159.221 80.1222 159.547 80.1109C159.45 79.829 159.353 79.6074 159.332 79.3098L159.433 79.2495L159.502 79.3222C159.808 80.2834 160.039 80.4507 160.678 81.2185C159.013 84.8845 157.858 89.9232 154.903 92.3088C155.238 91.4886 155.428 91.0352 155.552 90.1481C156.301 88.2763 156.686 86.8361 156.937 84.8067C156.113 85.6881 155.45 86.7567 154.565 87.5708C154.298 87.8174 154.172 87.8026 153.889 87.6769C153.581 87.0055 153.847 86.3675 154.032 85.6494C154.748 84.047 156.43 80.3675 156.748 78.6605L156.95 78.3746Z" fill="#B15F2C"/>
<path d="M158.338 71.0893C158.495 70.2707 158.46 69.3974 158.612 68.6259C158.705 68.1539 158.897 67.8228 159.023 67.1829L159.1 67.2411C158.945 68.3002 158.13 70.5741 158.778 71.3756C159.212 71.2544 159.996 69.8276 160.613 69.2475C160.893 69.4127 160.801 69.3117 160.924 69.6974L160.809 72.8578C160.56 75.1633 159.657 77.1416 159.502 79.3221L159.433 79.2494L159.332 79.3097C159.353 79.6073 159.449 79.8289 159.547 80.1109C159.22 80.1221 159.064 80.0665 158.846 80.2335C159.024 80.4744 159.329 80.3135 159.877 80.4773L159.943 80.6662L159.729 80.9376C158.784 80.5003 157.675 81.1787 156.752 80.9539C155.986 80.2221 157.231 79.1855 156.95 78.3746C157.083 77.0034 158.685 74.0506 159.11 72.5792C159.488 71.2758 158.989 72.283 158.338 71.0893Z" fill="#874D2B"/>
<path d="M25.786 57.7684C26.472 58.545 26.9814 60.1066 26.9155 61.1266L23.362 64.4672L22.2494 65.3309C21.9059 65.7684 20.9626 66.6826 20.3966 66.6525C19.648 65.671 21.6042 62.7012 22.1936 61.8781C23.3642 60.2436 23.8662 58.627 25.786 57.7684Z" fill="#6D5E36"/>
<path d="M163.119 70.8109C163.323 71.1661 163.387 71.2702 163.655 71.5805C163.886 72.4434 164.405 75.3085 164.982 75.7715C164.751 76.7772 162.437 78.8324 161.754 79.8067C161.612 80.0081 160.801 81.1078 160.678 81.2185C160.039 80.4507 159.807 80.2834 159.502 79.3222C159.657 77.1416 160.56 75.1634 160.809 72.8579C160.83 75.1037 160.986 75.4204 160.587 77.7503L160.714 77.9034C161.159 77.7405 161.591 77.1782 161.927 76.8196C163.18 75.4848 163.166 73.2619 163.046 71.5222C163.052 71.3206 163.096 71.0201 163.119 70.8109Z" fill="#94443B"/>
<path d="M163.655 71.5804C163.282 70.1669 163.71 68.5451 165.086 67.856C166.227 67.9175 166.094 70.9985 166.692 72.0054C166.555 72.3427 166.292 73.0487 166.135 73.3429C165.845 74.0371 165.379 75.1621 164.982 75.7714C164.405 75.3085 163.886 72.4434 163.655 71.5804Z" fill="#AA7745"/>
<path d="M154.032 85.6494C153.847 86.3675 153.581 87.0055 153.889 87.6768C154.172 87.8026 154.298 87.8173 154.565 87.5707C155.45 86.7567 156.113 85.6881 156.937 84.8066C156.686 86.836 156.301 88.2762 155.552 90.148C155.244 90.7181 154.217 92.8076 153.844 93.1014C153.601 93.476 153.466 93.7976 153.056 93.8985C153.106 93.5319 154.043 92.2558 154.303 91.8338C155.252 90.2942 156.351 88.1269 156.429 86.2976C154.852 87.116 150.652 92.3592 150.254 92.4354L150.141 92.3405C149.926 91.5032 150.51 89.5191 150.844 88.7027C151.517 88.1668 152.296 87.5162 152.937 86.9169C152.965 86.8911 153.365 86.8772 153.439 86.8757C153.581 86.5146 153.669 86.1547 153.769 85.7804L154.032 85.6494Z" fill="#6D0D07"/>
<path d="M162.736 66.5576C163.38 65.674 163.85 65.3401 164.715 64.6671C164.853 65.3512 165.095 66.8338 165.537 67.3496L165.72 67.3337L166.015 66.7772C166.201 67.217 165.939 67.5603 165.95 67.7567C165.991 68.4478 166.345 71.0688 166.929 71.3127C167.599 70.7944 167.624 68.8009 167.369 68.0246C167.209 67.5352 166.609 67.2026 166.931 66.7479C167.553 67.3385 167.632 68.5481 167.686 69.3842C167.752 70.3594 167.27 71.2481 166.692 72.0055C166.094 70.9986 166.227 67.9176 165.086 67.8561C163.71 68.5452 163.282 70.167 163.655 71.5805C163.387 71.2702 163.323 71.1661 163.119 70.811C163.028 69.3814 162.823 67.951 162.736 66.5576Z" fill="#6D5E36"/>
<path d="M26.5004 70.837C27.2985 70.2597 27.4076 70.2624 28.3365 70.5537L28.579 71.0191L28.8244 71.125C28.9282 72.293 26.7707 73.8123 27.5185 74.4708C27.7303 74.6572 28.5249 74.7404 28.8237 75.1389C28.8664 75.6098 28.6808 75.8396 28.2945 76.0992C26.9412 77.0086 26.0664 77.6334 25.0608 78.9476C25.1872 78.1282 25.3545 78.2965 25.6915 77.6153C25.8747 77.2025 25.3907 76.941 25.598 76.5224C26.1276 75.4539 26.7474 74.4219 27.2721 73.3466C27.4465 72.9891 27.779 72.6755 27.9202 72.3087C27.5336 72.4012 27.337 72.4633 26.9367 72.4524L26.9512 72.2846C27.2201 71.9585 27.7921 71.9175 28.2715 71.7708C28.5198 71.4703 28.4769 71.5975 28.5226 71.2646C27.8607 71.0717 27.1128 71.6984 26.4574 71.8084C26.3219 71.6638 26.3006 71.6229 26.1095 71.5541C25.9851 71.7359 25.8916 71.8975 25.7811 72.088C25.8513 71.5742 26.0128 71.1023 26.1648 70.6078L26.5004 70.837Z" fill="#512617"/>
<path d="M26.5002 70.837C27.2984 70.2597 27.4074 70.2624 28.3364 70.5537L28.5788 71.0191C28.074 71.0833 26.9781 71.2713 26.598 71.1132L26.5002 70.837Z" fill="#0F0C09"/>
<path d="M165.455 76.0454C165.947 76.4966 165.87 77.6839 166.52 78.1266C166.943 77.9799 167.239 77.1864 167.619 76.6803C167.588 75.9265 165.837 74.751 166.363 73.8219C166.606 73.9954 166.663 74.2585 166.77 74.5458C167.135 75.5237 167.945 76.2097 168.506 77.0599C168.498 78.8706 168.501 81.3025 168.832 83.0689L168.92 83.145C169.095 82.1182 168.851 78.5958 169.064 78.3743C169.245 79.0868 169.268 81.3025 169.236 82.1095L169.174 83.7956C169.007 83.8642 169.016 83.8556 168.835 83.8309C168.033 82.696 168.598 77.9752 167.955 77.0262L167.633 77.0573C166.757 78.4199 167.159 81.3065 166.787 82.9253L166.763 83.0279C166.702 81.7321 166.426 79.8366 165.502 78.8499C165.997 77.4349 165.052 76.9605 165.455 76.0454Z" fill="#512617"/>
<path d="M160.924 69.6975C160.942 69.2336 160.728 67.2724 160.833 67.0627C161.397 65.9334 161.077 65.3394 161.247 64.3679L161.481 65.7339C160.078 68.4383 162.159 75.1509 161.775 75.7331L161.653 75.6736L161.485 75.1158C161.385 75.6787 161.375 75.8549 161.388 76.4292L161.514 76.5611C163.492 75.4355 162.465 73.21 163.046 71.5222C163.166 73.2619 163.18 75.4848 161.927 76.8196C161.591 77.1782 161.159 77.7404 160.714 77.9034L160.587 77.7503C160.986 75.4204 160.83 75.1037 160.809 72.8578L160.924 69.6975Z" fill="#6D0D07"/>
<path d="M25.7859 57.7684C26.9775 57.4178 27.6632 57.3219 28.9356 57.4896C28.4912 58.7246 27.8757 60.1949 26.9153 61.1265C26.9812 60.1066 26.4719 58.5449 25.7859 57.7684Z" fill="#444223"/>
<path d="M156.748 78.6605C156.642 77.5096 157.704 75.9712 157.946 74.8497C158.114 74.066 157.239 72.0642 158.09 71.5355L158.212 69.7656C158.218 70.2094 158.199 70.663 158.339 71.0894C158.989 72.2831 159.488 71.2759 159.11 72.5793C158.685 74.0507 157.083 77.0035 156.95 78.3746L156.748 78.6605Z" fill="#0F0C09"/>
<path d="M25.6982 92.5482C24.843 92.8235 22.9464 93.9283 22.1645 93.3391C22.0769 92.9156 23.7072 91.5431 24.0767 91.1296C25.3374 89.7186 25.8775 87.9597 26.6998 86.3351C27.1417 87.7918 23.9639 91.5408 22.9608 92.6235C23.2339 92.8831 23.2995 92.9775 23.6871 93.0063C24.2681 92.8339 24.7444 92.4176 25.2539 92.2439C25.7144 92.0869 27.5468 92.2171 27.8914 92.5096L27.8367 92.6063C27.2552 92.6142 26.0958 92.4536 25.6982 92.5482Z" fill="#6D0D07"/>
<path d="M170.744 69.9187C170.739 69.5233 170.874 69.168 170.86 68.7996C170.831 68.075 170.494 66.3753 171.11 65.8633L171.358 65.9221C171.685 66.2835 172.438 67.6965 172.559 68.1822C172.24 68.0412 172.128 67.9684 171.77 68C171.126 68.3918 171.111 69.5934 170.744 69.9187Z" fill="#6D5E36"/>
<path d="M26.1648 70.6078C26.7128 68.2996 28.1812 69.5921 28.3365 70.5537C27.4076 70.2624 27.2985 70.2597 26.5004 70.8371L26.1648 70.6078Z" fill="#6D5E36"/>
<path d="M34.0619 77.1765C34.1218 77.6603 34.2456 78.2197 34.34 78.7043C34.0417 79.079 33.6608 79.5902 33.354 79.9394L33.4807 80.1543C32.9387 80.6351 31.3245 83.0432 31.1908 83.8197C31.1718 83.9299 31.2939 84.8909 31.2997 85.121C30.6946 85.5628 29.7779 84.4205 29.0064 84.8968L28.9253 85.1778C29.3092 85.7289 29.7062 85.4569 30.2726 85.6211C30.5804 85.7103 30.7027 86.213 30.9993 86.1449L31.0526 86.0722C31.2415 85.8174 31.2888 85.7497 31.5706 85.578C31.7522 85.0593 31.7489 84.8253 32.1213 84.4273L32.2058 84.4664C31.851 86.3374 30.8846 86.1979 30.1462 88.01C29.4522 89.7132 29.6336 91.9365 28.8397 93.4012L28.7507 93.4221C28.6872 92.6586 30.0069 88.264 29.9314 87.8227C29.1048 87.965 29.1359 88.5577 28.3462 88.0801C27.8511 87.2904 28.5796 85.6876 28.7876 84.8079L29.1002 84.4999C29.8308 82.3444 32.5595 78.9815 34.0619 77.1765Z" fill="#512617"/>
<path d="M33.354 79.9395L33.4807 80.1543C32.9387 80.6351 31.3245 83.0432 31.1908 83.8197C31.1718 83.9299 31.2939 84.891 31.2997 85.1211C30.6946 85.5628 29.7779 84.4205 29.0064 84.8968L28.9253 85.1778C29.3092 85.729 29.7062 85.4569 30.2726 85.6211C30.5804 85.7104 30.7027 86.213 30.9993 86.1449L31.0526 86.0723C31.2415 85.8174 31.2888 85.7498 31.5706 85.578C31.7522 85.0594 31.7489 84.8253 32.1213 84.4273L32.2058 84.4664C31.851 86.3374 30.8846 86.1979 30.1462 88.0101C29.4522 89.7133 29.6336 91.9365 28.8397 93.4012L28.7507 93.4221C28.6872 92.6586 30.0069 88.264 29.9314 87.8227C29.1048 87.965 29.1359 88.5578 28.3462 88.0801C27.8511 87.2904 28.5796 85.6876 28.7876 84.8079L29.1002 84.4999C29.4431 84.638 30.3908 84.8182 30.8448 84.9671C31.0541 83.0488 32.0541 81.3482 33.354 79.9395Z" fill="#4B1914"/>
<path d="M157.63 62.5432C158.757 60.0916 159.92 57.6565 161.119 55.2386C161.565 54.3173 162.11 53.0063 162.557 52.1589C162.272 54.505 161.725 56.5999 161.142 58.8826C160.8 60.2174 160.502 61.8824 160.004 63.1525C159.701 63.9256 158.978 64.8527 158.566 65.6706C158.291 65.3352 157.764 63.1114 157.63 62.5432Z" fill="#7E7144"/>
<path d="M156.161 70.5576C156.222 68.2581 156.772 64.7079 157.63 62.5432C157.764 63.1114 158.291 65.3352 158.566 65.6706C158.519 65.8233 158.302 66.1617 158.215 66.3302C157.495 67.7152 156.947 69.2093 156.161 70.5576Z" fill="#6D5E36"/>
<path d="M34.3401 78.7043C34.3872 79.3026 35.1454 80.7114 35.1767 81.4296C35.2322 82.7087 35.0477 84.1072 34.8417 85.3733L34.7718 85.4557C34.6546 84.2477 35.2775 82.3462 34.8556 81.7586C34.301 81.639 34.107 81.8002 33.8222 81.5165C33.7514 81.064 33.698 80.8018 33.722 80.3454C33.6257 80.253 33.594 80.1989 33.4808 80.1543L33.354 79.9394C33.6608 79.5902 34.0417 79.079 34.3401 78.7043Z" fill="#4B1914"/>
<path d="M170.744 69.9188C171.111 69.5935 171.127 68.3919 171.77 68.0001C172.128 67.9685 172.24 68.0412 172.559 68.1822C173.16 69.4661 174.201 70.9372 174.595 72.16L174.667 72.1635C174.674 71.8595 174.649 71.6093 174.773 71.3358L177.888 81.4251C178.979 84.9889 179.856 87.6771 180.505 91.3599C179.103 92.2698 173.238 95.1064 171.765 95.4429L171.594 95.3204C171.156 95.3984 170.858 95.511 170.442 95.3724C169.926 94.774 170.536 94.7078 170.482 94.4816C170.115 92.969 169.265 92.312 170.003 90.7528C170.49 89.7225 170.114 87.8881 169.978 86.7303C169.107 86.4498 169.016 84.5684 169.174 83.7955L169.236 82.1094C169.268 81.3024 169.245 79.0868 169.064 78.3743C169.008 77.7877 169.068 76.5087 169.452 76.0233C169.604 75.0301 169.74 74.0344 169.859 73.0366C169.881 72.2289 170.454 70.7389 170.744 69.9188Z" fill="#94443B"/>
<path d="M169.452 76.0234C169.604 75.0301 169.74 74.0344 169.859 73.0366C169.803 74.2529 171.115 74.7307 170.996 75.8723C171.475 77.6982 172.551 79.2245 172.713 81.0766C172.8 82.0749 172.993 83.8101 172.473 84.6879C172.411 84.7925 172.347 84.8957 172.279 84.9974C172.411 85.3743 172.55 85.9415 172.86 86.1554L173.156 86.0087C172.855 86.4518 172.878 86.6106 172.877 87.1415C172.54 86.7119 171.389 84.1053 171.296 83.5947C171.018 84.6297 170.755 85.9106 170.016 86.6919L169.978 86.7303C169.107 86.4498 169.016 84.5685 169.174 83.7956L169.236 82.1094C169.268 81.3025 169.245 79.0868 169.064 78.3743C169.008 77.7878 169.068 76.5088 169.452 76.0234Z" fill="#6D0D07"/>
<path d="M169.369 80.4914C169.759 79.8658 170.131 79.0946 170.816 78.8289C172.104 79.2265 170.4 83.2253 172.279 84.9974C172.411 85.3743 172.55 85.9415 172.86 86.1555L173.156 86.0087C172.855 86.4518 172.878 86.6107 172.877 87.1415C172.54 86.7119 171.389 84.1053 171.296 83.5948C171.018 84.6298 170.755 85.9106 170.016 86.6919L169.978 86.7304C169.107 86.4499 169.016 84.5685 169.174 83.7956L169.236 82.1095C169.352 81.4308 169.364 81.1752 169.369 80.4914Z" fill="#874D2B"/>
<path d="M169.452 76.0234C169.604 75.0301 169.74 74.0344 169.858 73.0366C169.803 74.2529 171.115 74.7307 170.996 75.8723L170.816 75.7668L170.789 75.4956C170.563 76.203 170.393 77.8845 169.666 78.3963L169.501 78.3761C169.129 77.8115 169.494 76.6977 169.452 76.0234Z" fill="#874D2B"/>
<path d="M173.155 86.0086C173.36 85.1862 173.662 82.8506 174.099 82.4L174.252 82.4366C175.071 83.7837 174.142 87.5943 173.389 88.8209L173.251 88.8382C173.053 88.2677 173.064 87.547 172.877 87.1414C172.878 86.6106 172.854 86.4517 173.155 86.0086Z" fill="#6D0D07"/>
<path d="M142.355 91.6039C142.571 91.0777 142.422 91.2221 142.909 90.9958C143.328 91.0573 143.173 90.9906 143.503 91.239L143.587 91.4285C143.256 94.1834 142.944 97.1318 142.676 99.8935C142.434 102.383 141.867 106.785 141.891 109.199C141.789 109.374 141.73 109.512 141.569 109.635C141.337 109.285 141.342 107.892 141.31 107.363C141.31 106.879 141.375 106.345 141.404 105.858C141.686 101.14 142.253 96.3293 142.355 91.6039Z" fill="#0F0C09"/>
<path d="M141.31 107.363C141.342 107.892 141.337 109.285 141.569 109.635C141.73 109.512 141.789 109.374 141.891 109.199C141.777 110.316 141.675 111.434 141.583 112.553C140.919 111.639 141.07 111.169 141.079 110.026C141.127 109.199 141.158 108.156 141.31 107.363Z" fill="#4B1914"/>
</g>
<defs>
<clipPath id="clip0_9_461">
<rect width="184.543" height="119" fill="white"/>
</clipPath>
</defs>
</svg>
