<svg width="185" height="117" viewBox="0 0 185 117" fill="none" xmlns="http://www.w3.org/2000/svg">
<g clip-path="url(#clip0_11_1096)">
<path d="M0 0H184.641V1.12744V117H147.182H140.194H36.4296H0V1.15494V0Z" fill="#DBCB42"/>
<path d="M112.682 60.4749C112.708 60.5889 112.752 60.8994 112.83 60.9627C113.161 61.2284 113.89 61.1559 114.163 60.8075C114.546 60.5771 114.388 60.6081 114.781 60.6168C115.082 60.8046 115.13 60.8593 115.368 61.1225C115.622 61.282 115.75 61.3645 116.029 61.4852C115.982 61.9318 115.917 62.7957 115.846 63.2106C115.506 63.1476 114.515 63.2745 114.075 63.297C113.729 63.2193 113.271 63.2039 112.908 63.1798C112.823 62.8566 112.603 60.7933 112.682 60.4749Z" fill="#E0D26A"/>
<path d="M0 0H184.641V1.12744V117H147.182C146.748 116.704 144.494 116.822 143.831 116.829C143.865 114.106 143.837 111.43 144.078 108.697C144.246 106.802 144.575 105.029 144.646 103.106L144.482 102.982C144.334 102.713 144.445 100.613 144.41 99.9497C144.392 98.9358 144.462 92.524 144.903 91.8775L145.093 92.0308C145.406 92.0552 145.447 92.0212 145.716 91.8519L146.469 94.0592C146.668 94.6573 147.143 95.9822 147.235 96.5421C147.49 97.6102 147.681 98.6635 147.88 99.7414C147.981 99.1813 148.143 98.8962 148.576 98.545C150.625 98.5005 155.474 97.9111 157.421 97.1704C160.395 96.7286 164.304 95.2182 167.176 94.3856C168.008 94.1443 169.062 93.6976 169.856 93.5167C170.711 92.9502 174.665 91.5975 175.918 91.017L180.109 89.4257C180.358 89.317 180.387 89.2876 180.58 89.0942C180.668 88.7822 180.719 88.3516 180.632 88.0385C179.678 84.6085 178.642 81.3421 177.877 77.8523C176.1 69.8137 174.551 61.7266 173.23 53.6006C172.372 48.2948 169.403 40.2047 166.59 35.4536C165.689 33.9301 162.211 30.1563 160.803 28.8163C157.391 25.569 151.469 23.7887 147.189 21.7267C145.73 21.1816 144.07 20.889 142.628 20.3381C137.771 18.4839 132.926 16.9072 128.225 14.6728C126.708 13.952 120.627 10.4723 119.47 10.6593C118.769 9.9119 115.696 7.46842 114.845 6.91627C114.989 9.75155 114.805 10.8899 112.922 13.3955C112.903 13.42 112.804 13.5046 112.773 13.5302C111.904 14.7148 110.877 16.2136 109.682 17.0817C108.32 18.6007 106.381 19.7228 105.093 21.0559C103.707 22.4891 98.5519 26.3388 97.9425 27.8765L96.6588 28.3242C94.2096 28.608 91.4698 28.0965 88.6834 28.4937C88.1441 28.6362 87.944 28.7099 87.3942 28.6755L86.5855 28.7515C86.0037 28.505 85.7723 28.4087 85.1537 28.2753C85.2058 27.4648 85.1351 27.3468 84.5969 26.7282C82.5918 25.0061 80.5854 23.2071 78.495 21.5852C74.9978 18.8718 72.3432 16.8603 69.4146 13.526C68.1183 12.0343 67.5827 11.0647 67.5104 9.06792C67.4916 8.55033 67.4947 8.079 67.2717 7.6083C66.7852 8.11169 66.0273 8.97136 65.4798 9.33372C64.5975 9.91765 63.8132 9.97737 63.0021 10.7411C62.8753 10.6917 62.5888 10.5486 62.4966 10.5906C61.8698 10.8763 61.3 11.5685 60.6598 11.846C58.9332 12.595 57.2665 13.3341 55.5705 14.1525C53.6044 15.1015 51.9351 16.1201 49.9066 16.9391C48.3674 17.5603 46.955 17.9913 45.3941 18.5299C43.7623 19.0931 42.0159 19.9387 40.3933 20.4845C37.2041 21.5573 34.0398 22.5497 30.9588 23.9386C29.5216 24.5866 27.1147 25.4079 25.8567 26.2334C24.2133 27.3116 22.199 29.3334 20.6708 30.6535C19.3656 31.781 16.8443 34.4428 16.0471 35.8831C16.1179 36.5538 15.4592 37.0762 15.2006 37.673C14.4391 39.4309 13.5366 41.1263 12.871 42.9228C11.3086 47.1732 10.1864 51.5727 9.52207 56.0521C9.44248 56.6216 9.28099 60.0821 9.23092 60.172C7.89467 62.5707 7.90452 65.0875 7.86377 67.7816C7.86057 67.9932 8.11859 68.1172 8.13537 68.5196C8.76709 67.7612 8.88542 62.8973 9.05341 61.7393C9.08552 61.518 9.28901 61.4089 9.45809 61.2979L9.64466 61.3899C9.74032 61.6857 9.77392 61.7464 9.69287 62.042L9.5453 61.9247C9.04873 62.4588 9.23524 63.9586 9.17523 64.6944C9.10369 65.5716 9.01088 66.3894 8.80984 67.2519C8.64138 68.3905 8.05588 69.5294 7.848 70.496C7.68254 71.2655 7.84845 73.355 7.66754 74.1433C7.34743 75.538 6.84751 76.9885 6.50518 78.3909L4.9487 84.6777C4.29862 87.3535 4.61061 87.0622 2.7291 89.1492C3.0265 89.7167 4.35105 89.6237 4.43067 90.1992C7.97388 91.9786 12.4612 93.3561 16.2231 94.6816C17.8153 95.2425 20.1462 95.6816 21.6194 96.3413C21.899 96.4031 22.1828 96.4707 22.4648 96.5173C26.5278 98.1206 29.9026 98.1808 33.9677 98.7694C34.2103 98.8434 34.6967 98.9714 34.8928 99.0947C35.8581 96.4347 35.6439 95.1576 37.1763 91.9299C38.046 92.9157 37.8753 100.464 38.1506 101.966C38.2084 103.261 38.5905 105.208 38.7642 106.578C38.7645 107.121 38.8376 107.621 38.8751 108.159C39.0741 111.013 39.1038 113.924 39.1173 116.784C38.5531 116.792 36.7903 116.739 36.4296 117H0V1.15494V0Z" fill="#D2C8B1"/>
<path d="M76.8477 4.35152C81.8378 4.28981 86.8381 4.60371 91.8295 4.51319C95.8818 4.4397 99.9371 4.29069 103.993 4.32449C105.959 4.34088 107.948 4.24049 109.906 4.43421C111.928 4.67365 113.764 4.99807 114.845 6.91626C114.989 9.75155 114.805 10.8899 112.922 13.3955C112.903 13.42 112.804 13.5046 112.773 13.5302C111.904 14.7148 110.877 16.2136 109.682 17.0817C108.32 18.6007 106.381 19.7228 105.093 21.0559C103.708 22.4891 98.552 26.3388 97.9425 27.8765L96.6588 28.3242C94.2096 28.608 91.4698 28.0964 88.6834 28.4937C88.1441 28.6362 87.9441 28.7099 87.3942 28.6755L86.5855 28.7515C86.0037 28.505 85.7724 28.4087 85.1538 28.2753C85.2059 27.4648 85.1351 27.3468 84.597 26.7282C82.5919 25.0061 80.5854 23.2071 78.495 21.5852C74.9978 18.8718 72.3433 16.8603 69.4146 13.526C68.1184 12.0343 67.5827 11.0647 67.5104 9.06792C67.4917 8.55033 67.4948 8.079 67.2717 7.6083C68.2626 5.96848 68.4669 5.42009 70.2782 4.83748C70.5662 4.79717 70.9219 4.70923 71.2127 4.65007C73.0973 4.26671 74.9372 4.30706 76.8477 4.35152Z" fill="#90851D"/>
<path d="M76.8477 4.35152C81.8378 4.28981 86.8381 4.60371 91.8295 4.51319C95.8818 4.4397 99.9371 4.29069 103.993 4.32449C105.959 4.34088 107.948 4.24049 109.906 4.43421C111.928 4.67365 113.764 4.99807 114.845 6.91626C114.989 9.75155 114.805 10.8899 112.922 13.3955C112.903 13.42 112.804 13.5046 112.773 13.5302C111.789 13.5503 112.205 13.7318 111.619 14.2177C111.515 13.8061 111.587 13.8309 111.318 13.5814C110.777 13.4648 110.47 13.8462 109.892 13.8985C110.517 13.0809 110.539 13.2825 110.757 12.2114C110.017 11.7675 106.893 13.158 105.618 13.1875C103.704 13.2316 101.783 13.2131 99.8699 13.2186L86.0477 13.1989C85.183 13.1952 79.715 13.1396 79.213 13.2588C76.6358 13.3223 73.1568 12.2896 70.6429 11.6206L70.4396 11.6417C69.8819 11.3722 69.4804 11.3464 68.8793 11.2723C69.0575 12.055 69.2551 12.3261 69.854 12.8669C69.4679 13.2042 69.5615 13.0385 69.4146 13.526C68.1184 12.0343 67.5827 11.0647 67.5104 9.06792C67.4917 8.55033 67.4948 8.079 67.2717 7.6083C68.2626 5.96848 68.4669 5.42009 70.2782 4.83748C70.5662 4.79717 70.9219 4.70923 71.2127 4.65007C73.0973 4.26671 74.9372 4.30706 76.8477 4.35152Z" fill="#206D3E"/>
<path d="M71.3305 10.8035C72.8985 10.9506 74.4741 11.0001 76.0482 10.9517C80.5076 10.9765 84.5236 11.318 88.9526 11.6706C91.9819 11.9117 95.8909 11.1542 98.9761 11.1205C101.027 11.1187 110.603 10.6037 111.875 11.1149L112.002 11.3028C111.892 11.6997 111.146 12.1736 110.757 12.2114C110.017 11.7675 106.893 13.158 105.618 13.1875C103.704 13.2316 101.783 13.2131 99.8699 13.2186L86.0477 13.1989C85.183 13.1951 79.715 13.1396 79.213 13.2588C76.6358 13.3223 73.1568 12.2895 70.6429 11.6206C70.6288 11.4908 70.6552 11.3701 70.6721 11.2378C70.9796 10.868 70.8588 10.98 71.3305 10.8035Z" fill="#7D9236"/>
<path d="M67.2717 7.60828C68.2626 5.96847 68.4669 5.42008 70.2782 4.83746L70.1213 5.09666C69.3799 5.43877 68.4045 5.97012 68.1668 6.80384C67.9279 7.64193 67.5905 9.16681 67.7373 10.0195L67.888 10.1755C68.0126 9.95273 68.0061 9.85901 68.0403 9.60041L68.1636 9.58622C68.299 9.79963 68.2925 9.78952 68.3382 10.0395C69.5127 10.5933 72.2227 10.588 73.5651 10.6854C74.2516 10.7352 75.5552 10.5254 76.0482 10.9517C74.4741 11.0001 72.8985 10.9506 71.3305 10.8035C70.8589 10.98 70.9796 10.8681 70.6722 11.2378C70.6552 11.3702 70.6289 11.4908 70.6429 11.6206L70.4396 11.6417C69.8819 11.3722 69.4804 11.3464 68.8793 11.2723C69.0575 12.055 69.2551 12.3261 69.854 12.8669C69.4679 13.2042 69.5615 13.0385 69.4146 13.5259C68.1184 12.0343 67.5827 11.0647 67.5104 9.0679C67.4917 8.55032 67.4948 8.07898 67.2717 7.60828Z" fill="#1C4F32"/>
<path d="M68.8792 11.2723C68.6072 10.9236 68.5407 10.9583 68.5217 10.5937C69.0576 10.2884 70.5826 10.6887 71.3304 10.8035C70.8588 10.98 70.9795 10.868 70.6721 11.2378C70.6552 11.3701 70.6288 11.4908 70.6428 11.6206L70.4395 11.6417C69.8819 11.3722 69.4804 11.3464 68.8792 11.2723Z" fill="#5D7553"/>
<path d="M70.2782 4.83749C70.5663 4.79718 70.9219 4.70924 71.2127 4.65008C73.0973 4.26672 74.9372 4.30707 76.8477 4.35153C77.1337 4.38911 79.1339 4.52257 79.1333 4.52223C78.9831 4.72501 78.9426 4.76643 78.7491 4.92853L78.8847 5.08325C78.1312 5.50181 74.0951 5.28907 73.0157 5.3381C72.2207 5.3742 71.4013 5.46014 70.586 5.56266C70.524 5.40989 70.5038 5.33995 70.4609 5.18498L70.1213 5.09668L70.2782 4.83749Z" fill="#04311A"/>
<path d="M69.8539 12.8669C70.9778 13.6976 71.5588 14.4961 72.1879 14.9731C73.196 16.1156 74.5387 16.9669 75.6762 17.9744C78.9769 20.8977 82.6931 23.5429 85.6707 26.7829L85.6058 27.1004C85.2126 27.1275 84.996 26.8824 84.5969 26.7282C82.5918 25.0062 80.5853 23.2072 78.495 21.5853C74.9978 18.8719 72.3432 16.8604 69.4146 13.526C69.5614 13.0386 69.4678 13.2042 69.8539 12.8669Z" fill="#1C4F32"/>
<path d="M108.132 17.5334C108.843 17.4664 109.442 17.0902 109.682 17.0817C108.32 18.6007 106.381 19.7228 105.093 21.0559C103.708 22.4891 98.552 26.3388 97.9425 27.8765L96.6588 28.3242C96.4646 28.2468 96.439 28.1996 96.3005 28.0496C96.431 27.2275 101.901 22.888 102.837 21.9812C104.379 20.4881 106.318 18.6524 108.132 17.5334Z" fill="#04311A"/>
<path d="M70.6428 11.6206C73.1567 12.2896 76.6358 13.3224 79.213 13.2588C77.7274 13.7827 76.082 12.6156 75.3479 13.5369L75.3881 13.8123C76.0866 14.0424 77.343 14.142 78.1042 14.1908C77.0779 14.5213 73.4743 13.6387 72.3196 13.3412C71.6315 12.9709 70.4078 12.6885 70.4396 11.6417L70.6428 11.6206Z" fill="#57570C"/>
<path d="M111.619 14.2176C112.205 13.7318 111.789 13.5503 112.773 13.5302C111.905 14.7148 110.877 16.2136 109.682 17.0816C109.442 17.0902 108.843 17.4663 108.132 17.5334C109.495 16.3473 110.331 15.5259 111.619 14.2176Z" fill="#1C4F32"/>
<path d="M68.8794 11.2723C69.4805 11.3465 69.882 11.3723 70.4397 11.6417C70.4079 12.6885 71.6316 12.9709 72.3197 13.3412L72.1407 13.4568C71.5598 13.3082 71.3974 13.2423 70.8625 12.9692L70.7867 13.125C71.2497 13.7243 72.1217 14.3644 72.1881 14.973C71.559 14.4961 70.978 13.6976 69.854 12.8669C69.2552 12.3262 69.0575 12.055 68.8794 11.2723Z" fill="#306D29"/>
<path d="M85.6707 26.7828C86.1609 27.3268 86.9886 28.1484 87.3942 28.6755L86.5855 28.7515C86.0037 28.505 85.7723 28.4087 85.1537 28.2753C85.2058 27.4648 85.1351 27.3468 84.5969 26.7282C84.996 26.8823 85.2127 27.1274 85.6058 27.1003L85.6707 26.7828Z" fill="#30833D"/>
<path d="M0 0H184.641V1.12744L76.9074 1.10676L15.54 1.10653C10.3848 1.14162 5.13643 1.06808 0 1.15494V0Z" fill="#A5AAA7"/>
<path d="M169.856 93.5167C170.861 93.5703 174.95 91.3208 175.325 91.6642C174.796 92.9074 174.885 94.3996 175.04 95.7201C175.136 96.5363 176.167 96.0384 175.472 97.2266C174.529 97.7149 173.154 98.1806 172.145 98.6067C171.37 98.9341 170.114 99.5401 169.355 99.7464L169.292 99.9579C168.378 100.51 166.554 100.562 165.685 100.972C165.045 101.274 160.407 102.976 160.238 103.244C160.538 103.345 160.861 103.115 161.348 103.043C161.146 103.494 158.207 103.998 157.638 104.049C156.606 104.141 155.258 103.546 154.27 104.164L154.404 104.322C153.855 104.51 151.712 104.534 151.101 104.513L151.152 104.503C150.754 104.459 149.941 104.415 149.664 104.149C148.589 103.117 148.48 101.141 148.222 99.7317C148.416 99.242 148.495 99.0601 148.576 98.545C150.625 98.5005 155.474 97.9111 157.421 97.1705C160.395 96.7286 164.304 95.2183 167.176 94.3857C168.008 94.1443 169.062 93.6976 169.856 93.5167Z" fill="#30833D"/>
<path d="M2.36226 89.4034C3.06451 89.6925 3.7079 89.9617 4.43063 90.1992C7.97384 91.9786 12.4611 93.3561 16.2231 94.6816C17.8153 95.2425 20.1461 95.6816 21.6194 96.3413C20.491 96.5459 19.658 95.3262 18.9075 96.4747C18.1961 97.5634 17.1823 99.4236 17.2621 100.748C17.6911 101.209 19.2525 101.31 19.5611 101.659L19.4441 101.746C14.8095 100.397 7.91465 98.222 3.58175 96.203C2.60248 95.8194 1.99364 95.3598 1.07837 94.8818C1.48597 94.3853 2.05381 90.3984 2.36226 89.4034Z" fill="#53AC63"/>
<path d="M19.4442 101.746L19.5612 101.659C19.2526 101.31 17.6912 101.209 17.2623 100.748C17.1824 99.4236 18.1962 97.5634 18.9076 96.4747C19.6581 95.3262 20.4911 96.5459 21.6195 96.3413C21.8991 96.4031 22.1829 96.4707 22.4649 96.5173C26.5279 98.1206 29.9027 98.1808 33.9678 98.7694C34.2103 98.8434 34.6967 98.9714 34.8929 99.0947C34.6862 100.042 33.9385 102.518 33.5242 103.419C33.41 103.365 33.3752 103.401 33.2225 103.428C33.138 103.851 33.1321 103.933 32.873 104.288C32.2527 104.53 28.7216 104.312 27.9262 104.223L28.1707 104.206C27.4127 104.165 26.6826 104.136 25.93 104.031C26.1087 103.971 26.119 103.987 26.2349 103.844C25.5459 103.576 24.7115 103.238 23.9951 103.113L23.888 103.095C22.6739 102.784 20.5343 102.268 19.4442 101.746Z" fill="#306D29"/>
<path d="M16.047 35.8831C16.1179 36.5538 15.4592 37.0762 15.2006 37.673C14.4391 39.4309 13.5365 41.1263 12.871 42.9228C11.3085 47.1732 10.1863 51.5727 9.52204 56.0521C9.44245 56.6216 9.28096 60.0821 9.23089 60.172C7.89463 62.5707 7.90448 65.0875 7.86374 67.7816C7.86054 67.9932 8.11856 68.1172 8.13534 68.5196C8.76706 67.7612 8.88539 62.8973 9.05338 61.7393C9.08549 61.518 9.28898 61.4089 9.45806 61.2979L9.64463 61.3899C9.74029 61.6857 9.77389 61.7464 9.69283 62.042L9.54527 61.9246C9.04869 62.4588 9.23521 63.9585 9.1752 64.6944C9.10365 65.5716 9.01085 66.3894 8.8098 67.2519C8.64134 68.3905 8.05585 69.5294 7.84797 70.496C7.6825 71.2655 7.84842 73.355 7.66751 74.1433C7.3474 75.538 6.84747 76.9885 6.50514 78.3909L4.94867 84.6777C4.29859 87.3535 4.61058 87.0622 2.72907 89.1492C3.02646 89.7167 4.35102 89.6237 4.43063 90.1992C3.70791 89.9617 3.06452 89.6925 2.36227 89.4034C2.28579 87.2369 3.36066 82.5373 3.97215 80.3544C4.75562 77.5576 5.64619 75.3932 5.46076 72.3281C5.43673 71.9308 5.94578 69.2874 6.16984 69.0798L6.42575 69.4076C6.61953 68.7633 7.28278 67.8096 7.31835 67.0786C7.45336 64.3036 7.72263 61.963 8.77124 59.3822C8.85511 58.655 8.76641 57.8267 8.92308 57.1107C10.2806 50.9065 11.3266 44.7467 14.2858 39.0363C14.7637 38.1142 15.3346 36.6477 16.047 35.8831Z" fill="#E0D26A"/>
<path d="M180.109 89.4257C180.572 89.4664 180.555 89.3861 180.813 89.6469C181.118 91.3304 181.421 93.0096 181.844 94.6679C181.92 94.9663 181.991 95.2572 182.004 95.5662C181.877 95.3859 181.868 95.3105 181.643 95.2653C180.538 95.0446 171.321 99.4189 169.292 99.9579L169.355 99.7464C170.114 99.5401 171.37 98.9341 172.145 98.6067C173.154 98.1806 174.529 97.7149 175.472 97.2266C176.167 96.0384 175.136 96.5363 175.04 95.7201C174.885 94.3996 174.796 92.9074 175.325 91.6641C174.951 91.3208 170.861 93.5703 169.856 93.5167C170.712 92.9502 174.665 91.5975 175.918 91.017L180.109 89.4257Z" fill="#53AC63"/>
<path d="M169.292 99.9578C171.32 99.4189 180.538 95.0445 181.642 95.2653C181.868 95.3104 181.877 95.3858 182.003 95.5661C180.452 96.8849 171.318 100.207 168.817 101.194C167.182 101.742 165.488 102.128 163.838 102.623C162.316 103.074 160.87 103.654 159.318 104.007C157.905 104.329 156.526 104.501 155.097 104.635C149.346 105.173 149.057 105.509 147.88 99.7413C147.981 99.1812 148.143 98.8962 148.576 98.5449C148.495 99.06 148.416 99.2419 148.222 99.7316C148.48 101.141 148.589 103.117 149.664 104.149C149.94 104.415 150.754 104.459 151.152 104.503L151.101 104.513C151.711 104.534 153.855 104.51 154.403 104.322L154.27 104.164C155.258 103.546 156.606 104.141 157.638 104.049C158.207 103.998 161.146 103.494 161.348 103.043C160.861 103.115 160.538 103.345 160.237 103.244C160.406 102.976 165.045 101.274 165.685 100.972C166.554 100.561 168.378 100.51 169.292 99.9578Z" fill="#115655"/>
<path d="M3.58179 96.203C7.91469 98.2219 14.8095 100.397 19.4442 101.746C20.5342 102.268 22.6738 102.784 23.8879 103.095C23.5715 103.355 23.1932 103.726 22.8063 103.799C20.2881 103.109 17.7865 102.319 15.2864 101.56C12.5345 100.724 9.81721 99.5485 7.1252 98.5198C6.29475 97.8156 5.21055 97.7255 4.27594 97.1802C3.62178 96.7986 3.65732 96.9297 3.58179 96.203Z" fill="#000E08"/>
<path d="M23.8877 103.095L23.9949 103.113C24.7113 103.238 25.5457 103.576 26.2347 103.844C26.1187 103.987 26.1084 103.971 25.9297 104.031C26.6823 104.136 27.4125 104.165 28.1704 104.206L27.9259 104.223C28.7214 104.312 32.2524 104.53 32.8727 104.288C33.1319 103.933 33.1378 103.851 33.2222 103.428C33.375 103.401 33.4097 103.365 33.524 103.419C33.3966 103.861 33.2676 104.35 33.1291 104.785C29.6604 104.889 26.1923 104.558 22.8062 103.799C23.193 103.726 23.5713 103.355 23.8877 103.095Z" fill="#1C4F32"/>
<path d="M144.411 99.9496C144.392 98.9358 144.462 92.524 144.903 91.8774L145.093 92.0308C145.209 94.4701 144.77 97.309 144.892 99.2258C144.871 100.267 144.866 102.141 144.646 103.106L144.482 102.982C144.334 102.713 144.445 100.613 144.411 99.9496Z" fill="#90851D"/>
<path d="M145.093 92.0308C145.406 92.0552 145.447 92.0212 145.716 91.8519L146.469 94.0592C146.668 94.6574 147.143 95.9822 147.235 96.5421C146.558 95.8266 146.518 94.381 145.83 93.527L145.647 93.5336C145.357 94.1951 145.207 98.1094 144.891 99.2258C144.77 97.309 145.209 94.4701 145.093 92.0308Z" fill="#E0D26A"/>
<path d="M1.07854 94.8817C1.99381 95.3598 2.60264 95.8193 3.58191 96.203C3.65745 96.9297 3.6219 96.7986 4.27606 97.1802C5.21068 97.7255 6.29487 97.8156 7.12532 98.5198C5.82572 98.1834 2.17046 96.6134 1.11986 95.8071C0.935359 95.5275 1.02786 95.2174 1.07854 94.8817Z" fill="#131C12"/>
<path d="M114.845 6.91626C115.696 7.46841 118.769 9.91189 119.47 10.6593C120.626 10.4723 126.708 13.952 128.225 14.6728C132.926 16.9072 137.771 18.4839 142.628 20.3381C144.07 20.8889 145.73 21.1816 147.189 21.7267C151.469 23.7887 157.391 25.5689 160.803 28.8163C162.211 30.1563 165.689 33.9301 166.59 35.4536C169.403 40.2047 172.372 48.2948 173.23 53.6006C174.55 61.7266 176.1 69.8137 177.876 77.8523C178.642 81.3421 179.678 84.6085 180.632 88.0385C180.719 88.3516 180.668 88.7822 180.58 89.0942C180.387 89.2876 180.358 89.317 180.109 89.4257L175.918 91.017L175.773 90.9163C176.468 90.4303 177.194 90.6623 178.421 89.5554C178.263 88.7371 178.403 87.8948 178.307 87.0991C178.134 85.6582 177.722 83.8565 177.306 82.452C176.936 81.2 176.195 79.581 175.675 78.3605C175.347 77.59 174.73 76.5396 174.462 75.7672C174.088 74.6235 174.023 73.2664 173.432 72.2142C173.296 71.9703 172.741 71.8491 172.448 72.0816L172.406 72.7237C171.984 72.2814 173.088 68.1348 172.899 67.195C172.585 65.6251 171.849 65.9232 171.825 64.3676C170.823 63.8971 171.644 63.5785 171.456 62.7368C171.373 61.7539 170.15 59.3116 170.21 58.4501C170.366 56.1394 170.097 53.9611 169.986 51.6933C169.28 50.9522 168.703 49.0821 167.982 47.984L167.721 47.9822L167.543 47.7987C167.537 47.6096 167.518 46.8651 167.464 46.7473C167.118 45.998 166.319 45.497 166.488 44.6269C166.632 43.89 165.397 43.3448 164.85 42.6984C164.192 41.7843 164.42 40.9001 163.777 39.7896C163.325 39.0077 160.911 36.3016 161.189 35.6262C161.303 35.6074 161.38 35.586 161.491 35.5558C160.981 35.3111 160.758 35.1865 160.304 34.876C159.828 34.5503 158.945 33.4534 158.472 33.3608C158.437 33.5367 158.454 33.585 158.479 33.7581L158.488 33.8156C157.269 34.9733 154.61 34.4863 153.085 34.4019C153.658 34.4336 150.795 34.9408 151.178 34.814C150.579 35.0122 148.238 35.4448 147.944 35.7546C146.216 37.5801 146.284 35.1615 144.817 36.253C143.828 36.9892 142.714 37.6279 141.777 38.2742L141.722 38.2128L141.946 37.9691L141.875 37.8743C141.713 37.8767 140.828 37.904 140.745 37.8817C139.525 37.5553 139.249 39.3255 138.082 38.4588C137.758 38.2195 136.936 37.7087 136.624 37.6901L135.84 38.4409C135.841 37.7165 135.742 36.7387 135.906 36.0769C136.011 35.6608 136.042 35.7732 135.907 35.4287C134.552 35.4646 133.235 35.4866 131.881 35.4062C131.164 35.3637 129.197 34.7926 128.695 35.1384L128.787 35.2802C129.857 35.3453 129.828 36.5256 131.092 36.5247C131.52 36.5244 131.567 37.113 131.783 37.0981C133.725 36.9643 132.738 37.815 133.004 38.4849C133.199 38.5461 133.475 38.6248 133.656 38.7054L133.739 38.7426C133.921 38.611 133.846 38.2373 134.064 37.7929C134.373 37.5372 135.038 37.59 135.472 37.5788C134.212 38.8191 133.762 39.3576 135.964 39.711C136.179 40.017 135.927 40.3369 135.977 40.4198C136.714 41.6595 135.627 41.7712 135.146 42.3074L135.315 42.4475L135.162 42.3965C135.793 42.6194 136.507 42.3715 137.033 42.8904C137.141 43.6131 136.511 43.5153 135.985 44.2615C137.224 45.8617 137.457 47.0204 136.714 48.9424C136.577 49.2973 136.371 49.7199 136.386 50.0906C136.928 50.0943 136.762 50.1092 137.238 49.649L137.387 49.7618C137.342 51.2469 136.229 50.2357 137.47 52.6306C137.453 53.0437 137.26 53.1077 136.904 53.4696L137.234 53.8638C137.367 55.0022 135.703 58.427 134.484 58.9972C133.958 59.2427 134.1 59.6314 133.646 59.8423C132.95 59.2525 133.588 58.1346 132.674 57.3309C132.35 58.569 132.26 59.3093 132.081 60.5669C131.632 60.5723 131.504 60.5424 131.063 60.4496L130.798 60.3866C130.23 61.2982 129.798 61.838 130.793 62.6723L130.747 62.837L129.433 63.2057C128.275 64.3374 127.492 65.4406 125.883 64.3107C125.501 64.5888 125.656 64.5518 125.209 64.5785C125.185 64.7633 125.162 64.9259 125.151 65.1131C125.615 66.3369 126.097 67.4048 124.688 68.1958C123.948 68.1692 123.655 68.1924 122.93 68.2781C122.794 68.5851 122.881 68.4771 122.521 68.6662C122.209 68.5253 121.934 68.48 121.601 68.4059L121.448 68.352C118.523 68.1525 119.036 66.9756 120.385 65.1184L120.331 65.0463C120.135 64.9422 118.53 65.0281 118.098 65.0181C116.718 64.9994 116.426 65.2221 115.926 63.8282L115.846 63.2106C115.917 62.7956 115.982 61.9317 116.029 61.4852C115.75 61.3644 115.622 61.2819 115.368 61.1224C115.129 60.8593 115.082 60.8046 114.781 60.6167C114.388 60.6081 114.546 60.5771 114.163 60.8074C113.89 61.1559 113.161 61.2284 112.83 60.9627C112.751 60.8994 112.708 60.5889 112.682 60.4748C112.603 60.7933 112.823 62.8565 112.908 63.1798C112.74 65.4006 112.625 67.992 113.38 70.1192L113.22 70.2922C113.155 70.0443 113.109 69.8091 112.906 69.6351C112.838 69.576 112.766 69.5251 112.705 69.4574C111.744 68.3954 112.485 65.7582 112.599 64.4667C112.642 63.971 112.606 63.4604 112.569 62.9652C112.446 61.3378 111.774 58.7141 111.865 57.2125C111.365 57.1022 110.244 57.1787 109.769 57.4565C109.537 57.4051 109.615 57.0679 109.503 56.8373C109.507 56.8454 108.867 56.7756 108.862 56.7652C108.666 56.3486 108.592 55.6656 108.252 55.3842L108.017 55.5718L107.892 55.4314C107.848 54.9674 107.904 55.0379 108.139 54.5533C107.86 54.3474 107.92 54.6913 107.596 54.0789C107.446 53.7951 107.176 52.9573 106.953 52.8528L106.775 53.353L106.679 53.3807C106.691 53.1164 106.69 53.0995 106.621 52.8454L106.324 52.708C106.075 52.2359 106.231 51.9801 106.33 51.3699L106.348 51.6083C106.381 51.5321 106.374 50.9342 106.375 50.8059L106.057 51.1114C105.428 50.2027 105.803 49.9204 105.638 48.8541C105.586 48.5257 105.021 48.3368 104.903 47.9671L105.113 47.5987C104.976 46.767 104.25 46.2158 104.178 45.3245C104.074 44.88 104.308 44.8167 104.625 44.5425C105.205 44.0407 105.954 43.555 105.831 42.6729C105.101 42.3562 104.847 41.7482 104.389 41.1749C103.635 40.2289 104.228 40.0984 104.221 39.1308C103.904 38.8136 102.685 40.0726 101.573 39.8106C101.825 39.3203 101.659 38.8874 101.806 38.3562C102.004 37.6407 102.348 36.9212 102.497 36.1963C102.588 35.757 102.4 35.369 102.597 34.9399C102.988 34.8394 103.25 35.0679 103.364 35.0366C104.016 34.8574 105.264 33.6714 105.883 33.3232C106.234 33.1254 106.7 33.3346 107.113 33.0439C107.111 32.3994 107.714 32.5402 108.311 32.0972C108.322 31.8787 108.319 31.8883 108.408 31.6887L108.831 31.6583C108.928 31.541 109.014 31.4335 109.152 31.3627C109.026 30.8937 108.603 31.0682 108.524 30.6205C108.805 30.47 108.869 30.4393 109.095 30.2178L108.822 30.1478L108.79 29.9775C108.979 29.792 109.008 29.7823 109.072 29.5354C108.252 28.9614 106.606 27.6465 107.033 26.5321C107.092 26.376 106.693 25.791 106.617 25.5107L106.37 25.3906C104.481 26.1581 102.677 26.8964 100.696 27.3968C100.45 27.459 99.236 27.7754 99.0918 27.8534L97.9424 27.8765C98.5518 26.3388 103.707 22.4891 105.093 21.0559C106.381 19.7228 108.32 18.6007 109.682 17.0817C110.877 16.2136 111.904 14.7148 112.773 13.5302C112.804 13.5046 112.903 13.42 112.922 13.3955C114.805 10.8898 114.989 9.75154 114.845 6.91626Z" fill="#EFE45F"/>
<path d="M114.845 6.91626C115.696 7.46841 118.769 9.91189 119.47 10.6593C119.996 16.1852 113.616 21.1396 109.492 23.8525C108.663 24.3975 107.125 24.8458 106.37 25.3906C104.481 26.1581 102.677 26.8964 100.696 27.3968C100.45 27.459 99.236 27.7754 99.0918 27.8534L97.9424 27.8765C98.5518 26.3388 103.707 22.4891 105.093 21.0559C106.381 19.7228 108.32 18.6007 109.682 17.0817C110.877 16.2136 111.904 14.7148 112.773 13.5302C112.804 13.5046 112.903 13.42 112.922 13.3955C114.805 10.8898 114.989 9.75154 114.845 6.91626Z" fill="#53AC63"/>
<path d="M122.559 49.5364C123.113 49.856 123.934 50.3985 124.502 50.5871C125.293 50.8411 126.053 51.3582 126.76 51.8092C127.858 52.5258 128.618 53.1115 129.649 53.8981C130.47 54.427 131.719 55.1478 132.3 55.8746C132.329 56.4427 132.289 56.5423 132.788 56.9299L132.674 57.3309C132.351 58.569 132.26 59.3093 132.081 60.5669C131.632 60.5723 131.504 60.5424 131.063 60.4496L130.798 60.3866C130.23 61.2982 129.798 61.8381 130.793 62.6724L130.747 62.837L129.434 63.2057C128.275 64.3374 127.492 65.4406 125.884 64.3107C125.443 63.9851 124.037 62.8295 123.925 62.3488L124.098 62.2733L123.743 61.8788L123.564 62.0304C123.168 61.8363 123.004 61.3945 122.691 60.9562L122.228 61.0157C120.978 61.4572 120.371 60.639 119.772 59.6267C119.714 58.9607 119.706 58.1169 119.84 57.4646C120.472 57.4648 121.1 57.3749 121.763 57.3804C121.942 56.8878 122.602 56.2706 123.013 55.2385C122.834 53.6802 123.096 50.6161 122.559 49.5364Z" fill="#619499"/>
<path d="M123.013 55.2385C123.163 55.4557 123.404 55.7539 123.453 55.9965C124.245 57.0501 125.983 58.7101 125.175 60.0904C125.554 60.2927 125.657 60.3275 125.912 60.6798L125.742 60.9889C125.169 61.5193 124.795 61.9185 124.098 62.2733L123.743 61.8789L123.564 62.0304C123.168 61.8363 123.004 61.3945 122.691 60.9562L122.228 61.0157C120.978 61.4572 120.371 60.639 119.772 59.6267C119.714 58.9607 119.706 58.1169 119.84 57.4646C120.472 57.4648 121.1 57.3749 121.763 57.3804C121.942 56.8878 122.602 56.2706 123.013 55.2385Z" fill="#D2DEDF"/>
<path d="M125.175 60.0903C125.554 60.2927 125.657 60.3274 125.912 60.6798L125.742 60.9889C125.169 61.5192 124.795 61.9185 124.098 62.2732L123.743 61.8788C124.055 61.4049 124.789 60.5591 125.175 60.0903Z" fill="#78909E"/>
<path d="M123.013 55.2385C123.163 55.4557 123.404 55.7539 123.453 55.9965C122.41 56.8073 123.502 57.8012 121.763 57.3804C121.942 56.8878 122.602 56.2706 123.013 55.2385Z" fill="#C9DCC6"/>
<path d="M122.228 61.0157C122.276 60.233 121.911 59.2426 122.355 58.6162L122.465 58.6546C122.754 59.4537 122.415 60.4624 122.691 60.9562L122.228 61.0157Z" fill="#A5AAA7"/>
<path d="M126.159 60.5258C126.717 61.1141 127.046 61.0263 127.891 61.0496L128.119 61.055C128.204 61.3406 128.288 61.6283 128.384 61.9104C128.766 62.0621 129.126 62.1474 129.329 62.4945C129.37 62.737 129.412 62.9597 129.434 63.2057C128.275 64.3374 127.492 65.4406 125.884 64.3107C125.443 63.985 124.037 62.8294 123.925 62.3487L124.098 62.2732C124.795 61.9184 125.17 61.5192 125.742 60.9888L125.912 60.6798L126.159 60.5258Z" fill="#D2DEDF"/>
<path d="M126.159 60.5258C126.717 61.1141 127.046 61.0263 127.891 61.0496L128.119 61.055C128.204 61.3406 128.288 61.6283 128.384 61.9104C128.312 61.9088 127.538 61.9083 127.508 61.925C127.171 62.1131 126.936 62.4742 126.47 62.4484C126.117 62.1008 125.926 61.467 125.742 60.9888L125.912 60.6798L126.159 60.5258Z" fill="#A5AAA7"/>
<path d="M129.691 60.1118C129.941 60.1728 130.584 60.3114 130.798 60.3866C130.23 61.2982 129.798 61.838 130.793 62.6723L130.747 62.837L129.434 63.2057C129.412 62.9597 129.37 62.737 129.328 62.4945C129.126 62.1474 128.766 62.0621 128.383 61.9105C128.288 61.6284 128.204 61.3407 128.118 61.055C129.055 60.6134 129.423 61.1929 129.691 60.1118Z" fill="#B4D192"/>
<path d="M132.3 55.8746C132.329 56.4427 132.289 56.5423 132.788 56.9299L132.674 57.3309C132.351 58.569 132.26 59.3093 132.081 60.5669C131.632 60.5723 131.504 60.5423 131.063 60.4496C131.135 59.1638 131.685 57.0098 132.3 55.8746Z" fill="#404C47"/>
<path d="M126.159 60.5258C127.657 59.1206 127.855 59.4551 129.691 60.1118C129.423 61.1929 129.055 60.6134 128.118 61.055L127.891 61.0496C127.046 61.0263 126.717 61.1141 126.159 60.5258Z" fill="#C9DCC6"/>
<path d="M124.502 50.5871C125.293 50.8411 126.053 51.3582 126.76 51.8092C125.668 52.347 125.791 54.485 125.566 55.6809C125.289 54.2146 125.385 53.0222 125.395 51.5466C125.398 51.1423 124.964 51.0457 124.557 50.6434L124.502 50.5871Z" fill="#678B7E"/>
<path d="M117.241 51.9301L117.573 52.0111C118.487 51.6734 118.717 51.5504 119.668 51.6379L119.545 51.8879C119.535 53.1125 119.529 54.0785 119.671 55.3089L119.206 55.4343C119.316 56.2154 119.06 56.2733 119.04 56.8363C119.538 56.8559 119.668 56.7548 119.837 57.3041L119.841 57.4646C119.706 58.1169 119.714 58.9607 119.772 59.6267C120.371 60.639 120.979 61.4572 122.229 61.0157L122.691 60.9562C123.004 61.3945 123.168 61.8363 123.564 62.0303L123.744 61.8788L124.098 62.2732L123.925 62.3488C124.037 62.8295 125.443 63.9851 125.884 64.3107C125.501 64.5888 125.656 64.5518 125.21 64.5785C125.186 64.7633 125.163 64.9259 125.151 65.1131C125.615 66.3369 126.097 67.4048 124.689 68.1958C123.948 68.1692 123.656 68.1924 122.93 68.2781C122.794 68.5851 122.881 68.4771 122.521 68.6662C122.209 68.5253 121.934 68.48 121.601 68.4059L121.448 68.352C118.523 68.1525 119.036 66.9756 120.386 65.1184L120.331 65.0463C120.135 64.9422 118.53 65.0281 118.098 65.0181C116.718 64.9994 116.427 65.2221 115.926 63.8282L115.846 63.2106C115.917 62.7956 115.982 61.9317 116.029 61.4852C115.75 61.3644 115.622 61.282 115.369 61.1224C115.13 60.8593 115.082 60.8046 114.781 60.6167C114.388 60.6081 114.546 60.5771 114.163 60.8074C114.009 59.6349 113.858 58.3951 113.576 57.2461C113.401 56.538 112.829 55.6242 112.855 54.9544C113.113 54.2516 115.64 52.8975 116.526 52.3293L117.241 51.9301Z" fill="#619499"/>
<path d="M122.601 62.7168C123.787 63.3844 123.947 63.8341 124.707 64.3219L125.151 65.1131C125.615 66.3369 126.097 67.4048 124.688 68.1958C123.948 68.1692 123.655 68.1924 122.93 68.2781C122.794 68.5851 122.881 68.4771 122.521 68.6662C122.209 68.5253 121.934 68.48 121.601 68.4059L121.448 68.352C118.523 68.1525 119.036 66.9756 120.385 65.1184C120.429 65.0784 120.848 64.4777 120.949 64.3471C121.481 63.6535 121.923 63.2585 122.601 62.7168Z" fill="#D2DEDF"/>
<path d="M121.448 68.352C121.575 68.3401 122.031 68.301 122.054 68.2529C122.467 67.4014 121.373 66.1345 122.676 65.5427L122.847 65.6139C123.122 66.3043 122.289 67.6456 122.93 68.2781C122.794 68.5851 122.881 68.4771 122.521 68.6662C122.209 68.5253 121.934 68.48 121.601 68.4059L121.448 68.352Z" fill="#A5AAA7"/>
<path d="M116.029 61.4852C116.24 60.7765 116.213 58.6153 117.037 58.4305C117.893 58.8408 118.523 60.0443 119.123 60.6891L119.197 60.7676L119.142 60.9328C119.05 61.6021 119.386 63.0583 119.757 63.6009C119.791 63.6899 119.828 63.7783 119.866 63.8657C119.666 64.1781 119.772 64.1151 119.477 64.1934C118.97 63.9699 119.029 63.7967 118.854 63.8542C118.755 64.3793 118.812 64.5503 118.494 64.901L118.098 65.0181C116.718 64.9995 116.426 65.2221 115.926 63.8282L115.846 63.2106C115.917 62.7957 115.982 61.9317 116.029 61.4852Z" fill="#C9DCC6"/>
<path d="M118.854 63.8543C118.833 63.3443 118.918 61.2631 119.142 60.9328C119.05 61.6021 119.386 63.0583 119.757 63.6009C119.791 63.69 119.828 63.7783 119.866 63.8657C119.666 64.1781 119.772 64.1151 119.477 64.1934C118.97 63.9699 119.029 63.7967 118.854 63.8543Z" fill="#A5AAA7"/>
<path d="M119.197 60.7676C119.56 61.0681 120.208 61.6388 120.642 61.7519C121.668 61.8049 124.718 63.2787 124.707 64.3219C123.947 63.8341 123.787 63.3844 122.601 62.7168C121.924 63.2585 121.481 63.6535 120.949 64.3472C120.848 64.4778 120.429 65.0784 120.386 65.1184L120.331 65.0463C120.135 64.9422 118.53 65.0281 118.098 65.0181L118.495 64.901C118.812 64.5503 118.755 64.3793 118.855 63.8543C119.029 63.7967 118.97 63.9699 119.477 64.1934C119.772 64.1151 119.666 64.1781 119.866 63.8657C119.828 63.7783 119.791 63.6899 119.757 63.6009C119.386 63.0583 119.05 61.6021 119.142 60.9328L119.197 60.7676Z" fill="#78909E"/>
<path d="M119.197 60.7676C119.559 61.0681 120.208 61.6388 120.641 61.7519C121.149 62.0913 121.313 62.1761 121.882 62.4003C121.36 62.7861 120.382 63.6357 119.757 63.6009C119.386 63.0583 119.05 61.6021 119.142 60.9328L119.197 60.7676Z" fill="#D2DEDF"/>
<path d="M118.072 57.6759C117.498 57.7595 116.915 57.8919 116.354 57.79C116.297 57.5965 116.774 57.0302 116.931 56.8065C117.42 56.1156 117.35 55.1155 118.172 54.7814C118.558 54.8175 118.898 55.1733 119.206 55.4344C119.316 56.2154 119.06 56.2733 119.039 56.8363C118.757 57.4595 118.748 57.4693 118.072 57.6759Z" fill="#6BBAB8"/>
<path d="M117.241 51.9301L117.572 52.0111C118.487 51.6734 118.717 51.5504 119.668 51.6379L119.545 51.8879C118.172 52.5652 117.979 53.3801 116.526 52.3293L117.241 51.9301Z" fill="#509A8E"/>
<path d="M119.85 49.5374C119.784 50.0116 119.698 50.2003 119.521 50.6475L119.668 51.6379C118.717 51.5504 118.486 51.6735 117.572 52.0111L117.241 51.9301L116.526 52.3293C115.64 52.8975 113.113 54.2516 112.854 54.9544C112.829 55.6243 113.401 56.538 113.575 57.2462C113.858 58.3951 114.009 59.6349 114.163 60.8075C113.89 61.1559 113.161 61.2284 112.83 60.9627C112.752 60.8994 112.708 60.5889 112.682 60.4749C112.747 58.2293 112.887 55.9843 110.955 54.5459C113.816 53.1981 115.967 51.6348 118.657 50.0695C118.949 49.8998 119.415 49.7727 119.77 49.5809L119.85 49.5374Z" fill="#151816"/>
<path d="M119.521 50.6475L119.668 51.6379C118.717 51.5504 118.487 51.6734 117.573 52.0111L117.241 51.9301C117.887 51.3835 118.757 51.0017 119.521 50.6475Z" fill="#678B7E"/>
<path d="M119.85 49.5374L120.136 49.3484C120.326 49.6423 119.91 50.219 119.883 50.5964C119.802 51.6818 119.387 53.8855 120.819 54.3858C121.72 53.7094 121.575 54.1839 122.624 54.5301C122.796 53.9898 122.631 50.9816 122.534 50.2478C122.491 49.9284 121.871 49.0887 121.878 48.8246C122.23 48.9045 122.189 48.8372 122.386 49.0567C122.442 49.2477 122.458 49.3667 122.559 49.5364C123.096 50.6161 122.834 53.6801 123.013 55.2385C122.602 56.2706 121.942 56.8878 121.763 57.3804C121.1 57.3749 120.472 57.4648 119.84 57.4646L119.837 57.3041C119.668 56.7548 119.538 56.8559 119.04 56.8363C119.06 56.2733 119.316 56.2154 119.206 55.4343L119.671 55.3089C119.529 54.0784 119.535 53.1125 119.545 51.8879L119.668 51.6379L119.521 50.6475C119.698 50.2003 119.785 50.0116 119.85 49.5374Z" fill="#B4D192"/>
<path d="M119.206 55.4344L119.671 55.3089C119.751 55.9717 119.806 56.6373 119.837 57.3041C119.668 56.7548 119.538 56.8559 119.04 56.8363C119.06 56.2733 119.316 56.2154 119.206 55.4344Z" fill="#509A8E"/>
<path d="M122.386 49.0567C125.522 49.7469 127.475 51.3786 129.838 53.3628L129.649 53.898C128.618 53.1115 127.858 52.5258 126.76 51.8092C126.053 51.3582 125.293 50.8411 124.502 50.5871C123.934 50.3984 123.113 49.8559 122.559 49.5364C122.458 49.3667 122.442 49.2477 122.386 49.0567Z" fill="#29331C"/>
<path d="M129.838 53.3629C130.846 54.0243 132.157 54.9741 133.387 54.9722L133.452 55.1019C133.268 55.6046 132.931 56.4429 132.788 56.9299C132.289 56.5423 132.329 56.4427 132.3 55.8746C131.719 55.1478 130.47 54.4269 129.649 53.898L129.838 53.3629Z" fill="#131C12"/>
<path d="M121.854 44.022C122.639 44.1241 124.658 45.7972 124.695 46.6525C124.468 47.0219 124.558 46.9088 124.103 47.0962C121.1 47.0554 120.016 47.0576 121.854 44.022Z" fill="#A0AB3F"/>
<path d="M117.918 45.1741C118.103 45.1064 118.131 45.1354 118.323 45.1854C118.473 45.4091 118.913 46.6929 119.114 47.152C118.114 47.3879 117.458 47.5509 116.444 47.6374C115.796 47.3232 115.161 46.9494 115.263 46.158C115.798 45.4345 117.017 45.3429 117.918 45.1741Z" fill="#A0AB3F"/>
<path d="M111.625 48.4682C111.733 48.4523 111.842 48.4396 111.95 48.43C112.516 48.3808 113.213 48.4395 113.661 48.8184C114.101 49.7287 113.302 50.2633 112.694 50.8836C112.546 50.9743 112.386 50.9795 112.211 51.0052C111.303 50.768 110.594 50.0798 110.721 49.091C110.881 48.7287 111.248 48.6334 111.625 48.4682Z" fill="#A0AB3F"/>
<path d="M132.252 49.3606C133.436 49.0652 134.483 51.6631 132.505 52.191C131.443 51.7247 131.088 51.3961 130.629 50.3654C131.121 49.9876 131.711 49.6716 132.252 49.3606Z" fill="#A0AB3F"/>
<path d="M127.312 46.1151C127.855 46.1394 129.1 46.8157 129.629 47.0777C129.156 47.6106 128.695 48.0813 128.196 48.5888L127.856 48.6927C127.175 48.5305 126.553 47.6126 126.109 47.0646C126.442 46.7503 126.938 46.3981 127.312 46.1151Z" fill="#A0AB3F"/>
<path d="M67.2717 7.60828C67.4947 8.07897 67.4917 8.55031 67.5104 9.0679C67.5827 11.0647 68.1184 12.0343 69.4146 13.5259C72.3433 16.8603 74.9978 18.8718 78.495 21.5852C80.5854 23.2071 82.5919 25.0061 84.597 26.7282C85.1351 27.3468 85.2058 27.4648 85.1537 28.2752C85.7723 28.4087 86.0037 28.505 86.5855 28.7515C86.5661 31.6927 86.7731 34.0536 87.2272 36.9788C86.9749 37.3794 86.7675 37.6527 86.215 37.5877L86.0239 38.1425C85.5108 38.0157 85.7045 37.9433 85.2542 38.0506C85.0428 38.263 84.9776 38.2907 84.9396 38.5695C85.0726 38.8397 85.1853 39.0554 85.2809 39.3442L85.1648 39.4731L84.6723 39.4331C84.4901 39.8013 84.9087 40.6793 84.6608 41.2804L84.4064 41.3572L84.3595 41.6719L84.6115 41.8729C84.5586 42.3174 84.6318 42.156 84.3431 42.4863C84.0436 42.59 83.7964 42.6685 83.5106 42.8118C83.5256 43.1818 83.6755 43.1626 83.6363 43.3704C83.3103 43.514 83.4434 43.4778 83.032 43.4357C83.363 43.9518 83.4473 44.6412 83.0394 45.1315C82.3556 45.2498 81.8636 44.3648 81.4993 43.8294C81.5427 44.2446 81.6363 45.2126 81.7539 45.5947C81.8759 45.9913 82.4209 45.8675 82.0934 46.3888C81.3023 46.2442 80.3003 45.0772 80.2712 44.2712C80.1469 44.8329 80.266 44.639 79.8768 44.9817C78.6789 46.036 78.3593 48.3863 76.6541 48.7685C74.9375 49.1532 75.9379 52.1543 75.0524 52.9007C74.5145 52.6806 72.2946 51.0165 72.1847 50.4767C71.0842 50.2507 70.2338 49.6197 69.2159 49.3491C68.703 49.2128 67.0007 49.9901 66.4548 49.5755C66.4925 49.1952 66.6234 48.0902 66.341 47.9117C65.2116 47.1983 63.9189 46.6672 62.6463 46.2611C62.5345 46.2255 62.0273 45.4693 61.9808 45.3271L61.532 45.2829C60.8381 44.5125 59.1905 43.7533 58.6062 43.0597C58.3261 42.7275 57.9606 41.7475 57.6563 41.3575C57.2681 40.8597 57.205 41.403 56.9454 40.8764C57.0231 40.3315 57.0809 40.4833 56.853 40.0544C56.2223 39.7526 56.2286 40.2407 55.6764 39.9554C55.6703 39.9522 55.1222 39.2588 55.1156 39.2591C54.6433 39.276 54.1821 39.6169 53.8804 39.1132C54.0183 38.7183 55.5449 37.2 55.9405 36.7903C56.3419 36.6964 56.7785 36.5712 57.1771 36.4516C57.3933 36.3869 58.8182 36.3396 58.8711 36.2411C59.4246 35.2095 61.8402 35.6771 62.0133 34.5377C61.7047 34.5535 61.4641 34.5779 61.1596 34.6151L61.1168 34.4884L61.4426 34.0559L61.3132 33.4669L61.4184 33.3235C61.678 33.293 61.7234 33.249 61.9294 33.1606C62.1252 33.0765 62.3985 33.5256 63.0996 33.0951C64.0309 33.2449 63.6104 33.4694 64.7827 33.3716C64.7972 33.8021 64.3323 33.7932 64.5344 34.0587C65.3795 34.0415 65.2491 33.3193 66.549 33.5455C66.849 34.2072 65.2645 35.2107 64.9662 35.953C65.8859 35.963 66.2091 35.7494 66.9204 36.2196C67.3349 36.8926 67.7698 37.8826 68.1967 38.4326C69.8168 38.2793 70.3337 36.5525 71.5173 37.4016C72.3194 37.9769 72.9013 39.7372 73.7369 39.9384C74.4622 39.5154 74.113 39.0577 74.8404 38.8036C75.3327 39.3961 76.357 40.8013 77.1496 39.7793C77.4875 39.3437 77.7794 38.2837 77.785 37.7336L77.9604 37.4881L78.0888 37.4818C78.3995 37.8409 78.3617 38.9801 78.3764 39.5184L78.5871 39.3243L78.5712 39.38C79.365 37.9379 79.0282 37.4146 78.7501 35.7672C78.677 35.3352 77.856 35.1678 78.0342 34.8136C78.8966 34.3014 79.9298 34.652 80.8559 34.3702C81.4353 34.194 81.5197 32.9067 81.9913 33.4548C82.0936 32.6461 81.861 31.9845 81.2159 31.4233L81.5623 31.3108C81.6468 31.0709 81.6617 31.0463 81.6693 30.7954L82.1717 31.1719L82.2971 31.1358C82.2168 30.8761 82.1554 30.7465 82.0373 30.5012L82.0979 30.4267L82.207 30.6563L82.3859 30.631C82.4683 30.3836 82.4662 30.3694 82.4591 30.1058C82.7327 30.0756 82.9089 30.0646 83.1842 30.0635C83.025 29.7661 82.9021 29.6485 82.61 29.5387C82.3468 29.4399 81.5166 29.423 81.382 29.2433C80.8334 28.5118 79.5429 28.6726 78.8339 28.6082C78.6533 28.5917 78.795 27.5831 77.6591 27.6833C77.509 27.6965 76.9392 27.7426 76.8162 27.5872C76.2178 26.8299 76.0266 26.873 75.0562 26.8494C74.761 26.8422 74.2179 26.8227 73.9757 27.0036L72.8384 26.1699C72.6039 26.4652 72.7722 26.6092 72.7087 26.6393C72.4203 26.7762 72.4577 26.5723 72.4814 26.9573C72.3003 26.8053 72.2888 26.7793 72.1576 26.5792L71.8974 26.5217L71.8653 26.5619C71.7349 26.7228 71.7297 26.7328 71.5548 26.8346C71.4317 26.7542 71.3164 26.677 71.188 26.6047C70.4768 27.0519 71.1647 27.9266 69.9607 27.8938C69.7959 28.1621 69.8313 28.9291 69.8336 28.9279C69.1236 29.324 68.15 29.8259 67.3636 29.9869C63.2477 30.8248 59.4981 30.7765 55.482 29.465C54.2123 29.2497 52.4759 28.7285 51.2195 28.6304C46.5119 28.2627 41.7446 28.2423 37.0228 27.9423C36.1061 27.884 36.4298 27.9601 36.2783 28.6566C36.2369 28.847 35.4113 29.9892 35.1804 30.0762C34.1981 29.9974 33.4415 31.316 33.1488 31.3826C32.0032 31.6431 31.1347 31.3776 30.0721 32.0571C29.8577 32.1902 27.4882 31.9885 27.0395 32.0803C26.3011 32.1132 25.2412 31.861 24.5265 32.0147C22.544 32.4409 20.5964 34.1436 19.0582 35.4056C18.0846 36.2044 17.1134 38.8557 16.3318 39.5565C16.1129 39.9469 13.6318 44.4839 13.6361 44.5943C13.6648 47.0638 12.4861 49.1223 12.119 51.5426C11.7545 53.9454 11.6788 56.3423 11.5257 58.7572C11.4784 59.5036 11.1314 65.5499 10.8772 65.6332C10.856 65.0139 10.8391 64.3944 10.8265 63.7748C10.6073 64.0209 10.3734 64.2335 10.1341 64.4595C10.0164 64.7191 10.1951 66.6717 10.2241 67.1038C10.0187 65.564 9.62362 63.6296 9.6929 62.042C9.77395 61.7464 9.74035 61.6857 9.64469 61.3899L9.45812 61.2979C9.28904 61.4089 9.08555 61.518 9.05344 61.7393C8.88545 62.8973 8.76712 67.7611 8.1354 68.5196C8.11862 68.1172 7.8606 67.9932 7.8638 67.7816C7.90454 65.0875 7.89469 62.5706 9.23095 60.172C9.28102 60.0821 9.44251 56.6216 9.5221 56.0521C10.1864 51.5726 11.3086 47.1731 12.8711 42.9227C13.5366 41.1263 14.4391 39.4309 15.2007 37.6729C15.4592 37.0762 16.1179 36.5538 16.0471 35.8831C16.8444 34.4428 19.3656 31.781 20.6709 30.6535C22.1991 29.3334 24.2133 27.3116 25.8567 26.2333C27.1148 25.4078 29.5216 24.5865 30.9589 23.9386C34.0398 22.5497 37.2041 21.5572 40.3934 20.4845C42.0159 19.9386 43.7624 19.093 45.3941 18.5298C46.9551 17.9912 48.3674 17.5603 49.9066 16.939C51.9351 16.12 53.6044 15.1014 55.5706 14.1525C57.2665 13.3341 58.9332 12.595 60.6598 11.846C61.3 11.5685 61.8698 10.8763 62.4967 10.5906C62.5889 10.5486 62.8753 10.6917 63.0021 10.741C63.8132 9.97734 64.5975 9.91762 65.4798 9.3337C66.0273 8.97134 66.7852 8.11166 67.2717 7.60828Z" fill="#EFE45F"/>
<path d="M67.2717 7.60828C67.4948 8.07897 67.4917 8.55031 67.5104 9.0679C67.5828 11.0647 68.1184 12.0343 69.4147 13.5259C72.3433 16.8603 74.9979 18.8718 78.4951 21.5852C80.5854 23.2071 82.5919 25.0061 84.597 26.7282C85.1352 27.3468 85.2059 27.4648 85.1538 28.2752C80.8008 27.9807 73.7202 24.1355 70.1273 21.8049C68.9064 21.013 67.2522 19.1505 66.1966 18.0545C64.4395 16.2304 62.3058 13.4482 63.0022 10.741C63.8133 9.97734 64.5975 9.91762 65.4798 9.3337C66.0274 8.97134 66.7852 8.11166 67.2717 7.60828Z" fill="#53AC63"/>
<path d="M87.3942 28.6755C87.944 28.7099 88.1441 28.6362 88.6834 28.4937L88.6717 28.5806L88.7555 28.5912C88.8032 29.1545 88.8046 29.869 89.414 30.1361C90.0241 29.9634 90.0821 29.5483 90.6234 29.5232C90.9157 29.6935 90.8287 29.6479 90.9557 30.0592C91.1728 29.9456 91.198 29.8416 91.3225 29.6157L91.6529 29.5284L91.6254 29.7388L91.8409 29.9956L92.091 29.6639L92.2167 29.6968C92.4139 30.1218 92.1485 30.5304 92.1555 30.808C92.1655 31.1936 92.7525 30.8457 92.7004 31.6291C92.8284 32.1465 93.0031 32.2004 93.45 32.4176C93.5136 32.8192 93.3946 32.8399 93.0959 33.152C93.1432 33.3477 93.1491 33.3355 93.1059 33.5304C94.1124 33.1526 93.9335 33.2625 94.855 33.7855C95.3701 33.5863 95.6033 33.0785 96.03 33.0246C96.0308 33.2194 95.8923 33.3505 95.7644 33.5404L95.8682 33.6218L96.2983 33.5095C96.2519 33.7913 96.1741 33.8385 95.9764 34.0639L95.9399 34.3862L96.0864 34.507C96.3787 34.4587 96.278 34.4887 96.5187 34.1979C96.476 34.3973 96.432 34.5965 96.3864 34.7951L96.5055 34.9204L96.5951 34.8723L96.3886 34.7941L96.724 34.7652C96.6798 35.2922 96.1345 35.6066 95.9219 36.2636L96.0625 36.2987C96.9168 35.2957 96.7319 35.7996 97.1376 35.4251C96.6174 36.3496 95.6667 38.2681 95.053 38.9749L94.9117 39.0052C94.9137 38.525 95.1361 37.8136 95.2644 37.329C94.7739 37.8803 93.6628 40.3127 93.168 41.0029C92.6613 41.7095 91.9124 42.0337 91.4739 42.8083L91.6015 43.2531C91.2272 43.4031 88.8616 44.4249 88.6972 44.4051C88.4075 44.073 88.4858 44.0169 88.4091 43.5004C88.2945 43.7939 88.3788 44.0279 88.1806 44.258C87.7764 42.4077 87.6548 39.2959 87.2272 36.9788C86.7731 34.0536 86.5661 31.6927 86.5855 28.7515L87.3942 28.6755Z" fill="#EFE45F"/>
<path d="M87.3942 28.6755C87.944 28.7099 88.1441 28.6362 88.6834 28.4937L88.6717 28.5806C88.6793 32.2424 88.5949 35.8166 88.5262 39.4747C88.5059 40.5495 88.3737 42.5496 88.4091 43.5004C88.2945 43.7939 88.3788 44.0279 88.1806 44.258C87.7764 42.4077 87.6548 39.2959 87.2272 36.9788C86.7731 34.0536 86.5661 31.6927 86.5855 28.7515L87.3942 28.6755Z" fill="#A0AB3F"/>
<path d="M93.0959 33.152C90.8243 35.0381 88.9548 31.4019 92.0253 31.157C92.3459 31.1314 92.5042 31.4123 92.7004 31.6291C92.8284 32.1466 93.0031 32.2004 93.45 32.4176C93.5136 32.8192 93.3946 32.8399 93.0959 33.152Z" fill="#719345"/>
<path d="M114.075 63.297C114.515 63.2745 115.505 63.1475 115.846 63.2106L115.926 63.8282C116.426 65.2221 116.718 64.9994 118.098 65.018C118.53 65.0281 120.135 64.9422 120.331 65.0463L120.385 65.1184C119.036 66.9756 118.523 68.1525 121.448 68.352L121.601 68.4059C121.934 68.4799 122.209 68.5253 122.521 68.6662C122.419 70.3762 122.541 74.0174 122.66 75.7616C122.272 75.4514 122.086 75.3194 121.656 75.0709C121.486 75.2536 121.171 75.6242 120.972 75.7325C120.443 75.4254 119.912 75.1213 119.38 74.82C118.309 74.3162 117.202 73.6811 116.197 73.0587C114.949 72.4662 114.022 71.3038 113.38 70.1192C112.625 67.9919 112.74 65.4006 112.908 63.1797C113.271 63.2039 113.728 63.2193 114.075 63.297Z" fill="#509A8E"/>
<path d="M114.075 63.297C114.515 63.2745 115.505 63.1475 115.846 63.2106L115.926 63.8282C114.832 64.9114 114.638 68.3626 114.524 70.0236C114.695 70.3177 115.13 71.0145 115.253 71.2931C115.723 71.7379 116.27 72.1764 116.861 72.4525L116.879 72.5777C117.009 72.9034 117.241 72.9891 117.291 73.2315C116.914 73.1346 116.584 73.0216 116.197 73.0587C114.949 72.4662 114.022 71.3038 113.38 70.1192C112.625 67.9919 112.74 65.4006 112.908 63.1797C113.271 63.2039 113.728 63.2193 114.075 63.297Z" fill="#151816"/>
<path d="M114.075 63.297C114.515 63.2745 115.506 63.1476 115.846 63.2106L115.926 63.8282C114.833 64.9115 114.638 68.3626 114.524 70.0236C114.696 70.3177 115.13 71.0146 115.253 71.2931C115.045 71.1329 114.86 70.9457 114.701 70.7363C113.619 69.3041 113.81 65.0717 114.075 63.297Z" fill="#678B7E"/>
<path d="M121.601 68.4059C121.934 68.48 122.209 68.5253 122.521 68.6662C122.419 70.3762 122.542 74.0175 122.66 75.7616C122.272 75.4514 122.086 75.3195 121.656 75.0709C121.486 75.2536 121.172 75.6243 120.972 75.7325C120.443 75.4255 119.912 75.1213 119.38 74.82C118.309 74.3163 117.202 73.6811 116.197 73.0587C116.584 73.0216 116.914 73.1346 117.291 73.2315C117.241 72.9892 117.009 72.9035 116.879 72.5777L116.861 72.4525C117.498 72.3641 118.59 73.2714 119.166 73.5154C119.406 73.6174 120.475 73.0474 120.773 73.0429C121.553 73.0308 121.489 73.2658 121.907 73.5887L122.192 73.5119C122.384 73.2019 122.39 69.7701 122.136 69.3599C121.907 68.99 121.698 69.148 121.601 68.4059Z" fill="#719345"/>
<path d="M116.879 72.5777C117.81 72.9714 118.917 73.7486 120.005 74.2332L119.38 74.82C118.309 74.3162 117.202 73.6811 116.197 73.0587C116.584 73.0216 116.914 73.1346 117.291 73.2315C117.241 72.9891 117.009 72.9034 116.879 72.5777Z" fill="#131C12"/>
<path d="M120.005 74.2332C120.543 74.5101 121.11 74.8153 121.656 75.0709C121.486 75.2536 121.171 75.6242 120.972 75.7324C120.442 75.4254 119.912 75.1213 119.38 74.82L120.005 74.2332Z" fill="#29331C"/>
<path d="M129.433 63.2057L130.747 62.837C131.022 64.4351 131.219 70.1019 130.094 71.5184C129.678 72.042 128.767 72.612 128.512 72.9128C128.605 73.2376 128.621 73.2966 128.615 73.6329C127.929 74.0855 127.42 74.329 126.681 74.6905C125.943 75.1425 125.359 75.3602 124.515 75.5591L124.149 75.6742C123.941 75.1152 124.235 75.3161 123.844 74.9664C123.233 74.9056 122.818 75.2103 122.832 75.8517L122.684 75.9296L122.66 75.7616C122.541 74.0174 122.419 70.3762 122.521 68.6662C122.881 68.4771 122.794 68.5851 122.93 68.278C123.655 68.1923 123.948 68.1692 124.688 68.1958C126.097 67.4048 125.615 66.3369 125.151 65.1131C125.162 64.9258 125.185 64.7632 125.209 64.5785C125.656 64.5518 125.501 64.5888 125.883 64.3107C127.492 65.4406 128.275 64.3374 129.433 63.2057Z" fill="#55919E"/>
<path d="M122.93 68.2781C123.655 68.1924 123.948 68.1692 124.688 68.1958C124.44 69.5143 124.928 70.4928 125.017 71.6195C125.205 72.449 125.42 73.3293 125.585 74.1579C125.159 74.6011 124.614 75.0221 124.515 75.5591L124.149 75.6742C123.941 75.1153 124.235 75.3161 123.844 74.9664C123.233 74.9056 122.818 75.2103 122.832 75.8518L122.684 75.9296L122.66 75.7616C122.541 74.0175 122.419 70.3762 122.521 68.6662C122.881 68.4771 122.794 68.5851 122.93 68.2781Z" fill="#B4D192"/>
<path d="M125.017 71.6195C125.229 71.2492 125.108 71.3531 125.455 71.1844C125.681 71.2071 127.033 71.5184 127.133 71.6143C126.32 71.8265 126.03 70.9233 125.254 71.6586C125.293 72.0434 125.292 72.2724 125.479 72.6118L125.671 71.9275L125.821 71.8924C126.69 72.9549 125.845 73.3489 127.322 73.5714C127.723 73.3582 128.119 73.1386 128.513 72.9128C128.605 73.2377 128.621 73.2966 128.615 73.6329C127.929 74.0856 127.42 74.3291 126.681 74.6906C125.943 75.1426 125.359 75.3602 124.515 75.5592C124.614 75.0221 125.159 74.6011 125.585 74.1579C125.42 73.3293 125.205 72.4491 125.017 71.6195Z" fill="#5D7553"/>
<path d="M127.322 73.5714C127.723 73.3582 128.12 73.1386 128.513 72.9128C128.605 73.2377 128.621 73.2966 128.615 73.6329C127.929 74.0856 127.42 74.3291 126.681 74.6906C126.391 74.6603 126.265 74.6157 126.08 74.4172L126.117 74.2282C126.52 73.8223 126.783 73.7638 127.322 73.5714Z" fill="#151816"/>
<path d="M149.993 77.0178C150.686 77.0836 150.66 76.9348 151.142 76.4241C150.72 77.1661 150.339 77.9319 150.004 78.7179L150.153 78.7644C149.782 80.5176 147.438 83.1126 147.482 85.1999C147.48 85.1266 148.695 86.5182 148.793 86.608C149.422 86.6773 149.519 85.798 149.663 85.2621C149.673 85.8699 149.943 86.6952 150.14 87.2863L150.215 87.3038C150.268 86.8063 150.399 85.2157 150.56 84.844C150.921 87.3945 150.261 89.5205 150.028 91.9494C149.942 92.8606 150.826 95.4474 151.053 96.3824C151.244 96.9399 151.136 97.6702 151.627 98.0783C152.745 98.2712 156.975 96.7722 157.421 97.1704C155.474 97.911 150.625 98.5005 148.576 98.545C148.143 98.8962 147.981 99.1813 147.88 99.7413C147.68 98.6634 147.49 97.6102 147.235 96.5421C147.143 95.9822 146.668 94.6573 146.469 94.0592L145.716 91.8518C145.444 89.2532 145.863 87.488 146.258 84.9365C146.364 84.2459 146.42 83.3811 146.569 82.7398C146.785 82.3971 146.721 82.1487 146.947 81.7752C147.277 81.2282 147.445 81.2683 147.764 80.6703C147.959 80.209 149.623 77.1968 149.993 77.0178Z" fill="#867806"/>
<path d="M149.993 77.0178C150.686 77.0836 150.66 76.9348 151.142 76.4241C150.72 77.1661 150.339 77.9319 150.004 78.7179C149.136 80.4737 147.699 82.6805 147.31 84.5577C146.907 86.499 146.867 88.7877 146.725 90.7685C146.645 91.8869 147.1 93.0965 146.469 94.0592L145.716 91.8518C145.444 89.2532 145.863 87.488 146.258 84.9365C146.364 84.2459 146.42 83.3811 146.569 82.7398C146.785 82.3971 146.721 82.1487 146.947 81.7752C147.277 81.2282 147.445 81.2683 147.764 80.6703C147.959 80.209 149.623 77.1968 149.993 77.0178Z" fill="#3E3A00"/>
<path d="M31.0134 82.5031L31.4324 82.8699C32.5615 85.7657 34.1835 88.2554 35.1933 91.2511C36.0124 93.6816 34.9162 95.2584 34.5471 97.6412C34.4932 97.9893 34.2558 98.5485 33.9677 98.7694C29.9027 98.1808 26.5279 98.1206 22.4648 96.5173C23.6596 96.4412 28.2607 98.1766 30.0384 98.0497C31.118 97.2878 31.2209 90.7193 31.6036 89.2114C31.6865 88.885 32.3616 85.9437 32.3063 85.7356C32.0762 84.8702 31.3453 83.4755 31.0134 82.5031Z" fill="#82760A"/>
<path d="M31.0135 82.5031C30.7942 82.3611 29.0274 78.6882 28.6051 78.2127C27.708 77.2025 22.654 69.1475 22.7283 68.2344C23.0952 68.4945 25.6684 73.4659 26.3042 74.4619C27.135 75.7633 28.8047 77.9651 29.7399 79.3499C30.14 79.942 30.714 82.0367 31.438 82.2294C32.3156 81.7849 32.1828 81.1514 32.5594 80.4175C32.6153 80.3084 32.608 80.1593 32.5554 80.0751C31.7471 78.7824 30.25 77.0021 29.514 75.7735C26.9597 71.5094 25.0172 66.665 23.5613 61.9226C23.2779 60.9993 22.6701 59.2058 22.6123 58.3054C22.7421 58.3639 23.2445 60.2834 23.3352 60.5755C24.7918 65.2645 26.5098 70.3271 29.225 74.4643C30.2251 74.9941 31.4889 73.1607 31.854 74.1719C32.2191 75.1828 34.3356 80.6137 35.0128 81.0493C35.0258 80.2038 34.7674 79.6302 34.7925 78.5336L34.9805 78.4365C35.329 79.6516 36.3277 86.5095 35.9925 87.4235L35.8276 87.5146C34.3022 86.995 33.157 82.8569 31.4324 82.8699L31.0135 82.5031Z" fill="#847307"/>
<path d="M34.9804 78.4365C34.5859 75.7375 33.6363 73.9201 33.1649 71.5319C33.5269 71.9624 33.3704 72.7146 33.8858 73.0457C34.2652 72.8695 34.1292 72.9739 34.3905 72.6083C34.4394 72.1867 34.1577 71.847 33.9855 71.3833L34.203 71.3008C35.1641 73.4106 35.8653 75.1395 36.1868 77.4735C36.7849 81.8189 36.7788 86.1929 37.3738 90.5494C37.2621 91.0916 37.2011 91.3809 37.1763 91.9299C35.6439 95.1575 35.8581 96.4347 34.8929 99.0946C34.6967 98.9713 34.2103 98.8434 33.9678 98.7693C34.2558 98.5485 34.4932 97.9893 34.5472 97.6412C34.9162 95.2584 36.0124 93.6816 35.1933 91.2511C34.1835 88.2553 32.5615 85.7657 31.4324 82.8699C33.157 82.8569 34.3022 86.995 35.8275 87.5146L35.9924 87.4234C36.3276 86.5095 35.3289 79.6516 34.9804 78.4365Z" fill="#484000"/>
<path d="M149.343 67.0249C149.598 67.8822 149.3 68.1302 150.011 68.7163C150.134 68.1371 149.573 67.8456 149.851 67.2872C150.969 67.7689 149.011 73.3395 148.751 74.3597L148.844 74.9859C148.668 75.564 148.412 76.0821 148.619 76.6056C149.138 76.8292 148.981 76.7313 149.298 77.2919C149.763 77.0035 150.279 75.3973 150.731 74.9311C150.752 75.593 150.458 76.5394 149.993 77.0178C149.623 77.1968 147.959 80.209 147.764 80.6704C147.445 81.2683 147.277 81.2282 146.947 81.7752C146.721 82.1488 146.785 82.3971 146.569 82.7398C146.703 80.152 146.876 76.9397 147.506 74.4693C148.246 71.5661 149.072 70.1267 149.343 67.0249Z" fill="#4D4800"/>
<path d="M148.751 74.3597L148.844 74.9859C148.668 75.564 148.412 76.0821 148.619 76.6056C149.139 76.8292 148.981 76.7313 149.299 77.2919C149.764 77.0035 150.279 75.3973 150.731 74.9311C150.752 75.593 150.458 76.5394 149.993 77.0178C149.623 77.1968 147.959 80.209 147.764 80.6704L147.57 80.4799C147.328 79.3962 148.414 75.6758 148.751 74.3597Z" fill="#917B0D"/>
<path d="M149.676 59.7637C151.101 61.3265 151.056 65.0321 151.785 66.9527C151.848 67.1204 151.928 67.4633 151.978 67.6513C152.328 67.2795 155.938 59.0095 156.074 58.3149L156.293 58.1902C156.305 58.2463 156.316 58.3024 156.327 58.3584C155.223 60.2849 153.098 66.771 152.158 68.2639C151.469 67.8738 151.254 66.3123 151.009 66.0837L150.931 66.1672C151.032 67.1104 150.009 70.1729 149.854 71.3681C149.73 72.3235 148.975 73.9346 148.844 74.9859L148.751 74.3597C149.01 73.3395 150.969 67.7689 149.851 67.2872C149.572 67.8456 150.133 68.1371 150.011 68.7162C149.299 68.1302 149.598 67.8822 149.343 67.0249C149.281 66.7972 149.272 64.3911 149.258 63.9422C149.226 62.8501 149.16 62.1815 148.995 61.067C149.09 60.7559 149.126 59.8142 149.151 59.4384C149.062 59.3067 149.083 59.3789 149.114 59.2121C149.298 59.4352 149.429 59.6062 149.676 59.7637Z" fill="#90851D"/>
<path d="M140.194 117C139.645 116.561 137.505 117.033 137.089 116.737C137.772 116.518 142.364 116.605 143.535 116.548C143.764 116.19 143.554 114.95 143.499 114.49L143.488 114.619C142.819 112.601 143.332 107.966 143.498 105.735C143.598 104.377 144.565 101.289 144.197 100.065L144.411 99.9496C144.445 100.613 144.334 102.713 144.482 102.982L144.646 103.106C144.575 105.029 144.246 106.802 144.078 108.697C143.837 111.43 143.865 114.106 143.831 116.829C144.494 116.822 146.748 116.704 147.182 117H140.194Z" fill="#E0D26A"/>
<path d="M130.793 62.6723C131.275 62.4702 131.593 62.4105 132.106 62.297C132.03 64.3138 132.115 68.2641 131.803 70.043C131.031 71.6595 130.143 72.6715 128.616 73.6329C128.621 73.2966 128.605 73.2376 128.513 72.9128C128.767 72.612 129.678 72.042 130.094 71.5184C131.219 70.102 131.022 64.4351 130.748 62.837L130.793 62.6723Z" fill="#131C12"/>
<path d="M152.249 72.2915C153.192 71.823 154.937 68.2364 155.599 67.736L155.677 67.7613C156.232 69.3003 152.291 74.0474 151.899 75.6045C151.632 76.2335 150.544 78.1712 150.153 78.7644L150.005 78.7179C150.339 77.9319 150.72 77.1661 151.143 76.4241C150.66 76.9348 150.687 77.0836 149.993 77.0178C150.458 76.5394 150.752 75.593 150.731 74.9311C150.737 74.4749 151.909 72.6963 152.249 72.2915Z" fill="#90851D"/>
<path d="M34.7924 78.5336C34.6366 78.1574 34.4468 76.5032 34.2515 75.8953C33.5862 73.7867 32.7536 71.7027 32.1929 69.5643C31.9662 68.5076 32.1042 67.4348 31.7412 66.4001C31.6453 66.1269 31.6843 64.8221 31.8843 64.676C32.0796 65.1675 31.5586 67.3902 32.5284 67.6141L32.8123 67.3866C32.9745 67.8416 33.0977 68.2634 33.4317 68.6089C33.725 68.2231 33.4073 68.2221 33.5445 67.7213C33.664 67.2847 33.7807 66.8367 33.8975 66.3981C33.8515 68.548 33.1153 68.6906 34.203 71.3009L33.9854 71.3834C34.1576 71.847 34.4394 72.1867 34.3905 72.6083C34.1291 72.9739 34.2651 72.8695 33.8858 73.0457C33.3704 72.7146 33.5269 71.9624 33.1648 71.5319C33.6362 73.9201 34.5858 75.7375 34.9804 78.4365L34.7924 78.5336Z" fill="#57570C"/>
<path d="M152.249 72.2915C152.732 71.4686 153.323 70.7003 153.824 69.8784C154.746 68.3674 155.624 66.8341 156.55 65.3258C157.079 65.2217 157.301 65.3366 157.717 65.0456C157.965 64.492 158.06 63.8974 157.969 63.296L157.841 63.1159C157.458 63.2999 157.298 63.7247 157.078 64.1323C156.937 63.6957 157.336 62.8436 157.728 62.6742C158.189 62.8834 158.529 63.6944 158.456 63.9113C157.924 65.4994 152.795 75.0284 151.899 75.6045C152.291 74.0474 156.232 69.3003 155.677 67.7613L155.599 67.736C154.937 68.2364 153.192 71.823 152.249 72.2915Z" fill="#B19F16"/>
<path d="M37.3737 90.5494C38.3999 93.1173 38.5861 96.5621 38.4802 99.338C38.4947 102.15 38.7969 104.009 38.889 106.548L38.7642 106.578C38.5904 105.208 38.2084 103.261 38.1505 101.966C37.8753 100.464 38.046 92.9157 37.1763 91.9299C37.2011 91.3809 37.2621 91.0916 37.3737 90.5494Z" fill="#57570C"/>
<path d="M113.381 70.1192C114.022 71.3038 114.949 72.4662 116.197 73.0587C117.202 73.6811 118.309 74.3162 119.38 74.82C119.913 75.1213 120.443 75.4254 120.972 75.7325C121.172 75.6243 121.486 75.2536 121.656 75.0709C122.086 75.3194 122.272 75.4514 122.66 75.7616L122.684 75.9296L122.832 75.8517C122.987 76.264 123.297 77.0094 123.169 77.4151L122.816 77.5141C122.29 77.3488 122.512 77.3682 122.179 77.0119C120.688 75.4154 117.915 74.9001 116.112 73.3887L115.69 73.4455C114.91 72.8789 113.625 71.1911 113.22 70.2922L113.381 70.1192Z" fill="#E0D26A"/>
<path d="M121.656 75.0709C122.086 75.3194 122.272 75.4514 122.66 75.7616L122.684 75.9296C122.802 76.2959 122.986 76.712 122.904 77.0686L122.722 77.1328C122.414 77.0179 121.428 76.0795 120.972 75.7325C121.172 75.6243 121.486 75.2536 121.656 75.0709Z" fill="#57570C"/>
<path d="M132.059 61.9748L132.261 61.8992C132.584 62.3378 132.7 68.631 132.345 69.2731C132.218 68.5446 132.626 65.9557 132.403 65.6662C132.277 66.2407 132.168 66.222 132.2 66.8657C132.255 67.9728 132.303 68.9774 131.995 70.0567L131.803 70.043C132.115 68.2641 132.029 64.3138 132.106 62.297L132.059 61.9748Z" fill="#E0D26A"/>
<path d="M130.798 60.3866L131.063 60.4495C131.504 60.5423 131.632 60.5723 132.081 60.5669L132.151 60.9691C131.794 61.0702 131.45 61.1341 131.167 61.3691C131.092 61.6657 131.123 61.9996 131.336 62.2415C131.716 62.1847 131.636 62.0897 132.059 61.9748L132.106 62.297C131.593 62.4104 131.275 62.4702 130.793 62.6723C129.798 61.838 130.23 61.2981 130.798 60.3866Z" fill="#E0D26A"/>
<path d="M97.9426 27.8765L99.0921 27.8535C97.3965 29.0622 91.0772 28.5128 88.7556 28.5912L88.6719 28.5806L88.6835 28.4938C91.4699 28.0965 94.2097 28.608 96.659 28.3242L97.9426 27.8765Z" fill="#E0D26A"/>
<path d="M148.995 61.067C148.815 60.1494 148.129 57.9258 148.344 57.1855L148.493 57.1529C148.862 57.9293 149.49 58.9273 149.676 59.7637C149.429 59.6062 149.298 59.4352 149.114 59.212C149.083 59.3789 149.062 59.3067 149.151 59.4384C149.126 59.8142 149.09 60.7559 148.995 61.067Z" fill="#B19F16"/>
<path d="M64.974 60.1349C65.2341 60.0663 65.1428 60.1328 65.2959 59.8732C65.158 59.5212 65.1312 59.4561 65.0967 59.0655C65.3463 58.7967 65.3178 58.8731 65.7484 58.7886C65.6565 58.662 65.6118 58.5871 65.5342 58.4544C66.6173 57.8535 66.6227 59.0304 67.3081 58.8814C68.2888 58.6682 69.5759 57.9488 70.6111 57.636C70.8618 57.6997 71.071 57.7531 71.2388 57.7958C71.2962 58.1671 71.2537 58.233 71.1018 58.5663C70.7209 58.9328 70.2446 58.9191 69.7112 58.9492L68.936 59.4623L69.1004 59.5521L68.986 59.5959C69.1457 59.887 69.2272 59.9873 69.2612 60.3217C68.9194 60.638 68.8563 60.7224 68.4036 60.812C67.5256 60.72 67.752 59.9896 66.8986 60.7199C66.4185 61.1307 67.1605 61.8718 65.5953 62.1328C65.0304 62.2271 64.9087 61.656 64.3535 61.6528C64.2854 61.8856 64.325 61.948 64.3894 62.1933L64.2014 62.4214L64.0487 62.4032L63.9189 62.1998C63.5861 62.2413 63.4624 62.432 63.2369 62.6766L62.9902 62.7189L62.6159 62.3417C61.7465 63.0519 62.4024 63.1772 61.7569 63.6843C61.192 64.1283 59.999 63.6816 59.529 63.9169C57.1551 65.1055 54.7504 67.1534 52.173 67.7825L52.0134 67.6293C50.6178 67.6706 50.0895 67.407 49.3989 66.2L49.3401 66.299L49.2321 66.2382C48.6769 64.6046 50.4461 59.8541 51.8196 60.1917C52.357 60.8598 51.7964 61.4003 51.8523 62.3435C52.4323 62.7607 52.8173 61.8745 53.1798 61.8875C54.5457 61.9674 55.1092 62.435 56.5694 62.0885C56.6097 62.0789 57.4761 62.6654 58.5512 62.3685C59.0915 62.0922 59.8668 61.6196 60.4345 61.3048C60.5291 61.078 60.5323 61.0185 60.7227 60.8806C61.0243 61.2057 60.9835 61.2633 61.3505 61.3716L61.8287 61.1038L61.8826 60.8781L61.6322 60.517C61.9012 60.3109 62.4902 60.7463 62.616 60.6964C63.3228 60.416 64.2805 60.3142 64.974 60.1349Z" fill="#151816"/>
<path d="M49.3989 66.2L49.3401 66.299L49.2321 66.2382C48.6769 64.6046 50.4461 59.8541 51.8196 60.1917C52.357 60.8598 51.7964 61.4003 51.8523 62.3435C52.4323 62.7607 52.8173 61.8745 53.1798 61.8875C54.5457 61.9674 55.1092 62.435 56.5694 62.0885C56.6097 62.0789 57.4761 62.6654 58.5512 62.3685L58.6126 62.5343C57.6975 62.8547 52.1581 65.0503 51.5067 63.1661C51.3824 62.8066 51.8109 60.9159 51.7853 60.0944C50.2506 61.9746 49.0893 63.4004 49.3795 66.0506C49.3851 66.1006 49.3915 66.1504 49.3989 66.2Z" fill="#E0D26A"/>
<path d="M64.974 60.1349C65.2342 60.0663 65.1429 60.1327 65.296 59.8732C65.1581 59.5212 65.1313 59.4561 65.0968 59.0655C65.3464 58.7967 65.3178 58.8731 65.7485 58.7886C65.6566 58.662 65.6118 58.5871 65.5343 58.4544C66.6174 57.8535 66.6228 59.0304 67.3082 58.8814C68.2889 58.6682 69.576 57.9488 70.6112 57.636C70.8619 57.6997 71.0711 57.7531 71.2389 57.7958L71.0427 57.8999C69.5742 58.3187 67.2192 59.6222 65.1798 60.2524C63.0944 60.9916 60.6161 61.7167 58.6126 62.5343L58.5513 62.3685C59.0916 62.0922 59.8668 61.6196 60.4346 61.3048C60.5292 61.078 60.5324 61.0185 60.7227 60.8806C61.0244 61.2057 60.9836 61.2633 61.3506 61.3716L61.8288 61.1038L61.8827 60.8781L61.6322 60.517C61.9013 60.3109 62.4903 60.7463 62.6161 60.6964C63.3229 60.416 64.2806 60.3142 64.974 60.1349Z" fill="#EFE45F"/>
<path d="M68.936 59.4623L69.1004 59.5521L68.9861 59.5958C69.1458 59.887 69.2273 59.9873 69.2612 60.3217C68.9195 60.638 68.8564 60.7224 68.4037 60.812C67.5256 60.72 67.7521 59.9896 66.8987 60.7199C66.4186 61.1307 67.1606 61.8717 65.5954 62.1328C65.0305 62.2271 64.9088 61.656 64.3536 61.6528C64.2855 61.8856 64.325 61.948 64.3895 62.1933L64.2014 62.4214L64.0488 62.4032L63.919 62.1998C63.5861 62.2413 63.4625 62.432 63.237 62.6766L62.9903 62.7189L62.616 62.3417L62.6712 62.1497C64.811 61.2503 66.8108 60.4251 68.936 59.4623Z" fill="#EFE45F"/>
<path d="M52.0134 67.6293C52.4497 67.4565 53.5517 67.1472 53.8561 66.9788C55.0111 66.3397 56.2129 65.5761 57.3566 64.9007C59.0806 63.8947 60.8545 62.9766 62.6712 62.1497L62.616 62.3417C61.7466 63.0519 62.4024 63.1771 61.757 63.6843C61.1921 64.1283 59.999 63.6816 59.5291 63.9168C57.1551 65.1055 54.7505 67.1534 52.173 67.7825L52.0134 67.6293Z" fill="#E0D26A"/>
<path d="M71.2391 57.7958C71.2964 58.1671 71.2539 58.233 71.1021 58.5663C70.7211 58.9328 70.2448 58.9191 69.7114 58.9492C70.1747 58.6515 70.7432 58.3469 71.0429 57.8999L71.2391 57.7958Z" fill="#EFE45F"/>
<path d="M40.7132 30.6543C42.4946 30.5867 44.8625 31.3173 46.6776 31.2237C48.1788 31.1462 56.2785 32.382 56.0699 34.0133C55.5419 34.7557 53.6903 35.2253 52.8046 35.478C51.8124 35.5455 50.752 35.4444 49.7857 35.5634C49.6484 35.5803 49.534 35.9829 49.5027 36.1069L49.4896 36.161C49.1812 36.3519 48.5525 36.2854 48.1618 36.2757C47.7557 35.8603 47.6444 35.6956 47.0819 35.4636C46.0506 35.0383 45.0691 34.5083 43.9844 34.2126C43.5645 34.0982 43.4742 33.9519 43.2474 33.5918L43.4661 33.3225C42.9723 33.0893 42.5995 32.59 42.1492 32.2984C41.7365 32.0313 40.1112 31.5569 39.7963 31.3344L39.914 31.1607C39.7812 31.1334 39.6551 31.1134 39.5217 31.0914L39.502 30.9651C39.7156 30.8087 40.3315 30.7575 40.7132 30.6543Z" fill="#EFE45F"/>
<path d="M125.051 79.9934C125.182 79.6074 125.235 79.4156 125.454 79.0684C125.766 78.8321 126.098 78.9108 126.497 78.9421C127.029 79.0846 128.185 79.3901 128.645 79.672C129.13 79.5757 130.841 79.1529 131.193 79.2194C131.419 79.6961 130.595 80.4551 130.26 80.8149C131.089 81.7703 132.296 82.9097 132.985 83.7396C131.468 83.4361 131.099 83.286 130.055 82.1044C128.877 83.4221 127.159 83.1931 125.54 83.1873C125.492 83.0947 125.472 82.9319 125.492 82.8477C125.696 82.002 124.966 80.763 125.051 79.9934Z" fill="#306D29"/>
<path d="M126.497 78.9421C127.03 79.0846 128.185 79.3901 128.645 79.672L128.643 79.729C128.328 79.9477 128.229 79.9943 128.059 80.3543C128.465 80.8915 128.886 81.6462 128.215 82.1243C126.985 82.2157 125.683 80.6493 126.293 79.5688L126.547 79.2264L126.497 78.9421Z" fill="#A0AB3F"/>
<path d="M126.497 78.9421C127.029 79.0846 128.185 79.3901 128.645 79.672L128.643 79.729C128.327 79.9477 128.229 79.9943 128.059 80.3543C127.547 79.9476 126.947 79.5953 126.292 79.5688L126.547 79.2264L126.497 78.9421Z" fill="#719345"/>
<path d="M128.645 79.672C129.13 79.5757 130.841 79.1529 131.193 79.2194C131.419 79.6961 130.595 80.4551 130.26 80.8149C129.744 80.3559 129.271 80.0182 128.643 79.729L128.645 79.672Z" fill="#A0AB3F"/>
<path d="M120.987 78.6636C121.919 78.716 122.982 78.627 123.794 78.6895C124.093 79.0515 124.667 79.8038 125.05 79.9934C124.966 80.763 125.696 82.002 125.492 82.8476C125.472 82.9319 125.492 83.0947 125.539 83.1873C125.35 83.1983 124.749 83.0867 124.525 83.0501C123.084 83.2934 123.295 82.812 122.052 81.9337C121.732 82.0909 121.373 82.2159 121.037 82.3427L120.472 82.048C120.741 81.1081 120.421 79.1403 120.987 78.6636Z" fill="#A0AB3F"/>
<path d="M120.472 82.048C120.741 81.1081 120.421 79.1403 120.987 78.6636C121.385 79.0705 121.536 79.3877 121.881 79.8135C122.795 80.9407 123.59 81.8669 124.727 82.7808C124.641 82.9977 124.708 82.912 124.525 83.0501C123.084 83.2934 123.295 82.812 122.052 81.9337C121.732 82.0909 121.373 82.2159 121.037 82.3427L120.472 82.048Z" fill="#306D29"/>
<path d="M111.981 78.5567C112.829 78.4699 113.86 78.5105 114.727 78.5226C115.32 79.102 115.589 82.1305 115.171 82.5831L114.411 82.7635C111.201 83.3372 111.83 80.9122 111.981 78.5567Z" fill="#A0AB3F"/>
<path d="M114.727 78.5225C115.32 79.1019 115.589 82.1304 115.171 82.583L114.411 82.7634L114.11 82.4317C114.228 81.6748 113.997 79.6082 113.955 78.6938L114.727 78.5225Z" fill="#306D29"/>
<path d="M111.981 78.5567C112.455 78.6192 112.601 78.6563 113.059 78.5323C113.533 79.3628 111.314 82.3118 114.11 82.4317L114.411 82.7634C111.201 83.3371 111.83 80.9121 111.981 78.5567Z" fill="#306D29"/>
<path d="M116.016 82.6711C116.036 81.3597 115.959 77.9582 118.418 78.5839C118.75 78.6684 118.972 78.9159 119.109 79.2213C118.741 79.6912 118.365 80.1545 117.981 80.6112L118.035 80.6764C118.841 81.649 119.195 81.9375 120.472 82.0479L121.037 82.3427C119.493 83.2754 118.148 82.4945 116.016 82.6711Z" fill="#30833D"/>
<path d="M99.3047 35.9415C99.6283 36.5337 98.9468 37.3551 99.8723 37.9898C100.12 38.1594 100.252 38.5858 100.225 38.9113L100.007 39.0745C99.5221 39.1518 99.4478 39.1334 98.9652 39.0284L98.6004 38.8919C98.2996 38.37 97.8935 38.268 97.8618 37.6356C97.8358 37.1168 98.8749 36.3124 99.3047 35.9415Z" fill="#EFE45F"/>
<path d="M97.7377 35.9868C98.053 36.687 96.7103 38.1271 96.405 38.7903C95.9144 37.8027 96.9683 36.5216 97.7377 35.9868Z" fill="#EFE45F"/>
<path d="M141.199 38.6071C141.24 38.6279 141.39 38.7598 141.436 38.7977C141.404 39.0448 140.929 39.5084 140.735 39.7245L140.496 39.4447L140.52 39.2213C140.792 38.9054 140.863 38.8497 141.199 38.6071Z" fill="#EFE45F"/>
</g>
<defs>
<clipPath id="clip0_11_1096">
<rect width="184.641" height="117" fill="white"/>
</clipPath>
</defs>
</svg>
