<svg width="185" height="117" viewBox="0 0 185 117" fill="none" xmlns="http://www.w3.org/2000/svg">
<g clip-path="url(#clip0_9_626)">
<path d="M0 0H184.641V117H140.431H136.175H126.939H112.415H69.2253H54.8906H46.244H38.5448H0V0Z" fill="#D3C9B7"/>
<path d="M114.037 9.17896C116.247 10.6906 118.901 12.0518 121.191 13.4723C122.115 14.0461 125.281 15.5212 125.871 16.1638C125.86 16.543 125.761 16.7064 125.609 17.0446C124.618 18.63 123.734 20.5172 122.812 22.1702C122.203 23.2601 121.186 24.529 120.677 25.5386L120.646 25.8862C122.128 26.498 123.718 27.0054 125.157 27.722C127.144 28.7119 129.108 29.8655 131.055 30.9409C132.283 31.6195 133.972 32.4705 135.026 33.3445C134.324 34.3952 132.885 37.1838 132.501 38.3503C133.875 43.0916 138.648 46.004 140.979 50.1776C141.317 50.7827 141.745 51.4407 141.941 52.1102C141.957 52.635 141.958 53.9527 142.029 54.3932C142.017 56.0191 141.677 61.5505 141.264 63.0666C142.262 63.748 146.772 63.1523 146.339 65.7319C146.139 66.9231 145.81 68.1275 145.634 69.3329C145.197 71.215 144.322 74.5731 144.068 76.369C143.948 76.9532 143.847 77.5411 143.765 78.1318C143.507 79.2725 142.947 84.5234 143.37 85.5105L143.41 86.033C143.33 87.2666 142.783 92.2929 142.365 93.3297L141.576 93.254C140.774 93.2386 138.245 93.2012 137.595 93.5354L137.469 93.5944C137.059 97.6712 137.071 101.88 136.743 105.971C136.672 106.858 136.621 107.775 136.617 108.664L136.223 108.828L136.462 108.966C136.58 109.552 136.629 115.934 136.548 116.709C136.404 116.915 136.41 116.903 136.175 117H126.939H112.415H69.2253H54.8906L55.4693 116.837C55.7982 116.397 55.6692 110.008 55.6 109.098L55.5752 109.039C55.4934 108.561 55.503 108.414 55.5337 107.925C55.1964 103.444 55.6439 97.6628 55.2533 93.1203L55.3292 92.5666C55.3032 89.601 54.962 87.3409 54.6817 84.396C54.487 82.3503 54.4419 79.7791 54.3836 77.7015L54.3313 77.6342C53.756 77.7885 53.2986 77.8028 52.7101 77.8138C49.5646 77.8729 46.4313 78.1026 43.2859 78.1919L43.1202 78.1037C41.709 78.1853 39.8758 78.355 38.5049 78.3753C38.178 75.7419 37.546 71.492 36.7849 69.0194C36.5199 67.8756 35.9381 65.632 35.9954 64.5535C35.5944 63.7466 35.7879 63.6392 35.678 62.8232L35.6678 62.7517C35.3739 61.916 34.694 61.0167 34.187 60.278C32.7754 58.2214 31.1784 56.2662 29.3365 54.5804C29.3364 54.5802 29.2672 54.3067 29.2605 54.2799C29.8384 53.4014 30.7413 50.7759 31.3058 49.6325C32.5705 47.0711 33.5588 45.5466 35.4127 43.4246L35.3324 43.3471C36.1049 42.5094 37.0393 41.3054 37.9031 40.4483C39.3511 39.0117 45.8104 33.9098 47.3899 33.491L47.4571 33.3732C49.5078 31.3829 58.4218 27.0846 61.3732 25.7931L61.3783 25.6267C66.6964 24.0106 70.7068 21.5391 75.6388 19.4387C76.5454 19.6653 77.2517 20.711 78.0332 21.063C78.8119 21.0045 80.9834 21.6476 81.8305 21.8429C85.94 22.7909 89.3848 23.9905 93.6528 23.6451C95.4821 23.497 103.47 20.8452 104.184 21.2555L104.284 21.405C104.757 21.1685 106.133 19.8344 106.795 19.3948C108.151 18.0215 109.581 17.6361 111.2 15.4058C112.302 13.8859 113.524 9.62314 114.037 9.17896Z" fill="#E0DFDE"/>
<path d="M41.1795 62.9508C45.2282 62.6151 49.1306 62.1888 53.2439 61.8759C53.415 65.4188 53.6674 68.8406 54.032 72.3659C54.1876 73.871 54.1265 76.2999 54.3313 77.6343C53.756 77.7885 53.2986 77.8028 52.7101 77.8139C49.5645 77.873 46.4313 78.1026 43.2859 78.192L43.1202 78.1038C41.709 78.1854 39.8758 78.355 38.5049 78.3754C38.178 75.742 37.546 71.492 36.7849 69.0195C36.5199 67.8756 35.938 65.6321 35.9954 64.5536C37.5702 63.8226 39.0493 63.5489 40.7084 63.1453C40.9345 63.0902 40.9534 62.9822 41.0149 62.7945L41.1795 62.9508Z" fill="#A6100E"/>
<path d="M41.0149 62.7944L41.1795 62.9507C41.1626 66.2214 42.0984 70.6718 42.5238 73.9709C42.693 75.2832 43.0663 76.7799 43.1202 78.1037C41.709 78.1853 39.8758 78.355 38.5049 78.3753C38.178 75.7419 37.546 71.492 36.7849 69.0194C36.5199 67.8756 35.938 65.632 35.9954 64.5535C37.5702 63.8225 39.0493 63.5489 40.7084 63.1452C40.9345 63.0901 40.9534 62.9822 41.0149 62.7944Z" fill="#D4BBBB"/>
<path d="M128.975 61.8456C130.722 62.1399 132.763 62.1508 134.559 62.3514C136.698 62.5904 138.816 62.9252 140.95 63.1741L141.264 63.0667C142.262 63.7481 146.772 63.1523 146.339 65.7319C146.139 66.9232 145.81 68.1276 145.634 69.333C145.196 71.2151 144.322 74.5732 144.068 76.3691C143.948 76.9533 143.847 77.5412 143.765 78.1319C143.042 78.1379 140.011 78.3034 139.513 78.0205L139.442 77.6333L139.286 77.6949C139.235 77.9434 139.187 78.1927 139.142 78.4427C137.083 78.3925 129.576 77.4942 128.054 77.8982L128.014 77.8324C128.042 76.296 128.371 74.1693 128.495 72.5397C128.74 68.9793 128.9 65.4135 128.975 61.8456Z" fill="#C03435"/>
<path d="M140.949 63.1741L141.264 63.0667C142.262 63.7481 146.772 63.1523 146.339 65.7319C146.139 66.9232 145.81 68.1276 145.634 69.333C145.196 71.2151 144.322 74.5732 144.068 76.3691C143.948 76.9533 143.847 77.5412 143.765 78.1319C143.041 78.1379 140.011 78.3034 139.513 78.0205L139.442 77.6333C140.171 76.3182 140.835 65.2657 140.949 63.1741Z" fill="#EACFCE"/>
<path d="M139.142 78.4427C139.187 78.1927 139.235 77.9434 139.286 77.6949L139.443 77.6333L139.513 78.0205C140.012 78.3034 143.042 78.138 143.765 78.1319C143.507 79.2726 142.947 84.5235 143.37 85.5106L143.41 86.0331C143.33 87.2667 142.783 92.293 142.365 93.3298L141.576 93.2541C140.774 93.2388 138.245 93.2013 137.595 93.5355L137.469 93.5945C134.494 93.6331 131.518 93.5968 128.545 93.4859C127.982 93.4894 127.399 93.6355 127.134 93.1136L127.194 92.2297C127.314 91.0111 127.32 89.6434 127.427 88.3863C127.724 84.8913 127.987 81.4075 128.054 77.8983C129.576 77.4943 137.083 78.3925 139.142 78.4427Z" fill="#E4DBDB"/>
<path d="M139.142 78.4427C139.187 78.1927 139.235 77.9434 139.286 77.6949L139.443 77.6333L139.513 78.0205C140.012 78.3034 143.042 78.138 143.765 78.1319C143.507 79.2726 142.947 84.5235 143.37 85.5106L143.41 86.0331C143.33 87.2667 142.783 92.293 142.365 93.3298L141.576 93.2541C140.774 93.2388 138.245 93.2013 137.595 93.5355C137.779 89.9744 138.305 86.6076 138.688 83.0705C138.839 81.6761 139.113 79.8072 139.142 78.4427Z" fill="#A6100E"/>
<path d="M127.194 92.2297C127.679 92.9428 128.273 92.6459 128.545 93.4859C127.982 93.4894 127.399 93.6355 127.134 93.1136L127.194 92.2297Z" fill="#EACFCE"/>
<path d="M125.624 93.2471C126.148 93.1669 126.622 93.253 127.134 93.1135C127.399 93.6353 127.983 93.4893 128.545 93.4858C131.518 93.5967 134.494 93.6329 137.469 93.5944C137.059 97.6712 137.071 101.88 136.743 105.971C136.672 106.858 136.622 107.775 136.617 108.664L136.223 108.828L136.462 108.966C136.58 109.552 136.63 115.934 136.548 116.709C136.404 116.915 136.41 116.903 136.175 117H126.939C126.84 114.495 126.559 111.75 126.607 109.283L126.625 109.2C126.976 108.227 126.821 101.191 126.83 99.6721C126.85 97.5631 126.917 95.4548 127.03 93.3487C126.478 93.3432 126.17 93.3226 125.624 93.2471Z" fill="#A6100E"/>
<path d="M136.223 108.828L136.462 108.967C136.58 109.552 136.629 115.934 136.548 116.709C136.404 116.915 136.41 116.903 136.175 117H126.939C126.84 114.495 126.559 111.75 126.607 109.283C127.76 108.907 134.48 108.997 136.223 108.828Z" fill="#E4DBDB"/>
<path d="M113.56 77.058C115.005 77.2334 117.231 77.1964 118.766 77.3087C121.84 77.5336 124.935 77.7145 128.015 77.8324L128.055 77.8982C127.987 81.4074 127.724 84.8913 127.427 88.3863C127.32 89.6434 127.314 91.011 127.194 92.2297L127.134 93.1136C126.622 93.2531 126.148 93.167 125.624 93.2472C124.755 93.2616 123.284 93.1209 122.334 93.0759C120.376 92.9945 118.418 92.9258 116.46 92.8697C115.451 92.8386 114.083 92.7625 113.1 92.8645C113.1 88.1395 113.132 81.7384 113.56 77.058Z" fill="#A6100E"/>
<path d="M54.3835 77.7015C58.9813 77.7879 63.824 77.1107 68.6547 77.0463C68.7208 79.3243 68.8708 91.0601 69.3608 92.3681C69.2759 92.5505 69.1972 92.8271 69.0349 92.8341C67.5975 92.8966 55.7646 93.1544 55.4636 93.0461C55.4168 92.8938 55.3571 92.7214 55.3291 92.5666C55.3031 89.601 54.9619 87.3409 54.6816 84.396C54.4869 82.3503 54.4418 79.7791 54.3835 77.7015Z" fill="#A6100E"/>
<path d="M114.037 9.17896C116.247 10.6906 118.901 12.0518 121.191 13.4723C122.115 14.0461 125.281 15.5212 125.871 16.1638C125.86 16.543 125.761 16.7064 125.609 17.0446C124.618 18.63 123.734 20.5172 122.812 22.1702C122.203 23.2601 121.186 24.529 120.677 25.5386C119.786 25.7685 108.758 20.1971 106.795 19.3948C108.151 18.0215 109.581 17.6361 111.2 15.4058C112.303 13.8859 113.524 9.62314 114.037 9.17896Z" fill="#E4DBDB"/>
<path d="M35.4127 43.4247C36.0423 43.95 39.4955 49.9833 39.9125 51.04L40.1991 51.2224C40.1037 51.6592 39.8688 52.5983 39.8697 53.0052C40.0606 53.8834 40.1549 55.4387 40.2526 56.4142C40.415 57.9426 40.5967 59.4689 40.7973 60.9926C40.8444 61.367 40.95 62.5012 41.0149 62.7945C40.9534 62.9822 40.9346 63.0902 40.7084 63.1452C39.0493 63.5489 37.5702 63.8226 35.9954 64.5536C35.5944 63.7467 35.7879 63.6393 35.678 62.8233L35.6678 62.7517C35.3739 61.9161 34.694 61.0167 34.187 60.2781C32.7754 58.2214 31.1784 56.2662 29.3365 54.5805C29.3364 54.5802 29.2672 54.3067 29.2605 54.28C29.8384 53.4014 30.7413 50.7759 31.3058 49.6325C32.5705 47.0711 33.5588 45.5467 35.4127 43.4247Z" fill="#E4DBDB"/>
<path d="M39.5366 52.8213L39.8698 53.0052C40.0607 53.8834 40.155 55.4387 40.2527 56.4142C40.4151 57.9427 40.5968 59.4689 40.7975 60.9927C40.8445 61.3671 40.9501 62.5012 41.015 62.7945C40.9535 62.9822 40.9347 63.0902 40.7086 63.1453C39.0494 63.549 37.5704 63.8226 35.9955 64.5536C35.5945 63.7467 35.7881 63.6393 35.6781 62.8233L35.668 62.7518C35.8461 62.4966 36.0952 61.3276 36.1936 60.9593C36.987 57.9902 37.4583 55.1955 39.5366 52.8213Z" fill="#A6100E"/>
<path d="M39.9126 51.04L40.1992 51.2225C40.1038 51.6593 39.8689 52.5984 39.8698 53.0053L39.5366 52.8213C39.6812 52.5286 39.8497 51.4131 39.9126 51.04Z" fill="#C6A281"/>
<path d="M35.3325 43.3472C36.105 42.5096 37.0394 41.3055 37.9032 40.4485C39.3512 39.0118 45.8105 33.91 47.39 33.4911C47.995 34.9962 50.2988 37.2241 49.7576 38.8881C49.487 39.7197 48.0887 41.1975 47.5387 41.9543C45.357 44.9549 42.0538 48.0209 40.1992 51.2225L39.9127 51.0401C39.4956 49.9834 36.0424 43.9501 35.4128 43.4248L35.3325 43.3472Z" fill="#BD2329"/>
<path d="M113.018 108.812C113.891 108.919 115.435 108.912 116.35 108.934C118.577 108.987 120.805 109.026 123.032 109.051C123.922 109.063 125.807 109.045 126.625 109.2L126.607 109.283C126.559 111.75 126.84 114.495 126.939 117H112.415L113.018 116.843C113.06 116.785 113.014 109.573 113.018 108.812Z" fill="#A6100E"/>
<path d="M55.6 109.098C56.1503 109.015 56.7449 109.065 57.302 109.073C60.8887 109.12 64.4747 108.949 68.0602 108.877C68.4995 108.868 68.9442 108.867 69.3803 108.812C69.3573 111.372 69.1796 114.546 69.2253 117H54.8906L55.4693 116.837C55.7983 116.397 55.6693 110.008 55.6 109.098Z" fill="#A6100E"/>
<path d="M75.6388 19.4387C76.5455 19.6653 77.2518 20.711 78.0332 21.063C79.2953 22.4034 79.6782 22.9072 80.6161 24.4847C76.9077 25.1257 73.0584 25.9706 69.4679 27.1104C67.3604 27.7795 65.4774 28.8412 63.3017 29.4331C62.6569 28.2176 62.062 26.9837 61.3733 25.7931L61.3783 25.6267C66.6964 24.0106 70.7069 21.5391 75.6388 19.4387Z" fill="#C03435"/>
<path d="M106.795 19.3949C108.758 20.1971 119.786 25.7685 120.677 25.5387L120.646 25.8862C120.212 26.2281 119.413 28.6793 119.138 29.403C117.104 28.9249 115.587 28.0868 113.689 27.4802C109.87 26.2593 105.794 25.0672 101.865 24.3022C102.599 23.1516 103.325 22.3711 104.283 21.405C104.757 21.1685 106.133 19.8344 106.795 19.3949Z" fill="#C03435"/>
<path d="M69.3609 92.3682L69.545 92.5057C69.4998 92.9239 69.5718 92.7779 69.2875 93.0625C68.1952 93.3173 66.9901 93.0992 65.9256 93.1666C63.7782 93.3024 62.594 94.008 60.436 93.3542C59.8775 93.185 57.2343 93.2622 56.5437 93.2849C56.2613 93.4729 56.0316 93.6116 55.7844 93.8481L55.7634 93.8013C55.6945 93.651 55.6881 93.6141 55.5595 93.5035C55.6161 95.9895 55.6267 98.4489 55.7916 100.939C55.8687 102.103 55.6228 103.455 55.6563 104.633C55.633 105.418 55.7123 107.257 55.5338 107.926C55.1965 103.444 55.644 97.6629 55.2534 93.1203L55.3293 92.5666C55.3573 92.7214 55.4169 92.8939 55.4638 93.0462C55.7647 93.1545 67.5976 92.8966 69.0351 92.8341C69.1973 92.8271 69.2761 92.5505 69.3609 92.3682Z" fill="#D4BBBB"/>
<path d="M87.6488 43.4161C88.8734 42.4802 89.0421 42.555 90.6501 42.6168C91.6913 42.6109 93.4561 42.5537 94.3989 43.166C94.7005 43.3618 94.5695 43.9525 94.4986 44.2635C94.5708 44.4169 94.6285 44.5608 94.7313 44.6953C95.1886 44.8011 96.3509 45.1678 96.7682 45.3741C97.9567 45.7737 99.485 46.0937 100.565 46.529C99.3948 47.6261 98.4818 48.3806 97.2058 49.3779C96.9867 49.6571 96.7132 49.9207 96.7369 50.2626C96.9112 50.5601 96.9657 50.5775 97.2822 50.7238C97.6817 50.7164 98.1055 50.6512 98.4166 50.8717C98.94 51.6941 97.7707 53.0357 97.3177 53.8294C97.2414 54.0058 97.1489 54.2547 97.0436 54.4061C96.8754 54.7872 96.2667 56.0941 96.1703 56.419C95.9211 57.1142 95.6753 57.8432 95.3797 58.5177C94.6429 60.4817 93.9425 61.8868 93.4819 63.9879C92.5114 64.119 89.5159 64.3279 88.748 63.7168C87.4774 60.6675 87.4154 58.5589 85.6187 55.421C85.1187 54.8545 84.8786 54.6605 85.1996 53.8931C85.8586 53.8406 86.1771 53.4256 86.369 52.8462C86.0018 52.693 85.9503 52.5296 85.7628 52.1882C86.058 51.6728 85.9407 50.8396 85.8741 50.2631C85.5429 49.7713 84.8257 49.0981 84.3589 48.7245C83.9405 48.5044 83.368 48.0785 82.9662 47.7981C82.8715 47.6712 81.8243 46.6986 81.647 46.5309C82.0625 46.3355 82.6402 46.1294 83.0787 45.958C83.997 45.5881 85.1219 45.3922 86.1019 45.1993C86.5468 44.8854 86.9451 43.9661 87.6488 43.4161Z" fill="#7F7D8B"/>
<path d="M92.4156 49.3142C92.7777 49.6019 93.354 49.8574 93.7547 49.4873C94.1241 49.7544 94.4411 49.6746 94.9392 49.6437C95.0436 49.9722 95.1839 50.4674 95.3041 50.7745C95.8921 50.5514 96.4269 49.8033 97.2058 49.3779C96.9866 49.6571 96.7132 49.9207 96.7368 50.2626C96.9112 50.5601 96.9657 50.5775 97.2822 50.7238C97.6816 50.7164 98.1054 50.6512 98.4166 50.8717C98.94 51.6941 97.7707 53.0357 97.3176 53.8294C97.2414 54.0058 97.1489 54.2547 97.0435 54.4061C96.8753 54.7873 96.2667 56.0941 96.1702 56.419C95.9211 57.1142 95.6753 57.8432 95.3797 58.5177C94.6428 60.4817 93.9424 61.8868 93.4819 63.9879C92.5114 64.119 89.5159 64.3279 88.7479 63.7168C87.4774 60.6675 87.4154 58.5589 85.6187 55.421C86.4239 54.5686 87.0938 56.1027 87.7498 56.0929L88.0162 55.8262C88.5968 54.4639 89.1532 54.2016 89.6376 53.1961L90.3212 53.186L90.4651 52.95C90.5835 52.4149 91.0193 51.6269 91.2248 50.9015L91.243 50.8217C91.271 50.3387 91.4259 49.7101 91.529 49.2246C91.8356 49.3462 92.0237 49.4271 92.3528 49.4973L92.4156 49.3142Z" fill="#8D8586"/>
<path d="M85.6187 55.4211C86.4239 54.5686 87.0938 56.1027 87.7498 56.0929L88.0162 55.8262C88.6252 56.1283 88.9446 56.2716 89.2246 56.9017L89.247 57.0744C89.5322 57.8081 90.2916 58.6486 91.1522 58.2531C91.3595 57.9843 91.3955 57.8877 91.5293 57.584C92.0514 57.7338 92.1613 57.8771 92.4841 58.3586C93.2468 58.4006 94.7811 58.6239 95.3797 58.5177C94.6428 60.4818 93.9424 61.8868 93.4819 63.9879C92.5114 64.1191 89.5159 64.3279 88.7479 63.7169C87.4774 60.6676 87.4154 58.5589 85.6187 55.4211Z" fill="#C6A281"/>
<path d="M92.4842 58.3586C93.2469 58.4006 94.7812 58.624 95.3798 58.5177C94.6429 60.4818 93.9426 61.8868 93.482 63.9879C92.5115 64.1191 89.516 64.3279 88.748 63.7169C89.5007 63.1262 90.9447 62.8917 92.0037 62.5272C92.9014 60.8392 92.6544 60.0761 92.4842 58.3586Z" fill="#BBA07C"/>
<path d="M95.304 50.7746C95.8921 50.5515 96.4268 49.8034 97.2057 49.3781C96.9866 49.6572 96.7132 49.9208 96.7368 50.2628C96.9112 50.5602 96.9657 50.5776 97.2822 50.7239C97.6816 50.7165 98.1054 50.6513 98.4165 50.8719C98.9399 51.6942 97.7706 53.0358 97.3176 53.8295C97.2414 54.0059 97.1488 54.2548 97.0435 54.4062C96.8753 54.7874 96.2667 56.0942 96.1702 56.4191C95.921 57.1143 95.6753 57.8433 95.3797 58.5178C94.7811 58.624 93.2468 58.4006 92.484 58.3587C92.1613 57.8772 92.0513 57.7338 91.5293 57.584C92.202 56.9928 92.8992 56.3606 93.6004 55.8096C93.5771 55.1965 93.5815 54.7887 93.6098 54.1773L93.5781 53.8247L93.5968 52.8466L93.585 51.8103L93.6364 51.3289C94.0871 51.1419 94.8211 50.9302 95.304 50.7746Z" fill="#EACFCE"/>
<path d="M93.6098 54.1772L93.6246 54.2651C93.7635 55.12 93.5074 55.8079 94.0754 56.259C94.4859 56.3456 94.7907 56.2117 95.1938 56.0886C95.6044 56.1113 95.8803 56.0455 96.1358 56.2655L96.1702 56.419C95.921 57.1142 95.6753 57.8432 95.3797 58.5177C94.7811 58.6239 93.2468 58.4006 92.484 58.3586C92.1613 57.8771 92.0513 57.7338 91.5293 57.584C92.202 56.9927 92.8992 56.3605 93.6004 55.8095C93.5771 55.1964 93.5815 54.7886 93.6098 54.1772Z" fill="#A28477"/>
<path d="M97.2823 50.7239C97.6817 50.7165 98.1055 50.6513 98.4166 50.8718C98.94 51.6942 97.7707 53.0358 97.3177 53.8295C96.7833 53.8591 96.4932 53.9441 96.1099 53.5422C96.018 53.1256 96.1396 52.8479 96.261 52.4376L97.2823 50.7239Z" fill="#905A4E"/>
<path d="M95.304 50.7746C95.8921 50.5515 96.4268 49.8034 97.2057 49.3781C96.9865 49.6572 96.7131 49.9208 96.7368 50.2628C96.9111 50.5602 96.9656 50.5776 97.2821 50.7239L96.2609 52.4376C95.7954 51.8252 94.3353 51.3548 93.7608 51.8362C93.7016 52.1722 93.647 52.5091 93.5967 52.8466L93.585 51.8103L93.6364 51.3289C94.087 51.1419 94.821 50.9302 95.304 50.7746Z" fill="#D4BBBB"/>
<path d="M95.1938 56.0886C95.6529 55.6572 96.4377 54.5339 97.0436 54.4061C96.8754 54.7873 96.2667 56.0942 96.1703 56.419L96.1359 56.2656C95.8804 56.0455 95.6045 56.1113 95.1938 56.0886Z" fill="#C6A281"/>
<path d="M90.6988 56.6782C92.0583 56.8628 92.57 54.8371 93.0658 53.9846C93.1772 53.7928 93.386 53.8312 93.5781 53.8247L93.6098 54.1773C93.5815 54.7887 93.5771 55.1965 93.6005 55.8096C92.8993 56.3605 92.2021 56.9927 91.5293 57.584C91.3955 57.8877 91.3595 57.9844 91.1521 58.2531C90.2915 58.6487 89.5322 57.8082 89.247 57.0744L89.2246 56.9018C89.2438 56.7178 89.3504 56.5343 89.4326 56.3644C89.7456 56.077 89.9155 56.0877 90.3392 56.0396L90.6988 56.6782Z" fill="#7E5957"/>
<path d="M89.2246 56.9017C89.2438 56.7178 89.3504 56.5343 89.4326 56.3644C89.7456 56.0769 89.9155 56.0877 90.3392 56.0396L90.6988 56.6781C90.3489 57.1147 90.4571 57.108 89.9969 57.283C89.7464 57.2149 89.4965 57.1455 89.247 57.0744L89.2246 56.9017Z" fill="#442B27"/>
<path d="M89.6374 53.1962L90.321 53.1862C90.5035 53.7876 90.5114 53.8095 91.111 54.0629L91.2722 54.2195C91.2357 54.9889 90.6344 55.1557 90.3391 56.0396C89.9154 56.0877 89.7455 56.077 89.4325 56.3645C89.3503 56.5344 89.2437 56.7179 89.2245 56.9018C88.9445 56.2717 88.6251 56.1284 88.0161 55.8263C88.5967 54.464 89.1531 54.2017 89.6374 53.1962Z" fill="#7E5957"/>
<path d="M92.4156 49.3142C92.7777 49.6019 93.354 49.8574 93.7547 49.4873C94.1241 49.7544 94.4411 49.6746 94.9392 49.6437C95.0436 49.9722 95.1839 50.4674 95.3041 50.7745C94.8211 50.9302 94.0871 51.1418 93.6365 51.3288C93.6502 50.606 93.6944 50.5717 93.0587 50.2893C92.8295 50.0199 92.5942 49.7558 92.3528 49.4974L92.4156 49.3142Z" fill="#8D8586"/>
<path d="M91.5289 49.2246C91.8356 49.3462 92.0236 49.4271 92.3527 49.4973C92.5941 49.7558 92.8294 50.0198 93.0586 50.2893C92.8854 50.4031 92.4988 50.6731 92.327 50.7423C92.0289 50.7455 91.5546 50.7976 91.2429 50.8217C91.2709 50.3387 91.4258 49.7101 91.5289 49.2246Z" fill="#9F98A2"/>
<path d="M92.3269 50.7423C92.4987 50.6731 92.8853 50.4031 93.0585 50.2893C93.6942 50.5718 93.65 50.606 93.6363 51.3288L93.5849 51.8102C92.6937 51.7825 92.7354 51.5004 92.3269 50.7423Z" fill="#6E6D77"/>
<path d="M90.465 52.9501C90.8574 53.0503 91.0145 53.0603 91.2994 53.3486C91.384 53.6828 91.3931 53.7831 91.111 54.0628C90.5114 53.8095 90.5035 53.7876 90.321 53.1861L90.465 52.9501Z" fill="#96949F"/>
<path d="M94.7312 44.6954C95.1885 44.8012 96.3508 45.1679 96.7681 45.3742C97.9566 45.7738 99.4849 46.0938 100.565 46.5292C99.3947 47.6263 98.4817 48.3807 97.2057 49.3781C96.4268 49.8034 95.8921 50.5515 95.304 50.7746C95.1838 50.4675 95.0435 49.9723 94.9392 49.6438C94.441 49.6747 94.1241 49.7545 93.7547 49.4874L93.6221 48.4694C93.5507 47.796 93.6422 46.7424 93.6829 46.0359L93.7407 45.3484C94.0549 45.0798 93.896 45.1442 94.3641 45.1432C94.5321 45.0302 94.6171 44.8664 94.7312 44.6954Z" fill="#EACFCE"/>
<path d="M96.7681 45.3741C97.9566 45.7737 99.485 46.0937 100.565 46.5291C99.3947 47.6262 98.4818 48.3806 97.2057 49.378C96.4268 49.8033 95.8921 50.5514 95.304 50.7745C95.1838 50.4674 95.0435 49.9722 94.9392 49.6437C96.1105 49.1861 96.5978 48.0029 96.8311 46.8059C96.9252 46.3232 96.807 46.2202 96.5354 45.8626L96.7681 45.3741Z" fill="#905A4E"/>
<path d="M94.7311 44.6954C95.1884 44.8012 96.3507 45.1679 96.768 45.3742L96.5353 45.8627L94.364 45.1432C94.532 45.0302 94.617 44.8664 94.7311 44.6954Z" fill="#A28477"/>
<path d="M86.1019 45.1994C86.5468 44.8855 86.9451 43.9662 87.6488 43.4161C87.6262 44.8633 87.7712 44.473 88.1397 45.6273L88.2514 45.9639C88.349 46.8857 88.329 47.5173 88.3047 48.4494L88.1486 49.0027C87.8587 49.0845 86.7721 49.3194 86.6323 49.3759C86.3946 49.6077 85.9596 49.9718 85.8741 50.2632C85.5429 49.7714 84.8257 49.0982 84.3589 48.7246C83.9405 48.5045 83.368 48.0785 82.9662 47.7982C82.8715 47.6712 81.8243 46.6986 81.647 46.5309C82.0625 46.3355 82.6402 46.1294 83.0787 45.958C83.997 45.5882 85.1219 45.3922 86.1019 45.1994Z" fill="#AE7369"/>
<path d="M86.1019 45.1994C86.5468 44.8855 86.9451 43.9662 87.6488 43.4161C87.6262 44.8633 87.7712 44.473 88.1396 45.6273L88.2514 45.9639C88.349 46.8857 88.329 47.5173 88.3046 48.4494L88.1486 49.0027C87.8587 49.0845 86.7721 49.3194 86.6322 49.3759C86.0334 49.3778 86.0382 49.161 85.8263 48.696C85.7821 47.5969 85.9582 46.2842 86.1019 45.1994Z" fill="#EACFCE"/>
<path d="M83.0787 45.958C83.6145 46.2046 83.9597 47.5836 84.8946 48.2875L84.3589 48.7245C83.9405 48.5045 83.368 48.0785 82.9662 47.7981C82.8715 47.6712 81.8243 46.6986 81.647 46.5309C82.0625 46.3355 82.6402 46.1294 83.0787 45.958Z" fill="#A6100E"/>
<path d="M87.6488 43.4161C88.8734 42.4802 89.042 42.555 90.6501 42.6168C91.6912 42.6109 93.456 42.5537 94.3989 43.166C94.7004 43.3618 94.5695 43.9525 94.4985 44.2635C94.5707 44.4169 94.6284 44.5608 94.7313 44.6953C94.6171 44.8662 94.5321 45.0301 94.3641 45.1431C93.896 45.1441 94.055 45.0797 93.7408 45.3483L93.6829 46.0358L92.9772 46.0302C92.3037 45.9519 91.3258 46.0266 90.6262 46.0594L88.2514 45.9638L88.1396 45.6272C87.7711 44.473 87.6261 44.8633 87.6488 43.4161Z" fill="#4D4E60"/>
<path d="M90.6501 42.6169C91.6913 42.611 93.4561 42.5537 94.3989 43.166C94.7005 43.3619 94.5695 43.9526 94.4986 44.2636C94.5708 44.4169 94.6285 44.5609 94.7313 44.6954C94.6172 44.8663 94.5322 45.0302 94.3642 45.1432C93.8961 45.1442 94.055 45.0797 93.7408 45.3484C93.6138 45.3013 93.2836 45.2552 93.1333 45.2294C92.9794 44.4901 92.2516 43.5603 91.4714 43.6008C91.5153 42.6816 91.5176 42.8438 90.6501 42.6169Z" fill="#6E6D77"/>
<path d="M87.6488 43.4161C88.8734 42.4802 89.042 42.555 90.6501 42.6168C91.5175 42.8438 91.5152 42.6815 91.4714 43.6007L91.3284 43.7952C91.2905 43.5351 91.2676 43.5175 91.1266 43.2886C90.741 43.1504 90.9086 43.1675 90.4565 43.2856C89.8576 43.4689 88.937 44.1682 88.9049 44.8432C88.966 44.9556 89.034 45.0984 89.1118 45.1946C88.6135 45.2893 88.555 45.3309 88.1396 45.6272C87.7711 44.473 87.6261 44.8633 87.6488 43.4161Z" fill="#5B5663"/>
<path d="M91.4713 43.6008C92.2515 43.5603 92.9793 44.49 93.1332 45.2294C92.4766 45.3858 91.9005 45.3532 91.2285 45.3507C91.2341 44.8411 91.2874 44.3055 91.3284 43.7952L91.4713 43.6008Z" fill="#96949F"/>
<path d="M89.112 45.1947C89.0341 45.0985 88.9662 44.9556 88.905 44.8432C88.9371 44.1683 89.8577 43.4689 90.4567 43.2856C90.511 43.9514 90.5859 44.6794 90.6208 45.3406C90.1269 45.3077 89.5952 45.2871 89.112 45.1947Z" fill="#96949F"/>
<path d="M86.3689 52.8463C86.805 52.1656 87.0429 51.8719 87.8876 51.8317C88.3869 52.0108 88.7393 52.5868 89.1656 52.8897L89.6374 53.1961C89.1531 54.2016 88.5967 54.4639 88.0161 55.8262L87.7497 56.0929C87.0937 56.1027 86.4238 54.5686 85.6185 55.4211C85.1185 54.8546 84.8785 54.6606 85.1994 53.8931C85.8585 53.8407 86.1769 53.4257 86.3689 52.8463Z" fill="#D4BBBB"/>
<path d="M92.9771 46.0303L93.6829 46.0358C93.6422 46.7423 93.5507 47.796 93.6221 48.4693L93.7547 49.4874C93.354 49.8574 92.7776 49.602 92.4156 49.3143L92.3527 49.4974C92.0237 49.4271 91.8356 49.3462 91.5289 49.2247L91.5004 49.0491C91.266 48.7167 91.1933 48.7045 90.8217 48.5928C90.6521 48.1313 90.5713 46.589 90.6262 46.0595C91.3258 46.0267 92.3037 45.952 92.9771 46.0303Z" fill="#7F7D8B"/>
<path d="M90.6262 46.0595C91.3258 46.0267 92.3037 45.952 92.9771 46.0303C92.8062 46.4032 92.617 46.9309 92.3023 47.1607C92.0392 47.1808 92.0177 47.1584 91.7667 47.0532C91.3367 47.2973 91.4199 47.7718 91.3983 48.249L91.5834 48.3498C91.5599 48.5612 91.5374 48.8466 91.5004 49.0491C91.266 48.7167 91.1933 48.7045 90.8217 48.5928C90.6521 48.1313 90.5713 46.589 90.6262 46.0595Z" fill="#9F98A2"/>
<path d="M92.3972 48.961C92.4074 48.8562 92.4529 48.6938 92.4787 48.586C92.7626 48.3787 93.2536 48.4524 93.6222 48.4693L93.7547 49.4873C93.354 49.8574 92.7777 49.6019 92.4156 49.3142L92.3972 48.961Z" fill="#484744"/>
<path d="M91.5836 48.3499C92.0193 48.4397 92.2179 48.4942 92.3973 48.961L92.4157 49.3143L92.3529 49.4975C92.0238 49.4272 91.8357 49.3463 91.5291 49.2247L91.5005 49.0491C91.5375 48.8466 91.56 48.5612 91.5836 48.3499Z" fill="#96949F"/>
<path d="M88.1485 49.0027C88.2898 49.5552 88.179 49.4126 88.5556 49.7984C88.2947 50.1178 88.3615 49.9635 88.3189 50.3918C88.4436 50.6948 88.4634 50.7979 88.7513 50.9597C88.542 51.4363 88.5072 51.7389 87.8984 51.7941L87.8877 51.8317C87.043 51.8719 86.8051 52.1657 86.369 52.8463C86.0017 52.6931 85.9502 52.5297 85.7627 52.1883C86.0579 51.6729 85.9406 50.8397 85.874 50.2632C85.9596 49.9718 86.3945 49.6077 86.6322 49.376C86.772 49.3194 87.8586 49.0845 88.1485 49.0027Z" fill="#7E5957"/>
<path d="M85.874 50.2632C86.238 50.7511 87.1469 51.6731 87.762 51.7757C87.8072 51.7829 87.8528 51.7891 87.8984 51.7941L87.8877 51.8317C87.043 51.8719 86.8051 52.1657 86.369 52.8463C86.0017 52.6931 85.9502 52.5297 85.7627 52.1883C86.0579 51.6729 85.9406 50.8397 85.874 50.2632Z" fill="#AE7369"/>
<path d="M88.2512 45.9639L90.6261 46.0595C90.5712 46.589 90.652 48.1313 90.8216 48.5928C90.2294 49.2437 89.139 48.6415 88.3045 48.4494C88.3288 47.5173 88.3488 46.8857 88.2512 45.9639Z" fill="#7F7D8B"/>
<path d="M88.3045 48.4495C89.1391 48.6415 90.2294 49.2438 90.8216 48.5929C91.1933 48.7045 91.266 48.7167 91.5003 49.0491L91.5289 49.2247C91.4258 49.7102 91.2709 50.3388 91.2429 50.8218L91.2247 50.9015C91.1483 50.7505 91.0239 50.6361 90.9071 50.511C90.8392 50.1526 90.8036 49.9142 90.6698 49.572C90.0737 48.9741 89.2096 49.5089 88.5555 49.7984C88.1789 49.4127 88.2898 49.5552 88.1484 49.0027L88.3045 48.4495Z" fill="#4D4E60"/>
<path d="M90.907 50.511C91.0238 50.6361 91.1482 50.7505 91.2247 50.9015C91.0191 51.6269 90.5834 52.415 90.465 52.95L90.321 53.1861L89.6374 53.1962L89.1655 52.8897C89.3922 52.4658 89.442 52.3285 89.841 52.0706C90.3584 51.5736 90.5613 51.1335 90.907 50.511Z" fill="#5B5663"/>
<path d="M88.7514 50.9597C89.2911 50.9981 89.2587 50.9082 89.6006 51.1955C89.6747 51.4958 89.7382 51.7783 89.8412 52.0706C89.4422 52.3285 89.3924 52.4659 89.1657 52.8898C88.7394 52.5869 88.387 52.0109 87.8877 51.8317L87.8984 51.7941C88.5072 51.739 88.542 51.4363 88.7514 50.9597Z" fill="#8D8586"/>
<path d="M89.2106 72.5054C88.935 72.7361 88.5575 72.8417 88.2115 72.9988C85.9176 74.0403 79.6184 76.0626 81.1737 71.0513C81.5901 69.7097 82.4464 68.8701 83.3806 67.8433C82.4596 72.421 83.6473 71.8264 87.5845 71.1766L90.0957 70.5085C90.2236 70.9166 90.2627 71.0296 90.2942 71.4555C90.5436 71.7275 90.7464 71.7048 91.1307 71.672C90.4878 71.9432 89.8477 72.2211 89.2106 72.5054Z" fill="#07124F"/>
<path d="M87.5842 71.1766L90.0955 70.5085C90.2234 70.9166 90.2624 71.0296 90.294 71.4555C90.5434 71.7275 90.7462 71.7048 91.1304 71.672C90.4875 71.9432 89.8474 72.221 89.2103 72.5054L89.0298 72.2878C89.3405 72.1679 89.4002 72.134 89.6721 71.9412C89.2339 71.2379 88.4232 71.9957 87.5842 71.1766Z" fill="#000415"/>
<path d="M82.9661 47.7981C83.3679 48.0785 83.9403 48.5044 84.3588 48.7245C84.8256 49.0981 85.5428 49.7713 85.8739 50.2631C85.9405 50.8396 86.0579 51.6728 85.7626 52.1882C85.9501 52.5296 86.0017 52.693 86.3689 52.8462C86.1769 53.4256 85.8585 53.8406 85.1995 53.8931C85.0384 53.7843 84.8815 53.6695 84.7292 53.5488C83.7752 52.7806 83.5928 51.8971 83.4814 50.7678C82.9265 49.7501 83.2794 49.4753 83.3158 48.4297C83.3158 48.4305 83.0098 47.8774 82.9661 47.7981Z" fill="#EACFCE"/>
<path d="M83.4814 50.7678C84.7932 50.571 85.0333 51.2314 85.7627 52.1883C85.9502 52.5297 86.0017 52.6931 86.369 52.8463C86.177 53.4257 85.8586 53.8407 85.1995 53.8931C85.0384 53.7844 84.8816 53.6695 84.7293 53.5489C83.7753 52.7807 83.5928 51.8972 83.4814 50.7678Z" fill="#AE7369"/>
<path d="M93.5931 69.7634C94.3943 69.4618 96.0197 69.0915 96.9042 68.8626C98.6182 68.4205 100.326 67.9567 102.028 67.4709C100.943 68.214 97.3486 69.4348 95.9866 69.8814C94.3521 70.5962 92.6838 70.8801 91.1306 71.672C90.7464 71.7048 90.5436 71.7274 90.2942 71.4555C90.2626 71.0295 90.2236 70.9165 90.0957 70.5085C91.2213 70.2481 92.4603 69.9327 93.5931 69.7634Z" fill="#000006"/>
<path d="M93.5931 69.7634C94.3943 69.4618 96.0197 69.0915 96.9042 68.8626C98.6181 68.4205 100.326 67.9567 102.028 67.4709C100.943 68.214 97.3485 69.4348 95.9866 69.8814C95.0141 69.7979 94.4949 70.4037 92.9783 70.169L92.9808 70.0809C93.2892 70.0355 93.3623 69.9695 93.5931 69.7634Z" fill="#09090B"/>
<path d="M67.8418 3.63635C68.0467 4.06284 68.1268 5.46023 68.0588 5.96566C67.9475 6.7937 68.6022 8.80191 68.342 9.31653C68.3538 9.33822 68.3655 9.3599 68.3772 9.3816C69.4035 11.6292 69.7306 13.5775 71.3142 15.5841C72.1255 16.6121 74.4535 18.3265 75.5787 19.212C75.5787 19.212 75.6321 19.4138 75.6388 19.4388C70.7068 21.5392 66.6964 24.0107 61.3783 25.6268L61.3732 25.7932C58.4218 27.0847 49.5078 31.383 47.4571 33.3733L47.3899 33.4911C45.8104 33.9099 39.3511 39.0118 37.9031 40.4484C37.0393 41.3055 36.1049 42.5095 35.3324 43.3472C32.7552 40.3045 29.7064 34.2284 26.8821 32.3099L26.7706 32.3003C26.6297 31.8657 23.989 27.3271 23.6565 26.8406C23.7493 26.7015 24.1347 26.2814 24.2777 26.1654C27.7999 23.3093 31.8826 20.9409 35.9631 18.9815C36.4471 18.7491 37.7521 18.0489 38.1796 18.0681C38.4177 17.9516 38.8409 17.8538 39.1239 17.7496C42.0878 16.6594 44.9779 15.5856 47.8269 14.21C49.5642 13.3712 51.46 12.7913 53.1086 11.7489C53.4267 11.5478 53.7742 11.3111 54.1166 11.4117C54.1982 11.122 54.7892 10.8103 55.0656 10.6999C59.676 8.85749 63.6866 6.35442 67.8418 3.63635Z" fill="#E4DBDB"/>
<path d="M41.2012 22.9485C42.8034 21.9042 45.0922 20.7991 46.8136 19.9487C49.442 18.6501 53.1207 16.7605 55.9373 15.9757C57.7668 18.5457 59.0313 20.7669 60.3981 23.6031C60.6337 24.0921 61.2573 25.1944 61.3782 25.6267L61.3732 25.7931C58.4218 27.0847 49.5077 31.3829 47.457 33.3732C47.2741 33.1653 47.2029 32.9484 47.0593 32.7198C45.399 30.0791 43.9455 27.312 42.2678 24.6857C41.8896 24.0937 41.5131 23.5852 41.2012 22.9485Z" fill="#C03435"/>
<path d="M23.6565 26.8405C23.7493 26.7014 24.1347 26.2813 24.2777 26.1654C27.7999 23.3092 31.8826 20.9408 35.9631 18.9814C36.4471 18.749 37.7521 18.0488 38.1796 18.068C38.8694 18.8687 41.0344 22.14 41.1355 22.963C36.5775 24.7375 32.9495 27.1609 29.2976 30.3361C28.7282 30.8312 27.3019 31.7842 26.8821 32.3098L26.7706 32.3002C26.6297 31.8657 23.989 27.327 23.6565 26.8405Z" fill="#C03435"/>
<path d="M67.8419 3.63635C68.0468 4.06284 68.1269 5.46023 68.0589 5.96566C67.9476 6.7937 68.6023 8.80191 68.3421 9.31653L61.7304 12.9325C60.0033 13.892 57.8241 15.1794 56.0466 15.9496C55.5122 14.3561 54.6349 12.9554 54.1167 11.4117C54.1983 11.122 54.7893 10.8103 55.0657 10.6999C59.6761 8.85749 63.6867 6.35442 67.8419 3.63635Z" fill="#C03435"/>
<path d="M67.8418 3.63635C69.2561 2.38386 70.5958 1.85647 72.4686 2.04337C80.2471 2.81965 88.1344 3.54745 95.9638 3.25122C99.7924 3.10637 103.929 2.21631 107.848 2.2649C108.942 2.27847 110.12 1.99615 111.247 2.05598C111.56 2.23579 114.182 4.01683 114.397 4.24096C114.427 4.85401 114.802 5.1389 114.779 5.57916C114.716 6.71579 113.325 8.0954 114.037 9.17905C113.524 9.62324 112.302 13.886 111.2 15.4059C109.581 17.6362 108.151 18.0216 106.795 19.3949C106.133 19.8345 104.757 21.1686 104.284 21.4051L104.184 21.2556C103.47 20.8453 95.4821 23.4971 93.6528 23.6452C89.3848 23.9906 85.94 22.791 81.8305 21.843C80.9834 21.6477 78.8119 21.0046 78.0331 21.0631C77.2517 20.7111 76.5454 19.6654 75.6387 19.4388C75.6321 19.4138 75.5786 19.212 75.5786 19.212C74.4534 18.3265 72.1254 16.6121 71.3142 15.5841C69.7306 13.5775 69.4035 11.6292 68.3772 9.3816C68.3654 9.3599 68.3538 9.33822 68.342 9.31653C68.6022 8.80191 67.9475 6.79369 68.0588 5.96566C68.1268 5.46023 68.0467 4.06284 67.8418 3.63635Z" fill="#A5A4A4"/>
<path d="M155.129 32.6381C157.92 36.175 160.04 39.2672 161.838 43.4417C162.202 44.2872 162.829 45.3946 163.012 46.2687C162.992 46.3314 162.909 46.5777 162.907 46.6249C163.772 47.775 167.32 60.3042 166.932 61.6126C165.244 62.81 157.543 66.1206 155.604 66.3895L155.44 66.3231C153.693 67.5607 150.695 68.3248 148.536 69.7644L147.754 70.2276C147.029 70.05 146.917 70.4109 146.196 70.4539C145.818 70.1969 146.044 69.8553 145.634 69.333C145.81 68.1276 146.139 66.9232 146.339 65.7319C146.772 63.1523 142.263 63.7481 141.264 63.0666C141.678 61.5505 142.017 56.0191 142.029 54.3932C141.959 53.9527 141.957 52.635 141.941 52.1102C141.745 51.4408 141.318 50.7828 140.979 50.1777C138.649 46.0041 133.875 43.0916 132.501 38.3504C132.885 37.1838 134.324 34.3952 135.027 33.3445L135.123 33.3875C138.375 35.3999 140.27 36.5747 143.099 39.3045C143.994 40.1675 146.616 42.8676 147.384 43.4523C147.882 41.8774 153.79 33.6088 155.014 32.6522L155.129 32.6381Z" fill="#C03435"/>
<path d="M162.907 46.625C163.772 47.7751 167.32 60.3043 166.932 61.6127C165.244 62.8101 157.543 66.1207 155.604 66.3895L155.44 66.3232C155.262 65.4782 155.224 64.2645 155.087 63.3857C154.745 61.2018 154.004 56.748 153.167 54.8317C153.244 53.894 161.539 47.3417 162.907 46.625Z" fill="#E4DBDB"/>
<path d="M142.207 52.7655C143.906 54.6125 145.443 58.1202 146.156 60.5747C146.278 60.9904 146.307 61.5219 146.576 61.882C147.088 61.687 149.328 58.7418 149.858 58.1333C150.912 56.9251 152.008 55.9831 153.088 54.8578L153.167 54.8316C154.004 56.748 154.745 61.2017 155.087 63.3857C155.224 64.2644 155.262 65.4782 155.44 66.3231C153.693 67.5607 150.695 68.3248 148.536 69.7644L147.754 70.2276C147.029 70.05 146.917 70.4109 146.196 70.4539C145.818 70.1969 146.044 69.8553 145.634 69.333C145.81 68.1276 146.139 66.9232 146.339 65.7319C146.772 63.1523 142.263 63.7481 141.264 63.0666C141.678 61.5506 142.017 56.0191 142.029 54.3932C142.131 53.7959 142.165 53.3617 142.207 52.7655Z" fill="#A6100E"/>
<path d="M147.411 43.5529C149.576 46.7681 151.645 51.2717 153.088 54.8579C152.008 55.9832 150.912 56.9251 149.858 58.1334C149.328 58.7418 147.088 61.6871 146.576 61.8821C146.307 61.522 146.277 60.9904 146.156 60.5748C145.443 58.1203 143.905 54.6126 142.206 52.7656C142.165 53.3618 142.131 53.796 142.029 54.3933C141.959 53.9528 141.957 52.6351 141.941 52.1103C143.015 49.6925 145.664 45.4648 147.411 43.5529Z" fill="#E4DBDB"/>
<path d="M128.178 12.0043L128.298 11.6899C129.2 11.61 135.335 14.9293 136.624 15.4474C137.564 15.8248 143.58 17.8279 143.799 18.2637C148.279 19.6918 153.078 22.2571 156.775 25.131C157.344 25.5737 158.781 26.5733 158.878 27.2931C158.357 28.3884 158.171 28.6523 157.548 29.5894C157.135 30.2098 155.22 32.3383 155.129 32.6382L155.014 32.6523C153.79 33.6089 147.882 41.8775 147.383 43.4524C146.616 42.8677 143.993 40.1676 143.099 39.3046C140.27 36.5748 138.375 35.4 135.122 33.3876L135.026 33.3446C133.972 32.4706 132.283 31.6197 131.055 30.9411C129.108 29.8657 127.144 28.712 125.157 27.7221C123.718 27.0056 122.128 26.4982 120.646 25.8863L120.677 25.5387C121.186 24.5292 122.203 23.2602 122.812 22.1703C123.734 20.5173 124.618 18.6301 125.609 17.0447C126.077 16.8547 125.888 16.601 126.503 16.4225C126.889 16.4867 127.031 16.4968 127.42 16.4979C127.111 16.3188 126.531 16.1137 126.177 15.9764C126.812 14.6299 127.557 13.3904 128.178 12.0043Z" fill="#E4DBDB"/>
<path d="M125.609 17.0446C126.077 16.8546 125.888 16.6009 126.503 16.4224C126.889 16.4866 127.031 16.4967 127.42 16.4978C130.036 17.2974 139.041 21.3875 140.905 22.9196C140.98 23.0291 141.148 23.2018 141.078 23.3082C138.93 26.5399 136.767 29.8506 135.122 33.3875L135.026 33.3445C133.972 32.4706 132.283 31.6196 131.055 30.941C129.108 29.8656 127.144 28.7119 125.157 27.722C123.718 27.0055 122.128 26.4981 120.646 25.8862L120.677 25.5387C121.186 24.5291 122.203 23.2601 122.812 22.1702C123.734 20.5172 124.618 18.6301 125.609 17.0446Z" fill="#C03435"/>
<path d="M143.799 18.2637C148.279 19.6918 153.078 22.2571 156.775 25.1309C157.344 25.5737 158.781 26.5733 158.878 27.293C158.357 28.3884 158.17 28.6522 157.548 29.5894C157.135 30.2098 155.22 32.3383 155.129 32.6381L155.013 32.6523C154.671 31.8147 147.91 26.3737 146.806 25.7566C145.645 25.1078 142.505 23.3835 141.203 22.8111C141.828 22.0046 143.349 19.2088 143.799 18.2637Z" fill="#C03435"/>
<path d="M28.3207 53.8612C28.6856 53.913 28.7976 53.9644 29.1283 54.0955L29.2605 54.28C29.2672 54.3067 29.3363 54.5802 29.3365 54.5805C31.1784 56.2662 32.7754 58.2214 34.1869 60.278C34.694 61.0167 35.3738 61.916 35.6678 62.7517L35.678 62.8232C35.7879 63.6393 35.5944 63.7467 35.9954 64.5536C35.938 65.632 36.5198 67.8756 36.7849 69.0194C37.546 71.492 38.178 75.7419 38.5048 78.3753C38.6826 80.3619 38.8872 82.3459 39.1184 84.327C39.1421 84.5277 39.18 85.4094 39.1962 85.4664C37.3524 85.9358 37.5229 84.2009 36.0842 84.2352L35.8439 83.6793C34.1091 83.2985 32.3665 82.9542 30.6172 82.6469C27.8215 82.1715 26.5854 82.2306 23.8978 81.1284C23.7389 80.9274 23.4754 80.6099 23.534 80.3281C24.0052 78.0606 24.7259 75.8285 25.1168 73.5434C25.3924 71.9321 25.6276 70.3178 25.9079 68.708C26.0311 68.0005 26.2358 67.0752 26.2126 66.3866L26.3092 66.2555C26.7532 63.9987 26.7035 61.4734 27.2299 59.1846C27.5986 57.5809 28.4492 56.2895 28.8486 54.7332C28.84 54.3412 28.594 54.152 28.3207 53.8612Z" fill="#BBB1B2"/>
<path d="M28.3206 53.8612C28.6855 53.913 28.7975 53.9644 29.1282 54.0955L29.2604 54.28C29.2671 54.3067 29.3362 54.5802 29.3363 54.5805C31.1783 56.2662 32.7753 58.2214 34.1868 60.278C34.6939 61.0167 35.3737 61.916 35.6677 62.7517L35.6779 62.8232C35.7878 63.6393 35.5942 63.7467 35.9953 64.5536C35.9379 65.632 36.5197 67.8756 36.7848 69.0194L36.5288 69.4174C36.6199 69.7309 36.6708 69.9593 36.8792 70.2094C36.8628 70.5912 36.9022 70.9109 36.6755 71.1931C35.8311 71.1124 35.7064 70.025 34.8886 70.0713C31.4452 68.2756 30.196 67.4356 26.3091 66.2555C26.7531 63.9987 26.7034 61.4734 27.2298 59.1846C27.5985 57.5809 28.4491 56.2895 28.8485 54.7332C28.8399 54.3412 28.5939 54.152 28.3206 53.8612Z" fill="#720401"/>
<path d="M34.8887 70.0714C35.7065 70.0251 35.8312 71.1125 36.6755 71.1932C36.9022 70.911 36.8629 70.5913 36.8793 70.2095C36.6709 69.9594 36.62 69.731 36.5288 69.4175L36.7849 69.0195C37.546 71.4921 38.1779 75.742 38.5048 78.3754C38.6826 80.362 38.8871 82.346 39.1184 84.3271C39.142 84.5277 39.18 85.4095 39.1962 85.4665C37.3524 85.9359 37.5229 84.201 36.0841 84.2352L35.8439 83.6794C36.0776 80.7386 36.0734 77.6509 36.2854 74.6891C36.4347 72.6024 36.2961 71.5805 34.8887 70.0714Z" fill="#410907"/>
<path d="M33.554 73.427C33.9809 74.3149 34.8106 73.7452 34.9231 74.1672C35.1471 75.0059 35.38 77.8152 35.2348 78.5828C35.066 78.8083 35.1475 78.7679 34.9169 78.83C34.8176 78.608 34.8043 78.3617 34.7836 78.1195C34.6432 76.4818 33.9467 75.0202 33.554 73.427Z" fill="#8D8586"/>
<path d="M54.3313 77.6343L54.3836 77.7016C54.4419 79.7791 54.487 82.3504 54.6817 84.3961C54.962 87.3409 55.3032 89.6011 55.3292 92.5666L55.2534 93.1203C53.8337 93.2683 46.1148 93.5347 45.1542 93.274L45.1644 93.1083C44.5322 92.9746 41.4812 92.9716 40.6561 92.9577C40.4332 92.9161 39.7715 92.9248 39.5092 92.9225C39.4218 90.9106 39.1221 87.493 39.2014 85.6608L39.1963 85.4664C39.18 85.4094 39.1421 84.5277 39.1184 84.327C38.8872 82.3459 38.6827 80.362 38.5049 78.3754C39.8759 78.355 41.709 78.1853 43.1202 78.1038L43.2859 78.192C46.4313 78.1026 49.5646 77.873 52.7101 77.8139C53.2986 77.8028 53.756 77.7885 54.3313 77.6343Z" fill="#E4DBDB"/>
<path d="M38.5049 78.3754C39.8759 78.355 41.709 78.1853 43.1202 78.1038L43.2859 78.192C43.6733 80.7073 43.9028 83.3772 44.2782 85.9182C44.6195 88.2284 44.6194 90.8256 45.1644 93.1083C44.5322 92.9746 41.4812 92.9716 40.6561 92.9577C40.4332 92.9161 39.7715 92.9248 39.5092 92.9225C39.4218 90.9106 39.1221 87.493 39.2014 85.6608L39.1963 85.4664C39.18 85.4094 39.1421 84.5277 39.1184 84.327C38.8872 82.3459 38.6827 80.362 38.5049 78.3754Z" fill="#A6100E"/>
<path d="M166.932 61.6127L167.232 61.6874C167.323 62.509 167.573 63.4107 167.79 64.2116C168.624 67.2888 169.335 70.3912 169.965 73.5162C170.121 74.2882 170.666 75.7135 170.687 76.4008L170.567 76.5835C168.683 77.755 159.09 80.8348 158.511 81.5283L158.4 81.5195C158.566 80.6577 158.284 79.7637 158.088 78.9185C157.159 74.8923 156.468 70.8197 155.522 66.7953C155.493 66.6721 155.551 66.4998 155.604 66.3896C157.543 66.1207 165.244 62.8101 166.932 61.6127Z" fill="#B71A1A"/>
<path d="M155.44 66.3231L155.604 66.3895C155.551 66.4998 155.493 66.6721 155.522 66.7952C156.468 70.8196 157.159 74.8922 158.088 78.9184C158.284 79.7636 158.566 80.6577 158.4 81.5194C156.152 81.8592 153.71 82.4487 151.466 82.893C150.438 83.0966 148.791 83.6451 147.841 83.7831L147.871 83.8562C147.222 83.9263 146.576 84.0078 145.93 84.1008C145.8 84.3239 145.718 84.4488 145.635 84.6957C145.406 84.846 145.115 84.9741 144.957 85.1545L143.37 85.5106C142.947 84.5235 143.507 79.2725 143.765 78.1319C143.847 77.5412 143.948 76.9533 144.068 76.3691C144.323 74.5732 145.197 71.2151 145.634 69.333C146.044 69.8553 145.818 70.1969 146.196 70.4539C146.917 70.4109 147.029 70.05 147.754 70.2277L148.536 69.7645C150.695 68.3248 153.693 67.5608 155.44 66.3231Z" fill="#C1B6B5"/>
<path d="M145.634 69.333C146.044 69.8553 145.818 70.1969 146.196 70.4539C146.917 70.4109 147.029 70.05 147.754 70.2276C146.864 70.9534 146.393 71.2348 145.854 72.2523C145.804 73.2747 145.97 73.5759 146.057 74.4877C146.033 74.9461 146.056 75.0055 146.229 75.433C146.031 76.2695 145.931 76.8509 145.815 77.704C145.803 78.0597 145.747 79.1523 145.787 79.4486C145.691 80.7924 145.825 82.7471 145.93 84.1008C145.8 84.3239 145.718 84.4487 145.635 84.6957C145.406 84.846 145.115 84.9741 144.957 85.1545L143.37 85.5105C142.947 84.5235 143.507 79.2725 143.765 78.1319C143.847 77.5412 143.948 76.9533 144.068 76.3691C144.323 74.5732 145.197 71.2151 145.634 69.333Z" fill="#410907"/>
<path d="M145.634 69.333C146.044 69.8553 145.818 70.1969 146.196 70.4539C146.917 70.4109 147.029 70.05 147.754 70.2276C146.864 70.9534 146.393 71.2348 145.853 72.2523C145.804 73.2747 145.97 73.5759 146.057 74.4877C146.033 74.9462 146.056 75.0055 146.229 75.433C146.031 76.2695 145.931 76.8509 145.815 77.704C145.623 76.5147 145.885 75.4363 145.768 74.2668C145.76 74.1938 145.192 72.5724 145.15 72.5227C144.895 72.8023 144.715 75.6608 144.068 76.3691C144.322 74.5732 145.196 71.2151 145.634 69.333Z" fill="#442B27"/>
<path d="M147.754 70.2276L148.536 69.7644C148.447 70.0593 148.366 70.2992 148.319 70.6063C147.241 71.1004 146.991 73.4476 146.326 74.3945L146.057 74.4877C145.97 73.5758 145.805 73.2746 145.854 72.2523C146.393 71.2348 146.864 70.9534 147.754 70.2276Z" fill="#9F98A2"/>
<path d="M146.057 74.4878L146.325 74.3945C146.99 73.4477 147.24 71.1005 148.319 70.6063C147.916 72.2769 147.272 74.0423 146.229 75.433C146.056 75.0055 146.033 74.9462 146.057 74.4878Z" fill="#484744"/>
<path d="M145.787 79.4486C146.25 80.4687 145.642 82.7775 146.539 83.4929C146.893 83.5266 146.767 83.558 147.05 83.4161C147.378 82.8108 147.565 82.0465 147.76 81.3787C147.678 81.8624 147.395 83.2862 147.464 83.6814C147.637 83.7559 147.645 83.7694 147.84 83.7831L147.871 83.8562C147.222 83.9263 146.576 84.0078 145.93 84.1008C145.825 82.7471 145.691 80.7924 145.787 79.4486Z" fill="#A28477"/>
<path d="M15.1397 61.4055C18.1922 62.8107 21.3023 64.0905 24.3614 65.4819C24.8077 65.6849 25.8156 66.2678 26.2127 66.3867C26.2358 67.0753 26.0311 68.0006 25.9079 68.7081C25.6277 70.3179 25.3924 71.9322 25.1168 73.5435C24.7259 75.8286 24.0052 78.0607 23.534 80.3282C23.4754 80.61 23.7389 80.9275 23.8978 81.1285C23.7834 81.1359 23.409 81.1689 23.3138 81.1547C23.2313 80.9513 23.1156 80.8005 22.9035 80.72C20.287 79.7188 17.5472 78.9909 14.9762 77.8652C13.7918 77.3465 12.6193 76.7757 11.4341 76.2485L11.23 75.7609C11.9988 73.9258 12.4149 71.5572 12.9394 69.647C13.7196 66.8057 14.3958 64.5115 14.7729 61.5649L15.1397 61.4055Z" fill="#A6100E"/>
<path d="M26.8821 32.3098C29.7064 34.2283 32.7551 40.3044 35.3323 43.3471L35.4127 43.4247C33.5587 45.5466 32.5705 47.0711 31.3058 49.6325C30.7412 50.7759 29.8384 53.4014 29.2605 54.2799L29.1283 54.0955C28.7976 53.9644 28.6856 53.9129 28.3207 53.8612C27.805 53.5262 26.156 51.9133 25.6875 51.4538C24.707 50.492 20.0927 46.3362 19.0283 46.028C19.8682 44.8686 20.8054 42.0081 21.669 40.647C23.2522 38.152 24.933 34.5426 26.7705 32.3002L26.8821 32.3098Z" fill="#A6100E"/>
<path d="M18.8409 46.2842L19.0285 46.0281C20.0929 46.3362 24.7072 50.492 25.6876 51.4538C26.1561 51.9134 27.8052 53.5262 28.3208 53.8612C28.5941 54.152 28.8401 54.3412 28.8487 54.7333C28.4494 56.2896 27.5987 57.5809 27.23 59.1846C26.7036 61.4734 26.7533 63.9988 26.3093 66.2556L26.2128 66.3866C25.8157 66.2677 24.8079 65.6849 24.3616 65.4818C21.3024 64.0904 18.1923 62.8106 15.1398 61.4055C14.2797 59.7771 17.7216 50.7002 18.1761 48.51C18.2956 47.9347 18.7216 47.0123 18.8409 46.2842Z" fill="#E4DBDB"/>
<path d="M55.2533 93.1204C55.6438 97.6629 55.1964 103.444 55.5337 107.926C55.503 108.414 55.4934 108.561 55.5752 109.039C53.0665 109 50.5582 108.945 48.0504 108.873C47.35 108.721 46.8661 108.862 46.341 108.703C45.9618 108.35 46.0267 108.149 45.9566 107.567C45.8885 105.942 44.967 93.6939 45.1542 93.274C46.1147 93.5348 53.8337 93.2683 55.2533 93.1204Z" fill="#A6100E"/>
<path d="M147.841 83.7831C148.791 83.6451 150.438 83.0966 151.466 82.893C153.71 82.4487 156.152 81.8592 158.4 81.5194L158.511 81.5282C159.217 84.0533 160.233 87.6387 160.749 90.1616C159.345 90.6271 157.611 91.0437 156.298 91.564C154.63 91.8328 153 92.6057 150.919 92.895C149.941 93.0804 148.96 93.1072 148.103 93.2712C147.406 93.4647 146.517 93.6335 145.799 93.751C145.119 91.1822 144.706 88.9448 144.364 86.3177C144.318 85.968 144.207 85.7714 143.919 85.5925C143.496 85.7383 143.635 85.6234 143.41 86.0331L143.37 85.5106L144.957 85.1545C145.115 84.9741 145.406 84.846 145.635 84.6957C145.718 84.4488 145.8 84.3239 145.93 84.1008C146.576 84.0078 147.222 83.9263 147.871 83.8562L147.841 83.7831Z" fill="#A6100E"/>
<path d="M146.744 84.6007C146.827 85.7231 147.122 86.7087 147.34 87.8061C147.719 89.7121 148.029 91.3331 148.103 93.2712C147.406 93.4647 146.517 93.6335 145.799 93.751C145.119 91.1822 144.706 88.9448 144.364 86.3177C144.318 85.968 144.207 85.7714 143.919 85.5925C143.496 85.7383 143.635 85.6234 143.41 86.033L143.37 85.5105L144.957 85.1545C145.567 85.0905 146.168 84.8224 146.744 84.6007Z" fill="#7E5957"/>
<path d="M145.93 84.1008C146.576 84.0078 147.222 83.9262 147.871 83.8562C147.893 84.0005 147.946 84.1261 147.87 84.2019C147.583 84.4874 147.454 85.4615 147.191 85.588L147.135 84.8034C146.798 85.0865 147.415 86.9131 147.526 87.4281L147.6 87.3951C147.604 86.9759 147.563 85.7922 147.717 85.4885C147.96 86.1769 147.942 88.0985 148.276 88.9651C148.7 90.0686 147.523 91.7957 148.528 92.7688C149.287 93.0635 150.294 92.6585 150.895 92.7559L150.919 92.895C149.94 93.0803 148.96 93.1072 148.103 93.2712C148.029 91.3331 147.719 89.7121 147.34 87.8061C147.122 86.7086 146.827 85.7231 146.744 84.6007C146.168 84.8224 145.567 85.0905 144.957 85.1545C145.115 84.9741 145.406 84.846 145.635 84.6957C145.717 84.4487 145.8 84.3239 145.93 84.1008Z" fill="#5B0602"/>
<path d="M23.8979 81.1284C26.5855 82.2307 27.8216 82.1716 30.6173 82.6469C32.3666 82.9543 34.1093 83.2985 35.844 83.6793L36.0843 84.2352L36.1266 84.4202C35.9068 85.4303 35.0724 89.6276 35.2077 90.4745C35.0959 91.3572 35.0047 92.2424 34.9344 93.1294C33.2418 93.0937 31.783 92.81 30.127 92.52C28.6443 91.9807 22.6378 90.1709 21.3481 90.0731C22.468 87.7308 22.5531 83.7353 23.314 81.1547C23.4091 81.1689 23.7835 81.1358 23.8979 81.1284Z" fill="#8B0503"/>
<path d="M158.878 27.293L159.045 27.1201C159.423 27.2748 160.041 28.158 160.358 28.5167C163.542 32.115 165.494 36.5065 167.47 40.8327C167.836 41.6341 168.518 43.0537 167.708 43.6869C166.542 44.5142 164.538 45.8665 163.212 46.3542L163.012 46.2687C162.829 45.3946 162.201 44.2872 161.838 43.4417C160.04 39.2672 157.92 36.1751 155.129 32.6381C155.22 32.3383 157.135 30.2098 157.548 29.5893C158.17 28.6522 158.357 28.3884 158.878 27.293Z" fill="#E4DBDB"/>
<path d="M23.6566 26.8406C23.9891 27.3271 26.6299 31.8658 26.7707 32.3003C24.9332 34.5427 23.2524 38.1521 21.6692 40.6471C20.8056 42.0082 19.8684 44.8687 19.0285 46.0281L18.8409 46.2843C18.2485 46.0334 14.9775 43.3571 14.4609 42.7228C14.8789 39.6193 15.7968 38.3429 17.1386 35.6145C18.928 31.9758 20.6681 29.626 23.6566 26.8406Z" fill="#EAE1E0"/>
<path d="M9.98693 58.4937C11.4785 60.0431 13.9131 60.7292 14.7731 61.5648C14.396 64.5114 13.7198 66.8056 12.9396 69.6469C12.4151 71.5571 11.9989 73.9257 11.2302 75.7607L11.0275 75.9864C10.5418 76.0937 6.82056 74.5977 6.06018 74.3105C5.76652 73.5943 9.26462 59.1417 9.98693 58.4937Z" fill="#E4DBDB"/>
<path d="M167.708 43.6869C168.445 43.9314 169.2 46.3998 169.403 47.1209C169.94 49.0215 170.314 50.9868 170.798 52.9029C171.102 54.2183 172.198 58.0396 172.217 59.2216C170.905 59.8202 168.315 61.3292 167.232 61.6873L166.932 61.6126C167.32 60.3042 163.771 47.775 162.906 46.6249C162.909 46.5777 162.992 46.3314 163.012 46.2687L163.212 46.3541C164.538 45.8665 166.542 44.5141 167.708 43.6869Z" fill="#C03435"/>
<path d="M9.98682 58.4937C10.2828 56.2706 12.9147 44.0036 14.1815 42.7583C14.2513 42.6898 14.3658 42.7206 14.4609 42.7227C14.9774 43.357 18.2484 46.0333 18.8408 46.2842C18.7215 47.0123 18.2956 47.9347 18.1761 48.5099C17.7215 50.7002 14.2796 59.777 15.1398 61.4054L14.773 61.5648C13.913 60.7292 11.4784 60.0431 9.98682 58.4937Z" fill="#B3383A"/>
<path d="M172.217 59.2217C173.206 59.7465 174.164 66.3625 174.474 67.6979C174.805 69.1748 175.154 70.6476 175.52 72.116C175.618 72.4935 176.175 74.3905 176.175 74.5617C174.54 75.005 172.672 75.9198 171.037 76.4946C171.034 76.4958 170.73 76.4195 170.687 76.4008C170.666 75.7134 170.121 74.2882 169.965 73.5161C169.335 70.3912 168.624 67.2887 167.79 64.2115C167.573 63.4107 167.322 62.509 167.232 61.6874C168.315 61.3293 170.904 59.8203 172.217 59.2217Z" fill="#F1E6E5"/>
<path d="M48.0504 108.873C50.5582 108.945 53.0665 109 55.5752 109.039L55.6 109.098C55.6692 110.008 55.7982 116.397 55.4693 116.837L54.8905 117H46.244C45.9993 116.408 46.0559 109.931 46.0489 108.872C46.7122 108.893 47.3862 108.879 48.0504 108.873Z" fill="#E4DBDB"/>
<path d="M114.397 4.24097C116.789 5.61303 119.017 7.10039 121.494 8.33322C122.655 8.91075 128.072 10.8771 128.178 12.0043C127.557 13.3904 126.812 14.6298 126.177 15.9764C126.531 16.1137 127.111 16.3188 127.42 16.4978C127.031 16.4968 126.889 16.4866 126.503 16.4224C125.888 16.601 126.077 16.8547 125.609 17.0447C125.761 16.7065 125.859 16.5431 125.871 16.1639C125.281 15.5213 122.115 14.0462 121.191 13.4724C118.901 12.052 116.247 10.6907 114.037 9.17906C113.325 8.09541 114.716 6.7158 114.779 5.57917C114.802 5.13891 114.427 4.85402 114.397 4.24097Z" fill="#C03435"/>
<path d="M137.595 93.5354C138.245 93.2012 140.774 93.2387 141.576 93.254L142.365 93.3298C141.957 94.9769 141.866 97.1102 141.73 98.8346C141.538 101.284 141.344 103.66 140.955 106.095C140.904 106.879 140.839 107.662 140.76 108.443L140.555 108.433C139.97 108.389 137.135 108.526 136.617 108.664C136.622 107.775 136.672 106.858 136.743 105.971C137.071 101.88 137.059 97.6712 137.469 93.5945L137.595 93.5354Z" fill="#EACFCE"/>
<path d="M141.576 93.254L142.365 93.3298C141.957 94.9769 141.866 97.1102 141.73 98.8346C141.538 101.284 141.344 103.66 140.955 106.095L140.864 106.085C140.793 105.684 140.783 105.287 140.762 104.88C140.846 101.982 141.219 99.0255 141.346 96.1237C141.387 95.1886 141.443 94.1773 141.576 93.254Z" fill="#484744"/>
<path d="M140.762 104.88C140.783 105.287 140.793 105.684 140.864 106.085L140.955 106.095C140.904 106.879 140.839 107.662 140.76 108.443L140.555 108.433C140.514 107.694 140.632 105.592 140.762 104.88Z" fill="#6E6D77"/>
<path d="M40.656 92.9578C41.481 92.9716 44.5321 92.9747 45.1643 93.1084L45.1541 93.274C44.9669 93.6939 45.8884 105.942 45.9565 107.567C45.9433 107.947 45.993 108.466 45.8035 108.732C45.0013 108.878 42.326 108.683 41.4923 108.483C41.1006 107.426 41.3005 104.502 41.3278 103.152C41.3824 100.453 41.3259 97.4726 40.9403 94.786C40.9228 94.6642 40.4776 93.7984 40.3682 93.5211C40.4184 93.1084 40.3453 93.2596 40.656 92.9578Z" fill="#E4DBDB"/>
<path d="M176.175 74.5618C177.054 76.3854 177.313 81.1399 178.359 83.6726C176.562 84.7702 175.524 85.2461 173.518 85.9055C173.016 84.6778 171.003 76.9151 170.567 76.5836L170.687 76.4009C170.73 76.4196 171.034 76.4958 171.037 76.4947C172.672 75.9198 174.54 75.0051 176.175 74.5618Z" fill="#C03435"/>
<path d="M6.06005 74.3105C6.82043 74.5978 10.5417 76.0938 11.0274 75.9865L11.23 75.7608L11.4341 76.2485C11.2542 76.6219 10.8208 78.1221 10.631 78.6256C9.80699 80.8115 9.14413 83.1723 8.28355 85.3316C6.6061 84.878 5.24571 84.0861 3.95654 82.9526C4.4523 81.1067 4.90676 79.25 5.31959 77.3839C5.47426 76.6971 5.82331 74.8896 6.06005 74.3105Z" fill="#C03435"/>
<path d="M45.9566 107.567C46.0266 108.149 45.9617 108.35 46.3409 108.703C46.8661 108.862 47.35 108.721 48.0504 108.872C47.3862 108.879 46.7122 108.893 46.0489 108.872C46.0559 109.931 45.9993 116.408 46.2439 117H38.5447C39.29 116.722 40.5947 116.895 41.598 116.745C41.5954 114.143 41.3493 111.027 41.4924 108.483C42.326 108.683 45.0014 108.878 45.8036 108.731C45.993 108.466 45.9433 107.947 45.9566 107.567Z" fill="#C03435"/>
<path d="M140.555 108.433L140.76 108.443C140.719 110.762 140.342 114.958 140.431 117H136.175C136.41 116.903 136.404 116.915 136.548 116.709C136.63 115.934 136.58 109.552 136.462 108.967L136.223 108.828L136.617 108.664C137.135 108.526 139.97 108.389 140.555 108.433Z" fill="#C03435"/>
<path d="M150.918 92.895C153 92.6057 154.63 91.8327 156.298 91.564L156.219 91.7388C154.927 92.2165 152.652 92.9327 151.304 93.09C151.218 94.0708 150.656 98.6643 150.803 99.1995C152.031 99.472 156.922 98.1371 158.241 97.7546L158.271 97.8605C157.31 98.5716 152.588 99.2563 151.214 99.3653C150.322 99.4362 148.457 99.4044 147.49 99.3895C146.754 97.4229 146.314 95.7876 145.799 93.751C146.517 93.6334 147.406 93.4646 148.103 93.2711C148.96 93.1071 149.94 93.0803 150.918 92.895Z" fill="#938C8A"/>
<path d="M36.0842 84.2351C37.523 84.2008 37.3525 85.9357 39.1963 85.4664L39.2014 85.6607C38.481 85.7815 37.569 86.6423 37.3443 87.3186C37.2382 87.8272 37.1481 88.2576 37.0857 88.7772C36.9183 88.3306 37.0031 88.3586 36.6767 88.0992C36.0985 88.4514 36.4076 91.1578 36.2382 91.9242C36.2164 92.437 36.1138 93.2071 36.4133 93.6131C36.3738 94.9624 35.1408 98.0524 34.476 99.2815C33.349 99.2275 31.9726 99.0157 30.8458 98.8899C30.275 98.8263 30.1936 98.6506 29.4905 98.6449L29.3896 98.6448C30.4596 98.1972 33.4932 99.7733 34.4332 98.7597C34.9177 97.7062 34.0917 96.3234 33.8117 95.2839C33.7649 95.0898 33.6733 93.4603 33.6211 93.4276C33.1233 93.1158 30.8036 93.0964 30.127 92.52C31.7829 92.8099 33.2417 93.0936 34.9344 93.1293C35.0046 92.2423 35.0958 91.3572 35.2077 90.4744C35.0724 89.6275 35.9067 85.4303 36.1265 84.4201L36.0842 84.2351Z" fill="#8D8586"/>
<path d="M36.0842 84.2351C37.5229 84.2008 37.3525 85.9357 39.1962 85.4664L39.2014 85.6607C38.481 85.7815 37.569 86.6423 37.3442 87.3186C37.2382 87.8272 37.1481 88.2576 37.0857 88.7772C36.9183 88.3306 37.0031 88.3586 36.6766 88.0992C36.0985 88.4514 36.4076 91.1578 36.2381 91.9242C36.1 89.8743 36.4507 87.563 36.3291 86.1973C35.3184 87.1778 35.766 90.0976 35.2076 90.4744C35.0723 89.6275 35.9066 85.4303 36.1265 84.4201L36.0842 84.2351Z" fill="#905A4E"/>
<path d="M36.2381 91.9244C36.4076 91.1579 36.0985 88.4515 36.6766 88.0994C37.0031 88.3587 36.9183 88.3307 37.0857 88.7774C36.9647 90.3195 36.794 92.1171 36.4133 93.6132C36.1138 93.2073 36.2164 92.4372 36.2381 91.9244Z" fill="#442B27"/>
</g>
<defs>
<clipPath id="clip0_9_626">
<rect width="184.641" height="117" fill="white"/>
</clipPath>
</defs>
</svg>
