<svg width="185" height="115" viewBox="0 0 185 115" fill="none" xmlns="http://www.w3.org/2000/svg">
<g clip-path="url(#clip0_9_855)">
<path d="M0 0H184.629V115H141.379H0V85.0618V0Z" fill="#D8D9D7"/>
<path d="M0 0H184.629V115H141.379L141.298 114.788C141.442 114.474 142.533 105.755 142.555 105.106C142.768 98.991 141.917 92.6082 143.171 86.5466C143.272 86.0592 143.299 85.4621 143.379 84.963C143.398 84.5917 144.199 81.4298 144.274 81.3425C144.283 81.9835 144.478 86.1089 144.607 86.6564L144.744 86.7555C144.829 86.7186 145.097 86.5738 145.156 86.6147C146.845 87.7712 146.69 90.8803 147.372 92.5358C148.178 92.1487 147.937 91.8675 148.431 91.5942L149.029 91.5212C149.16 91.5387 149.168 91.5549 149.291 91.6068C149.143 91.6316 148.499 91.7218 148.444 91.8119C148.142 92.3014 147.767 93.8247 148.143 94.2846L148.474 94.1036C148.912 94.2728 148.856 94.5972 149.388 94.9305C151.757 95.2768 167.902 90.7178 170.163 89.4424C171.653 88.9609 173.619 88.1742 175.138 87.6298C176.486 87.1471 179.951 85.9964 181.023 85.3324C180.535 84.3207 180.567 82.8111 180.238 81.83L179.963 81.7013C180.127 81.501 180.258 81.3145 180.194 81.0303C179.574 78.2537 178.513 75.662 177.775 72.8916C176.216 67.0224 174.708 61.1398 173.25 55.2444C172.591 52.5388 171.989 49.7597 171.305 47.0643C170.781 44.7076 169.758 42.2904 169.063 40.0221C167.226 34.0175 164.058 28.945 159.039 25.1038C158.747 24.8803 158.558 24.6017 158.163 24.6317C158.098 24.8954 158.154 25.0848 158.198 25.3545C158.062 25.2593 157.562 24.2315 157.284 23.879C156.586 22.9501 155.815 22.2622 154.877 21.5834C149.928 18 143.895 16.476 138.294 14.2333C137.026 13.7255 135.762 13.2069 134.485 12.7354C131.541 11.4314 128.055 10.3968 125.089 8.93017C121.843 7.32435 118.812 5.48026 115.693 3.6653C114.154 2.75756 112.983 1.86622 111.114 2.0069C107.854 2.25223 104.759 2.76206 101.476 2.90577C94.2513 3.25168 87.0133 3.22882 79.7907 2.83724C76.571 2.65277 73.7013 1.98602 70.5459 1.91886C69.3761 1.89396 68.6902 2.21442 67.7141 2.79229C66.2881 3.535 64.4966 4.7486 63.0686 5.6027C60.6645 7.01387 58.2047 8.32807 55.6953 9.54215C53.7368 10.4572 51.7457 11.301 49.7262 12.0721C48.8769 12.3921 46.1998 13.3324 45.4739 13.7378C42.6489 14.7605 40.379 15.6218 37.645 16.8126C35.3017 17.7127 32.1414 18.8917 29.9948 20.1644C28.2224 21.2154 26.2618 22.7782 24.5034 23.9373C23.4388 24.5757 22.272 25.9148 21.3321 26.7722C9.8725 37.2269 9.63062 53.5142 5.84699 67.5049C4.78121 71.4458 3.4229 75.4273 2.05606 79.2713C1.83177 79.9021 1.33303 80.9447 1.90518 81.4644C1.72858 81.7112 1.2002 84.3576 0.899138 85.2051L0.643428 85.8316C0.0610035 85.591 0.677088 85.5976 0 85.0618V0Z" fill="#D1C7B5"/>
<path d="M181.023 85.3324C181.426 86.2798 181.662 87.406 181.752 88.4316L169.921 92.6425C165.808 94.1034 154.758 98.6858 149.65 97.6809C148.763 97.5063 147.699 93.6828 147.372 92.5358C148.178 92.1487 147.937 91.8675 148.431 91.5943L149.029 91.5213C149.16 91.5387 149.168 91.555 149.291 91.6069C149.143 91.6317 148.499 91.7219 148.444 91.8119C148.142 92.3015 147.767 93.8248 148.143 94.2847L148.474 94.1036C148.912 94.2729 148.856 94.5972 149.388 94.9305C151.757 95.2769 167.902 90.7179 170.163 89.4424C171.653 88.961 173.619 88.1743 175.138 87.6298C176.486 87.1471 179.951 85.9965 181.023 85.3324Z" fill="#050C2C"/>
<path d="M24.5035 23.9373C26.2618 22.7782 28.2224 21.2154 29.9948 20.1645C32.1414 18.8917 35.3018 17.7127 37.645 16.8126C37.2152 17.29 36.7402 17.4112 36.1286 17.5958C36.4364 17.9128 36.5708 18.1619 36.9412 18.2489L37.0744 18.0211C37.2889 18.2309 37.7446 20.3899 37.8372 20.8405C38.1679 21.4802 38.2985 22.6799 38.518 23.4064L38.4545 23.4757C38.8077 24.4863 39.1534 25.4022 39.4655 26.4324C39.6851 27.1575 39.9497 28.5486 40.1973 29.1646L40.2827 28.7496C40.5005 28.6759 40.4934 28.6609 40.7554 28.8059C43.5633 30.36 44.6887 31.7025 46.3464 34.4237C46.6369 34.9005 47.0741 35.4665 47.3191 35.9477C47.4195 36.1448 47.3748 36.3573 47.5414 36.6362C45.5217 38.5381 43.8047 40.2277 41.999 42.3451C41.2557 43.2166 40.5764 44.3071 39.9357 45.0468C39.3295 46.1553 37.9131 48.4405 37.3719 49.3698C36.3835 51.0667 33.719 59.2659 33.6386 60.9667L33.7566 61.4195C33.522 62.1739 34.037 63.0345 33.1395 63.5106C32.9245 63.3205 32.872 63.0059 32.854 62.709C32.8483 62.6173 32.8456 62.5255 32.8458 62.4337C32.8324 63.2285 32.9149 64.086 32.6705 64.7977C33.412 67.0557 34.1864 69.577 34.733 71.8893C35.2543 75.3362 33.3947 74.9869 33.2657 77.8251C33.1756 79.8058 34.5588 82.7492 34.7943 84.9574C35.0439 87.2998 34.4219 88.5662 34.2651 90.6112C34.201 90.915 34.178 91.1461 33.9871 91.3955C33.4244 91.483 30.0063 90.6808 29.345 90.4447C27.678 90.1889 24.1765 88.9365 22.3706 88.4354C21.6868 88.1115 17.1947 86.7748 16.0977 86.4048L1.90522 81.4644C1.33307 80.9448 1.83181 79.9021 2.0561 79.2713C3.42294 75.4274 4.78126 71.4458 5.84703 67.5049C9.63066 53.5142 9.87254 37.2269 21.3321 26.7723C22.2721 25.9148 23.4388 24.5758 24.5035 23.9373Z" fill="#C5D0D1"/>
<path d="M24.5034 23.9373C26.2618 22.7782 28.2224 21.2154 29.9948 20.1645C32.1414 18.8917 35.3017 17.7127 37.645 16.8126C37.2152 17.29 36.7401 17.4112 36.1285 17.5958C36.4364 17.9128 36.5708 18.1619 36.9412 18.2489L37.0744 18.0211C37.2889 18.2309 37.7446 20.3899 37.8371 20.8405C38.1679 21.4802 38.2985 22.6799 38.5179 23.4064L38.4545 23.4757C38.8077 24.4863 39.1533 25.4022 39.4654 26.4324C39.6851 27.1575 39.9497 28.5486 40.1972 29.1646L40.2827 28.7496C40.5004 28.6759 40.4934 28.6609 40.7554 28.8059C43.5632 30.36 44.6886 31.7025 46.3463 34.4237C46.6369 34.9005 47.0741 35.4665 47.319 35.9477C47.4194 36.1448 47.3747 36.3573 47.5414 36.6362C45.5217 38.5381 43.8047 40.2277 41.9989 42.3451C41.2557 43.2166 40.5764 44.3071 39.9357 45.0468C39.9801 44.5258 40.2382 44.4577 40.3733 43.9514C38.7235 43.0865 39.2571 41.8538 38.5642 41.0194C37.4872 39.7227 37.0279 38.9076 36.2572 37.5236C35.9257 36.9283 33.3256 34.1821 32.8343 33.9354L32.5652 34.1303C32.0249 35.2391 33.6674 37.296 32.8253 37.9471C32.4756 37.9548 32.2439 37.8064 31.9338 37.6509C32.2097 37.558 32.2851 37.6241 32.5981 37.6855C33.1986 36.8891 31.5892 34.1064 31.3963 33.0148C31.349 32.7462 30.4236 30.0777 30.4277 30.0827C30.0889 29.9802 28.5427 30.3118 28.2815 30.6374C28.1558 31.3461 28.34 32.0106 28.3858 32.7023C28.4405 33.5289 29.4118 32.8327 29.9068 33.1808L29.7721 33.3106C29.2438 33.4235 28.7366 33.4554 28.2523 33.1782C27.7729 32.5517 28.1692 30.5121 28.2121 29.6403C28.2774 28.3125 27.7061 28.7189 27.1504 28.0161C26.4382 27.1152 26.3092 25.1169 26.5183 23.9998C26.5816 23.6614 26.4504 23.5181 26.2624 23.3135C25.4617 23.1951 25.3295 23.7826 24.5167 24.2427L24.5034 23.9373Z" fill="#6DB4CF"/>
<path d="M37.8371 20.8405C38.1678 21.4801 38.2984 22.6798 38.5179 23.4063L38.4544 23.4756C37.9807 23.0332 38.0717 22.9626 37.3726 22.7377C36.3548 22.4104 36.6034 21.5726 35.7742 21.1424C36.0024 20.9256 37.0898 21.1903 37.8371 20.8405Z" fill="#5EA2BE"/>
<path d="M31.5024 78.4447C29.7687 76.8508 28.7575 74.8989 29.8826 72.7758C30.0204 72.5157 30.3103 71.6995 30.224 71.414C29.7507 69.8487 28.7017 68.2727 28.081 66.7653C28.1333 66.7084 28.1851 66.651 28.2363 66.5931C29.0722 65.6462 28.8019 65.0631 28.717 63.6958L28.592 63.5878L28.1971 63.6938C27.9866 63.1577 28.0947 61.9887 27.936 61.5976C27.5216 60.5763 26.8686 59.6157 26.4783 58.5533L26.5635 58.4353L26.8823 58.8074C27.0929 57.5883 26.4433 55.8563 26.4999 55.6454L26.7545 55.8129C26.7661 55.9479 26.8424 56.5649 26.8997 56.6559C27.7164 57.9471 30.447 64.2875 31.2208 65.0099C31.5873 64.9999 31.7385 64.7926 32.0893 64.5398C32.2257 64.2567 31.5658 63.7113 31.4142 62.741C31.7649 63.2054 32.346 64.2556 32.6704 64.7977C33.412 67.0557 34.1863 69.5769 34.7329 71.8893C35.2542 75.3361 33.3947 74.9868 33.2656 77.825C33.1756 79.8057 34.5587 82.7491 34.7942 84.9574C35.0439 87.2997 34.4218 88.5662 34.265 90.6111C34.2009 90.9149 34.1779 91.146 33.9871 91.3955C33.4243 91.4829 30.0062 90.6807 29.345 90.4447L29.4442 90.329L29.5869 90.3763C32.2147 90.0997 31.6977 81.0404 31.5066 79.2641C31.4796 79.0137 31.5003 78.7019 31.5024 78.4447Z" fill="#9A9B9E"/>
<path d="M31.4141 62.741C31.3852 62.5847 31.0015 61.8327 30.8985 61.618C30.0992 59.9515 29.3224 58.1362 29.4917 56.2444C29.5228 55.8972 29.7087 53.9193 29.8325 53.7825C30.036 54.6806 29.4325 55.9515 29.8056 56.6793L30.0498 56.6743C30.3465 56.4634 30.3954 56.4351 30.536 56.1029L30.1339 55.5978L30.3208 55.6365C31.0453 56.1346 33.2816 60.0513 33.6384 60.9666L33.7564 61.4194C33.5218 62.1739 34.0369 63.0345 33.1393 63.5105C32.9244 63.3204 32.8718 63.0058 32.8539 62.7089C32.8481 62.6173 32.8454 62.5254 32.8457 62.4336C32.8323 63.2284 32.9147 64.086 32.6703 64.7977C32.3459 64.2556 31.7648 63.2054 31.4141 62.741Z" fill="#959797"/>
<path d="M67.7141 2.79226C68.6902 2.21439 69.3761 1.89393 70.5459 1.91883C73.7013 1.98599 76.571 2.65274 79.7907 2.83721C87.0133 3.22879 94.2513 3.25165 101.476 2.90574C104.759 2.76203 107.854 2.2522 111.114 2.00687C112.983 1.86619 114.154 2.75753 115.693 3.66527C115.125 4.03274 114.683 3.88634 114.582 4.62877C114 8.87727 114.062 10.5767 110.615 13.4139L110.642 13.6482C110.012 14.1223 107.339 15.8681 106.99 16.2241C104.072 18.0132 101.359 19.4149 97.9794 20.2269L98.0118 20.5858L97.8053 20.7659L98.2891 20.9939C97.6556 20.9108 97.0566 20.8981 96.4196 20.8747C93.3822 20.9419 90.3307 20.7685 87.2851 20.9835C86.7587 21.0207 86.1776 21.024 85.653 20.985C85.4689 20.566 83.4808 20.3471 82.728 20.0962C77.7719 18.4438 74.6628 16.8634 70.6444 13.4798C71.4351 13.4251 72.3925 13.4446 73.1994 13.4404C72.2917 13.0976 71.8451 13.7851 70.5443 12.7897C68.2983 11.0672 67.8427 7.81219 67.7398 5.17128C67.7127 4.47101 67.8293 3.41723 67.7141 2.79226Z" fill="#050C2C"/>
<path d="M70.6443 13.4799C71.435 13.4252 72.3924 13.4447 73.1993 13.4404C84.0039 13.8972 94.4399 14.741 105.232 13.7838C106.659 13.6573 109.357 13.8294 110.615 13.4139L110.642 13.6483C110.012 14.1224 107.339 15.8681 106.99 16.2241C104.071 18.0133 101.359 19.4149 97.9794 20.227L98.0117 20.5858L97.8052 20.766L98.289 20.9939C97.6555 20.9108 97.0566 20.8982 96.4196 20.8748C93.3822 20.9419 90.3306 20.7685 87.285 20.9836C86.7587 21.0208 86.1775 21.024 85.6529 20.9851C85.4688 20.5661 83.4807 20.3472 82.7279 20.0963C77.7718 18.4438 74.6628 16.8635 70.6443 13.4799Z" fill="#9A9B9E"/>
<path d="M96.4197 20.8747C96.1683 20.8335 95.9506 20.8246 95.7429 20.6861C95.9822 20.5278 97.5251 20.32 97.9795 20.2269L98.0118 20.5857L97.8053 20.7659L98.2891 20.9939C97.6556 20.9108 97.0567 20.8981 96.4197 20.8747Z" fill="#545455"/>
<path d="M45.474 13.7377C46.1999 13.3323 48.877 12.3921 49.7263 12.072C51.7459 11.3009 53.7369 10.4571 55.6954 9.5421C58.2048 8.32801 60.6647 7.01381 63.0688 5.60265C64.4967 4.74855 66.2882 3.53495 67.7142 2.79224C67.8295 3.41721 67.7128 4.47099 67.74 5.17125C67.8428 7.81217 68.2985 11.0672 70.5444 12.7897C71.8453 13.7851 72.2918 13.0976 73.1995 13.4403C72.3926 13.4446 71.4352 13.4251 70.6445 13.4798C74.663 16.8634 77.772 18.4437 82.7281 20.0962C83.4809 20.3471 85.4691 20.566 85.6531 20.985C80.9669 21.2015 77.6287 21.7358 73.1505 23.1986C69.7288 24.3163 66.1823 25.1654 62.8527 26.6271C61.1304 27.316 59.7199 28.1168 58.0815 28.9388C57.539 29.3935 54.9625 31.0146 54.211 31.5105C51.6432 33.2049 49.8613 34.6565 47.5415 36.6361C47.3749 36.3572 47.4196 36.1447 47.3192 35.9476C47.0742 35.4664 46.637 34.9004 46.3465 34.4236C44.6887 31.7024 43.5633 30.36 40.7555 28.8058C40.4935 28.6608 40.5006 28.6758 40.2828 28.7495L40.1973 29.1645C39.9498 28.5485 39.6852 27.1574 39.4656 26.4323C39.1535 25.4021 38.8078 24.4862 38.4546 23.4756L38.5181 23.4063C38.2986 22.6798 38.168 21.4801 37.8373 20.8404C37.7447 20.3898 37.289 18.2308 37.0745 18.021L36.9413 18.2488C36.5709 18.1618 36.4365 17.9127 36.1287 17.5957C36.7403 17.4111 37.2153 17.2899 37.6451 16.8125C40.3792 15.6218 42.6491 14.7605 45.474 13.7377Z" fill="#294581"/>
<path d="M45.3869 23.1121C46.1539 23.0752 50.2492 23.1829 50.7971 23.5231C50.4547 23.561 50.112 23.5963 49.7692 23.6286C49.8243 23.9608 51.1719 24.5183 51.4732 24.6181C53.5473 25.3054 54.0174 26.4736 54.8551 28.307C55.326 29.3376 55.6455 28.6966 55.7704 30.1755C56.3567 30.0194 57.7544 28.6102 58.0815 28.9388C57.539 29.3934 54.9625 31.0146 54.2109 31.5105C51.6432 33.2048 49.8613 34.6565 47.5415 36.6361C47.3748 36.3572 47.4195 36.1446 47.3191 35.9475C47.0742 35.4664 46.637 34.9004 46.3465 34.4236C44.6887 31.7024 43.5633 30.3599 40.7555 28.8058C40.4935 28.6608 40.5006 28.6758 40.2828 28.7495L40.1973 29.1645C39.9498 28.5485 39.6852 27.1573 39.4656 26.4323C39.1535 25.4021 38.8078 24.4862 38.4546 23.4755L38.518 23.4063C39.9238 23.4356 44.2296 23.5347 45.3869 23.1121Z" fill="#3D79B0"/>
<path d="M37.6451 16.8126C40.3792 15.6218 42.6491 14.7606 45.474 13.7378C45.0175 14.3208 43.5624 14.6675 42.8214 14.936C42.5623 15.2189 42.1555 15.5819 42.1333 15.9457C42.2952 16.5067 42.9477 18.137 42.6394 18.7078C43.5307 18.7379 47.2922 18.7407 47.8554 18.9631C47.3624 19.0532 46.119 18.9689 45.5198 18.9834C45.2173 19.7797 45.0534 20.1289 45.089 21.001C45.6431 20.9974 47.7731 20.9442 48.1852 21.0521C47.5952 21.5053 42.0485 21.1756 41.3593 21.2849C42.9422 22.8419 43.1565 23.1092 45.387 23.1122C44.2297 23.5348 39.9238 23.4356 38.5181 23.4063C38.2986 22.6798 38.168 21.4802 37.8373 20.8405C37.7447 20.3898 37.289 18.2309 37.0745 18.0211L36.9413 18.2488C36.5709 18.1618 36.4365 17.9127 36.1287 17.5958C36.7403 17.4112 37.2153 17.29 37.6451 16.8126Z" fill="#566E98"/>
<path d="M115.693 3.66528C118.812 5.48024 121.843 7.32434 125.089 8.93015C128.055 10.3968 131.541 11.4314 134.485 12.7353C134.726 13.2937 134.23 13.2012 134.688 13.4953C134.951 13.6639 135.172 13.6605 135.242 13.9486C134.127 15.303 134.073 16.6086 133.336 18.109C133.057 18.6746 131.439 20.0995 131.798 20.6537C132.898 22.3543 133.236 22.8103 130.979 24.4888C129.561 24.6465 127.684 24.8353 126.307 25.1446C127.051 25.1562 127.714 25.1599 128.457 25.1285C128.248 26.5481 125.926 28.3324 126.932 30.5098C126.741 30.4487 126.627 30.3829 126.443 30.4054C126.151 30.2658 125.353 29.7405 125.023 29.5473C124.14 29.0357 123.241 28.5555 122.324 28.1074C118.056 25.9773 113.571 24.3096 108.948 23.1327C107.775 22.9447 105.598 22.1054 104.278 21.8125C102.166 21.3442 100.41 21.2328 98.289 20.9939L97.8052 20.7659L98.0117 20.5858L97.9794 20.227C101.359 19.4149 104.071 18.0132 106.99 16.2241C107.339 15.8681 110.012 14.1223 110.642 13.6483L110.615 13.4139C114.062 10.5767 114 8.87729 114.582 4.62878C114.683 3.88635 115.125 4.03276 115.693 3.66528Z" fill="#294581"/>
<path d="M106.99 16.2241L107.03 16.391C106.45 16.8141 106.082 17.076 105.454 17.4083C104.767 17.7713 103.822 18.0844 103.262 18.5689C103.227 18.8235 103.495 19.1075 103.484 19.1591C103.213 20.0633 103.406 20.1358 103.869 20.7875C104.733 22.0035 105.666 22.0206 106.982 22.2673C106.766 22.2268 109.26 23.1738 108.97 22.9979L108.948 23.1328C107.775 22.9448 105.598 22.1054 104.278 21.8125C102.166 21.3442 100.41 21.2328 98.289 20.9939L97.8052 20.7659L98.0117 20.5858L97.9794 20.227C101.359 19.4149 104.071 18.0132 106.99 16.2241Z" fill="#1C2142"/>
<path d="M134.485 12.7354C135.762 13.2069 137.026 13.7255 138.294 14.2333C143.895 16.476 149.928 18 154.877 21.5834C155.815 22.2622 156.586 22.9501 157.284 23.879C157.562 24.2315 158.062 25.2593 158.198 25.3545C158.482 26.3661 159.529 28.5635 158.937 29.5093C158.844 28.9338 158.962 28.6011 158.864 28.0061C158.76 27.3708 158.457 26.8437 158.291 26.2994C157.601 24.0411 156.261 22.8246 154.386 21.5129C153.942 21.2014 152.603 20.1199 152.149 20.1249C151.938 20.3814 151.944 20.9096 151.94 21.2509C151.91 24.0834 149.945 25.7442 148.298 27.7637C148.07 28.0469 147.574 28.3637 147.383 28.6534C146.997 29.2366 146.802 30.1382 146.381 30.6915C145.889 31.3377 144.526 32.0988 144.733 33.0861C145.527 33.4683 146.236 32.6555 146.977 33.388C147.108 33.8078 147.001 34.2815 146.938 34.7235L146.825 34.7862C146.77 34.3237 146.829 33.6858 146.607 33.3973C146.271 33.2027 145.341 33.3512 144.94 33.4227C144.551 33.808 144.042 35.2558 143.691 35.7959C143.198 36.5515 142.371 37.3933 141.876 38.0971C140.756 39.688 140.67 40.1359 139.229 41.4668L139.267 41.4975C140.159 42.2221 140.794 43.2757 141.535 44.1415C141.979 44.6586 142.178 44.5473 142.353 45.309C142.436 45.3574 136.5 38.7658 136.002 38.2433C134.597 36.769 133.093 35.3919 131.501 34.1216C131.219 33.8969 126.38 30.2923 126.443 30.4054C126.627 30.3829 126.741 30.4487 126.932 30.5098C125.926 28.3325 128.249 26.5482 128.458 25.1285C127.714 25.16 127.051 25.1562 126.307 25.1446C127.684 24.8353 129.561 24.6465 130.979 24.4888C133.236 22.8103 132.898 22.3544 131.799 20.6537C131.439 20.0995 133.058 18.6746 133.336 18.109C134.073 16.6086 134.127 15.303 135.242 13.9486C135.172 13.6605 134.951 13.6639 134.688 13.4953C134.23 13.2012 134.726 13.2937 134.485 12.7354Z" fill="#5297C0"/>
<path d="M1.90513 81.4644L16.0976 86.4047C17.1946 86.7748 21.6867 88.1114 22.3705 88.4353C24.1765 88.9364 27.6779 90.1889 29.3449 90.4447C30.0062 90.6808 33.4243 91.4829 33.9871 91.3955C34.1779 91.146 34.2009 90.9149 34.265 90.6111C34.6696 91.5611 33.3293 93.5552 33.1907 94.7814C33.238 94.7987 33.3361 94.7818 33.3961 94.7771C33.5438 94.2895 33.6421 94.0481 33.8554 93.5836L33.9818 93.7509C33.7718 94.3948 32.828 97.6307 32.3219 97.7212C28.6734 98.3737 23.7571 96.3607 20.4327 95.359C13.6757 93.3231 7.17381 90.8433 0.564816 88.5298C0.519698 87.6765 0.564758 86.6835 0.643375 85.8315L0.899085 85.2051C1.20015 84.3575 1.72853 81.7112 1.90513 81.4644Z" fill="#050C2C"/>
<path d="M1.90521 81.4644L16.0977 86.4047C17.1947 86.7748 21.6867 88.1114 22.3706 88.4353L22.414 88.4739C22.597 88.6335 22.6159 88.6461 22.831 88.7512C22.7832 89.0658 22.5824 89.2187 22.412 89.4825C21.8324 90.3804 21.6396 91.1239 21.3976 92.1115C20.9628 91.94 19.4883 91.5782 18.9835 91.4397C17.2414 90.9653 15.5028 90.4786 13.7676 89.9797C10.9781 89.1506 8.00906 87.9459 5.28396 86.9349C4.19285 86.5302 1.78926 85.7592 0.89917 85.2051C1.20023 84.3575 1.72861 81.7112 1.90521 81.4644Z" fill="#4C84A2"/>
<path d="M22.3705 88.4353C24.1764 88.9364 27.6779 90.1888 29.3449 90.4447C30.0062 90.6807 33.4243 91.4829 33.987 91.3954C34.1778 91.146 34.2009 90.9149 34.265 90.6111C34.6696 91.5611 33.3293 93.5552 33.1907 94.7814C33.1686 94.7932 33.1466 94.8053 33.1241 94.8168C31.7718 95.5024 23.2358 92.72 21.3975 92.1115C21.6395 91.1239 21.8323 90.3804 22.4119 89.4824C22.5823 89.2186 22.7831 89.0658 22.8309 88.7512C22.6159 88.6461 22.5969 88.6335 22.4139 88.4738L22.3705 88.4353Z" fill="#356C88"/>
<path d="M148.215 62.5762C148.003 62.0495 147.929 61.2677 148.217 60.7538C148.38 61.4004 148.033 61.6724 148.206 62.0502C149.362 61.6852 150.919 58.3953 150.888 57.18C150.626 56.7313 150.291 56.5758 150.277 56.2678C152.542 56.7211 151.712 61.6829 150.848 63.1205C150.408 63.8493 149.501 66.0943 150.851 66.4399C151.524 66.0326 151.283 65.2186 151.463 64.4895C152.692 59.5011 154.678 54.6392 156.969 50.0468C157.419 49.1479 159.028 45.4219 159.19 44.5658C159.37 45.0852 158.895 46.0172 158.7 46.5233C157.184 50.449 155.177 54.4853 153.769 58.4322L154.077 58.5006C154.352 59.008 154.238 60.5459 154.22 61.1634C154.684 61.0759 155.359 60.0221 155.785 59.8343L155.874 59.9173C155.677 60.5581 154.769 61.1332 154.42 61.6696C153.324 63.3547 152.203 65.2119 151.826 67.2097C151.712 67.8112 151.25 68.7132 151.374 69.2207C151.585 69.4716 152.405 70.4122 152.683 70.4858C153.08 70.0001 154.036 68.1058 154.381 67.4567C154.359 68.191 152.974 70.4036 152.575 71.2943C151.014 73.2291 148.536 82.9029 148.386 85.6543C148.304 87.1518 148.357 88.6556 148.048 90.3379C148.056 90.7901 148.02 91.0843 148.26 91.465L148.431 91.5943C147.937 91.8675 148.178 92.1487 147.372 92.5358C146.69 90.8804 146.845 87.7712 145.156 86.6147C145.096 86.5738 144.829 86.7187 144.744 86.7555L144.607 86.6565C144.478 86.109 144.283 81.9836 144.274 81.3425C144.52 77.2388 145.311 74.1571 146.591 70.2805C147.027 68.9606 147.39 66.3735 147.577 64.955C147.696 64.0742 147.788 63.3723 148.215 62.5762Z" fill="#959494"/>
<path d="M148.977 61.7751C149.328 62.5051 149.656 63.7529 149.848 64.5552C149.667 64.9764 149.497 65.4024 149.338 65.8325C149.21 66.3927 148.95 66.9478 148.733 67.4822C147.965 69.3757 147.227 71.4008 146.756 73.3908C146.967 74.1184 147.103 74.4651 147.499 75.1248C147.69 75.6554 147.872 75.8192 147.998 76.1332C147.519 77.5806 147.119 79.026 146.705 80.4926C146.462 82.8505 147.666 86.9551 147.842 89.5293L148.048 90.3379C148.056 90.7901 148.02 91.0843 148.26 91.465L148.431 91.5943C147.937 91.8675 148.178 92.1487 147.372 92.5358C146.69 90.8804 146.845 87.7712 145.156 86.6147C145.096 86.5738 144.829 86.7187 144.744 86.7555L144.607 86.6565C144.478 86.109 144.283 81.9836 144.274 81.3426C144.52 77.2388 145.311 74.1571 146.591 70.2805C147.027 68.9606 147.39 66.3735 147.577 64.9551C147.696 64.0742 147.788 63.3723 148.215 62.5762C148.5 62.3113 148.718 62.0647 148.977 61.7751Z" fill="#5C5C5C"/>
<path d="M147.843 89.5293C146.293 87.8017 145.737 82.6206 146.705 80.4926C146.462 82.8504 147.666 86.955 147.843 89.5293Z" fill="#7A7B82"/>
<path d="M148.977 61.7751C149.328 62.5051 149.656 63.7529 149.848 64.5552C149.667 64.9764 149.497 65.4024 149.338 65.8325C149.254 65.1207 149.525 64.3986 149.1 63.6375C148.867 63.3993 148.572 63.3658 148.248 63.2911C147.924 63.6518 148.018 64.3649 147.577 64.9551C147.696 64.0742 147.789 63.3723 148.215 62.5762C148.501 62.3113 148.718 62.0647 148.977 61.7751Z" fill="#7A7B82"/>
<path d="M148.977 61.7752C149.839 61.3689 150.568 58.6311 151.338 58.3347C152.062 59.4543 150.68 63.5964 149.848 64.5553C149.656 63.753 149.328 62.5052 148.977 61.7752Z" fill="#9A9B9E"/>
<path d="M147.499 75.1248C148.079 74.6287 147.908 73.7955 148.745 73.2719L148.816 73.3058C148.86 73.9924 148.324 75.5398 147.999 76.1332C147.872 75.8191 147.69 75.6554 147.499 75.1248Z" fill="#7A7B82"/>
<path d="M164.128 87.4209C164.892 87.4902 169.339 85.6686 170.306 85.3085C170.333 86.3698 169.452 86.3894 170.633 87.7878C170.682 87.8452 170.389 88.1616 170.512 88.4222C170.905 88.3352 171.142 88.1589 171.413 88.277C171.338 88.8347 170.595 89.1144 170.116 89.3321L170.163 89.4424C167.902 90.7179 151.757 95.2769 149.388 94.9305C148.856 94.5972 148.912 94.2729 148.474 94.1036L148.143 94.2846C147.767 93.8248 148.142 92.3015 148.444 91.8119C148.499 91.7219 149.143 91.6317 149.291 91.6068C149.168 91.555 149.16 91.5387 149.029 91.5213C149.163 91.397 154.215 90.4426 155.075 90.113C157.271 89.8046 159.678 88.8166 161.803 88.1465C162.528 87.9179 163.399 87.5624 164.128 87.4209Z" fill="#4C84A2"/>
<path d="M34.7328 71.8893C34.8107 71.9289 34.7729 71.9118 34.894 71.8832C34.7637 70.7517 33.6164 68.0576 34.1386 67.1851L34.3234 67.2337C34.881 68.4085 35.0068 70.295 35.5533 71.4926L35.6765 71.3377C37.227 74.3316 37.2819 77.2443 37.4021 80.4887C37.3713 81.7941 37.6388 85.2466 37.2806 86.1384C37.0891 86.3148 37.1363 86.329 36.9275 86.3543C34.6768 88.206 35.3932 91.2496 33.9817 93.751L33.8554 93.5836C33.642 94.0481 33.5438 94.2896 33.3961 94.7771C33.3361 94.7818 33.238 94.7988 33.1907 94.7815C33.3293 93.5552 34.6696 91.5611 34.265 90.6111C34.4218 88.5662 35.0438 87.2997 34.7942 84.9574C34.5587 82.7491 33.1755 79.8057 33.2656 77.825C33.3946 74.9869 35.2542 75.3361 34.7328 71.8893Z" fill="#545455"/>
<path d="M179.963 81.7013L180.238 81.83C180.567 82.8111 180.535 84.3207 181.023 85.3323C179.951 85.9964 176.486 87.1471 175.138 87.6297C173.619 88.1742 171.653 88.9609 170.163 89.4423L170.116 89.3321C170.595 89.1143 171.338 88.8347 171.413 88.277C171.142 88.1588 170.905 88.3351 170.512 88.4222C170.389 88.1615 170.682 87.8451 170.634 87.7878C169.452 86.3893 170.333 86.3697 170.306 85.3084C169.339 85.6686 164.892 87.4902 164.128 87.4209C165.293 86.8443 167.342 86.2016 168.615 85.688C172.364 84.1752 176.136 82.9718 179.963 81.7013Z" fill="#5EA2BE"/>
<path d="M152.575 71.2943L152.545 71.3876C151.855 73.512 150.218 76.9375 149.935 79.3102C149.906 79.5464 150.265 81.4613 150.322 81.9545C150.659 84.8417 149.874 88.1292 151.658 90.6266C152.01 90.9684 154.783 89.6964 155.075 90.113C154.214 90.4426 149.163 91.397 149.029 91.5213L148.431 91.5943L148.26 91.465C148.02 91.0843 148.056 90.7901 148.048 90.3379C148.357 88.6556 148.304 87.1518 148.386 85.6543C148.536 82.9029 151.014 73.2291 152.575 71.2943Z" fill="#9D9CA0"/>
<path d="M37.4023 80.4886C37.7387 81.5014 37.3882 83.2343 37.6409 83.9609C38.1764 85.5015 38.7848 86.455 39.0192 88.1974C39.5049 91.8085 39.3318 95.2599 39.7218 98.8992L39.5881 98.8148C39.3614 97.7674 39.4201 96.9244 39.2606 95.9621L39.1107 96.1149L38.9958 96.0768C38.7881 97.4827 38.995 98.2832 39.058 99.6294C39.0154 99.5807 37.7352 91.8552 37.5356 90.92C37.3257 89.9358 37.3472 87.1345 36.9277 86.3543C37.1365 86.3289 37.0893 86.3148 37.2808 86.1384C37.6391 85.2465 37.3716 81.7941 37.4023 80.4886Z" fill="#9A9B9E"/>
<path d="M33.7565 61.4194C34.3795 63.7404 34.367 66.2318 34.9836 68.5627C35.2268 69.4826 35.4246 70.4153 35.6766 71.3377L35.5534 71.4926C35.0068 70.295 34.881 68.4085 34.3234 67.2337L34.1387 67.185C33.6165 68.0575 34.7638 70.7517 34.894 71.8832C34.773 71.9118 34.8107 71.9289 34.7329 71.8893C34.1863 69.5769 33.412 67.0557 32.6704 64.7977C32.9148 64.086 32.8324 63.2284 32.8457 62.4337C32.8455 62.5254 32.8482 62.6173 32.8539 62.7089C32.8719 63.0058 32.9244 63.3204 33.1394 63.5105C34.0369 63.0345 33.5219 62.1739 33.7565 61.4194Z" fill="#676767"/>
<path d="M111.789 46.4115C112.201 46.3268 113.258 46.0365 113.528 46.1596L113.543 46.465C113.534 47.2637 113.614 47.6517 113.752 48.4342C114.259 48.9533 115.049 49.8426 115.566 50.2636C115.788 49.7864 115.883 48.4696 115.948 47.8794L115.995 47.8113C117.437 45.759 119.273 47.0531 120.79 48.1527C120.877 48.8421 120.376 49.5233 120.684 49.9939C120.905 49.9892 120.906 49.9719 121.094 49.868L121.306 49.9815L121.854 49.8549C122.629 49.2142 122.533 47.9066 122.402 47.0165L122.44 46.9396C122.775 46.7703 125.128 46.72 125.67 46.6955C126.315 46.6312 127.059 46.6105 127.716 46.5782L127.877 46.5336C128.235 47.0634 127.858 47.8737 128.652 48.9725L128.896 48.8243C129.385 48.9411 129.511 48.9695 130.008 48.9624L130.15 49.2112C129.686 49.695 129.386 49.9092 128.855 50.3044C129.314 51.211 130.097 50.8489 130.291 51.9599C130.346 52.4198 130.444 52.5938 130.29 52.9661C128.098 53.9841 126.547 56.6019 128.838 58.42C130.891 59.3476 131.475 60.2507 130.911 62.5807C130.833 62.9859 130.671 63.1874 130.363 63.4754C130.161 63.904 130.232 63.9197 129.891 64.1562C129.565 64.1385 129.524 64.1266 129.229 63.9851C128.808 63.9801 128.471 63.9387 128.095 64.1263L127.948 64.332C128.263 65.1753 128.709 65.9978 128.337 66.8412C127.733 67.6882 126.249 68.7214 125.63 67.3184C124.879 66.9556 124.476 67.6854 123.82 68.144C123.727 67.9103 123.632 67.7406 123.515 67.5211C123.739 67.3568 123.759 67.3188 123.897 67.076C123.865 66.4843 123.361 65.7874 123.042 65.2505C122.674 65.4008 122.296 65.5773 121.931 65.7403C121.457 66.2602 120.238 67.6927 119.619 67.7938C119.493 67.6993 119.349 67.5997 119.236 67.4916C118.02 67.5813 116.847 67.8431 115.752 67.0941C114.783 66.4312 114.009 65.3802 113.36 64.4156C113.985 64.2548 115.446 64.0307 115.598 63.4053C114.719 63.1419 113.21 63.0968 112.719 62.7534C112.688 62.0037 115.508 61.826 116.099 60.3448C115.784 59.6791 115.64 59.5772 115.007 59.1895C114.747 58.9528 114.451 58.7106 114.181 58.481C113.565 57.9905 113.359 57.6876 112.901 57.0681C112.566 56.5764 112.264 56.0652 111.955 55.5565C110.838 53.2165 114.078 53.369 115.395 52.6842C114.331 52.4412 113.237 52.1196 112.181 51.8263L112.02 51.8593L111.876 51.7635C111.569 50.6077 111.619 49.6542 111.635 48.4586C111.633 47.6361 111.675 47.2279 111.789 46.4115Z" fill="#566E98"/>
<path d="M128.838 58.42C130.891 59.3476 131.475 60.2507 130.911 62.5807C130.833 62.9859 130.671 63.1874 130.363 63.4754C130.161 63.904 130.232 63.9197 129.892 64.1562C129.565 64.1385 129.524 64.1266 129.229 63.9851C128.808 63.9801 128.471 63.9387 128.095 64.1264L127.948 64.332C128.263 65.1753 128.709 65.9978 128.337 66.8412C127.733 67.6882 126.249 68.7214 125.63 67.3184C124.879 66.9557 124.476 67.6854 123.82 68.1441C123.727 67.9104 123.632 67.7407 123.515 67.5211C123.739 67.3568 123.759 67.3188 123.897 67.076C123.865 66.4843 123.361 65.7875 123.042 65.2505C122.674 65.4008 122.296 65.5773 121.931 65.7403C121.457 66.2603 120.238 67.6927 119.619 67.7938C119.493 67.6993 119.349 67.5997 119.236 67.4916C118.02 67.5813 116.847 67.8431 115.752 67.0941C114.783 66.4312 114.009 65.3802 113.36 64.4157C113.985 64.2548 115.446 64.0307 115.598 63.4054C114.719 63.1419 113.21 63.0969 112.719 62.7534C112.688 62.0037 115.508 61.826 116.099 60.3448C116.205 60.8075 116.107 60.6917 116.44 60.9405C121.244 60.0232 119.868 58.8855 125.341 60.0465C125.449 59.8232 125.426 59.8907 125.712 59.7551L125.865 59.6263C125.959 59.2412 125.995 59.1291 126.325 58.9457L127.154 58.7053C127.35 58.7602 127.602 58.8219 127.789 58.8906L128.256 59.1528C128.377 58.9691 128.686 58.6066 128.838 58.42Z" fill="#566E98"/>
<path d="M116.44 60.9405C121.244 60.0232 119.868 58.8855 125.341 60.0465L125.414 60.354C124.857 61.023 124.599 60.9827 124.099 61.8409C123.81 62.1127 123.491 62.7339 123.281 63.0985C122.988 63.1266 122.521 63.1584 122.247 63.218C121.993 63.2529 121.731 63.2374 121.608 63.4709C121.064 64.5003 120.832 65.2112 120.131 66.1693C119.92 66.6399 119.545 66.8331 119.236 67.4915C118.02 67.5813 116.847 67.843 115.752 67.0941C114.783 66.4312 114.009 65.3802 113.36 64.4156C113.985 64.2548 115.446 64.0306 115.598 63.4053C114.719 63.1419 113.21 63.0968 112.719 62.7534C112.688 62.0037 115.508 61.826 116.099 60.3448C116.205 60.8075 116.107 60.6917 116.44 60.9405Z" fill="#566E98"/>
<path d="M116.44 60.9405C121.244 60.0232 119.868 58.8855 125.341 60.0465L125.414 60.354C124.857 61.023 124.599 60.9827 124.099 61.8409C123.81 62.1127 123.491 62.7339 123.281 63.0985C122.988 63.1266 122.521 63.1584 122.247 63.218C121.993 63.2529 121.732 63.2374 121.608 63.4709C121.064 64.5003 120.832 65.2112 120.131 66.1693C120.008 66.0728 119.929 65.9727 119.825 65.8567C119.748 65.3767 120.126 64.5865 120.205 64.0388C120.725 60.4927 117.124 62.8111 115.569 62.4989C115.578 61.5241 115.452 61.2008 116.44 60.9405Z" fill="#C8CBDB"/>
<path d="M116.099 60.3448C116.205 60.8075 116.107 60.6918 116.44 60.9405C115.451 61.2008 115.578 61.5242 115.569 62.499C114.822 62.49 113.495 62.3029 113.077 62.5816C113.833 63.1492 114.324 62.5153 115.598 63.4054C114.719 63.1419 113.21 63.0969 112.719 62.7534C112.688 62.0037 115.508 61.826 116.099 60.3448Z" fill="#9394A9"/>
<path d="M128.838 58.42C130.891 59.3476 131.475 60.2507 130.911 62.5807C130.833 62.9859 130.671 63.1874 130.363 63.4754C130.161 63.904 130.232 63.9197 129.892 64.1562C129.565 64.1385 129.524 64.1266 129.229 63.9851C127.822 63.2357 128.374 62.356 127.58 61.8703L127.936 61.7746L127.93 60.9242C128.117 60.2043 127.787 59.8798 128.484 59.4354C128.381 59.3516 128.335 59.2636 128.256 59.1528C128.377 58.9691 128.687 58.6066 128.838 58.42Z" fill="#C8CBDB"/>
<path d="M128.838 58.42C130.891 59.3476 131.475 60.2507 130.911 62.5807C130.645 62.3611 130.252 60.9845 129.732 60.4582C129.25 59.9707 129.045 59.8387 128.484 59.4354C128.381 59.3516 128.335 59.2636 128.256 59.1528C128.377 58.9691 128.686 58.6066 128.838 58.42Z" fill="#7A7B82"/>
<path d="M127.936 61.7745C128.808 62.5566 130.085 61.5901 130.363 63.4754C130.161 63.9039 130.232 63.9197 129.892 64.1562C129.565 64.1384 129.524 64.1265 129.229 63.985C127.822 63.2356 128.374 62.3559 127.58 61.8702L127.936 61.7745Z" fill="#7A7B82"/>
<path d="M120.131 66.1692C120.832 65.2111 121.064 64.5003 121.608 63.4709C121.731 63.2374 121.993 63.2529 122.247 63.218C122.648 63.2059 123.172 63.1276 123.463 63.3687C123.489 64.0685 122.326 64.6367 121.931 65.7402C121.457 66.2602 120.238 67.6926 119.619 67.7937C119.493 67.6993 119.35 67.5996 119.236 67.4915C119.545 66.8331 119.92 66.6399 120.131 66.1692Z" fill="#294581"/>
<path d="M127.58 61.8702C128.374 62.356 127.822 63.2356 129.229 63.985C128.808 63.9801 128.471 63.9387 128.095 64.1263L127.948 64.332C127.634 63.6627 126.694 62.6729 126.702 62.1194C126.936 62.0881 127.341 61.9457 127.58 61.8702Z" fill="#A7A9BF"/>
<path d="M125.63 67.3183C126.41 66.5164 127.345 66.6577 128.337 66.8411C127.733 67.6881 126.25 68.7213 125.63 67.3183Z" fill="#566E98"/>
<path d="M123.281 63.0985C123.491 62.7339 123.81 62.1127 124.099 61.8409C124.736 62.3425 125.075 61.7176 126.059 62.2008C125.84 63.149 124.112 63.1457 123.281 63.0985Z" fill="#A7A9BF"/>
<path d="M127.154 58.7052C127.35 58.7601 127.602 58.8218 127.789 58.8905C127.495 59.1247 127.263 59.2969 126.953 59.5078L126.944 59.637L126.999 59.684L125.865 59.6262C125.959 59.2411 125.995 59.129 126.325 58.9456L127.154 58.7052Z" fill="#AFB5C5"/>
<path d="M127.789 58.8905L128.256 59.1527C128.335 59.2635 128.381 59.3515 128.484 59.4353C127.787 59.8797 128.117 60.2042 127.93 60.9241C127.943 60.5478 127.976 60.241 127.885 59.8743C127.532 59.6282 127.504 59.7083 126.999 59.684L126.944 59.637L126.953 59.5078C127.263 59.2969 127.495 59.1247 127.789 58.8905Z" fill="#A7A9BF"/>
<path d="M128.011 51.2654C128.213 51.0815 128.657 50.5348 128.855 50.3044C129.314 51.211 130.097 50.8489 130.291 51.9599C130.346 52.4198 130.444 52.5938 130.29 52.9661C128.098 53.9841 126.547 56.6019 128.838 58.42C128.687 58.6066 128.377 58.9691 128.256 59.1528L127.789 58.8906C127.602 58.8219 127.35 58.7602 127.154 58.7053L126.325 58.9457C125.995 59.1291 125.959 59.2412 125.866 59.6263L125.712 59.7551C124.937 59.5043 123.732 58.823 122.971 58.4235C123.592 57.9685 124.513 57.4679 124.649 56.7694C124.439 56.4759 124.553 56.5714 124.134 56.4459L124.185 56.3944C123.968 56.2283 122.952 55.0558 122.892 54.6793C122.81 54.1787 123.257 53.861 123.586 53.6115C124.033 53.2623 124.543 52.9916 124.587 52.4035L124.24 52.1565C124.506 51.8704 124.901 52.3851 125.57 52.0684C125.959 51.4331 125.468 51.1339 126.062 50.7725C126.828 50.7191 127.299 50.9805 128.011 51.2654Z" fill="#4C84A2"/>
<path d="M123.586 53.6115L123.925 54.2929C125.466 54.3959 127.083 53.0797 128.214 53.3004L128.345 53.475C128.126 54.2792 126.985 54.9602 126.279 55.3669L126.223 55.3985L125.56 55.7399C125.16 55.9309 124.577 56.2341 124.185 56.3944C123.968 56.2283 122.952 55.0558 122.892 54.6793C122.81 54.1787 123.257 53.861 123.586 53.6115Z" fill="#AFB5C5"/>
<path d="M128.01 51.2654C128.213 51.0815 128.657 50.5348 128.855 50.3044C129.314 51.211 130.097 50.8489 130.291 51.9599C129.593 51.9533 128.703 52.3232 128.037 51.9737C127.852 51.6245 127.903 51.7374 128.01 51.2654Z" fill="#AFB5C5"/>
<path d="M126.325 58.9457C125.779 58.7948 125.734 58.4053 125.909 57.9555C126.352 57.6507 126.505 57.738 126.922 57.9713C127.184 58.3955 127.153 58.2253 127.154 58.7052L126.325 58.9457Z" fill="#566E98"/>
<path d="M126.223 55.3984C126.672 55.7245 126.665 55.6143 126.82 56.0569C126.7 56.4496 126.798 56.3229 126.461 56.5371C126.023 56.5152 126.193 56.5701 125.816 56.3019L125.56 55.7398L126.223 55.3984Z" fill="#566E98"/>
<path d="M117.924 53.7353C120.237 52.0921 121.505 51.6998 124.24 52.1564L124.587 52.4035C124.542 52.9915 124.033 53.2623 123.586 53.6114C123.257 53.861 122.81 54.1787 122.892 54.6792C122.952 55.0558 123.967 56.2283 124.185 56.3944L124.134 56.4459C123.222 56.7202 121.589 57.3003 120.763 57.7307C120.68 56.8482 120.619 55.8976 120.382 55.0489C119.817 54.6108 118.606 54.0689 117.924 53.7353Z" fill="#C8CBDB"/>
<path d="M115.395 52.6842C115.726 52.7021 115.869 52.8967 116.105 53.1254C116.37 53.2762 116.725 53.3987 116.734 53.6974C116.762 54.7402 115.943 56.9488 115.592 57.8877C115.051 57.4867 113.876 56.6835 113.465 56.2581C113.104 56.5206 112.903 56.5722 112.901 57.0681C112.566 56.5765 112.264 56.0652 111.956 55.5565C110.839 53.2165 114.078 53.369 115.395 52.6842Z" fill="#C8CBDB"/>
<path d="M115.395 52.6842C115.726 52.7021 115.869 52.8967 116.105 53.1254C114.759 53.5456 113.725 53.7977 112.528 54.6525L113.465 56.2581C113.104 56.5206 112.903 56.5722 112.901 57.0681C112.566 56.5765 112.264 56.0652 111.956 55.5565C110.839 53.2165 114.078 53.369 115.395 52.6842Z" fill="#7A7B82"/>
<path d="M127.716 46.5782L127.877 46.5336C128.235 47.0634 127.858 47.8737 128.652 48.9725C128.46 49.1996 128.003 49.6157 127.77 49.8389C124.968 50.2359 126.347 49.752 125.346 48.5681C123.703 48.8846 122.986 49.5834 121.854 49.8549C122.629 49.2142 122.533 47.9066 122.402 47.0165L122.44 46.9395C122.775 46.7703 125.128 46.72 125.67 46.6955C126.315 46.6312 127.059 46.6105 127.716 46.5782Z" fill="#A7A9BF"/>
<path d="M122.402 47.0165L122.44 46.9396C122.775 46.7704 125.128 46.72 125.67 46.6956L125.656 47.3744C125.253 47.2625 124.717 47.2968 124.288 47.3026C124.901 47.3337 125.124 47.3029 125.568 47.7016C125.732 48.0681 125.777 48.3241 125.346 48.5681C123.703 48.8846 122.986 49.5835 121.854 49.8549C122.629 49.2142 122.533 47.9067 122.402 47.0165Z" fill="#AFB5C5"/>
<path d="M122.402 47.0165L122.44 46.9396C122.775 46.7704 125.128 46.72 125.67 46.6956L125.656 47.3744C125.254 47.2625 124.717 47.2968 124.288 47.3026C123.546 47.305 123.067 47.3427 122.402 47.0165Z" fill="#9394A9"/>
<path d="M127.716 46.5781C127.962 46.8582 127.909 46.7296 127.957 47.0638C127.616 47.5062 126.05 47.557 125.656 47.3744L125.67 46.6955C126.315 46.6311 127.059 46.6105 127.716 46.5781Z" fill="#6B6375"/>
<path d="M111.789 46.4115C112.201 46.3268 113.258 46.0365 113.528 46.1596L113.543 46.465C113.534 47.2637 113.614 47.6517 113.752 48.4342C114.259 48.9533 115.049 49.8426 115.566 50.2636C115.357 50.5164 115.349 50.555 115.333 50.8839L115.251 50.9731C114.514 50.9609 112.525 50.8095 112.08 51.4971C112.103 51.6756 112.081 51.6953 112.181 51.8263L112.02 51.8593L111.876 51.7635C111.569 50.6077 111.619 49.6542 111.635 48.4586C111.633 47.6361 111.675 47.2279 111.789 46.4115Z" fill="#7A7B82"/>
<path d="M111.635 48.4586C111.761 49.1658 111.673 49.2333 112.286 49.6614C112.332 49.6933 112.378 49.7247 112.425 49.7556C113.548 49.9194 114.395 50.1352 115.251 50.9731C114.514 50.9609 112.525 50.8095 112.08 51.4971C112.103 51.6756 112.081 51.6954 112.181 51.8263L112.02 51.8593L111.876 51.7635C111.569 50.6077 111.619 49.6542 111.635 48.4586Z" fill="#C8CBDB"/>
<path d="M111.789 46.4115C112.201 46.3268 113.258 46.0365 113.528 46.1596L113.544 46.465L113.268 46.3791C112.846 46.7265 112.791 48.7028 112.425 49.7556C112.378 49.7247 112.332 49.6933 112.287 49.6614C111.673 49.2333 111.761 49.1658 111.635 48.4586C111.633 47.6361 111.675 47.2279 111.789 46.4115Z" fill="#AFB5C5"/>
<path d="M120.79 48.1527C120.877 48.8421 120.376 49.5233 120.684 49.9939C120.905 49.9892 120.906 49.9719 121.094 49.8681L121.306 49.9815C121.027 50.2877 119.965 50.7635 119.545 50.6927C119.423 50.2164 120.422 48.8831 120.79 48.1527Z" fill="#AFB5C5"/>
<path d="M117.001 51.37C117.542 51.2821 118.147 51.1465 118.457 51.6613L118.378 51.9731C117.799 52.0005 117.379 52.1242 116.961 51.7014L117.001 51.37Z" fill="#4C84A2"/>
<path d="M50.8065 56.1749C51.2725 55.4389 51.7112 54.8375 52.359 54.2418C51.8728 55.4955 51.7636 55.9528 51.7018 57.2954C52.3102 59.3821 52.9194 59.5512 55.025 58.8501C55.2168 58.7861 55.4081 58.7208 55.599 58.6542C55.285 59.8215 55.5627 60.1191 56.714 60.3514C55.0888 61.3685 52.15 63.2829 50.0581 62.2309C48.1366 61.2648 50.0872 57.5108 50.8065 56.1749Z" fill="#050C2C"/>
<path d="M50.8066 56.1749C51.2726 55.4389 51.7114 54.8375 52.3591 54.2418C51.873 55.4955 51.7637 55.9528 51.7019 57.2954C51.5668 56.3841 51.61 56.4948 50.8066 56.1749Z" fill="#545455"/>
<path d="M130.64 67.7618C129.064 69.7355 126.131 71.236 123.689 71.8346C120.953 72.5877 118.303 71.0871 116.062 69.8239C112.548 67.8415 109.193 63.5707 109.429 59.3747C109.524 57.6731 109.18 44.5373 109.512 44.0057L109.871 44.1736C110.199 44.6852 109.967 58.0355 109.984 59.8235C110.014 62.9089 111.262 64.9904 113.437 67.1138C115.517 69.1449 119.126 71.4346 122.139 71.382C125.237 71.3281 128.112 69.563 130.204 67.4008L130.64 67.7618Z" fill="#303236"/>
<path d="M71.4815 53.4308C70.5866 54.0604 67.8278 54.9876 66.7166 55.5055C64.8717 56.3655 63.1188 57.313 61.2983 58.2174C59.849 58.9374 58.1045 59.5478 56.7139 60.3515C55.5626 60.1191 55.2849 59.8215 55.5989 58.6542C57.1871 58.0121 58.8637 57.3206 60.5164 56.8735C64.1279 55.8967 67.8216 54.1593 71.4815 53.4308Z" fill="#010103"/>
<path d="M133.116 45.2919C133.39 46.0235 133.335 47.3107 133.332 48.1215C133.31 52.9398 133.529 57.7859 133.213 62.5955C133.083 64.5497 131.873 66.4203 130.64 67.7618L130.204 67.4008C133.338 63.6339 132.64 62.326 132.753 57.6584C132.841 54.0228 132.655 50.1799 132.797 46.5636C132.943 46.0598 132.778 45.8653 133.116 45.2919Z" fill="#575A5D"/>
<path d="M121.761 37.8237C122.239 37.9755 122.853 39.5037 122.983 39.9913C122.647 40.8296 122.522 41.1992 121.579 41.3534C118.758 40.4106 120.258 39.1303 121.761 37.8237Z" fill="#D1C7B5"/>
<path d="M111.956 55.5564C112.264 56.0651 112.566 56.5763 112.901 57.068C113.359 57.6875 113.565 57.9904 114.181 58.4809C114.451 58.7105 114.747 58.9527 115.007 59.1895C113.118 59.2191 112.5 60.5246 111.79 60.5474C111.685 60.2054 111.82 59.7049 111.901 59.3433C112.039 58.5362 111.959 56.4888 111.956 55.5564Z" fill="#C8CBDB"/>
<path d="M114.181 58.481C114.451 58.7105 114.747 58.9528 115.007 59.1895C113.118 59.2191 112.5 60.5247 111.79 60.5475C111.685 60.2054 111.82 59.705 111.901 59.3433C112.567 58.9495 113.392 59.1981 114.181 58.481Z" fill="#9394A9"/>
<path d="M119.303 45.2238C119.362 45.1606 119.668 44.8395 119.716 44.8095C121.059 43.9591 124.757 44.3126 126.239 44.4421C125.897 44.4983 125.572 44.5268 125.268 44.6926C125.479 44.9389 125.448 44.8285 125.429 45.1023L125.48 45.0413C125.759 45.155 126.07 45.1422 126.366 45.1566C125.106 45.3505 120.742 45.2471 119.303 45.2238Z" fill="#9A9B9E"/>
<path d="M126.239 44.4421C127.63 44.5114 130.339 44.4649 131.558 44.6685C132.305 44.722 132.543 44.8066 133.116 45.292C132.778 45.8654 132.943 46.0599 132.797 46.5637C132.67 45.1013 131.906 45.2663 130.628 45.0943C130.141 45.1931 127 45.1568 126.366 45.1566C126.07 45.1422 125.759 45.155 125.48 45.0414L125.429 45.1024C125.448 44.8286 125.479 44.939 125.268 44.6927C125.572 44.5268 125.897 44.4984 126.239 44.4421Z" fill="#6B6375"/>
<path d="M131.558 44.6686C132.305 44.722 132.543 44.8066 133.116 45.292C132.778 45.8654 132.943 46.0599 132.797 46.5637C132.67 45.1013 131.906 45.2664 130.628 45.0943C130.492 45.0199 129.777 44.9742 129.574 44.9553C130.109 44.8857 131.117 44.6856 131.558 44.6686Z" fill="#294581"/>
<path d="M129.167 54.3103C130.787 54.2815 130.424 55.3087 130.198 56.5887C128.982 56.2946 128.854 55.3781 129.167 54.3103Z" fill="#9394A9"/>
<path d="M123.515 67.521C123.632 67.7406 123.727 67.9102 123.82 68.1439C122.703 68.9574 121.958 69.4643 120.683 69.9917C121.569 68.808 122.291 68.3362 123.515 67.521Z" fill="#545455"/>
<path d="M128.896 48.8242C129.596 48.0486 129.382 46.8 129.695 46.4924C130.164 47.2493 130.166 48.3026 130.15 49.2111L130.008 48.9623C129.511 48.9694 129.385 48.941 128.896 48.8242Z" fill="#9A9B9E"/>
</g>
<defs>
<clipPath id="clip0_9_855">
<rect width="184.629" height="115" fill="white"/>
</clipPath>
</defs>
</svg>
