<svg width="185" height="120" viewBox="0 0 185 120" fill="none" xmlns="http://www.w3.org/2000/svg">
<g clip-path="url(#clip0_9_1016)">
<path d="M0 0H157.079H184.688V0.636667V120H141.964H128.67H116.404H70.4488H55.8595H55.8004H46.1036H40.5763H0V0.603697V0Z" fill="#1D2B4B"/>
<path d="M0 0H157.079H184.688V0.636667V120H141.964C142.181 115.166 143.055 110.374 143.273 105.57C143.454 101.564 144.184 97.7031 144.471 93.7555C144.776 92.4909 144.452 91.9297 145.632 91.0346C145.954 92.6853 148.419 101.008 149.363 101.483C151.668 102.641 162.857 99.0809 165.053 98.2768C166.955 98.2114 177.954 93.4986 179.95 92.4009C179.422 91.1781 177.495 86.9477 178.158 85.9166C178.733 85.6078 179.126 85.7306 179.735 85.9069L179.783 85.7685C179.364 82.9498 178.229 80.7785 177.529 78.1177C176.326 73.5578 175.059 69.0231 173.752 64.4923C173.191 62.5528 173.073 60.0204 172.683 57.9973C171.792 53.3781 170.955 48.7828 169.184 44.397C168.511 42.7079 168.013 40.8257 167.207 39.2011C163.788 32.3159 158.283 26.0477 151.07 23.0677C148.344 21.8297 145.402 21.1173 142.642 20.0149C137.728 18.053 132.698 16.3177 127.92 14.0428C125.939 13.0996 123.934 11.9773 121.976 11.0886C118.597 9.5552 116.537 8.49112 113.881 5.87848C113.035 4.99597 111.954 3.99602 110.684 3.89195C104.223 3.36245 97.633 4.35779 91.1452 4.3385C87.7461 4.30291 84.349 4.16571 80.9582 3.92709C78.2188 3.75424 75.4643 3.50887 72.7216 3.65624C71.352 3.72983 70.6225 3.94526 69.5331 4.73859C68.2847 5.59424 67.403 7.32381 66.0437 8.06848C59.4455 11.6826 52.9617 15.4734 45.8104 17.934C45.5061 18.0388 45.0925 18.2141 44.7988 18.3479C40.0382 20.5172 34.7734 22.0168 30.0921 24.3009C20.1584 29.1479 14.397 40.4029 12.0014 50.7476C11.675 52.0409 11.2021 53.3212 10.9203 54.6244C9.71958 60.1785 9.0147 65.8429 7.26543 71.2685C6.48584 73.6864 6.09191 76.1433 5.41152 78.5689C4.8564 80.548 3.91016 82.6446 3.10973 84.5375C3.70065 84.8331 3.78566 85.132 3.98685 85.2132C4.35785 85.3768 4.71615 85.4841 4.93685 85.8157C5.08255 86.4243 3.00821 90.7323 2.57245 91.5559C4.72446 93.7861 9.12055 94.9211 11.9166 96.2395C14.2532 97.3414 16.9155 97.8533 19.2846 98.8201C21.2967 99.551 23.4175 99.954 25.4674 100.523C28.2727 101.302 30.4655 101.951 33.4302 101.95C34.3523 100.823 35.0598 99.1881 35.4784 97.7989C36.111 95.6988 36.2116 92.1213 38.0351 90.6778C38.2852 91.4062 38.4814 95.9095 38.8195 97.4016C38.9272 98.7779 39.6333 103.062 39.5688 104.141C39.4562 106.021 40.9711 119.313 40.5763 120H0V0.603697V0Z" fill="#D1C8B6"/>
<path d="M0 0H157.079H184.688V0.636667L159.182 0.611079L0 0.603697V0Z" fill="#64747D"/>
<path d="M3.1098 84.5376C3.70072 84.8331 3.78573 85.1321 3.98692 85.2133C3.11313 85.3437 2.92603 86.9803 2.66867 87.7866C2.62727 86.3603 2.69573 85.9049 3.1098 84.5376Z" fill="#343F4D"/>
<path d="M69.533 4.73853C70.6223 3.94519 71.3518 3.72977 72.7215 3.65617C75.4642 3.50881 78.2187 3.75418 80.958 3.92703C84.3489 4.16565 87.746 4.30285 91.145 4.33844C97.6329 4.35773 104.223 3.36238 110.684 3.89188C111.954 3.99596 113.035 4.99591 113.881 5.87841C113.784 5.94758 113.602 6.09006 113.572 6.20145C113.239 7.46697 112.873 8.56578 112.29 9.74902C111.4 11.5546 110.155 13.3083 108.727 14.7363C105.741 17.7214 102.576 20.5902 99.199 23.1265C97.6087 24.3439 95.9879 26.0071 94.162 26.8659C92.259 27.7608 89.6713 27.5765 87.8831 26.5077C85.4304 25.0417 83.3917 22.9201 81.1779 21.1167C79.4128 19.6788 77.6215 18.2928 75.975 16.7228C71.9991 12.9939 69.7164 10.3397 69.533 4.73853Z" fill="#070A1E"/>
<path d="M89.1239 17.4265C90.1112 17.4006 91.0145 17.4242 92.0024 17.4545C92.9317 18.0809 94.27 19.4706 94.0026 20.703C93.8783 21.2753 93.2485 21.5678 92.7791 21.8555C90.7966 22.7513 89.843 23.1076 88.2634 21.3999C88.6037 20.1313 88.7892 18.7451 89.1239 17.4265Z" fill="#070F29"/>
<path d="M23.7753 66.3791L23.5543 66.2828L23.3947 66.4249C20.5368 63.9454 20.9529 61.5194 21.1286 58.1548C21.145 57.8405 19.4369 54.5316 19.6031 53.7973C19.7331 53.8469 21.2718 57.5111 21.3432 57.8446C21.9664 60.755 23.8178 62.8126 25.2755 65.3149C25.6184 65.9034 25.885 66.9728 26.2995 67.3571L26.4611 67.3306C27.0727 65.8535 23.8337 62.1386 23.4591 60.1364C23.2449 58.9913 21.6869 56.8648 21.7751 55.3456C21.7038 54.3237 20.686 50.6384 21.8691 50.3861C25.2009 49.6756 26.9369 57.5244 28.031 59.6116C28.8337 61.1431 28.9022 62.4302 29.5361 63.4204C30.4035 62.583 31.0074 61.7908 31.8094 60.9113C32.0481 60.6842 33.5744 59.9688 33.6638 59.7746C34.5303 57.8914 34.7008 55.5775 35.5476 53.6957C35.9275 52.8513 38.02 49.6428 38.982 49.6072L39.1699 49.8038C39.1318 50.8408 36.7605 55.059 36.3238 56.5584C34.7335 62.0192 35.7882 64.6089 37.4944 69.6684C37.2902 70.2577 36.9686 71.2751 36.7247 71.8128C37.8107 71.7458 38.7148 71.6735 39.8083 71.7557C39.3962 72.9191 39.2164 73.8305 39.0399 75.0563C38.711 76.011 38.9145 77.0149 38.866 78.0038C38.7678 80.0104 38.6803 82.0207 38.6031 84.0275C38.5311 85.9042 38.9068 88.9113 38.0351 90.6778C36.2117 92.1213 36.111 95.6988 35.4785 97.7989C35.0599 99.188 34.3524 100.823 33.4303 101.95C30.4655 101.951 28.2727 101.302 25.4675 100.523C23.4175 99.954 21.2968 99.551 19.2847 98.8201C19.767 98.3309 20.0432 98.5225 20.7201 98.4682C21.1719 97.9667 21.1608 97.0282 21.4143 96.8023C22.7157 95.6428 23.7597 94.5612 24.8808 93.228C24.8226 93.1073 24.7896 93.0317 24.743 92.906C25.2433 92.5393 25.5861 92.9342 26.0969 92.2157C27.0734 90.8424 26.712 89.7323 26.6252 88.1652C26.5454 86.5787 26.4005 85.2116 26.5966 83.6138C26.8383 81.6444 27.4448 79.4919 27.7869 77.5589C27.926 76.7723 27.4354 74.9347 27.5081 74.0107C27.5234 73.8154 27.2976 72.981 27.2655 72.7257C27.691 71.8242 27.1817 71.8746 26.7287 71.276C26.2168 70.5999 24.6453 68.5028 24.5594 67.7167C24.3472 67.1981 24.0846 66.8401 23.7753 66.3791Z" fill="#020516"/>
<path d="M146.006 71.7128L146.362 71.7823C146.518 71.3341 146.089 69.8265 146.311 68.7135C146.865 65.9255 148.041 63.0325 148.21 60.1719C148.275 59.0739 148.446 56.8991 148.87 56.173L149.027 56.1287C149.708 57.3697 150.327 58.9249 151.751 59.3649C152.925 59.7276 152.623 60.8543 153.009 61.2022L153.182 61.2268C154.316 58.8686 156.159 54.0723 157.398 52.1473L157.485 52.2133C157.378 52.4739 156.833 53.8781 156.735 54.0152C153.482 58.5132 159.748 57.1713 159.901 61.2736L160.019 61.356C160.996 59.7411 161.695 58.0794 162.451 56.3568C162.513 56.215 162.816 55.3691 162.866 55.3468C162.271 58.335 159.251 63.702 157.588 66.3655C157.61 66.3312 157.344 69.6787 157.339 69.8847C157.471 69.7584 157.576 69.3114 157.643 69.0999C158.586 66.0803 164.576 58.4702 164.821 55.9884L164.991 55.8938C165.136 56.6634 163.121 59.791 162.821 60.7069C162.821 60.7069 163.066 61.184 163.066 61.1843C162.981 62.2576 162.784 63.3144 162.831 64.3788C163.007 64.0048 163.542 62.731 163.876 62.5875L163.979 62.8079C163.029 64.862 161.536 66.0336 160.692 67.2676C159.635 68.815 155.298 75.5415 154.904 76.9604L155.025 77.1944L155.434 77.3118C156.196 79.6628 155.919 80.5374 155.207 82.8262C155.03 84.7298 156.326 87.0058 156.493 88.9262C156.527 89.3189 154.986 91.7807 155.487 92.3032C156.975 93.8534 158.255 94.5387 158.906 96.712C159.026 97.1088 160.423 98.18 160.839 98.3396C160.795 98.3172 161.016 98.8773 161.108 98.9866C162.226 98.9644 164.676 98.1549 165.053 98.2769C162.857 99.0809 151.667 102.641 149.362 101.483C148.419 101.008 145.953 92.6854 145.632 91.0347C145.564 90.3199 144.632 89.5419 144.119 89.0405C144.159 88.1343 144.404 87.3319 144.443 86.5047C144.384 86.0683 143.634 84.517 143.672 84.1842C143.918 82.0657 144.347 72.6077 146.006 71.7128Z" fill="#020415"/>
<path d="M46.1035 120C47.0855 117.807 47.7595 115.443 48.71 113.236L51.8907 105.814C52.6313 104.097 53.342 102.386 53.9998 100.621C54.2325 99.9973 55.0673 95.5483 55.0609 95.5536L55.1265 95.9508C55.346 95.7735 56.2712 95.029 56.3667 94.8796C57.2469 93.5004 58.7246 92.101 60.1261 93.7657C60.5097 94.2214 60.6625 94.8661 61.102 95.2091C61.2159 95.9777 60.9221 97.6552 60.4196 98.2018C59.2634 99.4594 58.8397 100.702 58.3077 102.303C57.6546 104.269 56.6797 106.166 55.9048 108.088C55.1991 110.296 54.6459 112.731 54.0642 114.984L53.9871 114.983C52.3711 114.966 52.0579 116.848 51.1954 117.047L50.8385 116.93L50.9175 116.894L50.8576 116.945C50.39 117.349 49.7831 117.962 49.3658 118.42C49.6924 118.578 50.0969 118.652 50.2884 118.881L50.3145 119.126C49.9592 119.123 49.6757 119.062 49.3998 119.212C49.8727 119.484 50.0353 119.43 50.5324 119.56C50.2503 119.55 49.8091 119.489 49.5932 119.628C51.0664 120.069 55.0175 119.505 55.8003 120H46.1035Z" fill="#070F29"/>
<path d="M116.404 120C118.056 119.365 120.326 120.234 120.981 119.181C120.857 118.414 121.527 118.097 121.67 117.448C121.767 117.002 121.6 116.202 121.516 115.732C121.827 115.388 121.836 115.484 121.877 115.096C121.621 114.525 120.293 113.696 119.844 112.887C118.833 111.271 119.283 109.535 119.17 107.777C119.142 107.344 118.591 106.819 118.621 106.239C118.653 105.576 119.357 103.196 119.9 102.95C121.228 103.37 120.966 104.458 121.526 105.494C121.983 106.339 121.665 108.886 122.224 109.561C123.095 109.545 123.076 109.071 124.068 109.512C124.358 109.349 124.382 109.292 124.557 109.006C124.491 108.775 124.285 108.209 124.371 108.027C126.056 111.391 127.284 114.944 127.93 118.617C128.018 119.118 128.177 119.77 128.669 120H116.404Z" fill="#070F29"/>
<path d="M55.8596 120C56.2598 119.651 57.1026 119.795 57.1354 119.597C57.6147 116.713 59.7788 114.261 60.8604 111.529C61.4018 110.161 61.8966 108.704 62.3025 107.277C62.8456 107.62 64.1552 109.727 64.2822 110.386C64.3784 110.885 63.7333 113.558 63.6954 114.186C63.617 115.477 64.2641 117.058 64.7429 118.205C64.9625 118.335 65.1254 118.412 65.3571 118.521C65.4221 118.988 65.2818 119.2 65.5068 119.44C67.1786 119.993 69.9303 119.641 70.4489 120H55.8596Z" fill="#070F29"/>
<path d="M38.0352 90.6778C38.9068 88.9114 38.5311 85.9043 38.6032 84.0276C38.6803 82.0207 38.7678 80.0105 38.866 78.0039C38.9145 77.0149 38.711 76.0111 39.0399 75.0564C39.3113 75.7921 39.0859 78.2266 39.271 79.2051C39.4534 80.1689 40.859 83.1197 41.8346 83.1531C42.0453 82.8285 41.9734 82.7772 41.9858 82.3241C42.3078 83.5284 42.4559 89.563 41.9567 90.9875C41.8368 91.3295 40.1691 93.2562 39.6274 93.6436C39.238 93.6633 39.3927 93.6954 39.0409 93.515C38.9115 93.1876 38.8139 92.9519 38.6555 92.6345C38.0875 93.1262 39.4273 96.6256 38.8196 97.4016C38.4815 95.9096 38.2852 91.4063 38.0352 90.6778Z" fill="#070F29"/>
<path d="M144.471 93.7555C144.166 92.887 144.653 92.6475 144.288 91.9566L144.151 91.9794L144.144 93.2362L144.084 93.2811C144.053 93.1907 144.025 93.0943 143.985 93.0071C143.641 92.2528 143.906 88.0762 143.939 86.9996C143.582 86.6188 143.21 86.2271 142.802 85.9058C141.991 85.2654 142.154 85.2854 141.248 85.3635L141.158 85.2299C142.205 84.8222 143.046 86.0059 143.92 86.5208L144.081 86.4513C144.254 84.8733 142.321 83.2089 142.314 81.601C142.646 82.1809 142.586 82.3002 143.079 82.8971L143.297 82.9014C143.575 82.528 144.459 74.5003 144.618 73.4434C144.653 73.2101 144.534 73.1898 144.274 73.1278C143.426 72.9252 143.175 72.3629 142.459 71.7373C142.962 71.6089 143.52 72.7703 144.343 72.7897C144.916 71.0365 143.559 71.3533 142.989 70.854C143.396 70.816 145.56 71.5228 146.006 71.7128C144.347 72.6076 143.918 82.0656 143.672 84.1841C143.634 84.5169 144.384 86.0682 144.443 86.5046C144.404 87.3319 144.159 88.1343 144.12 89.0405C144.632 89.5418 145.564 90.3198 145.632 91.0346C144.452 91.9297 144.776 92.4909 144.471 93.7555Z" fill="#070F29"/>
<path d="M23.7754 66.3792C24.0847 66.8402 24.3473 67.1982 24.5595 67.7168C24.1375 67.527 24.0784 67.4759 23.7319 67.1719C23.5652 66.7361 23.5959 66.8961 23.7754 66.3792Z" fill="#070F29"/>
<path d="M86.1902 48.5558C88.2991 48.3505 91.0963 48.5652 93.0474 48.4796C99.4181 48.2001 100.831 48.8582 100.785 55.5699C100.768 58.0046 100.901 60.8731 100.59 63.3559C100.281 65.8173 97.1007 68.5162 95.2152 69.8659C93.9432 70.7182 92.7852 71.524 91.3616 72.1074C89.9513 71.2138 88.5031 70.3787 87.1793 69.3563C84.9248 67.6149 82.935 65.6434 82.5676 62.7041C82.2877 60.4658 82.2248 51.3008 83.517 49.6981C84.166 48.8931 85.2179 48.6761 86.1902 48.5558Z" fill="#94805E"/>
<path d="M88.0706 63.9789C89.4225 63.2002 88.9344 62.759 91.0046 62.8597C91.4006 62.8375 91.5275 62.7654 91.844 62.9228C92.2155 64.1746 93.2445 64.7093 93.0579 65.4004C92.7195 65.5722 92.0447 65.3671 91.6945 65.2424C90.6263 65.4952 88.9794 65.4024 88.2888 65.6049L87.847 65.4571C87.2998 64.8251 87.5725 64.532 88.0706 63.9789Z" fill="#A78C61"/>
<path d="M88.0706 63.9789C88.7368 64.5096 88.4758 64.8269 88.2888 65.6049L87.847 65.4571C87.2998 64.8251 87.5725 64.532 88.0706 63.9789Z" fill="#B7A782"/>
<path d="M90.9891 60.435C91.2668 59.3261 91.4313 58.1757 90.8441 57.0894C90.6008 56.6395 89.9145 56.1075 89.801 55.6243C90.2018 55.3953 90.6796 55.1318 91.0608 54.8724C91.5288 54.5541 92.09 53.3349 92.681 53.3968C93.4343 54.5727 91.9042 56.7255 91.7203 58.0156C91.5325 59.3342 92.3588 59.9554 91.3063 60.9996L90.9891 60.435Z" fill="#D2C28F"/>
<path d="M93.1476 62.0509C94.1304 62.3254 96.3768 64.435 96.3136 65.3916C95.6777 65.4968 95.1544 65.4731 94.5159 65.4659C94.0984 64.5614 92.9199 62.8744 93.1476 62.0509Z" fill="#A78C61"/>
<path d="M90.9892 60.4348L91.3064 60.9994C90.9941 61.4023 90.5201 61.5797 90.0249 61.4781L89.9556 61.2903C90.0956 60.9238 90.6336 60.6583 90.9892 60.4348Z" fill="#B7A782"/>
<path d="M116.738 47.8788C117.292 48.2702 117.429 48.3549 118.068 48.5775C119.291 47.9982 120.143 47.8563 120.33 49.5784C120.519 51.3 120.253 53.1675 120.66 54.8777C121.021 55.8191 121.857 56.8341 122.622 57.4819L122.661 57.4398C124.402 55.5444 124.87 52.7882 128.07 52.6973C129.19 52.6655 130.707 52.9139 131.486 53.735C133.455 55.8146 132.85 59.1083 132.089 61.4437C131.818 62.2497 131.521 63.0964 131.278 63.9066C130.683 63.9155 130.123 63.931 129.529 63.8888C128.938 63.8853 128.065 63.7658 127.458 63.7011C126.681 63.5798 126.3 63.4259 125.565 63.1572L126.04 64.386C125.964 64.6293 125.973 64.6253 125.816 64.8209C125.479 64.8617 125.251 64.8622 124.954 65.03C124.335 64.4766 122.786 62.7746 122.007 63.5259C121.724 63.5796 121.477 63.438 121.136 63.3486C119.92 62.4244 117.582 60.7398 116.791 59.5123C115.631 58.1995 115.041 56.0472 115.221 54.3275C115.364 53.9635 115.923 52.8723 115.928 52.6184C115.964 50.9675 115.18 51.4105 115.968 49.7466C116.067 49.3846 116.567 48.2757 116.738 47.8788Z" fill="#BBA371"/>
<path d="M116.738 47.8788C117.292 48.2702 117.429 48.3549 118.068 48.5775C119.291 47.9982 120.143 47.8563 120.33 49.5784C120.519 51.3 120.253 53.1675 120.66 54.8777L120.615 55.1512C120.306 55.2056 120.234 55.0319 119.864 55.168C118.866 55.5343 117.361 57.3761 116.612 58.2166C116.469 58.7476 116.748 59.0351 116.791 59.5123C115.631 58.1995 115.041 56.0472 115.221 54.3275C115.364 53.9635 115.923 52.8723 115.928 52.6184C115.964 50.9675 115.18 51.4105 115.968 49.7466C116.067 49.3846 116.567 48.2757 116.738 47.8788Z" fill="#D2C28F"/>
<path d="M116.737 47.8788C117.292 48.2702 117.429 48.3549 118.067 48.5775C117.804 48.9193 117.612 49.1993 117.271 49.4684C117.034 49.7918 116.875 50.1042 116.513 50.2169L116.329 50.1559L115.968 49.7466C116.067 49.3846 116.567 48.2757 116.737 47.8788Z" fill="#B7A782"/>
<path d="M116.329 50.1559C116.611 49.6955 116.713 49.3264 117.271 49.4685C117.034 49.7918 116.875 50.1042 116.513 50.217L116.329 50.1559Z" fill="#66665D"/>
<path d="M130.061 62.1733C130.999 62.1319 131.31 61.9313 132.089 61.4437C131.818 62.2497 131.521 63.0964 131.278 63.9067C130.683 63.9156 130.123 63.931 129.529 63.8888C129.555 63.8268 129.605 63.5888 129.623 63.5081C129.456 63.1672 129.452 63.2452 129.064 63.0248C129.594 63.0586 130.775 63.151 130.983 62.5015C130.678 62.1567 130.645 62.2578 130.061 62.1733Z" fill="#94805E"/>
<path d="M128.27 62.8175C128.038 62.3578 128.023 62.4966 128.101 62.0612L128.36 61.8954C128.925 61.8368 129.504 62.0302 130.061 62.1734C130.645 62.2579 130.678 62.1567 130.983 62.5015C130.776 63.1511 129.594 63.0586 129.065 63.0248C128.708 62.8509 128.658 62.8444 128.27 62.8175Z" fill="#66665D"/>
<path d="M128.27 62.8175C128.658 62.8443 128.708 62.8509 129.064 63.0248C129.452 63.2452 129.456 63.1672 129.623 63.5081C129.605 63.5888 129.555 63.8268 129.528 63.8888C128.938 63.8853 128.065 63.7658 127.458 63.7011C127.984 63.2968 128.017 63.2886 128.674 63.21C128.456 63.0826 128.396 63.0365 128.27 62.8175Z" fill="#B7A782"/>
<path d="M69.8587 54.156C70.1915 54.1243 70.253 54.1123 70.5726 54.2021L70.5833 54.3883C69.6516 55.6485 64.7764 57.5755 63.2274 58.2754C60.1601 59.6339 57.3667 61.5022 54.3472 62.9302C52.0538 64.0148 48.6724 65.1349 48.8157 61.2877C49.0523 58.9961 49.9624 57.6228 51.5185 56.0437C51.3851 56.8981 51.2299 57.847 51.3625 58.7078C51.4301 59.1467 51.5991 59.6365 51.9909 59.8901C53.536 60.8902 67.2149 54.8344 69.8587 54.156Z" fill="#94805E"/>
<path d="M122.007 63.526C122.786 62.7747 124.335 64.4767 124.954 65.0301C125.251 64.8623 125.479 64.8618 125.816 64.821C125.973 64.6254 125.964 64.6294 126.04 64.3861C126.377 64.9953 126.797 65.7095 127.106 66.3211C127.647 67.1252 128.902 68.4484 129.628 69.1565C128.708 69.4906 127.536 70.1965 127.202 68.9073L127.01 68.9216C126.69 69.328 126.309 69.9038 125.859 70.1123C125.345 70.1504 124.849 69.5601 124.446 69.5596C121.104 69.5555 119.379 69.3904 116.319 67.8746C116.753 67.7141 118.13 67.2298 118.452 66.9828C119.499 66.6483 120.449 66.4273 121.28 65.7006C121.314 65.5699 121.365 65.0576 121.386 64.8939L121.456 64.8743L121.548 65.543C121.773 65.0317 121.903 64.1034 122.007 63.526Z" fill="#D1C8B6"/>
<path d="M122.007 63.526C122.786 62.7747 124.335 64.4767 124.954 65.0301C125.251 64.8623 125.479 64.8618 125.816 64.821C125.973 64.6254 125.964 64.6294 126.04 64.3861C126.377 64.9953 126.797 65.7095 127.106 66.3211C126.843 66.4311 126.578 66.5376 126.321 66.6606L126.175 66.9167C124.335 67.5317 122.816 67.0074 121.548 65.543C121.773 65.0317 121.903 64.1034 122.007 63.526Z" fill="#443625"/>
<path d="M124.953 65.0301C125.251 64.8622 125.478 64.8618 125.816 64.821C125.973 64.6254 125.964 64.6294 126.04 64.3861C126.377 64.9952 126.797 65.7095 127.106 66.3211C126.842 66.431 126.578 66.5376 126.321 66.6606C125.98 66.1471 125.375 65.5054 124.953 65.0301Z" fill="#B7A782"/>
<path d="M17.8226 65.4604C18.3713 66.6736 17.8843 68.7541 19.038 70.9454C20.6768 74.058 23.2451 76.5401 24.5899 79.6779C24.7393 80.0265 24.6967 80.3485 24.5228 80.6749C23.5517 81.0635 22.7603 79.107 22.3028 78.3286C20.8618 76.1845 19.4771 75.0851 17.9079 73.2551C17.6721 72.9801 15.0014 68.0999 14.9058 67.8017L15.0355 67.7597C15.1778 68.0142 15.257 68.1439 15.4319 68.3768C16.1914 68.4984 16.417 68.1713 17.0967 68.1706C17.3972 68.1703 17.5738 68.6859 18.11 68.6061C17.9934 67.608 17.7463 66.4147 17.8226 65.4604Z" fill="#070F29"/>
<path d="M167.258 63.589C168.193 65.015 164.033 72.5241 163.125 73.995C161.465 76.686 160.161 78.08 159.578 81.329C159.185 80.9768 160.151 79.3894 159.94 78.8343C159.636 78.8258 159.537 78.9402 159.282 79.1232L159.186 79.1938L158.918 79.1906C158.319 79.6436 157.996 79.8394 157.807 80.5647L157.784 80.6614L157.622 80.7149C157.461 80.0422 159.581 76.6809 160.018 75.9154C160.831 74.4913 162.241 72.97 163.028 71.5552C164.494 68.9167 165.729 66.189 167.258 63.589Z" fill="#070F29"/>
<path d="M118.452 66.9827C119.068 66.2826 120.178 66.3452 120.829 65.7535C120.778 65.4171 120.417 65.1088 120.161 64.815C120.207 63.9595 121.425 63.8381 120.114 62.8224C118.171 61.3168 115.785 59.6599 115.328 57.0595C115.148 57.2162 115.206 57.1708 115.17 57.4878C115.479 57.9935 115.861 59.0052 115.592 59.5738L115.449 59.5162C115.28 59.1708 115.253 59.047 115.244 58.662L115.14 58.7824C114.082 58.3271 114.703 54.9657 115.221 54.3275C115.041 56.0472 115.631 58.1995 116.791 59.5124C117.582 60.7398 119.92 62.4245 121.136 63.3486C121.477 63.438 121.724 63.5796 122.007 63.5259C121.903 64.1033 121.773 65.0317 121.548 65.5429L121.456 64.8743L121.386 64.8938C121.365 65.0576 121.314 65.5698 121.28 65.7006C120.449 66.4272 119.498 66.6483 118.452 66.9827Z" fill="#343F4D"/>
<path d="M121.136 63.3486C121.477 63.438 121.724 63.5796 122.008 63.5259C121.903 64.1033 121.773 65.0317 121.548 65.543L121.456 64.8743L121.386 64.8939C121.365 65.0576 121.314 65.5698 121.28 65.7006C121.206 65.5494 120.791 65.1211 120.605 64.8353C120.579 64.307 120.886 63.9253 121.136 63.3486Z" fill="#B7A782"/>
<path d="M125.72 43.5128C126.086 43.5406 126.68 43.5515 126.939 43.8141C127.531 44.4165 127.742 45.0469 127.134 45.7055C126.64 45.8883 126.595 45.7884 126 45.6982C125.161 45.578 124.568 45.5719 124.35 44.622C124.43 43.8754 125.068 43.6213 125.72 43.5128Z" fill="#C7CAD5"/>
<path d="M119.501 42.9377C120.301 43.1431 121.82 43.8069 121.889 44.7633C121.773 45.1438 121.675 45.1872 121.358 45.4066C118.809 45.9266 118.612 45.0708 119.501 42.9377Z" fill="#C7CAD5"/>
<path d="M127.877 71.8127C128.195 72.0996 128.232 72.2169 128.206 72.6516C128.131 73.8626 128.038 74.5504 126.844 74.9003L126.628 74.7171C126.476 74.0293 127.378 72.307 127.877 71.8127Z" fill="#64747D"/>
<path d="M120.323 71.688C120.462 71.8213 120.451 71.8394 120.538 72.0118C120.506 72.8792 120.144 74.1253 119.528 74.7693L119.277 74.4754C119.055 73.4169 119.338 72.2387 120.323 71.688Z" fill="#8A9199"/>
<path d="M124.242 71.9207C124.39 71.9345 124.471 72.0023 124.598 72.0805C124.673 72.6811 123.725 74.1907 123.403 74.7575C123.157 74.761 123.238 74.7642 122.999 74.6208C122.645 73.8006 123.523 72.4026 124.242 71.9207Z" fill="#8A9199"/>
<path d="M91.3482 29.2257L91.6196 29.369C91.894 29.9226 91.8131 31.5014 91.4194 31.9965C91.1929 31.8842 91.1267 31.8337 90.9224 31.6821C90.6199 30.9257 91.0755 30.0028 91.3482 29.2257Z" fill="#343F4D"/>
</g>
<defs>
<clipPath id="clip0_9_1016">
<rect width="184.688" height="120" fill="white"/>
</clipPath>
</defs>
</svg>
