<svg width="190" height="117" viewBox="0 0 190 117" fill="none" xmlns="http://www.w3.org/2000/svg">
<g clip-path="url(#clip0_9_267)">
<path d="M0 0H189.668V1.19831V117H188.544H145.6H139.212H130.578H81.3702H47.584H0V116.874V18.1157V0ZM150.763 78.6466C150.977 79.0492 150.845 78.9334 151.248 79.0945C152.26 76.3877 152.339 74.1252 153.046 72.1195C152.736 71.8142 152.772 71.7354 152.432 71.7325C151.531 74.6839 151.389 75.7862 150.763 78.6466Z" fill="#D9D5CE"/>
<path d="M152.432 71.7325C152.772 71.7354 152.736 71.8142 153.046 72.1195C152.339 74.1252 152.26 76.3877 151.248 79.0945C150.845 78.9334 150.977 79.0492 150.763 78.6466C151.389 75.7862 151.531 74.6839 152.432 71.7325Z" fill="#020202"/>
<path d="M27.7352 54.9157L27.8421 54.6442C28.0642 55.0052 27.8963 57.9532 27.8525 58.7367C27.7807 60.0215 30.8233 67.9651 32.0066 67.3204C33.2193 64.6956 31.4688 65.2624 30.8563 63.2467C30.5553 62.2557 28.7206 57.7299 29.0905 57.014C29.1722 57.1696 29.1893 57.1603 29.2061 57.324C29.5035 58.7855 30.1173 60.6461 30.9075 61.9223C31.2985 62.5538 31.7749 63.1283 32.1416 63.7956C32.7287 65.1451 33.2968 66.5028 33.8457 67.8683C34.1197 68.556 34.5999 69.8855 34.9255 70.4974C35.2268 71.4777 35.9824 72.9514 36.4144 73.9589C37.7822 77.1494 38.1125 79.9277 38.4403 83.3659L38.3555 83.5238C38.2382 83.4966 37.9993 83.4481 37.8969 83.4114L37.8265 83.7256C38.3151 84.6979 38.7083 85.7706 39.3932 86.6146C39.6864 87.8742 40.3339 90.4194 40.4543 91.6009L40.4497 91.7522C40.3157 92.1451 40.4072 92.0365 40.1313 92.2618C39.9815 92.2517 39.8691 92.2498 39.7208 92.22C38.0441 93.6748 37.6109 99.9342 36.6356 102.533C36.556 103.288 35.9277 104.368 35.5382 105.02C32.4625 105.226 25.5189 104.156 22.2663 103.641C21.838 103.574 19.8941 102.614 19.2803 102.419C18.5702 102.194 18.0295 102.288 17.4795 101.915L17.657 101.812C19.428 101.791 20.7558 102.871 22.4913 103.319C23.7888 103.654 23.2884 103.216 24.1891 103.106C25.5349 102.941 26.6648 102.678 27.886 102.04C29.1836 101.391 28.8094 101.066 29.3626 100.005C29.8292 99.1101 30.6002 98.1913 30.9519 97.2115C31.384 95.9968 30.3854 92.7315 30.6075 91.9988L30.7688 92.0686C30.8016 91.9886 30.8178 91.95 30.8145 91.8613C30.7429 89.9855 31.7437 88.004 32.0845 86.2614C32.3392 84.3738 32.3548 82.2915 32.2041 80.3867C32.1143 79.2524 32.025 78.012 32.2629 77.0083C32.3231 76.7539 30.5901 75.2259 30.3642 74.7928C29.6887 73.2934 29.0114 71.8143 28.3172 70.3227C27.4056 68.3641 24.8299 66.0116 24.1388 64.0744C24.7709 64.3749 24.7481 65.0626 25.276 65.4224L25.5437 65.3393C26.6197 64.2743 25.95 64.6781 26.0838 64.0456L26.3478 64.1526C26.538 64.1044 27.1815 63.3558 27.5254 63.0875L27.5754 63.0479L27.6444 62.995C27.5803 62.5565 27.2021 62.2753 26.8337 62.0813L26.7971 61.937L27.02 61.8106C27.4792 62.0149 28.6904 64.5826 29.3285 64.8248C29.3834 64.0134 28.0804 61.4147 27.8757 60.3682C27.5214 58.5571 27.6164 56.7519 27.7352 54.9157Z" fill="#A9A8A7"/>
<path d="M37.8265 83.7256C38.315 84.6979 38.7082 85.7706 39.3932 86.6146C39.6864 87.8742 40.3339 90.4194 40.4543 91.6009L40.4496 91.7522C40.3157 92.1451 40.4071 92.0365 40.1313 92.2618C39.9815 92.2517 39.8691 92.2498 39.7208 92.22C38.044 93.6748 37.6109 99.9342 36.6356 102.533C36.4491 102.082 36.5851 101.912 36.5616 101.842C36.3652 101.251 35.7345 99.8398 35.6376 99.2466C35.4501 98.098 35.6306 96.8729 35.4642 95.7328C35.333 96.3551 35.4741 96.2729 35.2141 96.9504C35.0049 96.5819 35.2778 92.8916 35.3007 92.218C35.3365 91.1678 34.4514 85.4845 34.7042 84.959C34.7605 85.5671 34.821 86.1748 34.8859 86.7821C35.1558 86.6363 35.5603 85.6042 35.7271 85.242C36.4106 84.8111 36.7741 84.7486 36.8346 83.9076L37.0702 84.2496C37.1394 84.2545 37.3338 84.3152 37.412 84.337L37.4394 84.4237L37.7416 84.3297L37.8205 84.1353L37.6492 83.8045L37.8265 83.7256Z" fill="#757574"/>
<path d="M37.8266 83.7256C38.3152 84.6979 38.7083 85.7706 39.3933 86.6146C39.6865 87.8742 40.334 90.4194 40.4544 91.6009L40.4497 91.7522C40.2109 91.9235 40.1482 92.0031 39.8685 92.0239C38.7467 90.8233 37.9293 86.1504 37.0703 84.2496C37.1396 84.2545 37.3339 84.3152 37.4121 84.337L37.4395 84.4237L37.7417 84.3297L37.8206 84.1353L37.6493 83.8045L37.8266 83.7256Z" fill="#2F292B"/>
<path d="M34.4058 76.0648C36.3155 78.0978 37.0731 80.8413 37.8967 83.4114L37.8263 83.7256L37.649 83.8045L37.8204 84.1353L37.7414 84.3297L37.4392 84.4237L37.4118 84.337C37.3336 84.3152 37.1393 84.2545 37.07 84.2496L36.8344 83.9076C35.2243 80.4481 34.7568 79.8156 34.4058 76.0648Z" fill="#5C5B5A"/>
<path d="M165.381 36.9156C166.371 38.1004 166.829 39.0178 167.512 40.348C167.824 40.9539 168.873 43.6398 169.142 43.9137L169.108 44.3083C170.256 45.9265 174.26 59.0623 172.973 60.405C172.228 60.8651 171.003 60.7441 170.056 61.2055L169.803 61.1718C169.56 60.3811 170.388 59.6801 170.322 59.067C170.165 59.2732 167.551 64.6383 167.445 64.9563C167.355 64.9566 167.18 64.8251 167.083 64.7656L166.878 64.9926C166.899 64.5112 166.968 64.567 166.762 64.2064C165.573 63.8683 165.202 64.6228 164.3 64.9426C163.915 65.2746 163.365 65.7214 163.029 66.0815C161.381 65.5724 160.819 65.3826 160.732 63.4563C160.724 63.2641 160.844 63.2385 160.808 63.0205C159.87 64.1633 159.841 64.385 159.243 65.733L159.127 65.4723L158.854 65.1927C158.841 64.5525 159.247 64.5627 159.312 63.8543C159.858 62.8272 160.541 61.5065 160.906 60.4193L161.061 60.1198C161.092 60.0518 161.138 59.9477 161.152 59.8767C162.42 53.675 159.426 48.3996 156.583 43.158C156.793 43.2743 157.149 43.7343 157.741 44.1013C158.063 44.121 157.939 44.1441 158.251 43.8941C159.415 43.7815 159.32 43.4053 160.257 42.8781C160.369 42.8147 160.651 43.1268 161.1 42.8785C161.196 42.5763 161.227 42.4786 161.062 42.1617C160.136 40.376 158.722 41.8781 157.306 42.6343L157.301 42.5695C158.051 41.9553 159.742 40.2914 160.683 41.3962C160.896 41.6455 161.108 41.7565 161.415 41.83C161.786 41.7084 161.667 41.7719 161.901 41.3659L162.015 41.4666L161.919 42.1311L162.055 42.2138C162.445 42.0145 162.408 41.6555 162.669 41.3614C163.656 40.2492 164.841 39.3081 165.841 38.2043C165.859 37.8843 165.531 37.5818 165.402 37.0055L165.381 36.9156Z" fill="#D79F4E"/>
<path d="M165.381 36.9156C166.371 38.1004 166.829 39.0178 167.512 40.348C167.824 40.9539 168.873 43.6398 169.142 43.9137L169.108 44.3083L168.979 44.2994C168.731 43.7274 168.199 42.1725 167.937 41.8342C167.244 41.7843 164.586 44.7368 164.014 45.3965C164.135 46.4326 164.849 48.3884 164.726 49.2776C164.416 51.5187 162.41 53.1149 162.944 55.6269C163.357 57.5697 164.769 55.7757 165.764 56.9235C164.738 59.1494 163.52 60.6581 162.014 62.5504C161.555 61.6082 161.381 61.1232 161.061 60.1198C161.092 60.0518 161.138 59.9477 161.152 59.8767C162.42 53.675 159.426 48.3996 156.583 43.158C156.793 43.2743 157.149 43.7343 157.741 44.1013C158.063 44.121 157.939 44.1441 158.251 43.8941C159.415 43.7815 159.32 43.4053 160.257 42.8781C160.369 42.8147 160.651 43.1268 161.1 42.8785C161.196 42.5763 161.227 42.4786 161.062 42.1617C160.136 40.376 158.722 41.8781 157.306 42.6343L157.301 42.5695C158.051 41.9553 159.742 40.2914 160.683 41.3962C160.896 41.6455 161.108 41.7565 161.415 41.83C161.786 41.7084 161.667 41.7719 161.901 41.3659L162.015 41.4666L161.919 42.1311L162.055 42.2138C162.445 42.0145 162.408 41.6555 162.669 41.3614C163.656 40.2492 164.841 39.3081 165.841 38.2043C165.859 37.8843 165.531 37.5818 165.402 37.0055L165.381 36.9156Z" fill="#DA7C36"/>
<path d="M165.764 56.9235C166.226 56.3225 166.9 55.4517 167.277 54.8216L167.431 54.7946C167.81 55.9375 168.663 57.9404 169.138 59.1847C168.797 60.1382 167.487 64.1764 167.083 64.7655L166.878 64.9926C166.899 64.5112 166.968 64.567 166.762 64.2064C165.573 63.8683 165.202 64.6227 164.3 64.9425C163.915 65.2746 163.365 65.7213 163.029 66.0815C161.381 65.5723 160.819 65.3825 160.732 63.4563C160.724 63.2641 160.844 63.2385 160.808 63.0205C159.87 64.1633 159.841 64.385 159.243 65.733L159.127 65.4722L158.854 65.1926C158.841 64.5525 159.247 64.5626 159.312 63.8542C159.858 62.8272 160.541 61.5065 160.906 60.4193L161.061 60.1197C161.381 61.1231 161.555 61.6081 162.014 62.5503C163.52 60.6581 164.738 59.1493 165.764 56.9235Z" fill="#CDB583"/>
<path d="M159.127 65.4722C159.377 65.083 160.294 63.1567 160.339 62.7942C160.567 62.5457 160.73 62.296 161.043 62.2396C161.26 62.5694 161.058 63.233 161.225 63.8502C161.485 64.1505 161.79 64.4862 162.049 64.7759C163.295 66.1717 162.899 65.4793 164.301 64.9425C163.916 65.2745 163.365 65.7213 163.029 66.0814C161.381 65.5723 160.819 65.3825 160.732 63.4562C160.724 63.2641 160.844 63.2385 160.808 63.0205C159.87 64.1633 159.841 64.3849 159.243 65.7329L159.127 65.4722Z" fill="#A9A8A6"/>
<path d="M145.118 24.5469C146.418 24.9736 147.716 25.4112 149.009 25.8598C149.59 26.0446 150.601 26.3363 151.131 26.5596C153.601 27.2854 155.768 28.6115 157.949 29.9479C160.33 31.4077 162.526 33.2776 164.289 35.4444C164.527 35.7359 165.243 36.5934 165.381 36.9156L165.402 37.0055C165.531 37.5818 165.859 37.8842 165.841 38.2043C164.841 39.3081 163.656 40.2492 162.669 41.3613C162.408 41.6554 162.445 42.0144 162.055 42.2138L161.919 42.1311L162.015 41.4666L161.901 41.3659C161.667 41.7719 161.786 41.7083 161.415 41.83C161.108 41.7564 160.896 41.6455 160.683 41.3962C159.742 40.2914 158.051 41.9553 157.301 42.5695L157.306 42.6343C158.722 41.8781 160.136 40.376 161.062 42.1617C161.227 42.4786 161.196 42.5762 161.1 42.8785C160.651 43.1267 160.369 42.8147 160.257 42.8781C159.32 43.4053 159.415 43.7814 158.25 43.8941C157.939 44.1441 158.063 44.121 157.741 44.1012C157.149 43.7343 156.793 43.2742 156.583 43.1579C154.239 39.8451 151.001 36.8266 147.596 34.5929C146.502 33.8761 144.994 33.136 143.817 32.5061C143.443 32.4266 139.277 30.5029 138.662 30.2239C138.915 29.9527 139.205 29.3667 139.389 29.2036C141.107 27.6827 142.089 25.8141 144.295 24.9612C144.686 24.8295 144.518 24.8448 144.939 24.9231C145.025 25.0236 145.356 25.0272 145.529 25.0491L145.594 24.9535C145.217 24.7499 145.303 24.8569 145.118 24.5469Z" fill="#C1302C"/>
<path d="M145.118 24.5469C146.418 24.9736 147.716 25.4112 149.009 25.8598C149.59 26.0446 150.601 26.3363 151.131 26.5596C150.532 26.797 150.35 26.3298 149.605 26.5629C148.487 26.9125 141.269 30.6877 143.804 32.4084L143.817 32.5061C143.443 32.4266 139.277 30.5029 138.662 30.2239C138.915 29.9527 139.205 29.3667 139.389 29.2036C141.107 27.6827 142.089 25.8141 144.295 24.9612C144.686 24.8295 144.518 24.8448 144.939 24.9231C145.025 25.0236 145.356 25.0272 145.529 25.0491L145.594 24.9535C145.217 24.7499 145.303 24.8569 145.118 24.5469Z" fill="#7A2A2F"/>
<path d="M145.118 24.5469C146.418 24.9736 147.716 25.4112 149.009 25.8598C147.907 26.1343 146.759 25.9018 145.631 26.1008C145.584 26.1091 145.352 25.5693 145.361 25.5726C144.94 25.4257 144.641 25.2317 144.295 24.9612C144.686 24.8295 144.518 24.8448 144.939 24.9231C145.025 25.0236 145.356 25.0272 145.529 25.0491L145.594 24.9535C145.217 24.7499 145.303 24.8569 145.118 24.5469Z" fill="#60251E"/>
<path d="M0 0H189.668V1.19831L48.918 1.14801L14.7291 1.18007L5.3606 1.1959C4.34221 1.20107 1.27354 1.19114 0.442357 1.36503C0.29207 2.34165 0.364192 3.44795 0.358058 4.44696C0.315595 11.3611 0.443532 18.2697 0.332173 25.1843C0.322215 25.8025 0.331331 26.3612 0.27366 26.98C0.226645 25.5524 0.355186 18.9144 0 18.1157V0Z" fill="#A9A8A6"/>
<path d="M66.5813 8.88275C65.023 12.9459 68.5791 17.8385 69.8998 21.385C68.3843 22.4949 66.7486 22.8759 65.1873 23.6701C62.1807 25.1993 59.1751 26.3537 56.1088 27.6854C54.2009 28.514 50.629 29.863 48.8696 30.8454C47.0501 31.6215 45.4288 32.4569 43.6488 33.2842L43.7244 33.0386C44.5989 32.5816 45.6256 32.0099 46.5332 31.6643C45.8294 30.6819 45.75 30.965 45.2444 29.5083C43.7677 28.3939 40.1689 26.7299 38.2655 26.3715C37.8899 26.3008 37.1301 26.9059 36.4587 26.7846C37.8293 26.1262 40.7154 25.1593 42.2397 24.8213C44.4187 23.8017 47.7835 22.9963 50.1349 22.1706C53.5935 20.9558 56.9378 19.6646 60.3294 18.2698C61.3843 17.836 63.0589 17.4084 64.0339 16.8233C64.3869 16.6115 64.4185 14.9506 64.4464 14.4861C62.9547 14.9292 61.7833 15.3704 60.3574 15.9654C60.3636 15.476 60.1221 15.9157 59.8136 15.5083C59.9354 15.1584 60.2448 15.0147 60.5627 14.8078L60.4435 14.658C60.5425 14.5756 61.2226 14.1649 61.3724 14.0709C62.9349 13.306 63.9108 13.088 64.027 11.2197C64.0422 10.8698 63.8487 10.6658 63.7392 10.322C65.0607 9.86674 65.4622 9.71535 66.5813 8.88275Z" fill="#2F292B"/>
<path d="M36.4587 26.7845C37.8293 26.1262 40.7154 25.1593 42.2397 24.8212L42.1604 25.006C41.4117 25.293 39.3634 25.734 39.009 26.1266C39.0377 26.1275 39.5921 26.1261 39.5503 26.1019C41.3225 27.1207 43.9666 28.0252 45.4436 29.3145C45.9362 29.7444 45.9463 31.0035 46.7824 31.2874C47.3948 31.1204 47.825 30.7799 48.3914 30.7118L48.2712 30.6489L48.5056 30.5908L48.8696 30.8454C47.0501 31.6215 45.4288 32.4569 43.6488 33.2842L43.7244 33.0385C44.5989 32.5816 45.6256 32.0099 46.5332 31.6642C45.8294 30.6819 45.75 30.965 45.2444 29.5083C43.7677 28.3938 40.1689 26.7299 38.2655 26.3715C37.8899 26.3008 37.1301 26.9059 36.4587 26.7845Z" fill="#7A2A2F"/>
<path d="M122.351 8.70435C124.854 10.4528 127.425 11.2674 130.096 12.6428C131.056 13.1367 131.999 13.5834 132.989 14.0072C131.771 14.4759 126.992 11.023 125.168 10.9729C124.804 11.1268 124.907 11.0203 124.766 11.3583C124.948 13.4483 127.778 13.9215 129.226 15.0349C129.287 15.5266 129.309 15.5474 128.871 15.8641L128.832 16.098C127.852 15.7266 125.815 14.7938 124.942 15.1683C123.503 16.8065 128.212 18.1603 129.268 18.6243C132.387 19.9947 135.525 21.2806 138.749 22.3836C140.295 22.9259 143.829 23.895 145.118 24.5469C145.303 24.8569 145.217 24.7498 145.594 24.9534L145.529 25.049C145.357 25.0271 145.025 25.0236 144.94 24.923C144.518 24.8447 144.686 24.8294 144.295 24.9612C142.089 25.814 141.107 27.6827 139.389 29.2036C139.205 29.3666 138.915 29.9526 138.662 30.2239C136.193 28.8643 133.014 27.9322 130.436 26.6389C129.329 26.1167 127.818 25.7883 126.755 25.2245C124.284 23.9122 121.434 22.8452 119.105 21.3333C119.506 19.9984 120.333 18.9431 120.909 17.7153C122.203 14.9562 122.349 11.6908 122.351 8.70435Z" fill="#2F292B"/>
<path d="M145.118 24.5469C143.829 23.8951 140.295 22.9259 138.749 22.3837C135.525 21.2806 132.387 19.9948 129.268 18.6244C128.212 18.1604 123.502 16.8065 124.942 15.1683C125.815 14.7939 127.852 15.7267 128.831 16.098C130.341 16.7656 131.865 17.535 133.41 18.0995C138.875 20.0961 144.417 21.8164 149.914 23.7177C152.092 24.471 154.233 25.6001 156.396 26.3453C156.966 26.6469 157.554 26.9454 158.103 27.2806L158.865 27.763C159.424 28.1628 159.977 28.5724 160.522 28.9918C161.922 30.206 163.25 31.3667 164.596 32.6381L164.673 32.4207C164.442 32.0966 164.406 32.0398 164.258 31.6616L164.486 31.803L164.703 31.7245C165.933 32.6052 166.675 33.9722 167.646 35.0983C168.301 35.5005 169.182 37.4055 169.538 38.1333C172.056 43.1426 174.002 48.4191 175.339 53.8634C175.517 54.6072 175.551 55.273 175.468 56.0279C175.368 56.9395 173.927 58.2606 175.294 58.7782C174.815 58.9414 174.563 58.7694 174.265 59.033C174.372 59.2362 174.476 59.4406 174.578 59.6465C174.359 60.2299 170.738 61.7702 169.98 62.064C169.939 62.0799 169.499 61.885 169.402 62.0428C168.65 62.6234 168.222 64.5189 167.445 64.9562C167.551 64.6383 170.165 59.2732 170.322 59.0669C170.388 59.68 169.56 60.381 169.803 61.1718L170.056 61.2055C171.003 60.744 172.228 60.865 172.973 60.405C174.26 59.0623 170.256 45.9265 169.108 44.3083L169.142 43.9136C168.873 43.6397 167.824 40.9539 167.512 40.348C166.829 39.0178 166.371 38.1004 165.381 36.9156C165.243 36.5933 164.527 35.7358 164.289 35.4444C162.526 33.2776 160.33 31.4076 157.949 29.9479C155.768 28.6115 153.601 27.2853 151.131 26.5596C150.601 26.3363 149.59 26.0446 149.009 25.8597C147.716 25.4112 146.418 24.9736 145.118 24.5469Z" fill="#D9D5CE"/>
<path d="M164.596 32.6381L164.673 32.4206C164.442 32.0966 164.406 32.0398 164.258 31.6616L164.486 31.803L164.703 31.7245C165.933 32.6052 166.675 33.9721 167.646 35.0983C168.301 35.5005 169.182 37.4055 169.538 38.1333C172.056 43.1426 174.002 48.4191 175.339 53.8634C175.517 54.6072 175.552 55.273 175.468 56.0279C175.368 56.9394 173.927 58.2606 175.294 58.7782C174.815 58.9414 174.563 58.7694 174.265 59.033C174.372 59.2361 174.476 59.4406 174.578 59.6464C174.359 60.2298 170.738 61.7702 169.98 62.064C169.939 62.0799 169.499 61.885 169.402 62.0428C168.65 62.6234 168.222 64.5189 167.445 64.9562C167.551 64.6383 170.165 59.2732 170.322 59.0669C170.388 59.68 169.56 60.381 169.803 61.1718L170.056 61.2055C171.003 60.744 172.228 60.865 172.973 60.405C174.26 59.0622 170.256 45.9265 169.109 44.3082L169.142 43.9136C170.021 44.8667 172.279 52.9057 172.771 54.5736C172.868 54.905 173.11 56.1841 173.23 56.3821C173.731 57.2085 173.271 57.8495 173.543 58.55C173.861 58.7932 173.786 58.7207 174.242 58.7542C175.051 57.6481 174.112 55.0552 173.887 53.8953C172.64 47.4664 170.394 41.4731 166.907 35.9212C166.535 35.3298 165.715 34.466 165.587 33.8348C165.439 33.5838 164.808 32.9014 164.596 32.6381Z" fill="#E6CE9F"/>
<path d="M172.357 46.974C172.414 46.7005 172.149 45.6323 172.093 45.2318C172.334 45.7035 172.564 46.1378 172.759 46.6322L172.909 46.6048C173.578 47.7432 174.761 52.6693 175.071 54.2285C175.174 54.7461 175.098 56.3717 175.071 56.9675C174.329 54.7214 173.75 52.4575 173.202 50.1598C173.085 49.6672 172.358 47.3201 172.357 46.974Z" fill="#CDB583"/>
<path d="M164.596 32.6381L164.673 32.4206C164.442 32.0966 164.406 32.0398 164.258 31.6616L164.486 31.803L164.703 31.7245C165.933 32.6052 166.675 33.9721 167.646 35.0983C167.864 35.5327 168.589 36.7228 168.696 37.012C168.509 37.7871 169.705 38.706 169.51 39.5838C169.089 38.9873 168.75 37.7236 168.13 37.446C167.31 35.9517 166.774 35.025 165.587 33.8348C165.439 33.5838 164.808 32.9014 164.596 32.6381Z" fill="#8C4F3D"/>
<path d="M168.696 37.012C170 39.2012 172.15 44.2305 172.909 46.6049L172.759 46.6322C172.564 46.1378 172.334 45.7035 172.093 45.2318C172.149 45.6323 172.414 46.7005 172.357 46.974C171.083 42.8205 169.777 41.0629 168.13 37.4461C168.75 37.7236 169.089 38.9873 169.509 39.5839C169.705 38.706 168.509 37.7871 168.696 37.012Z" fill="#AB7C59"/>
<path d="M20.4179 42.9533C20.7324 45.3094 22.1478 46.33 24.331 46.9523C23.8607 47.8591 22.9988 48.8847 23.7041 49.7235C24.607 50.1281 24.7054 48.9105 25.4125 48.8904C25.9511 49.5912 27.4454 51.9839 28.028 52.2534C28.3453 52.0108 28.1449 51.7834 28.6112 51.376C28.3693 52.2886 27.951 53.7501 27.8419 54.6443L27.7349 54.9158C27.6162 56.752 27.5212 58.5572 27.8755 60.3683C28.0802 61.4147 29.3832 64.0134 29.3283 64.8249C28.6901 64.5827 27.479 62.0149 27.0198 61.8106L26.7969 61.937L26.8334 62.0813C27.2019 62.2753 27.5801 62.5565 27.6442 62.995L27.5752 63.0479L27.5252 63.0876C27.1812 63.3559 26.5377 64.1045 26.3476 64.1527L26.0836 64.0456C25.9498 64.6782 26.6194 64.2744 25.5435 65.3394L25.2758 65.4224C24.7479 65.0626 24.7706 64.3749 24.1386 64.0744C23.7679 63.5108 23.4876 63.0361 23.1564 62.4504C22.7445 62.2881 22.6759 62.1211 22.4378 61.746C22.0584 61.6021 22.0225 61.7154 21.5298 61.8849C21.1749 61.3319 21.0415 61.0891 20.7815 60.4865C19.067 59.7843 18.5219 59.2911 17.4298 57.8126C16.8333 57.2122 16.8367 56.2177 16.5352 55.2608C16.6568 54.8681 16.8037 54.0065 16.8908 53.5717C17.7705 49.8215 18.9399 46.5196 20.4179 42.9533Z" fill="#D79F4E"/>
<path d="M20.4179 42.9533C20.7324 45.3094 22.1478 46.33 24.331 46.9523C23.8607 47.8591 22.9988 48.8847 23.7041 49.7235C24.607 50.1281 24.7054 48.9105 25.4125 48.8904C25.9511 49.5912 27.4454 51.9839 28.028 52.2534C28.3453 52.0108 28.1449 51.7834 28.6112 51.376C28.3693 52.2886 27.951 53.7501 27.8419 54.6443L27.7349 54.9158C27.4763 54.332 27.9545 53.1009 27.8982 53.0095C27.1886 51.8576 26.0799 50.1351 25.2394 49.1333C23.4952 51.5568 22.286 53.4904 19.8447 55.2919C19.2692 54.918 17.7363 54.1068 17.0884 54.4495L17.0502 54.656C17.4814 54.8199 17.8353 54.5469 18.1545 54.6202C19.1646 54.8521 19.2675 55.7285 20.4059 55.1312C20.6184 55.9686 20.2441 57.1556 20.2458 58.0649C20.2471 58.7348 20.5455 59.2897 20.4194 59.8568L20.2391 59.991C19.2847 59.8467 18.1326 58.1333 17.4298 57.8127C16.8333 57.2122 16.8367 56.2177 16.5352 55.2608C16.6568 54.8681 16.8037 54.0065 16.8908 53.5717C17.7705 49.8215 18.9399 46.5196 20.4179 42.9533Z" fill="#D48C3C"/>
<path d="M20.7941 55.6152C21.2006 57.083 21.4122 58.3331 21.9216 59.7892C22.2908 60.8446 22.8345 61.617 23.1565 62.4504C22.7446 62.2881 22.676 62.1211 22.4379 61.746C22.0585 61.6021 22.0226 61.7153 21.5299 61.8849C21.175 61.3319 21.0416 61.0891 20.7816 60.4865C20.2675 58.7996 20.4693 57.3058 20.7941 55.6152Z" fill="#E6CE9F"/>
<path d="M26.2337 33.6664L26.4247 33.7142C26.7061 33.4786 28.3186 31.9829 28.4995 31.9816C28.4813 32.1687 28.4201 32.5606 28.3677 32.6905C28.3644 32.6988 28.9298 33.4807 28.9312 33.4589C28.8783 34.3133 28.4999 35.0681 29.1489 35.8055C29.908 36.6681 31.5487 37.4076 32.6381 37.9174C33.0144 38.0936 34.5432 38.3782 35.0046 38.4875C35.0091 38.6573 35.0131 38.8048 35.0166 38.9302C35.5649 38.8688 35.5567 38.3535 35.9385 38.3807C35.9072 38.9939 34.6404 40.0513 34.1663 40.6285L34.354 40.6985C32.1417 43.289 30.8595 44.8278 29.6702 48.1522C29.4756 48.6961 28.7851 51.0663 28.6113 51.376C28.145 51.7834 28.3454 52.0107 28.0281 52.2534C27.4455 51.9839 25.9512 49.5912 25.4126 48.8903C24.7055 48.9105 24.6071 50.1281 23.7043 49.7235C22.9989 48.8846 23.8608 47.8591 24.3311 46.9523C22.1479 46.3299 20.7325 45.3094 20.418 42.9533C20.9604 41.8232 21.6206 40.6393 22.1012 39.4984C23.239 37.4533 24.4739 35.2404 26.2337 33.6664Z" fill="#CF4D26"/>
<path d="M36.4587 26.7845C37.1301 26.9059 37.8899 26.3008 38.2654 26.3715C40.1689 26.7299 43.7676 28.3939 45.2443 29.5083C45.7499 30.965 45.8293 30.6819 46.5331 31.6643C45.6256 32.0099 44.5989 32.5816 43.7243 33.0385L43.6487 33.2842C40.8961 34.778 39.1757 35.6949 36.9236 37.9799C36.418 38.4929 34.7286 40.4628 34.3539 40.6985L34.1662 40.6285C34.6404 40.0512 35.9072 38.9939 35.9385 38.3807C35.5566 38.3535 35.5648 38.8688 35.0165 38.9301C35.0131 38.8048 35.0091 38.6573 35.0045 38.4875C34.5432 38.3782 33.0144 38.0935 32.638 37.9174C31.5487 37.4075 29.9079 36.6681 29.1488 35.8055C28.4998 35.0681 28.8783 34.3133 28.9312 33.4589C28.9298 33.4807 28.3643 32.6987 28.3676 32.6905C28.4201 32.5606 28.4812 32.1687 28.4995 31.9816C28.3185 31.9829 26.7061 33.4786 26.4247 33.7142L26.2336 33.6664C28.4941 30.9968 33.2206 27.9978 36.4587 26.7845Z" fill="#C1302C"/>
<path d="M151.414 87.6441C152.124 86.8959 153.96 83.8393 154.475 82.8475C155.441 80.9928 156.193 77.652 157.488 75.9792C157.546 76.6942 154.638 82.2751 154.504 83.3933C154.485 83.5467 156.131 86.8249 156.269 87.6978C156.691 90.3508 156.643 92.628 156.959 95.32C157.082 97.1694 158.95 97.6888 159.667 99.0065C160.25 100.074 159.558 101.716 160.728 102.742C161.548 103.461 164.497 103.042 165.088 103.629C164.47 104.222 155.912 105.15 154.657 105.249C152.937 105.384 151.781 99.5423 151.545 97.9861C151.348 97.3363 151.168 96.6617 150.984 96.0062C150.771 95.2217 150.343 94.1004 150.081 93.2449C150.791 92.4569 150.257 91.6336 150.593 90.3477C150.641 89.735 151.195 88.2388 151.414 87.6441Z" fill="#9E9E9D"/>
<path d="M150.593 90.3478C150.649 90.9808 150.559 91.9579 150.649 92.4773C150.842 93.5834 151.534 94.8572 151.692 95.9923C151.741 96.3432 151.698 97.7148 151.545 97.9861C151.348 97.3364 151.168 96.6618 150.984 96.0063C150.771 95.2218 150.343 94.1005 150.081 93.2449C150.791 92.457 150.257 91.6336 150.593 90.3478Z" fill="#7C7C7D"/>
<path d="M158.485 61.4218C159.939 59.7274 159.602 55.684 159.924 53.8008L160.019 53.9396C160.036 55.8357 160.204 57.7709 159.658 59.6186C159.172 61.2618 158.188 62.4591 157.048 63.6368C156.822 63.8703 157.797 65.1153 158.082 65.4955C158.845 64.4391 160.196 61.1117 160.906 60.4193C160.541 61.5064 159.858 62.8271 159.312 63.8542C159.247 64.5626 158.841 64.5524 158.854 65.1926L159.127 65.4722L159.243 65.733C159.841 64.3849 159.869 64.1633 160.807 63.0205C160.844 63.2385 160.724 63.2641 160.732 63.4562C160.819 65.3825 161.381 65.5723 163.029 66.0814C162.668 67.7233 159.9 71.8232 158.963 73.2029C158.415 74.0098 157.9 75.0775 157.488 75.9793C156.193 77.652 155.441 80.9928 154.475 82.8475C153.96 83.8393 152.124 86.8959 151.414 87.6441C151.146 86.523 151.186 85.1973 150.77 84.0654C150.635 83.6992 150.503 83.1866 150.458 82.8018C150.624 81.2655 151.222 80.5137 151.248 79.0945C152.26 76.3877 152.339 74.1252 153.046 72.1195C153.616 70.4774 155.216 66.9232 155.931 65.2285C157.146 62.8243 157.117 63.3379 158.485 61.4218Z" fill="#A4A3A2"/>
<path d="M159.312 63.8542C159.247 64.5626 158.841 64.5525 158.854 65.1927L159.127 65.4722L159.243 65.733C158.103 67.841 155.989 72.228 154.677 74.0578C155.031 72.1596 158.108 65.4472 159.312 63.8542Z" fill="#7C7C7D"/>
<path d="M49.9995 116.733C50.7151 114.746 51.3873 112.743 52.0152 110.726C52.4449 109.34 52.7761 107.976 53.3091 106.624C53.2773 107.304 52.933 108.39 52.6616 109.016C53.6256 108.996 54.2731 107.119 54.8149 106.371C55.7476 105.084 57.6275 101.274 58.8036 100.483C61.1769 98.8866 59.0865 97.7518 59.8698 96.8654C60.2472 97.3755 60.1658 101.801 59.9756 102.568C59.4459 104.704 58.6864 108.3 57.9402 110.298C57.7782 109.569 58.5818 108.342 58.6286 107.912L58.5217 107.665C56.9933 107.277 52.5461 115.151 53.2051 116.305L53.3003 115.976C53.3581 116.145 53.412 116.316 53.4619 116.486C54.2834 116.851 58.9141 116.723 60.0361 116.728L72.0049 116.829C73.349 116.829 80.8523 116.706 81.3701 117H47.584L48.0659 116.731L49.9995 116.733Z" fill="#BAB8B8"/>
<path d="M134.605 116.717C134.251 115.961 133.23 114.054 132.978 113.428C132.363 111.905 131.05 107.268 131.198 105.746L131.374 106.543C131.391 105.646 131.312 103.647 131.451 102.856C131.607 101.972 132.765 100.618 132.272 99.4637L132.364 99.3814C132.629 100.266 132.961 101.048 133.265 101.913C134.537 105.531 135.496 109.25 136.833 112.847C137.296 114.091 137.678 115.593 138.42 116.689C138.682 116.799 138.945 116.903 139.212 117H130.578C131.023 116.72 133.931 116.73 134.605 116.717Z" fill="#A9A8A6"/>
<path d="M39.6311 22.2228C40.2252 22.0655 40.9098 21.8212 41.5019 21.6241C47.8824 19.4994 54.4543 17.7614 60.4436 14.658L60.5627 14.8078C60.2449 15.0147 59.9355 15.1584 59.8137 15.5083C60.1222 15.9157 60.3637 15.476 60.3574 15.9654C57.2752 17.5445 55.3245 18.058 52.0845 19.1687C46.2486 21.1693 40.5129 22.726 34.8477 25.2341C31.1243 26.8825 30.4214 27.1681 27.2197 29.8264L26.9271 29.7327L26.8103 29.2634C29.6519 26.8666 30.1876 26.5047 33.5642 24.9552L39.6311 22.2228Z" fill="#020202"/>
<path d="M129.225 15.035C131.6 16.1959 133.912 17.3172 136.453 18.0765C140.265 19.216 143.969 20.5927 147.702 21.9513C150.155 22.921 155.442 24.8287 157.563 26.1216C157.117 26.5789 157.02 26.4612 156.396 26.3454C154.233 25.6002 152.092 24.4711 149.914 23.7178C144.417 21.8164 138.875 20.0961 133.41 18.0995C131.865 17.535 130.341 16.7656 128.831 16.098L128.871 15.8641C129.309 15.5474 129.287 15.5266 129.225 15.035Z" fill="#020202"/>
<path d="M42.1229 102.672C42.4285 105.671 42.2836 108.274 42.534 111.229C42.6721 112.859 43.4709 114.985 43.6186 116.633C45.2483 116.573 46.5003 116.704 48.066 116.732L47.584 117H0V116.874C1.12106 116.664 3.28476 116.726 4.51586 116.725L11.5371 116.722C19.4187 116.777 27.3005 116.745 35.1814 116.628C37.2716 116.59 39.3275 116.636 41.4228 116.543C41.6243 113.59 41.4531 110.185 41.5081 107.166C41.8144 105.574 41.7145 104.21 42.1229 102.672Z" fill="#B8B7AF"/>
<path d="M15.8914 60.1165L15.8996 59.9044L15.5553 59.6529C15.331 59.0914 16.4399 56.4671 16.5353 55.2608C16.8368 56.2177 16.8334 57.2122 17.4299 57.8126C18.522 59.2911 19.0671 59.7843 20.7817 60.4865C21.0416 61.0891 21.175 61.3319 21.5299 61.8849C21.9418 62.4979 21.8858 63.3889 22.1869 64.1461C22.715 65.4741 24.1045 67.4943 24.5934 68.672C24.6321 69.5651 25.4118 69.7611 25.3136 70.5484L25.0291 70.7728C24.8866 70.58 24.747 70.3852 24.6102 70.1885L24.4799 70.24C22.775 67.7648 21.633 64.3828 19.7191 62.4285C19.4206 62.1238 16.7619 60.7749 15.8914 60.1165Z" fill="#CDB583"/>
<path d="M147.869 96.4457L148.131 96.3918C148.822 96.9036 148.564 99.4231 148.648 100.382C148.587 101.741 148.479 103.099 148.329 104.451C147.915 107.92 147.102 111.072 147.34 114.621C147.379 115.187 147.253 116.216 147.526 116.718C152.251 117.163 187.715 116.426 188.544 117H145.6C145.89 116.882 146.403 116.805 146.717 116.767C147.101 116.329 146.964 114.86 146.926 114.234C146.627 109.36 147.975 104.652 147.798 99.7922C147.759 98.7249 147.834 97.5238 147.869 96.4457Z" fill="#A9A8A6"/>
<path d="M34.9253 70.4974C35.0606 69.4 34.0488 69.6124 35.2483 67.7827L35.155 67.9287L35.4527 67.7913C35.4771 67.9037 35.5024 68.0157 35.5289 68.1275C35.6266 68.5437 35.8677 69.6082 36.1883 69.807L36.6866 71.4863C36.8029 71.9556 37.2927 72.4925 37.6275 72.8435C38.391 76.8723 39.2219 82.5587 39.393 86.6146C38.7081 85.7706 38.3149 84.698 37.8263 83.7256L37.8967 83.4114C37.9991 83.4481 38.238 83.4966 38.3553 83.5238L38.4401 83.3659C38.1123 79.9277 37.782 77.1494 36.4142 73.959C35.9822 72.9515 35.2266 71.4778 34.9253 70.4974Z" fill="#3F4040"/>
<path d="M40.3673 95.2054C40.6592 95.7383 40.3114 96.2411 40.6551 96.7359L40.8389 96.6835C40.9483 96.3224 41.018 96.117 41.0649 95.7402C41.182 96.8321 42.2489 102.091 42.1227 102.672C41.7144 104.21 41.8142 105.574 41.508 107.166C40.0059 104.417 40.4233 98.3991 40.3673 95.2054Z" fill="#ACAAA5"/>
<path d="M150.021 82.5183L150.213 82.3478C150.354 82.5463 150.368 82.5745 150.458 82.8018C150.503 83.1866 150.635 83.6992 150.77 84.0654C151.186 85.1973 151.146 86.5229 151.415 87.644C151.195 88.2387 150.641 89.735 150.593 90.3477C150.257 91.6336 150.791 92.4569 150.081 93.2448C149.403 91.6974 149.308 91.4996 149.342 89.8593C149.471 89.3496 150.018 83.1691 150.021 82.5183Z" fill="#2F292B"/>
<path d="M31.624 59.957C32.1173 60.5539 32.4409 61.0604 32.8634 61.7091C33.4603 63.0883 36.1889 68.8669 36.1885 69.807C35.8679 69.6082 35.6268 68.5437 35.5291 68.1275C35.5026 68.0157 35.4773 67.9037 35.4529 67.7913L35.1552 67.9287L35.2485 67.7827C34.049 69.6124 35.0608 69.4 34.9255 70.4974C34.5999 69.8856 34.1196 68.5561 33.8457 67.8684C33.2968 66.5029 32.7287 65.1451 32.1416 63.7956C32.0771 62.3952 31.8805 61.317 31.624 59.957Z" fill="#666565"/>
<path d="M29.2059 57.324C29.2388 56.1916 28.9261 55.5554 28.9511 54.9466L29.0729 54.9047C29.1414 55.0633 29.2411 55.3376 29.3523 55.4554C29.9728 55.1627 30.8421 54.5634 31.5848 54.841C32.6919 55.2546 33.9776 57.6694 33.4843 58.8046L33.3863 58.7184C33.4216 56.7815 31.7287 53.8217 29.6689 55.7201C29.362 56.0028 29.1751 56.7644 29.5989 56.9849C30.6051 57.5084 32.7958 60.7139 32.8632 61.709C32.4407 61.0603 32.1171 60.5538 31.6239 59.957C31.8804 61.317 32.0769 62.3951 32.1414 63.7956C31.7747 63.1283 31.2983 62.5538 30.9073 61.9223C30.1171 60.646 29.5033 58.7855 29.2059 57.324Z" fill="#A6A5A5"/>
<path d="M129.226 15.0349C127.778 13.9215 124.948 13.4483 124.766 11.3583C124.907 11.0203 124.804 11.1268 125.168 10.973C126.992 11.023 131.771 14.4759 132.989 14.0072C134.27 14.2973 136.755 16.1304 138.201 16.0315C138.277 16.0263 138.252 16.0219 138.311 16.0551L138.137 16.2182L138.086 16.1954C137.646 16.0003 137.453 15.933 137.061 16.0387C136.34 16.2329 134.922 15.3786 134.152 15.1819C133.987 15.1395 133.835 15.5791 133.249 15.3833C132.961 15.0165 132.7 14.4409 132.282 14.3626C130.912 14.1062 125.885 10.7629 124.92 11.2981C124.528 13.2291 131.944 15.7781 133.287 16.7983C133.535 16.9863 133.795 16.5516 134.232 16.6586C134.385 16.8712 134.734 17.3929 134.991 17.4656C136.339 17.848 147.622 21.3232 147.702 21.9513C143.969 20.5927 140.265 19.216 136.454 18.0765C133.912 17.3171 131.6 16.1959 129.226 15.0349Z" fill="#9A9999"/>
<path d="M60.989 11.601C61.8907 11.2378 62.7968 10.6363 63.7391 10.322C63.8486 10.6658 64.0421 10.8699 64.0269 11.2197C63.9107 13.088 62.9348 13.306 61.3723 14.0709L61.1846 13.8344L60.9136 14.1169C60.6606 14.0374 60.629 14.0244 60.43 13.8499C60.1866 12.9476 59.909 13.0804 59.0643 12.8091L59.0051 12.6926C59.711 12.3848 60.2898 11.9149 60.989 11.601Z" fill="#A9A8A6"/>
<path d="M60.989 11.601C61.8907 11.2378 62.7968 10.6363 63.7391 10.322C63.8487 10.6658 64.0421 10.8699 64.0269 11.2197C63.0794 10.9017 62.5965 11.8296 60.989 11.601Z" fill="#9A9999"/>
<path d="M16.3627 46.1165L16.4262 46.6557L16.5445 46.6883C16.7892 46.0898 16.8873 45.532 17.3838 45.2158C16.2625 48.4189 14.8709 53.4235 14.8341 56.887C14.8315 57.1226 15.0794 57.6834 15.182 57.9166L15.0389 57.9585C14.0322 56.8737 14.8976 55.1269 14.4548 54.6307C14.1324 54.9144 14.0492 55.0628 13.815 55.4182C13.4871 53.8192 14.9947 50.2784 15.5082 48.7141C15.7121 48.0925 16.1212 46.6644 16.3627 46.1165Z" fill="#D9B887"/>
<path d="M24.48 70.24L24.6102 70.1884C24.747 70.3852 24.8866 70.58 25.0291 70.7727L25.3136 70.5483C25.4119 69.7611 24.6322 69.565 24.5934 68.672C25.4183 70.0518 26.0646 71.033 27.0173 72.3094C28.0513 73.6944 30.7491 76.3612 31.2001 77.9342C30.9659 78.5791 30.4409 77.8423 30.8936 79.0227L30.8037 78.7927L30.6608 78.8568C30.0354 78.2486 29.9905 77.4647 29.2592 76.4463C27.8072 74.4245 25.6422 72.3797 24.48 70.24Z" fill="#A4A3A3"/>
<path d="M154.753 64.2939C154.864 63.6135 155.607 62.7707 155.914 62.1588C155.946 62.096 156.224 61.4883 156.237 61.4907C156.925 61.6035 157.872 61.8445 158.485 61.4218C157.117 63.3379 157.146 62.8243 155.931 65.2285L155.881 65.068C155.491 65.3258 155.675 66.1235 154.889 66.5817C154.448 66.6083 154.627 66.6409 154.205 66.4115C154.263 65.6983 154.88 64.915 154.753 64.2939Z" fill="#9A9999"/>
<path d="M19.334 38.8862C21.4411 35.1656 23.481 32.0211 26.8102 29.2634L26.927 29.7327L27.2196 29.8264C23.9746 32.6557 22.0398 35.1295 20.0403 38.9216L19.334 38.8862Z" fill="#3F1C19"/>
<path d="M154.753 64.2939C154.88 64.915 154.263 65.6982 154.205 66.4114C154.628 66.6409 154.448 66.6083 154.889 66.5817C155.675 66.1235 155.491 65.3257 155.881 65.068L155.931 65.2285C155.216 66.9232 153.616 70.4774 153.046 72.1195C152.737 71.8142 152.772 71.7354 152.433 71.7325C152.665 70.0171 154.035 65.8766 154.753 64.2939Z" fill="#777679"/>
<path d="M16.7865 53.4241C16.7637 53.2325 16.7321 53.0723 16.6951 52.883C16.5959 53.2241 16.5028 53.567 16.4156 53.9114L16.3108 53.8811C16.1254 52.2713 17.0329 52.4938 17.3393 50.9625C17.4848 50.2354 17.3979 49.7869 17.7402 49.1425C18.3508 47.9928 18.8885 46.3787 19.339 45.1326C20.1252 42.9578 20.8126 41.4399 21.9507 39.4339L22.1013 39.4983C21.6207 40.6393 20.9604 41.8231 20.418 42.9533C18.9401 46.5196 17.7707 49.8214 16.891 53.5717C16.8038 54.0065 16.657 54.8681 16.5353 55.2608C16.4399 56.4671 15.3311 59.0914 15.5553 59.6528L15.8997 59.9043L15.8915 60.1165C15.5298 59.9484 15.1561 59.6974 14.8152 59.4819C15.26 59.0471 16.1473 56.1178 15.8348 55.3955C15.788 55.2871 16.6732 53.817 16.7865 53.4241Z" fill="#E6CE9F"/>
<path d="M60.9138 14.1169L61.1848 13.8344L61.3725 14.0709C61.2227 14.1649 60.5426 14.5757 60.4436 14.658C54.4543 17.7614 47.8825 19.4994 41.502 21.6241C40.9099 21.8212 40.2252 22.0655 39.6311 22.2228C40.3649 21.2277 53.9345 17.8163 56.4845 16.1843C57.1833 14.8773 57.5608 15.6876 57.8767 15.5625C58.7987 15.1974 60.002 14.5803 60.9138 14.1169Z" fill="#BAB8B8"/>
<path d="M147.869 96.4457C148.057 94.2699 148.683 91.9315 149.342 89.8593C149.308 91.4996 149.402 91.6975 150.081 93.2449C150.343 94.1004 150.771 95.2218 150.984 96.0063C150.609 95.7126 149.785 93.4937 149.661 92.9439C149.232 93.1768 149.1 93.0035 148.714 93.3543L148.699 93.4467C148.284 95.9299 147.514 94.5711 148.996 97.3586C149.263 97.2753 149.328 97.0659 149.525 96.7874L149.591 96.8755C148.638 98.789 149.094 98.8169 148.648 100.382C148.564 99.4231 148.822 96.9037 148.131 96.3919L147.869 96.4457Z" fill="#BAB8B8"/>
<path d="M160.522 28.9918L160.77 28.9197C160.803 28.7242 160.769 28.6445 160.698 28.4701C161.04 28.3592 160.763 28.6551 161.564 28.7596C162.107 29.0566 164.198 31.1714 164.703 31.7245L164.486 31.803L164.258 31.6616C164.406 32.0398 164.442 32.0966 164.673 32.4207L164.596 32.6381C163.25 31.3667 161.922 30.206 160.522 28.9918Z" fill="#60251E"/>
<path d="M17.095 43.9737C17.3367 42.8074 18.6553 39.8988 19.334 38.8862L20.0403 38.9216C19.3009 40.5981 18.5619 42.3473 17.7942 44.0053C17.7727 43.722 17.8195 43.3981 17.7796 42.9574C17.4333 43.1757 17.6371 43.6492 17.095 43.9737Z" fill="#CF4D26"/>
<path d="M36.6868 71.4863C37.0518 71.3577 36.9644 71.2463 37.2101 70.8745C37.982 69.7058 38.913 69.0627 40.041 68.328C38.95 70.3833 37.6605 70.267 37.6277 72.8435C37.2929 72.4925 36.8031 71.9556 36.6868 71.4863Z" fill="#7C7C7D"/>
<path d="M40.4542 91.601C40.8594 92.7481 40.8004 94.5661 41.0651 95.7402C41.0181 96.117 40.9484 96.3224 40.8391 96.6835L40.6552 96.7359C40.3115 96.2411 40.6593 95.7383 40.3674 95.2054C40.3238 94.5903 40.1567 92.6274 39.7207 92.22C39.869 92.2498 39.9814 92.2518 40.1312 92.2618C40.4071 92.0365 40.3156 92.1452 40.4496 91.7522L40.4542 91.601Z" fill="#5C5B5A"/>
<path d="M150.763 78.6467C150.977 79.0492 150.845 78.9335 151.248 79.0946C151.222 80.5138 150.624 81.2656 150.458 82.8019C150.368 82.5746 150.354 82.5464 150.212 82.3479L150.021 82.5184C150.147 81.5133 150.521 79.6504 150.763 78.6467Z" fill="#7C7C7D"/>
<path d="M17.0951 43.9737C17.6372 43.6492 17.4334 43.1757 17.7797 42.9574C17.8196 43.3981 17.7728 43.722 17.7943 44.0053C17.7057 44.5116 17.5905 44.7405 17.3839 45.2158C16.8874 45.532 16.7893 46.0898 16.5446 46.6883L16.4263 46.6557L16.3628 46.1165C16.4374 45.7093 16.923 44.3675 17.0951 43.9737Z" fill="#AB7C59"/>
<path d="M157.563 26.1216L158.841 26.7895L159.624 27.2724C159.423 27.4096 159.071 27.6654 158.865 27.7631L158.103 27.2807C157.553 26.9454 156.966 26.6469 156.396 26.3454C157.02 26.4612 157.117 26.5789 157.563 26.1216Z" fill="#3F1C19"/>
<path d="M158.841 26.7895L159.624 27.2725C159.423 27.4096 159.071 27.6654 158.865 27.7631L158.103 27.2807C158.52 27.1628 158.559 27.1173 158.841 26.7895Z" fill="#230200"/>
<path d="M159.624 27.2724C160.242 27.6529 161.073 28.2244 161.564 28.7596C160.763 28.655 161.04 28.3592 160.698 28.47C160.769 28.6445 160.803 28.7242 160.77 28.9197L160.522 28.9918C159.977 28.5724 159.424 28.1628 158.865 27.763C159.071 27.6653 159.423 27.4095 159.624 27.2724Z" fill="#3F1C19"/>
<path d="M69.6931 6.32288C71.361 4.79561 73.0896 4.60953 75.2705 4.76681C80.3952 5.08207 85.5622 5.55405 90.6899 5.79819C98.1637 6.15401 105.656 5.42851 113.1 4.89519C115.479 4.72473 117.392 4.67513 119.138 6.57784C122.8 10.5702 119.543 16.7134 117.417 20.7006C116.584 20.388 115.458 19.9264 114.63 19.6727C113.517 20.2245 111.267 22.3446 109.907 23.2049C101.564 28.1831 89.467 28.5629 80.8626 24.0476C79.5366 23.3518 74.5494 19.162 74.1456 19.1126C73.4324 19.7566 72.6724 20.1044 71.8104 20.4938C69.6297 18.0444 67.8166 12.8989 67.7042 9.57773C67.6538 8.09197 68.6634 7.30908 69.6931 6.32288Z" fill="#9A9999"/>
<path d="M69.6931 6.32288C71.3611 4.79561 73.0897 4.60953 75.2705 4.76681C80.3952 5.08207 85.5623 5.55405 90.6899 5.79819C98.1638 6.15401 105.656 5.42851 113.1 4.89519C115.479 4.72473 117.392 4.67513 119.138 6.57784C122.8 10.5702 119.543 16.7134 117.417 20.7006C116.584 20.388 115.458 19.9264 114.63 19.6727C114.606 19.6468 114.557 19.4794 114.542 19.4328C115.062 18.6809 115.767 17.7368 116.188 16.9387C117.075 15.2564 117.824 11.8238 118.732 10.3623C113.511 10.5166 108.403 11.8012 103.375 12.406C98.7293 12.9649 91.2211 12.8002 86.5638 12.3315C84.2794 12.1016 80.0148 11.2987 77.5475 10.9264C75.267 10.6407 72.9857 10.4528 70.6981 10.2305L70.3134 10.0654C69.5878 8.97475 70.8244 7.07188 69.6931 6.32288Z" fill="#020202"/>
<path d="M71.8104 20.4939C69.6297 18.0444 67.8166 12.8989 67.7042 9.57779C67.6538 8.09202 68.6634 7.30913 69.6931 6.32294C70.8244 7.07193 69.5877 8.9748 70.3134 10.0655L70.6981 10.2305L70.4778 10.3742C70.6189 11.2528 72.8955 16.3085 73.4217 17.0232C73.7358 17.6596 74.3851 18.4544 74.1456 19.1126C73.4324 19.7567 72.6724 20.1045 71.8104 20.4939Z" fill="#2F292B"/>
<path d="M70.6981 10.2305C72.9856 10.4528 75.2669 10.6407 77.5475 10.9264C76.2417 11.4744 73.2357 10.1403 72.1847 11.0509C72.3395 11.7712 73.6073 11.9692 73.8804 12.5084C73.6289 12.6048 73.5417 12.5666 73.2641 12.5264C73.025 12.781 73.0949 12.8135 73.0612 13.2244L73.4134 13.3781L73.3675 13.4926C72.3461 13.597 72.704 13.0443 72.2574 13.4753C72.0205 14.4687 73.4526 16.0699 73.4216 17.0231C72.8955 16.3085 70.6189 11.2528 70.4778 10.3741L70.6981 10.2305Z" fill="#7C7C7D"/>
<path d="M123.396 49.7506C124.897 48.9266 127.756 49.0735 129.379 49.5424C129.704 49.6386 130.028 49.7424 130.349 49.8533C133.474 51.1392 136.603 54.1274 137.914 57.2424C139.083 59.9615 139.118 63.0348 138.012 65.7798C137.558 66.8913 136.709 68.1988 135.799 68.9822C134.445 70.271 133.72 71.1542 131.949 71.8393C131.431 72.0047 130.653 72.4597 130.265 72.3218C129.131 70.6784 133.14 69.5672 133.429 69.1965C132.841 69.1004 130.082 70.6952 129.911 71.4442C129.854 71.6969 130.142 72.1707 129.973 72.6022C129.648 72.8815 129.094 72.9817 128.678 73.0065C126.63 73.129 124.734 72.6998 123.145 71.3706C122.775 71.1637 122.207 70.9989 121.79 70.7764C119.375 69.4902 117.095 66.9618 116.261 64.3539L116.238 64.2913C113.865 57.7123 116.975 52.0864 123.396 49.7506Z" fill="#BAB8B8"/>
<path d="M130.349 49.8533C133.474 51.1392 136.603 54.1274 137.914 57.2424C139.083 59.9615 139.118 63.0348 138.012 65.7798C137.558 66.8913 136.709 68.1988 135.799 68.9823L135.629 68.7819C135.893 68.002 137.106 66.3949 137.421 65.3852C138.171 62.9885 138.267 59.4957 137.194 57.2231C135.899 54.4811 132.929 51.3734 130.111 50.3306L130.349 49.8533Z" fill="#020202"/>
<path d="M123.396 49.7506C123.507 49.8757 123.61 49.9562 123.623 50.1161C123.035 50.4256 122.475 50.6171 121.881 50.9416C120.094 51.9174 117.562 54.3666 116.962 56.2915C116.597 57.4676 116.535 62.2165 116.703 63.4293C116.662 63.9398 116.765 64.1121 116.261 64.3539L116.238 64.2913C113.865 57.7123 116.975 52.0864 123.396 49.7506Z" fill="#020202"/>
<path d="M116.703 63.4293C117.112 65.9941 118.521 67.7296 120.585 69.2441C121.146 69.6552 122.983 70.6905 123.248 71.1919L123.145 71.3706C122.775 71.1637 122.207 70.9989 121.79 70.7764C119.375 69.4902 117.095 66.9618 116.261 64.3539C116.765 64.1121 116.662 63.9398 116.703 63.4293Z" fill="#2F292B"/>
<path d="M123.396 49.7506C124.898 48.9266 127.756 49.0735 129.379 49.5424C129.704 49.6386 130.028 49.7424 130.349 49.8533L130.111 50.3306C129.646 50.2673 128.89 49.9361 128.434 49.9691C127.033 50.0701 124.932 49.9528 123.624 50.1161C123.61 49.9561 123.507 49.8757 123.396 49.7506Z" fill="#7C7C7D"/>
<path d="M131.949 71.8392L131.834 71.7342C131.875 71.6433 135.114 69.2483 135.628 68.7818L135.799 68.9822C134.445 70.2709 133.72 71.1541 131.949 71.8392Z" fill="#9A9999"/>
<path d="M125.015 57.3231C126.08 54.821 127.343 57.7514 128.927 57.5285L128.931 57.3579C128.602 56.7267 127.664 56.5526 127.609 55.8674L127.741 55.7621C128.222 55.8954 129.068 56.4873 129.388 56.8707L130.656 58.2795C131.125 58.9088 131.379 59.2215 130.89 59.9723L130.235 60.3785C129.632 60.6307 129.22 60.8318 129.379 61.5387C129.83 61.776 130.518 62.0684 130.788 62.4678C130.786 62.8186 130.744 62.8745 130.469 63.1294C129.749 63.9896 129.493 64.809 128.446 65.0133C127.994 65.1848 126.733 65.1392 126.15 65.1509C125.277 64.5931 124.1 64.0167 124.191 62.8433L124.396 62.703C124.627 62.4074 124.676 62.3281 125.008 62.1228L125.489 61.4932C125.36 60.6544 125.109 60.5165 124.42 60.0692C122.552 59.6389 124.162 57.9271 125.015 57.3231Z" fill="#3A393A"/>
<path d="M125.008 62.1228C125.062 62.1549 125.539 62.3652 125.569 62.3493C127.614 61.2911 127.731 60.1886 130.235 60.3785C129.632 60.6307 129.22 60.8318 129.379 61.5387C129.83 61.776 130.518 62.0684 130.788 62.4679C130.787 62.8186 130.744 62.8745 130.469 63.1294C129.749 63.9897 129.493 64.809 128.447 65.0133C127.994 65.1848 126.733 65.1392 126.15 65.151C125.277 64.5932 124.1 64.0167 124.192 62.8433L124.396 62.703C124.627 62.4074 124.676 62.3281 125.008 62.1228Z" fill="#7C7C7D"/>
<path d="M126.15 65.151C125.277 64.5932 124.1 64.0167 124.192 62.8433L124.396 62.703C125.154 63.6308 125.21 62.2303 126.361 62.9833C126.518 63.232 126.641 63.6027 126.645 63.8885C126.653 64.6876 127.77 64.7386 128.447 65.0133C127.994 65.1848 126.733 65.1392 126.15 65.151Z" fill="#9A9999"/>
<path d="M129.379 61.5386C129.83 61.7759 130.518 62.0683 130.787 62.4678C130.786 62.8186 130.744 62.8744 130.469 63.1293C129.802 63.3976 128.886 63.7272 128.846 62.4155C128.834 62.009 129.09 61.7959 129.379 61.5386Z" fill="#5C5B5A"/>
<path d="M125.015 57.3231C126.08 54.821 127.343 57.7514 128.927 57.5285L128.931 57.3579C128.602 56.7267 127.664 56.5526 127.609 55.8674L127.741 55.7621C128.222 55.8954 129.068 56.4873 129.388 56.8707C129.199 57.5219 129.365 57.5072 128.959 57.789C128.181 57.8719 127.315 57.3095 126.727 56.8393C126.575 56.7194 126.429 56.5925 126.288 56.459C125.913 56.7578 125.455 57.1745 125.015 57.3231Z" fill="#9A9999"/>
<path d="M124.42 60.0692C124.837 60.0965 125.193 60.1648 125.555 59.9645C125.831 59.4766 125.344 59.1449 126.117 58.7092L126.319 58.7942C126.707 60.0015 125.656 60.4752 125.489 61.4932C125.36 60.6545 125.109 60.5166 124.42 60.0692Z" fill="#5C5B5A"/>
<path d="M130.656 58.2795C131.125 58.9088 131.379 59.2215 130.89 59.9723C130.025 59.5633 130.223 58.98 130.656 58.2795Z" fill="#2F292B"/>
<path d="M64.2055 53.0876C65.3372 53.5179 71.6398 64.5962 72.8246 66.3714C71.7117 66.5122 70.0384 66.5701 68.8778 66.6407C68.2978 66.6925 67.5837 66.6925 66.9924 66.7088C66.2937 65.6651 65.7511 64.2971 65.0413 63.2797C63.2901 60.7704 61.7602 58.1399 60.0923 55.5853C61.5632 54.9296 62.9453 54.0904 64.2055 53.0876Z" fill="#2F292B"/>
<path d="M59.1828 58.1176C60.0196 58.4882 63.8826 65.2715 64.5526 66.4563C63.256 66.6941 62.2826 66.8102 60.9767 66.9419C60.366 66.9603 59.6977 66.936 59.0826 66.9264C57.6865 65.0427 56.7443 62.9854 55.2898 61.0123C56.0328 60.3215 58.2479 58.8037 59.1828 58.1176Z" fill="#2F292B"/>
<path d="M15.1196 61.6396C15.4818 61.7389 15.6025 61.7583 15.9236 61.9777C16.6894 63.6109 16.9365 65.9767 17.7392 67.6214C20.3424 72.9543 22.5336 78.4158 24.9471 83.8288C25.2956 84.6105 26.0754 85.9472 25.8433 86.7583L25.6723 86.7371C25.5945 86.7267 25.4556 86.6694 25.3753 86.6403C24.2558 85.0579 23.358 83.3296 22.7069 81.5036C22.3286 80.4093 21.8372 78.6814 21.3513 77.6898C20.7931 76.5508 19.8407 75.1331 19.1679 74.0143C18.3693 72.6575 17.6619 71.2489 17.0507 69.7981C16.4786 68.4307 16.172 67.1057 15.7596 65.6933C15.3247 64.2039 14.4599 63.245 15.1196 61.6396Z" fill="#BAB8B8"/>
<path d="M54.0802 63.3936C54.5419 63.6061 56.3577 66.5098 56.712 67.1064L53.3012 67.5233C51.3619 67.8278 51.1841 67.7234 50.7097 65.8837C51.5379 65.1292 53.1298 64.0631 54.0802 63.3936Z" fill="#020202"/>
<path d="M123.169 43.1449C123.545 42.9133 123.513 42.8529 123.893 42.8477C124.255 43.3471 125.181 45.7957 124.978 46.3218C124.527 46.2408 124.205 45.7824 123.901 45.4313C123.522 45.9166 123.148 46.4447 122.671 46.8281L122.486 46.8087L122.476 46.7033C122.386 45.7552 121.683 44.5478 121.766 44.1599L121.952 43.9758C122.401 43.7196 122.366 43.4068 123.169 43.1449Z" fill="#020202"/>
<path d="M121.952 43.9758C122.401 43.7196 122.366 43.4068 123.169 43.1449C123.604 43.3538 123.733 43.3233 123.942 43.6689C123.659 44.1376 122.447 44.0824 121.952 43.9758Z" fill="#BAB8B8"/>
<path d="M116.217 45.2762C116.368 45.1429 116.573 44.8866 116.76 44.9193C117.579 45.0618 118.201 45.9661 118.044 46.7687C117.828 47.046 117.759 47.2534 117.625 47.572C117.753 47.9867 117.872 48.7387 117.957 49.1882C117.101 48.7954 116.322 48.1761 115.561 47.6133C115.518 46.9387 115.418 46.6998 115.2 46.0765C115.523 45.8448 115.865 45.5332 116.217 45.2762Z" fill="#020202"/>
<path d="M116.217 45.2762C116.368 45.1429 116.573 44.8866 116.76 44.9193C117.579 45.0618 118.201 45.9661 118.044 46.7687C117.828 47.046 117.759 47.2534 117.625 47.572C117.086 46.3249 116.449 46.3793 115.2 46.0765C115.523 45.8448 115.865 45.5332 116.217 45.2762Z" fill="#9A9999"/>
<path d="M116.217 45.2762C116.368 45.1429 116.573 44.8866 116.76 44.9193C117.579 45.0618 118.201 45.9661 118.044 46.7687C117.406 46.1417 116.938 45.7805 116.217 45.2762Z" fill="#9A9999"/>
<path d="M136.078 45.9593C136.443 46.0906 136.714 46.5843 136.947 46.9231C137.665 47.1492 138.11 47.2454 138.848 47.3865C138.308 48.1697 137.86 48.852 137.524 49.7438C136.692 49.195 135.167 48.7063 134.918 48.4852C134.908 47.8147 135.719 47.1763 136.066 46.6208C136.071 46.356 136.075 46.1355 136.078 45.9593Z" fill="#020202"/>
<path d="M128.786 44.0163C130.047 43.9306 132.84 43.7231 131.121 45.821C130.441 46.128 129.822 46.3937 129.156 46.0109C128.746 45.4738 128.808 44.7055 128.786 44.0163Z" fill="#020202"/>
</g>
<defs>
<clipPath id="clip0_9_267">
<rect width="189.668" height="117" fill="white"/>
</clipPath>
</defs>
</svg>
