<svg width="190" height="116" viewBox="0 0 190 116" fill="none" xmlns="http://www.w3.org/2000/svg">
<g clip-path="url(#clip0_9_532)">
<path d="M0 0H73.3253H79.0042H113.64H115.636H189.859V116H144.26H114.736H89.4656H44.98H0V0Z" fill="#283E7C"/>
<path d="M115.636 0H189.859V116H144.26C144.3 112.643 144.493 109.289 144.837 105.949C144.387 104.666 145.162 103.111 145.152 102.096C145.135 100.225 144.885 98.6605 145.499 96.7621C145.521 96.6929 145.708 96.6473 145.806 96.6101C145.734 97.0429 145.647 97.4086 145.71 97.8429C145.973 97.7394 145.7 97.3716 145.904 97.0239C146.482 96.0338 146.34 90.7584 146.808 90.1916L146.823 90.0862C147.078 89.2857 146.609 88.7091 147.432 88.3258C147.693 89.5523 148.482 91.2896 148.935 92.5555C149.561 94.3011 150.055 96.2188 150.95 97.8193C152.264 97.9262 153.586 97.9081 154.896 97.7652C159.871 97.7119 179.798 91.3174 183.995 88.4953C183.779 85.3028 182.196 82.3555 181.404 79.3769C180.783 77.0386 180.222 74.8312 179.56 72.4915C178.732 69.5669 177.658 66.5765 176.891 63.6942C175.852 59.6625 174.857 55.6201 173.904 51.5676C173.463 49.6233 173.097 47.4906 172.584 45.5812C172.131 43.8954 170.7 43.2327 169.963 41.5013C169.623 40.6817 169.452 40.1093 169.205 39.2526C166.976 30.6622 159.792 22.4576 151.461 19.3354C147.359 17.7983 143.274 16.3886 139.132 14.9734C135.507 13.7347 131.909 11.7721 128.34 10.3488C127.935 10.0242 126.223 9.21942 125.623 8.87485C125.447 8.73815 125.273 8.59644 125.105 8.4499C124.573 7.98964 123.906 7.50668 123.855 6.79903C123.942 6.46318 124.062 6.40807 124.334 6.20728C124.656 6.10953 124.724 5.993 124.936 5.74325C122.678 4.44563 120.86 3.78536 118.352 2.22302C117.345 1.3239 116.74 0.805697 115.636 0Z" fill="#D3C8B5"/>
<path d="M145.806 96.61C145.734 97.0429 145.647 97.4086 145.71 97.8429C145.973 97.7393 145.7 97.3715 145.904 97.0239C146.482 96.0338 146.34 90.7584 146.808 90.1915C146.944 94.7969 145.257 101.25 144.837 105.949C144.387 104.666 145.162 103.11 145.152 102.095C145.135 100.225 144.885 98.6604 145.499 96.7621C145.521 96.6929 145.708 96.6472 145.806 96.61Z" fill="#45324E"/>
<path d="M124.936 5.74329C125.472 6.02103 129.383 7.9824 129.551 8.29031C128.587 8.50873 126.589 6.38897 124.334 6.20732C124.656 6.10957 124.724 5.99304 124.936 5.74329Z" fill="#55545A"/>
<path d="M0 0H73.3253L72.9049 0.477363C72.3187 0.93548 71.1448 1.90228 70.5565 2.24945C69.5565 2.7794 64.6283 5.17111 64.2217 6.20628C64.6253 6.54837 65.158 6.12573 65.511 6.89423C65.4096 7.69153 64.8166 8.0641 64.2325 8.54153C63.3593 9.04192 62.4116 9.56193 61.4996 9.98594C61.2777 10.0739 60.5384 10.3496 60.3694 10.446C58.8809 10.9552 57.6087 11.8711 56.2232 12.4138C54.5254 13.0789 52.4761 14.1603 50.7527 14.6684C48.1342 15.3939 45.7015 16.396 43.1704 17.3582C40.5272 18.363 37.2014 19.2154 34.7636 20.6593C30.6171 23.1152 25.3299 27.4724 23.1593 31.895C22.1674 33.9319 21.2715 36.0142 20.4746 38.135C20.1413 39.0793 19.8583 39.9067 19.3065 40.7535C18.72 41.5987 17.0112 43.5521 16.7759 44.1985C16.2264 45.7078 15.9346 48.0069 15.5614 49.6343L12.7554 61.4884C12.4502 62.7728 11.8687 64.0285 11.5591 65.2825C11.11 67.1014 10.7718 68.9755 10.304 70.7925C8.77857 76.6561 7.06688 82.4695 5.17156 88.2243C7.62676 89.8435 12.8623 91.9792 15.7164 92.8461C17.4323 93.9052 21.1481 94.4919 23.1881 95.121C24.4047 95.4962 26.4272 96.2708 27.6313 96.4469C30.9225 96.9281 34.6144 97.9905 37.913 97.6225C38.8631 97.4292 40.3834 90.7803 40.747 89.5323C41.0132 88.5894 41.3392 87.6645 41.7228 86.763L42.0475 86.8783C42.2802 87.4121 42.0173 90.1687 42.4924 91.6779C42.5353 92.0163 42.709 93.3897 42.8045 93.6735C43.2246 97.4885 43.8048 101.296 44.256 105.094C44.6727 108.601 44.6699 112.505 44.98 116H0V0Z" fill="#D2C7B4"/>
<path d="M20.5912 46.3982C21.2085 46.7164 22.6789 47.4193 23.0076 48.0142C23.1051 48.1907 23.3943 48.9203 23.5853 49.2716L23.6872 49.2912C23.9887 48.4588 23.0061 43.9518 23.6309 42.8543C23.9281 42.3324 25.6961 43.0616 26.1339 43.3098C26.184 44.0948 27.2226 46.0546 27.5274 47.2126L27.5651 47.2558C27.6908 47.4016 27.6899 47.3656 27.7289 47.5398L27.8598 47.5941C28.6467 47.1731 30.1426 48.1767 30.7084 48.6696C30.7331 48.8018 30.7748 48.9878 30.7864 49.1163C30.7826 48.8068 30.7169 48.4486 30.863 48.241C30.9687 48.3369 31.0796 48.4517 31.1992 48.5222C31.3666 48.0766 31.7661 47.7001 31.7983 47.318C31.6763 47.0482 31.5899 46.9144 31.4332 46.6679L31.499 46.5141C32.5619 47.1954 33.396 51.1598 35.0373 52.8874C35.6314 53.1886 38.31 55.6606 38.5842 56.4643C38.6953 56.7903 38.6696 58.1125 38.8822 58.376C40.4097 58.9404 40.8542 58.9441 41.5788 60.5162C41.8628 61.1326 42.4164 63.1384 41.9579 63.6912C41.7308 63.9022 41.6132 64.0022 41.6381 64.3885C41.6996 65.3427 41.7047 68.2437 41.8877 69.0624C41.1217 69.7047 41.2539 69.7721 40.6945 70.4435C40.5068 71.1036 40.5291 71.8614 40.5862 72.5439L40.6921 72.5606C41.139 72.6291 42.166 72.5963 42.3564 72.772L42.4915 73.1951C42.8833 73.2505 42.8864 72.9298 43.4562 73.0747C43.9179 73.5275 43.0679 76.7133 42.8148 77.3923C42.5121 78.1761 42.4074 78.6191 42.766 79.4239C42.9165 79.7558 43.0735 80.0849 43.2366 80.4108C43.4521 80.9209 43.5986 81.2782 43.7034 81.8269C43.7725 83.6187 43.4424 85.9167 43.3818 87.7774C43.3397 89.0689 42.9104 90.6447 43.1423 92.0084L43.2792 91.9842C43.3154 91.6119 43.2572 91.3963 43.4232 91.1459C43.4541 92.143 43.6709 95.2411 43.3781 95.9674L43.3077 95.9141C43.2937 95.4474 43.1293 94.0034 42.8046 93.6734C42.7091 93.3897 42.5354 92.0162 42.4925 91.6779C42.0174 90.1686 42.2803 87.412 42.0476 86.8783L41.723 86.7629C41.3393 87.6644 41.0134 88.5894 40.7472 89.5322C40.3835 90.7802 38.8632 97.4292 37.9131 97.6224C34.6146 97.9905 30.9226 96.928 27.6315 96.4468C26.4273 96.2707 24.4049 95.4961 23.1882 95.1209C21.1483 94.4918 17.4324 93.9051 15.7166 92.846L15.7985 92.7722C16.0582 92.7099 17.27 93.2473 17.8329 93.4164C19.2693 93.8477 21.887 94.8726 23.3741 94.4397C23.9148 94.2823 23.8171 91.6856 24.0186 90.8988C24.737 90.4783 25.2565 87.4937 25.7161 86.6749C25.994 86.1798 26.3483 86.291 26.5213 85.9537C26.8118 85.3872 26.6494 84.0583 26.6715 83.3813C26.7215 81.8517 26.5875 80.2912 26.5507 78.7865C26.621 77.729 26.7854 76.6137 26.8514 75.5626C26.9077 74.6653 26.5872 74.0854 27.1376 73.2945C27.1092 73.3351 26.8544 72.6623 26.8386 72.6055C27.3102 72.4242 27.3622 72.6961 28.0136 72.699L28.1394 72.5255C28.1375 71.5595 26.9266 69.5588 26.2366 68.8459C25.8487 68.4451 25.1562 68.2277 25.3449 67.677L25.8448 67.3881C26.0692 66.9974 25.9859 66.9906 25.9693 66.4638C25.9213 66.4014 25.6446 65.8599 25.5887 65.7541C25.1383 65.5699 23.7713 64.9915 23.5562 64.6295C23.6304 64.2588 23.7713 64.3274 24.1391 63.982L24.1478 63.6225L23.1573 62.5576C22.9036 62.2065 16.6042 60.3066 15.9308 59.3369C16.2877 58.7993 17.2336 58.0255 17.739 57.6064C18.5013 57.5368 19.401 57.6021 20.1572 57.4979C20.3545 57.4708 20.49 57.3628 20.5661 57.1629C20.8911 56.3101 21.2531 54.769 20.9571 53.899C20.9069 53.7515 20.8852 53.7609 20.9174 53.6034C21.9568 54.309 20.8499 56.4167 20.9372 57.0743C21.2002 57.3192 21.14 57.2459 21.5685 57.2886C21.7987 56.9694 21.49 56.7748 21.7522 56.5618C22.4031 56.0328 23.4614 55.5816 23.4426 54.5943C23.4371 54.3089 23.0425 54.0731 23.1757 53.5509C23.7161 54.301 24.4792 56.6272 25.8718 56.539L26.008 56.2931C25.9592 55.8184 25.7475 55.672 25.5463 55.2838C24.5593 53.3797 23.787 51.358 23.1323 49.316C22.8124 48.3182 22.6427 47.7839 21.662 47.2777C21.3061 47.094 20.8496 46.71 20.5912 46.3982Z" fill="#070C3D"/>
<path d="M35.0371 52.8876C35.6312 53.1888 38.3098 55.6607 38.5839 56.4644C38.6951 56.7905 38.6694 58.1127 38.882 58.3762C40.4095 58.9405 40.854 58.9443 41.5785 60.5164C41.8625 61.1328 42.4161 63.1385 41.9577 63.6913C41.7306 63.9024 41.613 64.0024 41.6379 64.3887C41.6994 65.3428 41.7045 68.2439 41.8875 69.0626C41.1214 69.7049 41.2536 69.7723 40.6943 70.4437C39.9293 69.7538 40.1241 69.1843 39.8479 68.1065C39.5031 66.7607 38.8357 65.1644 38.6209 63.8515C38.2555 61.5979 38.8103 58.7883 38.144 56.6308C37.7858 55.471 35.7658 54.1305 35.0371 52.8876Z" fill="#0B1041"/>
<path d="M27.5273 47.2126L27.5651 47.2558C27.6908 47.4016 27.6899 47.3657 27.7289 47.5398L27.8598 47.5942C28.6467 47.1731 30.1426 48.1768 30.7084 48.6697C30.7331 48.8019 30.7748 48.9879 30.7863 49.1163C31.2951 49.8481 32.1984 50.9457 31.9658 51.8035C31.6301 52.1872 30.6856 52.3432 30.131 52.5095C28.5813 52.2778 27.8509 48.4818 27.5273 47.2126Z" fill="#212851"/>
<path d="M41.7229 86.7631C42.0121 85.7018 42.0138 83.4269 42.2958 83.0577C42.6456 83.862 42.33 87.1901 42.3483 88.2511C42.3667 89.3213 42.5306 90.6393 42.4924 91.678C42.0173 90.1687 42.2802 87.4122 42.0476 86.8784L41.7229 86.7631Z" fill="#45324E"/>
<path d="M25.5886 65.7542C26.0902 64.6646 27.9533 65.2983 28.193 66.1645C27.7063 66.7219 26.5303 66.3283 25.9692 66.4639C25.9212 66.4015 25.6446 65.86 25.5886 65.7542Z" fill="#0B1041"/>
<path d="M37.8246 80.1206C38.1094 80.1232 38.1843 80.0964 38.3981 80.2578L38.3719 80.4971C37.6744 81.3844 33.5958 83.2321 32.3091 83.8533C32.0327 83.8541 31.9704 83.8332 31.6983 83.7689L31.6284 83.6056C31.7373 83.4489 37.4898 80.2121 37.8246 80.1206Z" fill="#212851"/>
<path d="M30.4745 69.7943C30.8165 69.8382 31.117 69.8426 31.385 70.0612C31.5504 70.4512 31.5047 70.331 31.4454 70.7878C31.0581 70.7936 30.8488 70.7785 30.5496 70.5366C30.3797 70.1263 30.424 70.2611 30.4745 69.7943Z" fill="#0B1041"/>
<path d="M41.8875 69.0625C41.7046 68.2438 41.6995 65.3428 41.638 64.3886C41.613 64.0024 41.7306 63.9023 41.9577 63.6913C41.966 65.3202 42.6028 67.1324 43.2778 68.5887C43.3155 68.67 43.1126 69.0373 43.0624 69.1205C44.2267 70.2823 44.635 70.8542 45.3851 72.3067C45.6569 72.8332 47.0314 73.7551 47.1586 74.4609L46.7648 74.8247L46.8219 75.0013L46.8084 74.7599C46.8976 74.9751 46.8922 75.092 47.0625 75.1467C47.6655 75.3406 49.8966 74.7513 50.2736 75.2267C50.1498 75.6031 49.4745 76.8887 49.1886 77.0584C48.5139 78.896 47.4961 80.2842 50.4964 80.3596C50.5215 80.3602 51.3755 80.9147 51.8558 80.6372C51.9431 80.5868 52.444 81.348 52.6838 81.2802C53.2256 81.1407 53.3116 81.2327 53.7741 81.7248L53.9986 81.4249L54.2161 81.4152C54.5176 81.7224 54.827 82.2028 55.1592 82.3157C55.2642 81.8616 55.1785 81.8972 55.4764 81.6656C57.9506 81.595 58.2759 80.6609 60.2566 80.6489C60.2654 80.8747 60.1942 80.9993 60.1119 81.2158C60.7961 81.3103 61.1107 81.0728 61.7643 81.4491C62.4178 81.8255 63.168 82.1175 63.6586 82.7204C63.9789 83.1141 63.6282 83.3298 64.0761 83.6638C64.6043 83.1237 65.3344 81.9119 65.8895 81.842C65.6221 82.2785 64.9068 82.8841 64.4955 83.3767C63.7841 84.2289 63.2274 85.1585 62.5822 86.0138C60.7084 88.4978 59.6992 91.0579 58.2611 93.7489C58.1843 93.8924 57.9232 94.6362 57.8797 94.6884C57.4534 95.2001 56.8786 95.8916 56.7428 96.5882L56.7857 96.7521C58.3601 96.3738 60.7273 90.0072 62.179 88.8631L62.2828 88.9262L62.0233 89.4655C62.3978 89.5024 62.6391 89.2617 63.0341 89.0897L62.8218 88.822L62.8584 88.6332C63.0659 88.6383 63.0781 88.6598 63.2606 88.7477C65.6086 87.8551 66.9124 84.7321 68.1171 84.0904L68.1688 84.2193C67.8406 84.5828 67.4203 84.9607 67.3459 85.426C67.503 85.9606 68.7073 86.0822 69.2013 86.1811C70.9298 86.527 73.117 87.154 73.733 89.0281C74.1291 90.3673 74.1497 92.3776 74.0265 93.7885C74.0674 93.8358 74.1082 93.883 74.1491 93.9304C74.3861 93.8226 74.2705 93.8319 74.5003 93.8615C74.2355 94.5332 71.4657 96.7027 70.9145 97.4148C70.0909 98.4786 70.5866 99.9554 69.9572 101.271C69.4536 102.324 68.4419 102.651 68.2097 103.252C68.4258 103.602 69.1856 103.465 69.6732 103.706C69.1159 103.921 68.054 103.339 67.2943 103.693L67.2225 103.726C66.5957 104.019 65.9009 104.54 65.3303 104.947C63.9938 104.623 62.0895 104.212 60.9056 105.073C59.1393 106.358 57.0536 106.223 54.9817 106.585C54.5329 106.663 53.0237 106.892 52.6422 106.824L52.4764 106.517L52.6066 106.509L52.7753 106.797C53.7381 106.709 53.608 106.646 54.4377 106.344C55.0315 106.128 56.5259 106.715 57.1941 105.864C57.0359 105.553 56.1461 105.406 55.8864 105.446C55.0719 105.571 54.7919 105.317 54.5894 104.517C53.982 102.119 54.5538 100.264 54.7663 97.8844C54.8195 96.9365 54.0485 95.9634 54.4912 95.0526C54.5468 94.9381 54.7317 94.3396 54.6706 94.2345C54.0901 93.2338 55.2607 91.8493 54.0361 91.291C53.9008 90.7886 53.8067 89.6841 53.7459 89.1233C53.3836 89.0273 52.9973 89.5306 52.9585 89.2544C52.6947 87.3792 51.5477 87.0917 50.312 88.6015C50.009 88.9717 47.9452 89.3595 47.1912 89.541L46.958 89.4445C46.5419 89.8214 46.0449 90.3696 45.499 90.4343C44.6764 91.1874 43.976 93.4521 43.7576 94.5318C43.6834 94.8987 44.128 95.6902 43.851 96.1883C43.5901 96.2083 43.6558 96.1833 43.378 95.9675C43.6707 95.2412 43.454 92.1431 43.423 91.146C43.257 91.3964 43.3152 91.6121 43.2791 91.9843L43.1421 92.0085C42.9102 90.6449 43.3395 89.069 43.3816 87.7775C43.4422 85.9168 43.7723 83.6188 43.7032 81.827C43.5984 81.2783 43.4519 80.921 43.2365 80.4109C43.0733 80.085 42.9163 79.7559 42.7658 79.424C42.4072 78.6193 42.5119 78.1762 42.8146 77.3924C43.0677 76.7134 43.9177 73.5276 43.456 73.0748C42.8862 72.9299 42.8831 73.2506 42.4913 73.1952L42.3563 72.7721C42.1658 72.5964 41.1388 72.6292 40.6919 72.5608L40.586 72.544C40.5289 71.8615 40.5066 71.1037 40.6943 70.4436C41.2537 69.7722 41.1215 69.7048 41.8875 69.0625Z" fill="#0E1B5A"/>
<path d="M41.8875 69.0625C42.5884 69.6306 42.4944 71.6324 42.4426 72.5136L40.586 72.544C40.5289 71.8614 40.5066 71.1037 40.6943 70.4436C41.2537 69.7722 41.1215 69.7048 41.8875 69.0625Z" fill="#212851"/>
<path d="M42.8147 77.3923C43.2675 77.5189 43.2089 77.4278 43.4509 77.7415C43.5171 78.3886 43.4866 79.8403 43.2366 80.4108C43.0735 80.0849 42.9165 79.7558 42.7659 79.4239C42.4074 78.6192 42.512 78.1761 42.8147 77.3923Z" fill="#212851"/>
<path d="M44.457 77.6958C44.5259 75.5342 49.2551 74.6066 50.1111 75.3455C49.7925 75.8696 49.4696 76.391 49.1425 76.9099C48.9468 77.2785 48.4837 78.448 48.2779 78.6044C48.3437 78.081 48.7053 77.7378 48.6805 77.4324C46.62 78.3864 45.2996 77.3193 44.457 77.6958Z" fill="#34437E"/>
<path d="M155.702 52.0797C156.013 50.8507 157.023 46.8511 157.152 45.7481C157.501 45.7391 158.196 46.1567 158.302 46.4486C158.05 46.6184 157.901 46.6844 157.759 46.9519C158.093 46.7785 158.337 46.6391 158.655 46.439C158.822 46.5154 159.578 46.8324 159.63 46.9323C159.858 47.3657 160.078 47.4907 160.475 47.7682L160.516 47.3776C161.098 47.7531 159.534 52.3573 159.383 53.182C160.479 53.7577 159.864 54.4903 160.82 54.5043C161.891 52.6111 163.157 50.9317 164.008 48.9102C164.179 48.5027 164.422 48.0546 164.617 47.6494C165.146 47.5192 165.515 47.4326 166.06 47.3585C164.851 52.4663 162.936 60.1163 158.969 63.6736C158.12 64.4351 156.34 65.8051 155.893 67.0122C155.898 67.0007 156.051 67.6096 156.069 67.6835C155.927 67.6647 155.835 67.6215 155.704 67.5707C155.496 67.9069 154.158 69.7843 154.163 69.7556L154.351 69.9106C153.786 70.3509 153.097 69.9294 153.011 70.6228C152.965 70.9946 153.262 71.1672 153.41 71.4145C152.699 73.1877 151.734 72.7135 153.095 74.441C152.225 76.6924 151.269 78.8967 150.228 81.0726C150.032 81.4821 149.855 81.888 149.719 82.3218L149.811 82.4455C150.626 82.5357 151.161 82.3621 151.96 82.3282C152.293 82.2467 152.679 82.2221 153.025 82.1876C153.528 82.2953 153.65 82.44 153.988 81.9625C155.607 82.1269 156.094 83.5888 156.283 84.992C156.283 84.9881 156.507 85.1509 156.558 85.2498C157.865 85.656 157.093 86.6071 156.503 87.2627C154.888 89.054 155.109 92.7438 155.176 95.0117C155.21 96.16 156.095 95.4647 155.169 97.3643C155.369 97.3718 155.557 97.3597 155.737 97.4372C155.46 97.7397 155.303 97.5774 154.896 97.7652C153.586 97.9081 152.264 97.9262 150.95 97.8193C150.055 96.2188 149.561 94.3011 148.935 92.5555C148.482 91.2896 147.693 89.5523 147.432 88.3258C146.609 88.7091 147.078 89.2857 146.823 90.0862L146.808 90.1916C146.34 90.7584 146.482 96.0338 145.904 97.0239C145.7 97.3716 145.973 97.7394 145.71 97.8429C145.647 97.4086 145.734 97.0429 145.805 96.6101C145.939 96.2964 145.928 95.8586 146.039 95.5535C146.45 94.4205 145.744 93.9577 145.668 92.9398C144.024 92.602 144.95 92.067 144.562 91.1388C144.446 91.7416 144.529 92.3917 144.198 92.8558C143.987 92.7065 144.433 91.7262 144.201 90.9839C143.785 90.5888 144.145 90.9219 143.632 90.9027L143.8 90.4755C143.752 90.1528 143.552 89.8781 143.285 89.6359C142.737 89.1299 142.296 87.8689 142.127 87.1704C141.129 83.0363 140.707 78.7078 143.509 75.1577C144.124 74.3777 144.478 73.336 145.401 72.6399C145.683 72.4267 146.126 71.3409 146.457 71.0665C146.939 70.6113 148.438 70.1268 148.498 69.3729C148.668 67.2484 148.435 65.0225 148.653 62.8809C148.755 61.8744 149.359 61.2552 149.705 60.3023C149.987 59.525 149.771 56.6683 149.972 56.3309C149.88 56.0965 149.785 55.726 149.711 55.4747C150.057 54.9926 152.048 54.6819 152.66 54.5769C152.972 54.5236 153.668 55.8453 154.254 56.0951C154.306 56.0866 154.357 56.0782 154.409 56.0698C154.561 55.2261 155.279 52.5896 155.702 52.0797Z" fill="#0B1041"/>
<path d="M149.972 56.3309C149.88 56.0966 149.785 55.726 149.711 55.4748C150.057 54.9926 152.048 54.6819 152.66 54.5769C152.972 54.5236 153.668 55.8453 154.254 56.0951C154.306 56.0866 154.357 56.0782 154.409 56.0698C154.561 55.2261 155.279 52.5896 155.702 52.0797C155.664 52.954 154.346 56.785 154.041 57.9561C153.825 57.3602 153.231 55.3943 152.733 55.153C151.933 55.4574 150.606 55.0132 150.182 55.5944C150.126 55.8371 150.08 56.1108 149.972 56.3309Z" fill="#0E1B5A"/>
<path d="M153.025 82.1876C153.528 82.2953 153.65 82.44 153.988 81.9625C155.606 82.1269 156.094 83.5888 156.283 84.992C156.283 84.9882 156.507 85.1509 156.558 85.2498L156.397 85.3365C154.905 84.6041 154.743 82.3128 151.96 82.3282C152.293 82.2467 152.679 82.2222 153.025 82.1876Z" fill="#0E1B5A"/>
<path d="M146.823 90.0862C146.772 88.5074 146.802 86.9661 147.238 85.442L147.339 85.3982C147.43 85.8426 147.407 87.7124 147.432 88.3258C146.608 88.7091 147.077 89.2857 146.823 90.0862Z" fill="#A68284"/>
<path d="M149.536 77.4952C149.768 77.4325 149.681 77.4418 149.957 77.5862C150.298 78.223 149.954 79.1532 149.511 79.658C149.253 79.9537 148.932 79.8703 148.556 79.8848L148.087 79.6021C147.803 78.75 148.832 77.7832 149.536 77.4952Z" fill="#080A29"/>
<path d="M82.3048 9.95996C83.1897 10.2199 84.4209 10.6249 85.3308 10.6451C89.6537 10.7413 94.0331 10.9623 98.3527 10.8915C100.955 10.8489 103.493 10.4446 106.106 10.6835C106.48 10.7131 106.988 10.7033 107.213 10.3448C107.531 11.7741 110.482 14.2893 111.642 15.3517C111.174 16.0149 110.096 16.6328 109.39 17.0925C105.203 19.8209 100.358 21.3329 95.5896 22.6774C93.8729 23.0888 92.1676 22.5309 90.5666 22.0907C85.5405 20.7085 81.6628 18.1243 77.3948 15.3221C78.7655 13.1592 81.6653 12.8018 82.3048 9.95996Z" fill="#0B1041"/>
<path d="M90.9465 12.84C91.8368 12.7865 94.007 12.7961 94.8207 13.0875L94.649 13.0412L94.8669 13.3267C93.782 14.2873 90.9974 14.0998 89.8533 14.9323L89.8657 15.0667C90.267 15.2882 93.5709 15.4541 94.4279 15.5784C94.7334 16.0242 95.3817 16.867 95.9871 16.5895C95.8843 16.1907 95.8368 16.0888 95.9439 15.6878C96.6448 14.8529 98.4378 16.2166 99.1765 16.665C99.6006 16.9933 100 17.3572 100.402 17.713C99.6912 17.7145 98.189 17.6694 97.57 17.8646C94.8457 18.7237 93.159 19.0366 90.312 18.8819C89.9885 19.0819 89.7549 19.2711 89.3771 19.2707L89.2449 19.1052C89.3269 18.4301 89.9753 17.814 90.2147 17.0355C90.0938 16.558 89.3552 16.333 89.2444 16.072C88.8975 15.2554 90.3033 13.1953 90.9465 12.84Z" fill="#212851"/>
<path d="M97.0572 12.0382C97.5228 12.0905 97.6766 12.1649 97.9146 12.5378C97.9889 13.0096 97.7106 13.6413 97.5484 14.1145C97.104 14.2342 97.0666 14.1977 96.8032 13.8624C96.6296 13.22 96.8319 12.6446 97.0572 12.0382Z" fill="#212851"/>
<path d="M79.0042 0H113.64C113.119 0.384275 111.573 0.41698 110.848 0.521735C109.275 0.748602 107.654 1.28616 106.088 1.43548C106.184 2.23751 106.35 3.32701 106.402 4.10976C106.633 4.94779 106.843 7.56076 107.06 7.82779C107.206 8.73304 107.119 9.49867 107.213 10.3448C106.988 10.7033 106.48 10.7131 106.106 10.6836C103.493 10.4446 100.955 10.8489 98.3527 10.8915C94.0331 10.9623 89.6537 10.7413 85.3308 10.6451C84.4209 10.6249 83.1897 10.2199 82.3048 9.95998C82.457 9.5115 82.7023 8.35475 82.8314 7.83634C83.3238 7.13925 83.3211 3.90066 83.3445 2.90305C83.3754 2.5071 83.6948 1.59002 83.8439 1.21345C82.3482 0.983837 80.8325 0.728759 79.3192 0.698629L79.0042 0Z" fill="#7D090D"/>
<path d="M79.0042 0H113.64C113.119 0.384275 111.573 0.41698 110.848 0.521735C109.275 0.748602 107.654 1.28616 106.088 1.43548C105.098 1.50304 104.067 1.58898 103.079 1.60695C97.8391 1.75064 93.1355 1.69238 87.9253 1.57649C86.6079 1.41828 85.1753 1.32424 83.8439 1.21345C82.3482 0.983837 80.8325 0.728759 79.3192 0.698629L79.0042 0Z" fill="#F0D2CF"/>
<path d="M83.8438 1.2135C85.1752 1.32429 86.6079 1.41834 87.9252 1.57654C87.5621 1.67961 87.026 1.7913 86.7025 1.94492C85.6126 2.46246 84.027 1.88564 83.3445 2.9031C83.3754 2.50715 83.6947 1.59007 83.8438 1.2135Z" fill="#7A1418"/>
<path d="M103.079 1.60702C104.067 1.58905 105.098 1.50311 106.088 1.43555C106.184 2.23758 106.35 3.32708 106.402 4.10983C105.84 3.54797 106.236 2.55991 105.917 2.42388C105.038 2.04985 104.039 2.17167 103.162 1.65711L103.079 1.60702Z" fill="#7A1418"/>
<path d="M64.2324 8.5415L64.4038 8.61712L64.2297 8.95258C64.541 9.32632 64.6506 9.37498 64.8586 9.82005C65.0572 9.80369 65.0973 9.73859 65.2449 9.6037L65.3668 9.79996C66.5755 10.1485 66.4627 11.8814 65.3058 12.4372C59.9535 15.0089 54.3054 17.2653 48.6689 19.1192C44.6996 20.4248 40.6902 21.4099 36.92 23.3043C30.6625 26.4773 25.1847 32.6053 23.1599 39.3576C22.7149 40.8415 22.0766 44.0597 20.8912 44.7347C19.6571 44.8503 19.9672 43.4052 20.0516 42.6549C19.6995 42.204 19.7928 41.5266 19.3064 40.7535C19.8582 39.9067 20.1412 39.0793 20.4744 38.135C21.2714 36.0141 22.1673 33.9319 23.1592 31.895C25.3298 27.4724 30.617 23.1151 34.7635 20.6593C37.2013 19.2154 40.527 18.363 43.1702 17.3582C45.7014 16.396 48.1341 15.3939 50.7526 14.6684C52.4759 14.1602 54.5253 13.0789 56.2231 12.4138C57.6086 11.8711 58.8807 10.9552 60.3693 10.446C60.5383 10.3496 61.2776 10.0738 61.4995 9.98591C62.4115 9.56191 63.3592 9.04189 64.2324 8.5415Z" fill="#D5DAE7"/>
<path d="M60.3692 10.446C60.5382 10.3496 61.2775 10.0739 61.4994 9.98596C61.6615 10.3112 61.8483 10.9378 61.7856 11.2991L60.519 11.8879C56.2085 14.0549 50.9203 15.9982 46.32 17.4679C38.9806 19.8125 32.7302 21.8794 27.4508 27.9054C24.1114 31.7171 22.7842 34.4453 21.1761 39.255L21.1531 39.3248C20.5807 38.9298 20.4721 38.8416 20.4744 38.135C21.2713 36.0142 22.1673 33.932 23.1592 31.895C25.3297 27.4724 30.6169 23.1152 34.7635 20.6594C37.2013 19.2155 40.527 18.363 43.1702 17.3582C45.7013 16.396 48.1341 15.3939 50.7526 14.6685C52.4759 14.1603 54.5253 13.0789 56.223 12.4138C57.6086 11.8711 58.8807 10.9552 60.3692 10.446Z" fill="#050506"/>
<path d="M60.3694 10.446C60.5384 10.3496 61.2777 10.0739 61.4996 9.98596C61.6617 10.3112 61.8485 10.9378 61.7857 11.2991L60.5191 11.8879C60.5811 11.4914 60.4422 10.8619 60.3694 10.446Z" fill="#080A29"/>
<path d="M64.2324 8.5415L64.4038 8.61712L64.2297 8.95258C64.541 9.32632 64.6507 9.37498 64.8586 9.82005C65.0572 9.80369 65.0973 9.73859 65.2449 9.6037L65.3668 9.79996C64.2041 10.3742 62.9317 10.7518 61.7857 11.299C61.8484 10.9377 61.6616 10.3112 61.4995 9.98591C62.4115 9.56191 63.3592 9.04189 64.2324 8.5415Z" fill="#0B1041"/>
<path d="M20.4744 38.135C20.4722 38.8415 20.5807 38.9298 21.1531 39.3248C20.8108 40.2786 20.264 41.7009 20.0516 42.6549C19.6995 42.2041 19.7928 41.5266 19.3064 40.7535C19.8582 39.9067 20.1412 39.0793 20.4744 38.135Z" fill="#080A29"/>
<path d="M125.623 8.87488C126.222 9.21945 127.935 10.0243 128.34 10.3489C131.909 11.7721 135.507 13.7347 139.132 14.9734C143.273 16.3887 147.358 17.7983 151.46 19.3354C159.792 22.4576 166.975 30.6622 169.205 39.2527C169.452 40.1093 169.623 40.6817 169.963 41.5013C169.743 41.9672 169.531 42.0561 169.088 42.3349C169.215 43.6745 169.153 43.9377 168.771 45.2187C167.025 43.5371 166.193 39.2578 165.017 36.7665C163.363 33.278 160.734 29.3572 157.73 26.8161C149.059 19.4769 136.551 19.4421 126.917 13.5964C125.698 12.8571 124.175 12.5408 123.005 11.7114L122.959 11.6783C123.142 10.9345 123.334 10.4539 123.61 9.74233C124.039 9.92922 124.263 10.0101 124.713 10.1396L124.847 9.89661C125.177 9.76306 125.297 9.7319 125.557 9.47236C125.472 9.34962 125.369 9.24781 125.359 9.12198L125.623 8.87488Z" fill="#D5DAE7"/>
<path d="M128.34 10.3488C131.909 11.772 135.507 13.7346 139.132 14.9733C143.274 16.3885 147.358 17.7982 151.46 19.3353C159.792 22.4575 166.975 30.6621 169.205 39.2526C168.916 39.4314 168.69 39.6089 168.36 39.6591L168.263 39.3718C165.593 31.546 160.501 24.8524 153.002 21.1125C149.082 19.1574 145.403 18.4121 141.382 17.0318C136.76 15.455 132.248 13.5727 127.875 11.3974C127.982 11.0317 128.234 10.9097 128.34 10.3488Z" fill="#050506"/>
<path d="M125.623 8.87488C126.223 9.21945 127.935 10.0243 128.34 10.3489C128.234 10.9098 127.982 11.0319 127.875 11.3975C126.693 10.8717 125.956 10.5643 124.714 10.1396L124.847 9.89661C125.177 9.76306 125.297 9.7319 125.558 9.47236C125.473 9.34962 125.37 9.24781 125.359 9.12198L125.623 8.87488Z" fill="#080A29"/>
<path d="M169.205 39.2526C169.452 40.1092 169.623 40.6816 169.963 41.5012C169.743 41.9671 169.531 42.056 169.088 42.3348C168.941 41.315 168.718 40.6142 168.36 39.6591C168.69 39.6089 168.916 39.4314 169.205 39.2526Z" fill="#212851"/>
<path d="M73.3253 0H79.0043L79.3193 0.698629C80.8326 0.728759 82.3483 0.983837 83.844 1.21345C83.6949 1.59002 83.3755 2.5071 83.3446 2.90305C83.3212 3.90066 83.3239 7.13925 82.8315 7.83634C79.0813 7.62247 75.8359 6.74933 72.2564 5.64901C69.9717 4.70614 71.7641 3.67462 70.5566 2.24945C71.1449 1.90228 72.3188 0.93548 72.905 0.477363L73.3253 0Z" fill="#080A29"/>
<path d="M73.3252 0H79.0041L79.3191 0.698629C78.2815 0.768625 73.8122 0.687477 72.9048 0.477363L73.3252 0Z" fill="#777879"/>
<path d="M113.64 0H115.636C116.74 0.805697 117.345 1.3239 118.352 2.22302C117.365 3.27256 118.225 5.5722 116.713 6.15843C113.681 6.84606 110.154 7.71836 107.06 7.82779C106.843 7.56076 106.633 4.94779 106.402 4.10976C106.35 3.32701 106.184 2.23751 106.088 1.43548C107.654 1.28616 109.275 0.748602 110.848 0.521735C111.573 0.41698 113.119 0.384275 113.64 0Z" fill="#080A29"/>
<path d="M72.2562 5.64905C75.8357 6.74937 79.0811 7.62251 82.8313 7.83638C82.7022 8.35479 82.4569 9.51154 82.3047 9.96002C81.6651 12.8018 78.7654 13.1592 77.3947 15.3221C76.7136 15.4782 70.4924 7.49953 71.5736 5.74141L72.2562 5.64905Z" fill="#666980"/>
<path d="M116.713 6.15845L117.045 6.23731C117.231 6.74989 116.15 9.41187 115.889 9.97548C115.041 11.803 113.13 14.0199 111.642 15.3518C110.482 14.2893 107.531 11.7741 107.213 10.3448C107.119 9.49868 107.206 8.73306 107.06 7.82781C110.154 7.71838 113.681 6.84608 116.713 6.15845Z" fill="#666980"/>
<path d="M89.4656 116C89.757 115.678 89.7531 115.64 90.2722 115.627C92.426 115.577 94.6195 115.616 96.7723 115.628C100.819 115.65 104.866 115.641 108.912 115.6C108.654 115.32 108.711 115.46 108.698 115.08C108.977 114.702 109.186 114.951 109.543 114.506C110.345 114.364 111.767 114.342 112.11 115.252L112.033 115.482C112.556 115.666 113.796 115.71 114.363 115.668C114.826 115.386 115.157 115.107 115.575 114.77C115.332 115.167 114.856 115.692 114.736 116H89.4656Z" fill="#0E1B5A"/>
<path d="M22.2215 62.9501L22.0292 62.9165L21.9495 62.8002C22.7697 62.7157 22.6135 62.6243 23.1571 62.5576L24.1476 63.6226L24.1389 63.982C23.7711 64.3274 23.6302 64.2589 23.556 64.6295C23.7711 64.9916 25.1381 65.57 25.5885 65.7542C25.6444 65.86 25.9211 66.4015 25.9691 66.4639C25.9857 66.9907 26.069 66.9975 25.8446 67.3882L25.3447 67.677C24.8163 67.1251 22.6752 65.5396 22.035 65.4072C21.6286 65.4927 21.7024 65.4103 21.5124 65.6681C21.567 66.0466 21.9534 66.4239 22.2131 66.7303L22.1147 66.7439C21.7097 66.4045 21.0644 66.1055 20.9263 65.9272L20.9553 65.7316C21.2211 65.3764 22.0808 64.9526 22.52 64.6531C22.286 64.1967 21.3859 64.3697 21.196 63.3817L21.3793 63.2289C21.6667 62.9754 21.8479 62.9891 22.2215 62.9501Z" fill="#34437E"/>
<path d="M22.2215 62.9501L22.0291 62.9165L21.9495 62.8002C22.7696 62.7157 22.6134 62.6243 23.157 62.5576L24.1476 63.6226C23.9604 63.9626 23.9125 63.9854 23.5679 64.1545C23.2116 64.1448 23.0784 64.1368 22.8698 63.7712C22.6845 63.2252 22.7311 63.1384 22.2215 62.9501Z" fill="#4D5A8A"/>
<path d="M22.2216 62.9502C22.7313 63.1385 22.6847 63.2252 22.8699 63.7713L22.6035 64.0231C21.8903 64.181 21.6175 63.8631 21.3794 63.229C21.6668 62.9755 21.848 62.9892 22.2216 62.9502Z" fill="#212851"/>
<path d="M155.162 72.1052C155.809 72.7488 156.037 73.0421 156.902 73.3655C156.664 73.7245 156.529 74.012 156.133 74.1733C155.252 74.2317 155.117 73.8366 154.551 74.4501C154.659 75.2333 155.876 75.6564 155.023 76.5424C154.636 76.405 154.364 75.7751 153.905 75.4742C153.848 75.1883 153.595 74.7919 153.442 74.5204L153.898 73.6328C154.33 73.2207 154.514 72.5894 155.162 72.1052Z" fill="#4D5A8A"/>
<path d="M153.41 71.4146C153.607 71.7055 153.559 71.5694 153.569 71.9437C153.222 72.7855 152.457 72.7803 152.687 73.6173C152.931 73.8738 153.004 73.9868 153.357 74.0747C153.631 73.8678 153.561 73.8965 153.709 73.5447C153.853 73.583 153.808 73.5434 153.898 73.6328L153.442 74.5204C153.595 74.7919 153.848 75.1883 153.905 75.4742L153.734 75.4419C153.564 75.0773 153.59 74.9441 153.3 74.8376C153.233 74.9187 150.39 81.1733 150.351 81.3403C150.542 81.8347 150.817 81.6559 150.703 82.0206C150.468 82.1965 150.453 82.1426 150.419 82.3523L150.525 82.3247C150.97 82.2101 152.68 81.9491 153.025 82.1876C152.679 82.2221 152.293 82.2467 151.96 82.3282C151.161 82.3622 150.625 82.5357 149.811 82.4455L149.719 82.3218C149.855 81.888 150.032 81.4821 150.228 81.0726C151.269 78.8967 152.225 76.6924 153.095 74.441C151.733 72.7135 152.699 73.1877 153.41 71.4146Z" fill="#212851"/>
<path d="M155.162 72.1052C155.985 71.5111 156.976 70.5279 157.932 71.5512C158.192 72.4246 157.495 72.8596 156.902 73.3655C156.037 73.0421 155.809 72.7488 155.162 72.1052Z" fill="#34437E"/>
<path d="M119.648 38.1696C120.361 37.9785 122.771 39.3017 123.461 38.6039L123.388 38.221L123.537 38.1288L123.764 38.4429C124.292 38.4184 124.804 37.8156 125.269 37.7076C125.954 37.5478 126.386 37.9306 127.112 37.7501C126.949 38.182 126.883 38.1333 127.011 38.4685C127.716 38.6525 128.259 38.1732 128.572 38.2067C128.298 38.5317 127.927 38.4633 127.579 38.691C127.965 39.2579 128.426 39.1489 128.933 39.4034C129.806 39.3404 130.375 40.036 131.151 39.3371C131.338 39.1687 131.551 38.9536 131.785 39.0126C132.168 39.1094 132.907 39.7639 133.164 40.0486C134.225 40.0663 135.81 39.9993 136.782 40.1165C136.624 46.9884 136.928 54.0243 136.535 60.8853C136.453 62.3005 135.874 63.7945 134.799 64.7256C133.185 66.1124 127.588 69.7172 125.56 69.6757C125.364 69.6698 125.169 69.6484 124.976 69.6116C124.941 69.6094 124.754 69.5957 124.726 69.5824C121.473 68.0633 116.44 65.2044 114.444 62.3101C114.353 62.2153 114.265 62.1193 114.176 62.0223C111.896 59.4971 112.522 56.2848 112.368 53.1288C112.148 48.6367 112.312 44.118 112.535 39.6281C113.969 39.3599 114.817 38.807 116.09 38.1301C116.239 38.2897 116.276 38.3486 116.352 38.554C117.571 39.0104 118.337 37.5361 119.648 38.1696Z" fill="#EBE1DF"/>
<path d="M128.933 39.4034C129.806 39.3404 130.375 40.0359 131.151 39.3371C131.338 39.1686 131.551 38.9535 131.785 39.0125C132.168 39.1094 132.907 39.7638 133.164 40.0486C134.225 40.0663 135.81 39.9992 136.782 40.1165C136.624 46.9883 136.928 54.0242 136.535 60.8852C136.453 62.3004 135.874 63.7945 134.799 64.7256C133.185 66.1124 127.588 69.7172 125.56 69.6756C125.364 69.6697 125.169 69.6483 124.976 69.6116C124.941 69.6093 124.754 69.5956 124.726 69.5824C121.473 68.0633 116.44 65.2044 114.444 62.3101C114.598 61.9284 114.629 61.8862 114.915 61.5875C114.515 60.2955 114.915 56.5527 114.991 54.9795C115.205 54.0979 115.224 51.9872 115.277 50.973C115.647 51.2605 115.232 53.2608 115.661 53.8225C115.704 58.8155 115.019 60.9936 119.582 64.1178L120.148 63.4198C120.671 62.3776 121.451 60.7144 122.033 59.7769L122.445 59.0481C123.099 58.5519 123.208 57.69 124.724 56.8312C125.205 57.1347 125.362 57.0262 125.802 56.7225C126.286 56.3892 126.75 56.0274 127.235 55.6959C127.44 55.5553 127.596 55.6423 127.816 55.4985L128.292 54.5691C128.455 54.2439 128.771 53.6873 129.02 53.4303C129.44 52.9347 129.355 52.2664 129.33 51.6408L130.217 50.5153C130.579 50.1668 131.91 48.2644 132.207 47.801L132.429 47.5479C132.914 47.2897 132.786 47.2619 133.239 47.3396C133.703 47.817 133.339 47.8843 133.835 48.1331L133.949 47.8725L133.775 47.6483L133.904 47.7063C134.03 47.6497 134.1 47.6217 134.24 47.6354C134.474 45.83 134.733 45.072 132.955 44.2679C132.761 44.2159 130.582 44.1014 130.224 44.0786C129.633 43.8861 129.662 43.9521 129.245 43.4815L129.26 43.3062C129.874 43.273 130.474 43.1984 131.085 43.1288C131.082 42.4613 131.038 41.7703 131.006 41.1017C130.969 40.3247 130.609 40.0538 129.964 39.7384C129.473 39.694 129.313 39.7058 128.933 39.4034Z" fill="#050506"/>
<path d="M132.429 47.548C132.914 47.2897 132.786 47.2619 133.239 47.3397C133.703 47.817 133.339 47.8843 133.835 48.1332L133.949 47.8725L133.775 47.6483L133.904 47.7063C134.03 47.6497 134.1 47.6217 134.239 47.6354C134.121 48.3289 134.334 48.35 134.366 48.989C134.508 51.6641 134.4 54.3608 134.447 57.0377C134.463 57.956 134.391 59.097 134.48 59.9849C134.362 63.4196 131.372 64.5199 128.584 65.6803C128.404 65.4563 128.3 65.087 128.199 64.806C126.871 65.3433 126.419 64.7023 125.708 65.2569C125.016 65.2953 124.816 65.0979 124.296 64.659L124.195 64.6261C122.96 64.2163 122.724 63.8916 121.604 63.4008C121.208 63.2277 121.072 63.6883 120.236 63.4455L120.148 63.4198C120.671 62.3776 121.451 60.7144 122.033 59.7769L122.445 59.0482C123.099 58.5519 123.208 57.6901 124.724 56.8313C125.205 57.1347 125.362 57.0262 125.802 56.7225C126.286 56.3892 126.75 56.0274 127.235 55.696C127.44 55.5554 127.596 55.6424 127.816 55.4985L128.292 54.5691C128.455 54.2439 128.771 53.6874 129.019 53.4303C129.44 52.9347 129.355 52.2665 129.33 51.6408L130.217 50.5154C130.579 50.1668 131.91 48.2645 132.207 47.801L132.429 47.548Z" fill="#D5DAE7"/>
<path d="M124.724 56.8313C125.205 57.1348 125.362 57.0262 125.802 56.7225C126.286 56.3893 126.75 56.0274 127.235 55.696C127.44 55.5554 127.596 55.6424 127.816 55.4985C127.924 56.0426 127.843 56.0867 128.165 56.4293C128.369 56.4831 128.765 56.5568 128.914 56.6727C128.293 57.313 128.382 57.4025 128.364 58.3138C128.351 58.9242 128.618 60.2306 128.939 60.7653C130.338 62.5476 130.201 63.5098 128.199 64.8061C126.871 65.3434 126.419 64.7023 125.708 65.2569C125.016 65.2953 124.816 65.0979 124.296 64.659L124.195 64.6262C122.96 64.2163 122.724 63.8917 121.604 63.4008C121.208 63.2277 121.072 63.6883 120.236 63.4456L120.148 63.4198C120.671 62.3777 121.451 60.7145 122.033 59.7769L122.445 59.0482C123.099 58.5519 123.208 57.6901 124.724 56.8313Z" fill="#5D1F24"/>
<path d="M128.939 60.7654C130.338 62.5476 130.201 63.5098 128.199 64.8061C126.871 65.3434 126.419 64.7024 125.708 65.257C126.247 63.9726 126.417 61.7209 128.121 61.7305C128.729 61.7339 128.765 61.2541 128.939 60.7654Z" fill="#7E3B42"/>
<path d="M122.033 59.777C122.396 61.1472 124.251 61.6144 124.296 64.6591L124.195 64.6262C122.96 64.2164 122.724 63.8917 121.604 63.4009C121.208 63.2278 121.072 63.6884 120.236 63.4456L120.148 63.4199C120.671 62.3777 121.451 60.7145 122.033 59.777Z" fill="#7E3B42"/>
<path d="M128.292 54.5692C128.455 54.244 128.771 53.6875 129.019 53.4304C129.563 54.7484 130.565 56.125 131.38 57.3174C131.164 57.3526 130.819 57.3904 130.635 57.4819C130.314 57.2099 129.978 56.8209 129.688 56.5053C129.398 56.5236 129.125 56.4984 128.914 56.6728C128.765 56.5569 128.369 56.4831 128.165 56.4293C127.842 56.0868 127.924 56.0427 127.816 55.4986L128.292 54.5692Z" fill="#493527"/>
<path d="M128.292 54.5691C128.672 55.0061 129.396 55.9961 129.688 56.5052C129.398 56.5234 129.125 56.4983 128.914 56.6726C128.765 56.5567 128.369 56.483 128.165 56.4292C127.842 56.0866 127.924 56.0425 127.816 55.4985L128.292 54.5691Z" fill="#D2C7B4"/>
<path d="M130.635 57.4819C130.819 57.3903 131.164 57.3525 131.38 57.3174C131.728 57.8028 132.16 58.3738 132.473 58.871C131.831 58.4227 131.212 58.0135 130.635 57.4819Z" fill="#55545A"/>
<path d="M135.76 40.5327C135.957 40.1543 136.377 40.1911 136.781 40.1165C136.624 46.9883 136.927 54.0242 136.534 60.8852C136.453 62.3004 135.874 63.7945 134.799 64.7256C133.185 66.1123 127.587 69.7172 125.56 69.6756C125.364 69.6697 125.169 69.6483 124.976 69.6116C125.226 69.2098 125.374 68.9827 125.774 68.7391C126.569 68.3123 127.372 67.8147 128.124 67.4034C131.168 65.7637 135.482 64.4097 135.68 60.2638C135.917 55.3242 135.609 50.1304 135.769 45.1636C135.815 43.6982 135.843 41.9935 135.76 40.5327Z" fill="#8D92A1"/>
<path d="M114.444 62.3101C114.598 61.9285 114.629 61.8862 114.915 61.5875C117.032 64.3995 120.04 65.3877 122.953 67.1192C123.436 67.4056 125.411 68.621 125.774 68.7392C125.374 68.9828 125.226 69.2099 124.976 69.6117C124.941 69.6094 124.754 69.5957 124.726 69.5825C121.473 68.0634 116.44 65.2045 114.444 62.3101Z" fill="#777E90"/>
<path d="M120.148 63.4198L120.236 63.4455C121.072 63.6883 121.208 63.2277 121.604 63.4008C122.724 63.8916 122.96 64.2163 124.195 64.6261L124.296 64.659C124.816 65.0978 125.016 65.2953 125.708 65.2569C126.419 64.7023 126.871 65.3433 128.199 64.806C128.3 65.087 128.404 65.4563 128.584 65.6803C128.04 65.9882 126.397 67.2334 126.123 67.2204C124.724 67.1547 120.64 64.8809 119.582 64.1178L120.148 63.4198Z" fill="#A68284"/>
<path d="M128.933 39.4034C129.806 39.3404 130.375 40.0359 131.151 39.3371C131.338 39.1686 131.551 38.9535 131.785 39.0125C132.168 39.1094 132.907 39.7638 133.164 40.0486C134.225 40.0663 135.81 39.9992 136.781 40.1165C136.377 40.1911 135.957 40.1543 135.76 40.5327C135.304 40.7503 133.5 40.6762 132.889 40.673C132.341 40.6531 131.652 40.5797 131.148 40.7547C131.054 40.9197 131.035 40.9168 131.006 41.1017C130.969 40.3247 130.609 40.0538 129.964 39.7384C129.473 39.694 129.313 39.7058 128.933 39.4034Z" fill="#4D5A8A"/>
<path d="M131.006 41.1017C131.035 40.9168 131.054 40.9198 131.148 40.7547C131.652 40.5797 132.341 40.6531 132.889 40.6731L131.37 40.943C131.342 41.443 131.091 43.6774 131.217 43.9359C131.516 43.8826 134.179 44.0111 134.437 44.1103C134.886 44.562 134.773 44.9962 134.584 45.5806C134.584 45.1717 134.634 44.7755 134.416 44.4416C134.098 44.1997 133.391 44.2685 132.955 44.2679C132.761 44.2159 130.582 44.1014 130.224 44.0786C129.633 43.8862 129.662 43.9521 129.245 43.4815L129.26 43.3063C129.874 43.2731 130.474 43.1984 131.085 43.1289C131.082 42.4613 131.038 41.7703 131.006 41.1017Z" fill="#30312D"/>
<path d="M132.955 44.2679C133.391 44.2685 134.098 44.1997 134.416 44.4416C134.634 44.7755 134.584 45.1717 134.584 45.5806L134.579 55.0831C134.58 56.1722 134.639 59.0415 134.48 59.9849C134.391 59.097 134.463 57.956 134.447 57.0376C134.4 54.3608 134.508 51.664 134.366 48.989C134.333 48.35 134.12 48.3289 134.239 47.6354C134.474 45.83 134.733 45.072 132.955 44.2679Z" fill="#ACABAB"/>
<path d="M119.648 38.1696C120.361 37.9785 122.771 39.3017 123.461 38.6039L123.388 38.221L123.537 38.1288L123.764 38.4429C124.292 38.4184 124.804 37.8156 125.269 37.7076C125.954 37.5478 126.386 37.9306 127.112 37.7501C126.949 38.182 126.883 38.1333 127.011 38.4685C127.716 38.6525 128.259 38.1732 128.572 38.2067C128.298 38.5317 127.927 38.4633 127.579 38.691C127.965 39.2579 128.426 39.1489 128.933 39.4034C129.313 39.7059 129.473 39.6941 129.964 39.7385C130.609 40.0539 130.969 40.3247 131.006 41.1017C131.038 41.7703 131.082 42.4613 131.085 43.1289C130.474 43.1984 129.874 43.2731 129.26 43.3063C128.735 43.3037 127.746 43.2308 127.333 43.4522C127.198 43.8179 127.221 43.6617 127.325 44.106C126.644 44.3611 121.18 44.1123 120.291 43.9601C119.633 43.9675 117.561 43.7048 116.846 43.6145C116.491 43.6219 115.992 43.5915 115.624 43.5809C115.694 44.3298 115.691 45.2059 115.677 45.9682C115.631 48.5641 115.774 51.2339 115.661 53.8225C115.232 53.2609 115.647 51.2605 115.277 50.973C115.224 51.9872 115.205 54.0979 114.991 54.9796C114.915 56.5527 114.515 60.2955 114.915 61.5875C114.629 61.8862 114.598 61.9285 114.444 62.3101C114.353 62.2153 114.265 62.1193 114.176 62.0223C111.896 59.4971 112.522 56.2848 112.368 53.1288C112.148 48.6367 112.312 44.118 112.535 39.6281C113.969 39.3599 114.817 38.807 116.09 38.1301C116.239 38.2897 116.276 38.3486 116.352 38.554C117.571 39.0104 118.337 37.5361 119.648 38.1696Z" fill="#777E90"/>
<path d="M119.648 38.1696C120.361 37.9785 122.771 39.3017 123.461 38.6039L123.388 38.221L123.537 38.1288L123.764 38.4429C124.292 38.4184 124.804 37.8156 125.269 37.7076C125.954 37.5478 126.386 37.9306 127.112 37.7501C126.949 38.182 126.883 38.1333 127.011 38.4685C127.716 38.6525 128.259 38.1732 128.572 38.2067C128.298 38.5317 127.927 38.4633 127.578 38.691C127.965 39.2579 128.426 39.1489 128.933 39.4034C129.313 39.7059 129.473 39.6941 129.964 39.7385C130.609 40.0539 130.969 40.3247 131.006 41.1017C131.038 41.7703 131.082 42.4613 131.085 43.1289C130.474 43.1984 129.874 43.2731 129.26 43.3063C128.735 43.3037 127.746 43.2308 127.333 43.4522C127.198 43.8179 127.22 43.6617 127.325 44.106C126.644 44.3611 121.18 44.1123 120.291 43.9601C119.633 43.9675 117.561 43.7048 116.846 43.6145C117.359 43.5397 118.516 43.5652 119.088 43.5647C119.18 42.9348 119.158 42.3545 119.274 41.6325L119.292 40.6677C119.664 40.4918 121.064 40.4533 121.539 40.4281C121.927 40.3445 121.979 40.3256 122.331 40.145L121.264 40.0758C121.763 40.0277 122.298 40.0091 122.644 39.602L122.622 39.4157C122.068 38.7085 120.222 38.6878 119.648 38.1696Z" fill="#777879"/>
<path d="M119.648 38.1696C120.361 37.9785 122.771 39.3017 123.461 38.6039L123.388 38.221L123.537 38.1288L123.764 38.4429C124.292 38.4184 124.804 37.8156 125.269 37.7076C125.954 37.5478 126.386 37.9306 127.112 37.7501C126.949 38.182 126.883 38.1333 127.011 38.4685C127.716 38.6525 128.259 38.1732 128.572 38.2067C128.298 38.5317 127.927 38.4633 127.579 38.691C127.965 39.2579 128.426 39.1489 128.933 39.4034C129.313 39.7059 129.473 39.6941 129.964 39.7385C129.159 39.7835 128.635 40.2637 128.066 40.274C126.209 40.3074 124.171 39.9266 122.331 40.145L121.264 40.0758C121.763 40.0277 122.298 40.0091 122.644 39.602L122.622 39.4157C122.069 38.7085 120.222 38.6878 119.648 38.1696Z" fill="#666980"/>
<path d="M119.292 40.6677C119.664 40.4918 121.064 40.4532 121.54 40.4281C122.143 40.4526 122.138 40.347 122.479 40.6678C122.715 41.497 122.434 42.2908 122.438 43.2894C121.632 43.2728 120.028 43.1966 119.289 43.2939C119.288 42.7401 119.283 42.1862 119.274 41.6325L119.292 40.6677Z" fill="#777E90"/>
<path d="M119.088 43.5647C119.18 42.9348 119.158 42.3545 119.274 41.6326C119.283 42.1863 119.287 42.7401 119.289 43.2939C119.631 43.3261 121.46 43.385 121.55 43.4788C121.193 43.5314 120.813 43.5307 120.58 43.7693C120.903 43.9337 121.33 43.7483 121.649 43.8732C121.197 43.9139 120.744 43.9429 120.291 43.9602C119.633 43.9675 117.561 43.7048 116.846 43.6145C117.359 43.5398 118.516 43.5653 119.088 43.5647Z" fill="#55545A"/>
<path d="M123.731 40.6711C125.116 40.7433 124.732 42.2029 124.53 43.196C124.201 43.1841 124.102 43.1915 123.79 43.0689C123.25 42.5395 123.223 41.2038 123.731 40.6711Z" fill="#ACABAB"/>
<path d="M127.056 40.6941C127.303 40.7122 127.601 40.7313 127.704 40.9704C127.963 41.5708 127.807 42.6544 127.645 43.2559C126.643 42.9075 126.801 41.5278 127.056 40.6941Z" fill="#ACABAB"/>
<path d="M114.658 40.3354C115.887 40.5499 118.812 40.183 119.292 40.6677L119.274 41.6325C119.158 42.3545 119.18 42.9348 119.088 43.5646C118.516 43.5652 117.359 43.5397 116.846 43.6145C116.49 43.6218 115.992 43.5915 115.624 43.5808C115.321 44.0284 115.333 43.98 114.758 44.01C114.637 42.7325 114.62 41.6144 114.658 40.3354Z" fill="#050506"/>
<path d="M114.759 44.0099C115.333 43.98 115.322 44.0284 115.624 43.5808C115.694 44.3297 115.691 45.2058 115.677 45.9681C115.631 48.5641 115.774 51.2339 115.661 53.8225C115.232 53.2608 115.647 51.2605 115.277 50.973C115.224 51.9872 115.205 54.0978 114.991 54.9795C114.981 51.4448 115.039 47.4965 114.759 44.0099Z" fill="#30312D"/>
<path d="M121.264 40.0758L122.331 40.145C121.979 40.3256 121.927 40.3445 121.54 40.4281C121.064 40.4533 119.664 40.4918 119.292 40.6677C118.812 40.183 115.887 40.5499 114.658 40.3354C115.045 40.2743 116.911 40.2945 117.395 40.3025C118.86 40.3266 119.83 40.2461 121.264 40.0758Z" fill="#55545A"/>
<path d="M124.554 45.2843L126.831 45.3057C127.12 45.5395 127.182 45.6115 127.567 45.6348C128.768 45.0475 131.981 45.5982 132.924 46.7072L132.952 46.9132C132.804 47.0869 132.548 47.3684 132.429 47.548L132.207 47.8011C131.91 48.2645 130.579 50.1668 130.217 50.5154L129.33 51.6408C129.355 52.2665 129.44 52.9347 129.019 53.4303C128.771 53.6874 128.455 54.2439 128.292 54.5692L127.816 55.4985C127.595 55.6424 127.44 55.5554 127.235 55.696C126.75 56.0274 126.286 56.3893 125.802 56.7225C125.362 57.0262 125.205 57.1348 124.724 56.8313C122.834 55.6841 122.23 54.756 121.546 52.741C121.529 52.5977 121.516 52.454 121.505 52.31C121.418 51.1473 121.457 46.5277 122.259 45.5477C122.57 45.1677 124.01 45.2738 124.554 45.2843Z" fill="#352722"/>
<path d="M124.554 45.2843L126.831 45.3057C127.12 45.5395 127.182 45.6115 127.567 45.6348C127.551 45.7241 126.633 48.7731 126.593 48.8605C126.473 48.7174 126.352 48.5759 126.228 48.4359C125.542 47.6622 125.167 47.5708 124.145 47.5115C123.154 46.8245 123.523 46.722 124.272 46.0769C124.558 45.8301 124.5 45.6586 124.554 45.2843Z" fill="#7E3B42"/>
<path d="M129.223 47.5954C129.994 47.5658 131.464 47.6465 132.207 47.801C131.91 48.2644 130.579 50.1668 130.217 50.5153C129.917 49.9781 129.754 50.093 129.397 49.7434C129.076 49.4296 129.214 48.0477 129.223 47.5954Z" fill="#777879"/>
<path d="M124.145 47.5115C125.167 47.5707 125.542 47.6621 126.228 48.4359C126.352 48.5759 126.473 48.7174 126.593 48.8604C125.055 51.0592 124.29 49.2677 124.145 47.5115Z" fill="#5D1F24"/>
<path d="M121.546 52.7411C122.23 54.756 122.834 55.6841 124.724 56.8313C123.208 57.6901 123.099 58.552 122.445 59.0482C120.981 58.6791 117.973 58.9338 117.376 57.1799C116.98 56.0124 118.568 54.1688 119.696 53.9754C120.202 53.8889 120.869 54.0592 121.391 53.9013C121.591 53.5788 121.545 53.1364 121.546 52.7411Z" fill="#A85255"/>
<path d="M126.831 45.3058C128.397 45.1787 131.131 45.1278 132.745 45.8039C132.926 45.8798 132.838 46.2824 133.17 46.6188L133.095 46.8581L132.953 46.9132L132.924 46.7073C131.981 45.5983 128.768 45.0476 127.567 45.6349C127.182 45.6115 127.12 45.5396 126.831 45.3058Z" fill="#ACABAB"/>
<path d="M127.325 44.1061C127.221 43.6618 127.198 43.8179 127.333 43.4523C127.746 43.2309 128.735 43.3038 129.26 43.3064L129.245 43.4816C129.662 43.9522 129.633 43.8863 130.224 44.0787C129.257 44.0598 128.29 44.069 127.325 44.1061Z" fill="#55545A"/>
<path d="M61.9373 50.3027C63.1577 49.5649 63.9006 49.2549 65.2242 48.7279C68.0714 51.8086 69.3883 55.2935 71.5539 58.4331C70.115 58.6268 68.5602 58.7907 67.1409 59.0279C66.8333 59.3634 66.9913 59.275 66.547 59.363C66.1658 59.2786 65.7837 58.9186 65.4674 58.6649L64.9094 57.7728C64.0341 56.0177 63.0947 54.2952 62.093 52.6088C62.2823 52.5029 62.3128 52.4413 62.4429 52.2739C62.4495 51.9257 62.4325 51.7883 62.5924 51.4676C62.4256 51.0257 62.1919 50.6963 61.9373 50.3027Z" fill="#D5DAE7"/>
<path d="M62.5924 51.4677C63.2477 52.3822 65.3523 56.2184 65.8976 57.3458C65.6283 57.8045 65.4275 57.7407 64.9094 57.7729C64.0341 56.0177 63.0947 54.2953 62.093 52.6088C62.2823 52.5029 62.3128 52.4413 62.4429 52.274C62.4495 51.9258 62.4325 51.7884 62.5924 51.4677Z" fill="#050506"/>
<path d="M65.8976 57.3458C66.3006 57.9837 66.5819 58.5176 67.141 59.0279C66.8333 59.3635 66.9913 59.275 66.547 59.363C66.1658 59.2786 65.7837 58.9186 65.4675 58.665L64.9094 57.7729C65.4275 57.7407 65.6283 57.8045 65.8976 57.3458Z" fill="#0B1041"/>
<path d="M61.3733 51.7528C61.6107 51.9952 61.8747 52.3393 62.093 52.6089C63.0946 54.2953 64.0341 56.0177 64.9094 57.7729L65.4674 58.665C64.936 59.0084 62.0873 59.2487 61.4804 59.0174L61.3574 59.156C61.0558 59.2857 59.4991 58.8417 59.3122 58.639C58.8006 58.7154 58.4853 59.0247 58.2922 59.0468C57.3402 59.1556 55.9235 59.3633 55.0727 58.9328C54.3229 57.9328 56.6882 56.5367 57.4458 55.9644C57.3619 55.6935 57.1555 55.6341 57.2038 55.1877C57.3846 54.9277 57.5503 54.8941 57.845 54.7693C58.8069 53.7005 60.2072 52.5826 61.3733 51.7528Z" fill="#D5DAE7"/>
<path d="M59.3122 58.6389C58.8006 58.7154 58.4853 59.0246 58.2922 59.0467C57.3402 59.1556 55.9235 59.3632 55.0727 58.9328C54.3229 57.9327 56.6882 56.5367 57.4458 55.9644C58.0099 56.6107 59.2632 57.8575 59.3122 58.6389Z" fill="#D5DAE7"/>
<path d="M57.845 54.7692C58.9426 55.869 60.4803 58.1551 61.4803 59.0173L61.3574 59.1559C61.0558 59.2856 59.4991 58.8416 59.3121 58.6389C59.2632 57.8574 58.0099 56.6107 57.4458 55.9643C57.3619 55.6934 57.1555 55.634 57.2038 55.1876C57.3845 54.9276 57.5503 54.894 57.845 54.7692Z" fill="#080A29"/>
<path d="M114.962 21.9961L114.948 22.1963C114.341 22.685 113.723 23.1613 113.097 23.6249C112.819 23.8286 111.743 24.6255 111.627 24.5969C110.572 24.3366 110.551 24.3101 109.506 25.0925L109.3 25.0264C109.523 24.6317 112.574 22.7953 113.146 22.5818C113.941 22.2851 113.848 22.7448 114.962 21.9961Z" fill="#34437E"/>
<path d="M84.4932 106.076C84.9329 106.215 84.7835 106.113 85.0723 106.449C85.1732 106.868 85.2352 107.58 84.7254 107.735L84.6565 107.458C84.5864 107.479 84.5143 107.5 84.4547 107.544C83.7524 108.064 83.1563 108.065 82.371 108.237L82.1909 108.073C82.2326 107.75 82.2021 107.39 82.3605 107.126C82.7357 106.883 82.6662 106.969 83.2299 107.048C83.3849 106.63 83.5266 106.444 83.8959 106.254C84.0653 106.474 84.2429 106.687 84.4285 106.894L84.5745 106.863C84.5695 106.555 84.5398 106.374 84.4932 106.076Z" fill="#0E1B5A"/>
<path d="M36.263 32.8445C36.7363 32.9302 37.2015 33.4699 37.349 33.9229L37.237 34.113C36.9665 34.2348 37.0842 34.2295 36.7961 34.1265C36.1901 34.1165 35.2684 34.0022 34.6431 33.9408C35.1015 33.58 35.7638 33.1721 36.263 32.8445Z" fill="#4D5A8A"/>
<path d="M93.0629 107.903C93.2961 107.763 95.1383 107.716 95.3559 108.098C94.9947 108.666 94.7111 109.148 94.2578 109.651C94.1747 109.326 94.354 108.963 94.1878 108.267C93.9696 108.119 92.428 108.091 91.9641 108.006L93.0629 107.903Z" fill="#34437E"/>
<path d="M17.7427 64.1443L17.8731 64.1324C18.2119 64.3532 18.1007 64.2286 18.2672 64.6515C18.1571 65.0447 18.2431 64.9025 17.9291 65.1836C17.5024 65.2952 17.4329 65.2647 17.0094 65.1376C16.6892 65.0788 16.3993 65.0086 16.3618 64.654C16.6875 64.3392 17.2921 64.2498 17.7427 64.1443Z" fill="#4D5A8A"/>
<path d="M152.079 52.7709C152.413 53.0775 152.501 53.6743 152.276 54.0713C151.941 54.283 152.102 54.2448 151.648 54.1697C151.267 53.8315 151.198 53.7918 151.261 53.3188C151.516 52.986 151.695 52.9377 152.079 52.7709Z" fill="#34437E"/>
</g>
<defs>
<clipPath id="clip0_9_532">
<rect width="189.859" height="116" fill="white"/>
</clipPath>
</defs>
</svg>
