<svg width="190" height="120" viewBox="0 0 190 120" fill="none" xmlns="http://www.w3.org/2000/svg">
<g clip-path="url(#clip0_9_933)">
<path d="M0 0H189.844V119.098V120H0V119.048V0Z" fill="#F69F30"/>
<path d="M15.9671 54.2593C16.8898 53.8508 17.772 49.4622 18.4874 48.5458C19.5811 47.1448 21.7174 46.4883 22.6234 44.8411C24.7311 40.0915 22.4121 34.8378 28.3961 32.2867C29.1264 31.9755 31.0903 32.4524 31.8741 32.7413C35.6708 34.141 35.6336 38.7763 37.8446 40.8448L37.7088 41.303C38.0183 41.423 39.3575 40.7206 39.5625 40.2963C40.0655 40.7807 40.5966 41.8509 41.1061 42.2565C41.5448 42.6057 43.0205 44.4881 43.3221 44.6044C43.8288 44.1811 43.418 43.5502 45.1132 42.4755C44.5461 41.9504 43.9236 41.3774 43.3986 40.8153C42.3738 39.7179 41.7318 38.6538 40.4523 37.8255L40.4096 37.6338L40.5909 37.4631C40.9789 37.585 41.3132 37.5875 41.7115 37.6588C42.293 37.7806 42.8059 37.9592 43.4044 37.9734C43.7562 37.9817 45.7284 37.5037 45.8682 37.668C47.0968 39.1129 49.3471 38.696 51.0353 39.5858C53.143 40.6967 55.6453 41.1522 58.0077 41.2438C58.6345 41.2662 59.1361 41.3648 59.7029 41.5941C60.1017 41.7555 61.1824 41.7618 60.993 42.5029C60.0784 42.9099 58.1869 43.6881 57.482 44.2953C57.3202 45.2401 56.9497 47.9094 56.9803 48.8111C56.604 49.2629 56.1128 48.954 55.5544 49.3972C54.7792 50.0124 54.5159 50.9174 53.8465 51.5063C53.8235 52.6685 54.0966 54.5474 55.0802 55.304L55.0412 55.405C54.402 57.0332 51.4964 60.8685 54.3768 62.3266C55.3785 62.8336 57.5623 61.7692 58.6201 61.3906C58.2993 61.8796 57.7049 61.9859 57.8705 62.5429C58.1886 63.6127 58.6532 64.7483 59.1788 65.7357C58.835 66.501 58.0712 67.4867 58.0646 68.2474C58.0498 69.9545 58.0985 72.3795 58.3922 74.0369C59.4377 73.6178 61.358 72.7292 62.2995 72.4049C63.2404 72.081 66.6968 72.8143 67.8674 72.9061C68.3537 72.9442 68.2385 72.9146 68.5096 72.3352C68.6244 72.0897 68.8875 70.4964 68.7894 70.3155C68.4517 69.6929 67.1535 69.8943 67.3252 69.0945C67.7188 68.5931 69.6957 67.2746 70.3529 66.7777C70.1459 66.5088 69.125 65.2264 69.0614 65.0146C69.268 64.8656 69.4002 64.8938 69.6688 64.8861C69.9543 64.5755 70.2104 63.9565 70.4993 63.5705C71.5473 62.1697 72.9892 61.1765 74.8104 61.1463C75.6141 61.1328 77.3495 61.2995 78.048 61.8187C79.1445 62.9251 80.5472 63.7631 81.4622 65.0186C81.5167 65.0934 81.5578 66.0879 81.5909 66.3118C81.6282 66.565 81.7719 67.2713 81.7655 67.4952C81.743 68.2791 81.0465 69.1164 81.4811 69.9045C81.7424 70.5134 81.8482 72.1949 82.0728 72.8636C82.6951 74.7159 84.0411 76.9578 85.1885 78.5563C85.3929 78.8411 86.0437 79.3108 86.3087 79.6073C86.6858 80.0292 87.2266 81.0993 87.6187 81.4024C87.8759 81.0162 88.2111 80.3151 88.5361 80.207C89.1715 79.612 88.123 76.7142 87.9307 75.7757C88.8868 74.6824 89.7768 73.7608 91.1184 73.0838C91.5652 72.8585 92.1055 72.9244 92.4475 72.6107C94.2048 72.9645 96.1854 74.5033 97.0875 74.1701L97.2243 73.6369C97.3023 73.6245 97.3189 73.6274 97.3848 73.5992C98.3416 73.1893 98.9127 73.2782 99.9062 73.3955C102.838 76.2188 104.217 76.3115 107.88 77.4727C111.277 78.5494 111.81 78.9735 115.494 78.5562C115.938 78.1297 115.642 76.9537 115.838 76.2608C115.941 76.4574 115.916 77.5358 115.919 77.8318C115.749 78.0845 115.734 78.0946 115.701 78.3896L115.851 78.5502C116.263 78.71 118.064 78.7669 118.3 78.4805L117.896 78.1989L117.86 77.9221C118.113 77.6708 118.513 77.23 118.802 77.0548C119.4 76.6918 120.125 76.1454 119.532 75.3891C118.746 74.3846 118.011 75.4707 117.325 75.416C118.357 74.4646 119.126 74.8213 120.233 75.3141C121.273 75.7765 121.086 76.4546 121.429 77.3958C122.251 77.8919 126.127 76.9792 127.056 76.4865C127.595 76.2006 127.46 75.8647 127.771 75.445C128.256 75.2827 127.907 75.3978 128.198 75.5371C128.909 74.7894 128.23 72.6476 128.777 72.069C130.123 70.6469 132.229 70.0179 133.693 68.9255C134.211 68.5392 134.074 68.619 134.713 68.3582C135.067 67.8857 134.905 67.6847 135.12 67.2654C135.362 66.7931 135.795 66.8941 135.885 66.2959C135.676 65.9199 135.799 66.0368 135.425 65.8461C135.128 66.0861 134.159 66.8999 133.934 67.0689C133.038 67.7411 126.541 71.2479 125.955 71.084C126.323 70.6885 132.039 68.1029 133.159 67.2835C135.989 65.2156 136.181 64.8275 136.084 61.0661C136.052 59.8088 136.068 58.2497 136.069 57.0351C136.473 58.6646 136.335 59.5362 136.312 61.2296C136.308 61.5121 136.262 62.4091 136.318 62.6465C136.61 62.5366 136.504 62.4042 136.581 62.3652C136.814 62.2476 137.475 62.3524 137.712 62.4429L137.761 62.3623C138.022 61.9375 138.135 61.9117 138.423 61.527C138.485 61.4433 138.662 60.6603 138.654 60.6681C139.548 59.8745 141.124 58.8401 141.851 57.9599C141.777 58.0498 141.994 56.0783 142.024 55.7935C142.045 55.5937 142.389 54.1233 142.39 54.1506C142.332 51.9516 142.322 49.8424 142.721 47.6689C142.747 47.5242 143.543 47.1685 144.013 46.417C144.315 46.2938 144.354 46.2902 144.679 46.3256C145.553 45.1617 144.273 45.0179 144.093 44.5367C147.898 46.818 149.496 49.8121 151.005 53.7582C151.604 55.3252 152.435 56.864 153.021 58.4677C153.23 59.1461 153.398 59.6634 153.521 60.3669C154.42 63.0194 154.011 64.8059 152.872 67.3522C152.831 67.4446 152.831 67.4336 152.768 67.5199L152.684 67.4842C152.258 67.7289 152.195 69.3015 151.467 69.8858C151.05 69.9538 151.222 69.9732 150.809 69.7745C150.734 69.4621 151.425 68.0719 151.604 67.4097L151.542 67.3121L151.18 67.7849C150.761 68.8601 150.018 70.6413 149.906 71.7393C149.49 75.876 148.816 80.1482 148.375 84.2566C148.365 85.5557 148.335 86.2692 148.527 87.5664C148.322 87.9909 148.252 92.0443 148.199 92.8442C148.12 93.7008 148.055 94.6124 147.927 95.4593C147.301 99.5854 146.913 103.795 146.685 107.965C146.756 110.738 146.209 116.354 145.555 119.05L178.058 119.082C181.847 119.099 186.118 118.992 189.844 119.098V120H0V119.048C14.7 119.132 29.4295 118.886 44.1155 119.064C43.6791 116.928 43.6697 112.108 43.4456 109.671C43.115 105.813 42.6305 101.724 42.1078 97.9001C41.8676 96.1423 41.44 88.9932 40.7009 88.0024C40.2134 89.2935 39.5045 90.5262 38.8607 92.0545C38.1387 93.7687 37.9054 97.8835 36.45 98.9215C35.9509 99.2777 33.047 98.9372 32.4376 98.7065C31.4057 98.6593 29.1979 98.1145 28.2141 97.8134C27.7909 97.8017 25.5688 97.0949 25.0467 96.9378C20.2148 95.4836 15.5082 93.8065 10.7933 92.0176C9.03101 91.3489 7.28837 90.9098 5.5032 90.1544C4.94831 89.9722 4.1689 89.5227 3.63311 89.2374C4.15314 85.9615 4.79139 82.4542 4.77212 79.1555C5.5767 78.3365 7.59687 75.5563 8.10425 74.5581L8.1833 74.4567L8.2852 74.1724C8.34634 74.6287 8.28432 74.8162 8.55196 75.0895C8.88495 74.9744 9.19864 74.6781 9.47664 74.4494C10.7824 73.194 9.76995 70.1044 12.6609 70.5352C13.1066 71.0049 12.8756 74.3176 12.4274 74.9554C12.2814 75.1632 11.2171 75.6173 10.9547 76.0161C11.4153 76.1684 12.5682 76.4916 12.6982 76.9249C13.0345 78.047 12.6056 78.61 11.5706 78.719C11.8643 79.0859 12.4982 79.0133 12.8692 78.7681C13.6629 75.9796 11.967 76.4573 11.9111 75.8333C12.2763 75.4651 13.0739 74.4258 13.3273 74.3594C13.4302 74.5277 13.4824 74.6426 13.5138 74.8379C13.6816 75.8825 15.2413 76.4075 14.3926 77.6506C14.0007 78.2245 13.205 78.7169 12.939 79.3393C12.6888 79.9246 12.8298 82.8867 12.7078 82.9911C12.6379 83.051 12.2811 83.1084 12.1889 83.1247C10.5807 83.4086 10.5075 83.3094 9.35322 84.5422C9.13055 84.7801 8.8239 84.9774 8.62399 85.2258C8.54939 85.3184 8.50207 85.4178 8.46394 85.5292L8.56755 85.6394C9.44955 85.5227 9.33663 85.0301 9.81661 84.6039C10.2889 83.2928 11.7214 83.2141 12.9398 83.3024C12.8482 81.8691 12.7684 80.922 13.0437 79.5197C13.8817 78.4858 14.2623 78.1127 14.9036 76.9227C14.3578 75.8681 13.8398 75.2567 13.3643 74.0499C16.0212 70.6979 13.7061 71.0221 14.1525 69.8568L14.5956 70.3113L14.7558 70.2773C14.9275 69.2395 14.9643 67.9907 15.0862 66.9274C15.3485 64.6396 15.6261 62.6645 15.6045 60.3638C15.5982 59.7023 15.3262 57.1877 15.3346 57.1392C15.5661 55.789 15.7716 54.8593 15.8982 53.3922L15.9671 54.2593Z" fill="#E37B17"/>
<path d="M13.3643 74.0498C16.0212 70.6978 13.7062 71.022 14.1525 69.8567L14.5956 70.3112L14.7558 70.2772C14.9275 69.2394 14.9643 67.9906 15.0863 66.9272C15.3486 64.6395 15.6262 62.6644 15.6045 60.3637C15.5983 59.7022 15.3263 57.1876 15.3346 57.139C15.5662 55.7889 15.7716 54.8592 15.8983 53.3921L15.9672 54.2592C16.0098 54.8812 15.737 56.1672 15.7817 56.4549C16.0636 58.272 16.4361 60.0344 16.9577 61.7967C17.9563 65.3188 20.2314 68.1697 21.9644 71.3701C23.9399 75.0185 24.7902 79.7819 27.4782 82.9326C27.8358 83.3519 28.4164 83.3991 28.9096 83.4944L28.6088 83.5808C28.2864 85.4189 27.8956 86.8423 29.5268 88.2153C29.796 88.4419 30.0305 88.7282 30.4066 88.7822C31.5501 88.9464 31.8227 89.3738 31.2842 90.3828C30.4803 90.6472 28.4848 89.1996 27.6992 89.1233C23.0605 88.6729 18.5988 86.8666 14.3007 85.1463C13.5046 84.8276 11.3521 83.5919 10.6556 83.763C9.90747 84.4388 10.7715 85.1732 10.3876 85.8767L10.2647 85.9313C10.125 85.2274 10.2907 85.1447 9.81665 84.6038C10.2889 83.2927 11.7215 83.214 12.9399 83.3023C12.8482 81.869 12.7684 80.9219 13.0437 79.5196C13.8817 78.4857 14.2623 78.1126 14.9036 76.9226C14.3579 75.8679 13.8399 75.2566 13.3643 74.0498Z" fill="#E37714"/>
<path d="M92.4476 72.6106C94.2049 72.9644 96.1855 74.5032 97.0876 74.17C97.7168 74.3411 98.1974 74.7043 98.7776 74.9971C100.59 75.9115 102.339 77.0241 104.179 77.8594C106.208 78.7805 109.037 78.6073 110.902 79.212C112.205 80.4998 112.38 81.2222 114.109 82.1996C113.237 82.8418 111.869 83.7844 110.774 84.0645C106.445 85.1719 100.321 84.9817 95.914 84.5C95.1541 84.417 87.3996 82.6413 87.2549 82.5099C87.3991 81.919 88.1982 80.828 88.5362 80.2069C89.1716 79.6118 88.1231 76.714 87.9308 75.7756C88.887 74.6822 89.7769 73.7607 91.1186 73.0837C91.5653 72.8583 92.1056 72.9243 92.4476 72.6106Z" fill="#F8AF46"/>
<path d="M32.1898 68.7637C31.7594 68.2343 28.725 62.6777 28.4778 62.0479C29.0396 62.2625 28.9328 62.9293 29.6948 63.1844C30.1049 63.0368 31.1836 61.5932 32.1863 61.9044C32.2002 61.8231 32.0648 61.0243 32.0426 60.8828C32.2581 61.4771 32.4565 62.0774 32.6376 62.683C33.2513 63.4446 32.8653 64.1495 33.4029 64.6885C34.2077 64.6259 35.0432 63.3966 35.6623 62.9097C36.0109 62.6356 36.43 62.387 36.8089 62.1557C36.9709 62.1671 37.3022 61.9768 37.4804 61.8941C37.6515 62.672 37.7422 68.0652 37.6531 68.9419L37.6993 69.0483C38.2635 70.3727 37.849 71.658 39.0842 72.1829C40.7704 72.841 40.5977 82.4877 40.7785 84.5017C40.8415 85.2028 40.9227 87.441 40.7008 88.0023C40.2133 89.2935 39.5044 90.5262 38.8606 92.0545C38.1386 93.7687 37.9053 97.8835 36.4499 98.9215C35.9508 99.2777 33.0469 98.9372 32.4375 98.7065C32.3658 98.5411 32.3832 98.5943 32.2281 98.4645C32.0059 98.4628 31.9026 98.4878 31.729 98.3525C32.213 96.9722 32.8872 95.2732 33.1795 93.8554C33.3311 93.1199 33.3611 91.1678 33.8974 90.603C34.9174 90.618 36.4025 91.2071 37.8015 91.2087L37.8615 91.1936L37.9714 91.0035C37.9526 90.9686 37.9335 90.934 37.9151 90.899C37.8896 90.8502 37.8677 90.7996 37.8398 90.7523C37.5494 90.2596 37.7011 86.9086 37.6751 86.0887C37.5884 83.357 36.7195 80.6193 35.872 78.0464C35.7608 77.6982 35.5677 77.2153 35.4189 76.8756C34.5874 74.9774 34.0697 72.982 33.3807 71.0412C32.7925 70.3259 32.4523 69.0985 32.1898 68.7637Z" fill="#8E1C02"/>
<path d="M32.1898 68.7637C31.7594 68.2343 28.725 62.6777 28.4778 62.0479C29.0396 62.2625 28.9328 62.9293 29.6948 63.1844C30.1049 63.0368 31.1836 61.5932 32.1863 61.9044C32.2002 61.8231 32.0648 61.0243 32.0426 60.8828C32.2581 61.4771 32.4565 62.0774 32.6376 62.683C33.2513 63.4446 32.8653 64.1495 33.4029 64.6885C34.2077 64.6259 35.0432 63.3966 35.6623 62.9097C36.0109 62.6356 36.43 62.387 36.8089 62.1557C36.9709 62.1671 37.3022 61.9768 37.4804 61.8941C37.6515 62.672 37.7422 68.0652 37.6531 68.9419C37.6267 69.0872 37.6963 69.6003 37.6909 69.8721C36.7054 69.8117 36.0492 67.8623 35.7084 67.199L35.6518 67.354C36.0361 68.5356 37.2132 70.8647 37.4621 71.6846C38.1504 73.9527 40.0176 82.6619 39.5335 84.5191L39.3333 84.5619C38.001 83.6508 37.3111 78.1048 36.7414 76.5734C36.3172 75.4333 34.9573 71.2234 34.1021 70.6487C33.8416 70.7802 33.6331 70.888 33.3807 71.0412C32.7925 70.3259 32.4523 69.0985 32.1898 68.7637Z" fill="#AF3302"/>
<path d="M37.4804 61.8942C37.6515 62.6721 37.7422 68.0653 37.6531 68.9419C37.6268 69.0872 37.6964 69.6003 37.691 69.8722C36.7054 69.8117 36.0492 67.8623 35.7084 67.199L35.6518 67.354C35.3737 66.854 35.0842 66.3604 34.7834 65.8736C34.8086 65.4344 34.8304 65.0879 34.8956 64.6536C34.9412 64.5931 34.9944 64.5224 35.0551 64.4418C35.8544 64.538 35.9672 64.4616 36.6882 64.1115C36.477 63.9636 35.981 64.2112 35.5074 63.9374C35.9779 63.3092 36.6175 62.8849 36.8089 62.1557C36.971 62.1671 37.3023 61.9768 37.4804 61.8942Z" fill="#9D2A04"/>
<path d="M32.6377 62.683C33.2514 63.4446 32.8654 64.1495 33.4031 64.6884C34.2078 64.6258 35.0433 63.3965 35.6624 62.9096C36.0111 62.6355 36.4301 62.387 36.809 62.1556C36.6176 62.8848 35.978 63.3091 35.5075 63.9374C34.072 64.2911 34.9969 66.1108 34.2274 66.9464C33.4135 66.6753 32.6351 63.493 32.6377 62.683Z" fill="#BD4607"/>
<path d="M0 119.048C14.7 119.132 29.4295 118.886 44.1155 119.064C45.6857 119.174 47.1366 119.169 48.7105 119.172L49.6905 119.157L56.7925 119.174C57.4852 119.174 59.4656 119.227 60.0817 119.162C62.8472 119.284 66.0295 119.094 68.8329 119.077C70.9296 119.065 72.9976 119.087 75.0881 119.081C76.7936 119.208 83.7182 119.293 85.4466 119.086L121.889 119.169C123.115 119.186 124.296 119.204 125.523 119.163L128.707 119.175C132.807 119.164 137.096 119.238 141.171 119.15L145.555 119.05L178.058 119.082C181.847 119.099 186.118 118.992 189.844 119.098V120H0V119.048Z" fill="#1A2F33"/>
<path d="M125.523 119.163L125.595 118.977C126.279 118.867 127.876 119.081 128.156 118.883L127.758 118.686C128.104 118.509 128.38 118.412 128.572 118.077C129.034 116.013 128.252 113.235 127.628 111.271C127.464 110.755 127.275 109.808 126.986 109.387C126.578 109.353 124.976 109.745 124.446 109.832C123.547 109.98 122.459 109.794 121.698 109.942C119.736 110.315 117.754 111.118 115.789 111.4C114.385 111.602 112.64 111.304 111.198 111.391C109.148 111.514 107.234 111.88 105.235 112.27C104.088 112.494 102.075 112.105 100.849 112.301C99.7121 112.464 98.7573 112.606 97.5787 112.6C96.8318 112.596 96.0285 113.248 95.1632 112.966L95.0837 112.811C95.397 112.323 97.0903 111.843 97.8262 111.444C99.4487 110.564 101.244 109.787 102.717 108.657C103.54 108.027 104.211 106.905 105.121 106.407C107.199 106.373 109.313 106.635 111.37 106.202C113.178 105.821 114.738 104.714 116.471 104.128C117.859 103.659 125.622 101.926 126.632 102.91C127.315 103.576 127.498 104.638 127.492 105.552C127.484 106.721 127.137 107.95 127.256 109.103C127.425 110.744 128.138 112.198 128.566 113.767C129.067 115.598 128.824 117.323 128.707 119.175L125.523 119.163Z" fill="#E37714"/>
<path d="M85.4465 119.086C85.0286 119.065 83.5472 119.033 83.2534 118.93C83.6214 118.911 84.6051 118.962 84.7991 118.86C84.2394 118.722 84.1008 118.671 83.5451 118.786L83.5128 118.668C83.9408 118.438 85.9234 118.528 86.4531 118.583C86.2246 118.726 86.0276 118.707 85.7531 118.724C86.832 119.21 92.183 118.545 93.5681 118.472C94.2598 118.437 94.9617 118.588 95.6585 118.549C97.0047 118.473 98.381 118.143 99.7282 117.994C101.188 117.831 103.132 118.076 104.488 117.56C105.683 117.107 106.269 117.839 107.371 117.777C107.663 117.762 112.289 116.157 112.312 116.119L111.766 115.927L111.988 116.03L112.093 115.817C113.206 115.664 114.959 115.969 116.136 116.039C117.578 116.124 119.941 115.92 121.085 116.777L121.117 116.911C120.681 117.015 120.307 116.407 119.817 116.577C119.422 116.714 115.751 116.473 115.667 116.559C116.007 116.643 116.642 116.895 116.836 116.888C117.467 117.312 118.401 118.521 118.57 118.613C119.171 118.936 121.281 118.726 121.889 119.169L85.4465 119.086Z" fill="#F8AF46"/>
<path d="M60.0818 119.162C60.5013 118.97 61.6044 118.995 61.6121 118.339L61.1976 118.351L61.2373 118.228C62.2863 117.734 65.3041 116.867 66.3967 116.496C67.8274 116.009 75.5699 114.59 76.7276 115.15L76.7817 115.355C75.9449 116.176 72.0497 117.101 72.1336 118.608C72.5017 118.913 73.8422 118.863 74.4008 118.866C74.3037 118.745 74.2419 118.7 74.2295 118.549L74.6835 118.593L74.7101 118.882C74.8051 118.739 74.7783 118.795 74.9776 118.702C74.8806 118.761 74.785 118.825 74.6906 118.889C75.0546 118.896 75.5701 118.882 75.9016 118.986L75.0882 119.081C72.9977 119.087 70.9297 119.065 68.833 119.077C66.0296 119.094 62.8473 119.284 60.0818 119.162Z" fill="#F8AF46"/>
<path d="M8.10421 74.558L8.18325 74.4565C8.08571 76.0715 8.55923 76.5371 8.42692 77.959C8.27803 79.5589 6.93677 82.0959 6.68443 83.5582L6.88985 83.7235C6.41927 84.4518 6.43771 84.2994 5.56141 84.5729C5.14079 84.7041 4.58288 84.7611 4.50301 85.2796C4.33942 86.3417 4.24149 87.4378 4.14123 88.507L4.23405 88.6799C5.02415 88.7064 6.59049 89.0191 6.82739 88.1341C6.55853 86.6888 5.92269 86.8297 6.52514 85.4544C6.90087 86.0329 7.40716 88.7913 7.04812 89.4632L6.80483 89.6101L6.69198 89.5671L6.83973 89.1986C6.49415 88.4849 4.57583 89.3627 3.88567 88.9044C4.14901 89.6101 4.96187 89.5361 5.47549 90.0292L5.50315 90.1543C4.94826 89.9721 4.16885 89.5226 3.63306 89.2373C4.15309 85.9614 4.79134 82.4541 4.77207 79.1554C5.57665 78.3364 7.59682 75.5562 8.10421 74.558Z" fill="#E6B46C"/>
<path d="M8.10418 74.558L8.18323 74.4565C8.08569 76.0715 8.55921 76.5371 8.4269 77.959C8.27801 79.5589 6.93675 82.0959 6.68441 83.5582C6.3853 83.6703 6.49786 83.6787 6.24837 83.5713C4.56157 79.2778 8.11458 77.9133 8.10418 74.558Z" fill="#F5C57E"/>
<path d="M35.8721 78.0464C36.7196 80.6192 37.5885 83.357 37.6753 86.0886C37.7013 86.9086 37.5495 90.2596 37.8399 90.7522C37.8678 90.7996 37.8897 90.8502 37.9153 90.8989C37.9337 90.934 37.9528 90.9685 37.9715 91.0035L37.8616 91.1935L37.8016 91.2087C37.3485 89.9226 35.3367 87.6115 33.9888 87.3581C33.2197 87.2433 30.4403 85.3589 31.3734 84.1717L31.5779 84.3292C31.567 84.5912 31.5462 84.8334 31.5235 85.0938C31.8178 85.5792 32.8299 86.5317 33.4076 86.5597C33.4678 86.5085 33.5797 86.4207 33.609 86.34C34.6933 83.3563 36.6478 81.4856 35.709 78.1408L35.8721 78.0464Z" fill="#B23505"/>
<path d="M35.709 78.1409C33.7336 73.9723 34.8752 74.0734 31.079 71.161C29.9535 70.2975 26.7562 64.3733 26.1692 62.9583L26.2481 62.8257L26.5684 63.2278C26.6498 62.8326 26.5674 62.9321 26.8318 62.7434C26.925 62.3891 26.6399 61.7529 26.5159 61.2955C27.4804 63.1198 30.7663 68.6584 32.1254 70.0012L32.169 70.0437L32.1899 68.7637C32.4524 69.0985 32.7926 70.3259 33.3808 71.0412C34.0699 72.9819 34.5875 74.9774 35.419 76.8756C35.5679 77.2153 35.7609 77.6981 35.8721 78.0464L35.709 78.1409Z" fill="#BD4607"/>
<path d="M151.417 62.6787C151.587 62.3363 151.693 62.0042 152.01 61.831C152.122 62.0901 152.031 62.4771 151.992 62.7795L152.07 62.792C152.618 62.1586 152.975 61.7202 153.625 61.1901L153.404 60.5261L153.522 60.3668C154.42 63.0194 154.011 64.8059 152.872 67.3521C152.831 67.4446 152.831 67.4336 152.768 67.5198L152.684 67.4842C152.258 67.7289 152.195 69.3014 151.467 69.8857C151.05 69.9538 151.222 69.9731 150.809 69.7745C150.734 69.4621 151.425 68.0719 151.604 67.4097L151.542 67.3121L151.18 67.7849C151.669 65.9706 151.525 64.5225 151.417 62.6787Z" fill="#9D2A04"/>
<path d="M33.9888 87.3582C35.3366 87.6115 37.3485 89.9227 37.8016 91.2087C36.4026 91.2071 34.9175 90.618 33.8975 90.603C33.3612 91.1678 33.3312 93.1199 33.1796 93.8554C32.8873 95.2732 32.2131 96.9722 31.7292 98.3525C31.9027 98.4878 32.0061 98.4628 32.2283 98.4645C32.3833 98.5943 32.3659 98.5411 32.4377 98.7065C31.4057 98.6592 29.1979 98.1144 28.2141 97.8134C28.7954 97.6339 29.7843 98.06 30.5704 98.1488C30.8954 97.8791 30.6554 97.6779 30.7393 97.5596C31.6707 96.2584 32.0076 94.6348 32.151 93.0702C32.2445 92.0499 32.0622 91.2995 32.7526 90.4738L32.7025 90.3635C32.4383 90.4298 32.2189 90.5247 31.977 90.4342C32.7388 88.5189 35.6247 92.0882 36.7457 90.0187C36.5712 89.3342 34.6106 87.8535 33.9888 87.3582Z" fill="#BD4607"/>
<path d="M50.2649 113.128C50.9037 111.154 51.6894 109.243 52.3533 107.261C53.1722 104.816 53.8465 101.864 54.859 99.5303C55.4145 98.2499 56.9964 96.2574 57.6822 94.9688C57.9025 94.5548 57.7925 93.7165 58.1042 93.2392L58.2993 93.1475L58.3594 93.2875C57.8608 94.0503 58.481 94.2102 58.0913 94.8753C57.334 96.168 55.1477 99.0655 54.6616 100.294C53.6844 102.765 53.2435 105.653 52.252 108.084C52.4955 108.617 52.6972 108.642 52.6958 109.112C52.4206 109.44 51.7873 109.38 51.7359 109.507C51.1298 111.007 50.7434 111.425 51.0626 113.021L50.9012 113.272C50.839 113.275 50.6711 113.286 50.6215 113.273C50.4328 113.942 50.4379 114.365 49.9408 114.781C49.9675 115.181 49.8922 116.185 49.9138 116.281C50.1528 117.331 50.7129 116.827 50.3551 117.906C50.7865 118 52.0385 117.477 52.3571 117.248C54.996 115.351 55.8479 112.806 57.037 109.954C57.2279 109.496 58.2865 108.272 58.4117 107.665C58.516 107.159 58.4426 106.641 58.7166 106.207L58.8202 106.237C58.2632 109.147 57.9678 108.504 56.8824 110.728C55.7729 113.002 55.4188 114.745 53.3296 116.686C52.9487 117.039 52.603 117.481 52.1102 117.852C51.4941 118.316 49.8541 118.547 49.6905 119.157L48.7104 119.172L48.932 119.067C49.0789 118.744 49.6003 115.577 49.8351 114.718L50.2649 113.128Z" fill="#BD4607"/>
<path d="M8.18339 74.4567L8.28529 74.1724C8.34643 74.6287 8.28441 74.8162 8.55205 75.0895C8.88503 74.9744 9.19873 74.6781 9.47673 74.4494C9.32457 74.816 9.15085 74.9718 8.87512 75.2476C9.06822 75.5565 9.61154 75.3363 9.60815 76.0503C9.60637 76.4244 9.43869 76.3328 9.63598 76.8201C9.84032 76.8088 9.73986 76.8376 9.92609 76.6824C10.044 78.1867 8.60318 77.3889 8.53631 78.732C8.99039 79.5842 9.87327 79.383 10.1185 79.7938L10.0008 79.9018L9.58899 79.7793C9.04477 80.396 9.95678 80.3747 8.72893 81.2022C8.61117 81.4679 8.58937 81.5067 8.65219 81.7874C9.05225 81.9093 9.58365 82.0274 9.88171 82.2985L9.92008 82.4945C9.21578 82.4269 8.64734 81.944 8.21885 82.28C8.14927 83.2738 9.43241 83.8167 9.0107 84.4712C8.47822 84.1435 8.25474 82.8892 7.65384 82.4958C7.1498 82.6409 7.01343 83.2505 6.88999 83.7236L6.68457 83.5583C6.93691 82.096 8.27817 79.559 8.42705 77.9592C8.55937 76.5372 8.08585 76.0716 8.18339 74.4567Z" fill="#F8AF46"/>
<path d="M37.4805 61.8941L37.6689 61.5621L37.8332 61.5626C38.2355 62.5519 37.7109 65.3002 37.8953 66.5964C38.2104 66.4299 38.3364 66.3121 38.6018 66.088L38.654 66.188C37.4706 67.4836 38.1454 67.3307 37.8402 68.7803L37.8753 68.8401C38.047 68.7209 38.09 68.5805 38.1831 68.3911L38.277 68.3801C38.9012 68.3016 39.0045 68.0804 39.331 67.5779L39.6427 67.5517C40.3127 68.4059 38.5162 70.4139 38.4794 71.4666C38.6766 71.6971 38.8996 71.9459 39.0843 72.1828C37.8491 71.658 38.2636 70.3726 37.6994 69.0483L37.6532 68.9419C37.7423 68.0652 37.6516 62.672 37.4805 61.8941Z" fill="#BD4607"/>
<path d="M141.171 119.15C141.929 118.616 143.534 119.063 144.389 118.652C145.088 118.318 144.547 118.404 144.711 117.867L144.946 117.952C145.28 117.632 145.461 115.784 145.823 115.383L145.945 115.572C146.35 114.431 146.17 108.546 146.685 107.965C146.756 110.738 146.209 116.354 145.555 119.05L141.171 119.15Z" fill="#F69F30"/>
<path d="M148.375 84.2566C148.365 85.5557 148.335 86.2692 148.527 87.5664C148.322 87.9909 148.252 92.0443 148.199 92.8442L148.085 92.9327C147.962 92.7137 147.993 91.3676 147.954 90.8717C147.929 91.333 147.904 91.6878 147.841 92.1448C147.151 91.0797 147.745 85.1223 148.375 84.2566Z" fill="#C5611D"/>
<path d="M62.0699 101.982C60.9563 102.405 58.0017 102.082 58.3274 100.321C58.4705 99.5466 62.1686 100.627 62.481 99.1278C62.1516 98.5707 61.7746 97.6517 61.3404 97.2564C60.4565 97.0371 59.8201 98.1174 58.771 97.5852C58.5404 97.2431 58.5651 97.0723 58.5476 96.6601C59.0543 95.549 64.7141 96.6468 65.8675 96.9206L65.8542 97.0814C66.9935 97.4693 68.4298 97.424 69.534 97.7626C69.8091 97.8468 72.4218 99.3755 72.5264 99.521C72.1674 99.8688 70.2794 99.8165 69.5253 99.9894C67.6832 100.411 66.1045 101.117 64.331 101.725C63.8466 101.891 62.5879 101.864 62.0699 101.982Z" fill="#F69F30"/>
<path d="M62.0699 101.982C60.9563 102.405 58.0017 102.082 58.3274 100.321C58.4705 99.5466 62.1686 100.627 62.481 99.1278C62.1516 98.5707 61.7746 97.6517 61.3404 97.2564C60.4565 97.0371 59.8201 98.1174 58.771 97.5852C58.5404 97.2431 58.5651 97.0723 58.5476 96.6601C59.0543 95.549 64.7141 96.6468 65.8675 96.9206L65.8542 97.0814L65.3947 97.0385C64.2562 97.0139 63.0106 97.1293 63.4363 98.637C63.7861 98.9724 63.8172 98.905 63.9449 99.3136C63.6273 99.6561 63.2189 99.5953 62.7697 99.5857C61.9322 99.8802 59.4449 100.439 59.153 101.227C59.5565 101.963 61.3058 101.925 62.0699 101.982Z" fill="#E37714"/>
<path d="M62.6662 98.9035C62.3082 98.3628 61.1841 97.0197 61.6402 96.4736C62.1323 96.3868 64.6605 96.9112 65.3947 97.0385C64.2561 97.0139 63.0105 97.1293 63.4362 98.637C63.786 98.9724 63.8171 98.905 63.9448 99.3136C63.6272 99.6561 63.2188 99.5953 62.7697 99.5857C62.7589 99.3717 62.7046 99.1179 62.6662 98.9035Z" fill="#E68717"/>
<path d="M58.901 76.6761C61.5907 76.5447 67.1543 77.4865 69.8602 78.0902C70.4378 78.2191 71.7172 79.0518 72.1061 79.5411L72.0864 79.7018C71.5357 79.8581 66.8877 79.8834 65.9473 79.9018C63.2968 80.227 59.8236 80.4608 57.1699 80.1102C56.5147 80.0236 54.0742 79.0289 54.4671 78.1325C55.0676 77.7877 58.0671 76.8011 58.6673 76.8315L58.7218 77.5139L58.8125 77.5054L58.901 76.6761Z" fill="#F18220"/>
<path d="M0 0H189.844V119.098C186.118 118.992 181.847 119.099 178.058 119.082L145.555 119.05C146.209 116.354 146.756 110.738 146.685 107.965C146.913 103.794 147.301 99.5854 147.927 95.4593C148.055 94.6124 148.12 93.7008 148.199 92.8441C148.252 92.0442 148.322 87.9908 148.527 87.5664C149.32 89.0461 149.837 90.1582 150.448 91.7433C151.358 94.1075 151.811 97.0985 153.675 98.9045C154.8 98.8237 155.73 98.6422 156.833 98.4398L159.298 97.9475C161.031 97.6909 162.705 97.2087 164.408 96.8358C170.079 95.5946 175.189 93.0455 180.715 91.3461C181.249 91.251 182.039 90.9563 182.569 90.7691C183.81 90.397 185.004 89.7452 186.137 89.125C185.875 87.3402 185.68 85.4414 185.157 83.7166C184.506 81.5624 183.691 79.5104 183.057 77.3394C182.34 74.7466 181.83 72.3582 180.872 69.821C179.944 67.3655 179.504 64.2633 178.904 61.6755C177.791 56.9759 176.531 52.3119 175.126 47.6909C174.642 46.0809 174.095 43.672 173.562 42.1695C172.832 40.1105 171.002 36.0888 169.75 34.3314C169.649 34.01 169.371 33.5273 169.215 33.2243C167.623 30.1301 166.153 28.1457 163.553 25.8335C161.107 23.6591 158.851 21.727 155.748 20.4263C154.479 19.8688 153.221 19.1031 151.949 18.5654C147.906 16.8566 143.692 15.4601 139.607 13.8309C137.685 13.0641 135.456 12.5924 133.575 11.7531C130.822 10.5253 128.101 9.27393 125.355 8.03681C123.068 6.96996 120.88 5.62095 118.527 4.6931C117.507 4.00441 115.943 3.24789 114.713 3.18333C112.222 3.05254 109.548 3.25495 107.05 3.37195C103.284 3.57052 99.5128 3.67741 95.741 3.69257C92.3279 3.70709 88.9152 3.61861 85.5075 3.42728C81.797 3.22808 77.5184 2.85448 73.8231 3.24537C72.8999 3.34302 71.5213 4.19585 70.7489 4.75529C69.613 5.23608 68.4178 6.13789 67.2837 6.72033C63.9698 8.42213 60.744 10.2973 57.3107 11.766C52.0253 14.0269 46.468 15.8283 41.0884 17.8406C39.4472 18.4546 36.7485 19.9154 35.0789 20.7098C32.5738 21.902 29.4698 23.8459 27.3805 25.6508C26.6916 26.2461 25.3233 28.2 24.5363 29.0686C23.8307 32.2372 23.4844 32.3091 21.6088 34.8686C20.5989 36.5325 20.2253 38.1202 19.3832 39.7191C17.7027 42.823 15.971 45.8691 14.5322 49.0996C13.4539 51.5203 13.2908 54.1499 12.6449 56.6542C11.7653 60.065 10.9327 63.3661 10.3506 66.8508C10.0988 68.3583 9.36401 70.0534 9.03874 71.5635C8.93523 71.948 8.4168 73.913 8.2852 74.1723L8.1833 74.4566L8.10425 74.5581C7.59687 75.5563 5.5767 78.3364 4.77212 79.1555C4.79139 82.4542 4.15314 85.9615 3.63311 89.2373C4.1689 89.5227 4.94831 89.9721 5.5032 90.1543C7.28837 90.9097 9.03101 91.3488 10.7933 92.0175C15.5082 93.8065 20.2148 95.4836 25.0467 96.9377C25.5688 97.0949 27.7909 97.8016 28.2141 97.8134C29.1979 98.1144 31.4057 98.6592 32.4376 98.7064C33.047 98.9372 35.9509 99.2776 36.45 98.9215C37.9054 97.8834 38.1387 93.7686 38.8607 92.0544C39.5045 90.5262 40.2134 89.2935 40.7009 88.0023C41.44 88.9931 41.8676 96.1423 42.1078 97.9001C42.6305 101.724 43.115 105.813 43.4456 109.671C43.6697 112.108 43.6791 116.928 44.1155 119.064C29.4295 118.886 14.7 119.132 0 119.048V0Z" fill="#D4C7B2"/>
<path d="M21.6086 34.8686C21.5429 32.1469 22.9594 30.9826 24.5361 29.0686C23.8305 32.2372 23.4842 32.3091 21.6086 34.8686Z" fill="#F8AF46"/>
<path d="M162.424 40.5003C162.735 40.1582 163.016 39.86 163.344 39.5353C165.355 40.9015 164.803 41.7447 165.817 42.963L165.848 42.2373C165.915 42.4841 166.147 48.4135 166.101 48.7133C165.662 51.581 164.395 55.1796 163.355 57.9216C163.337 57.9707 163.874 59.3267 164.025 59.4574C163.792 59.7356 165.334 56.4782 165.281 56.6135C166.117 54.4522 167.614 51.8529 168.041 49.618L168.261 49.4736C169.534 50.1622 169.57 51.2747 170.829 52.3231C170.894 52.0554 170.954 51.7797 171.048 51.5213C171.276 56.6204 166.866 63.7616 165.227 68.6941C164.361 71.3042 164.833 73.0032 162.814 75.2927L163.114 75.4596C163.222 75.9501 163.222 76.5473 162.818 76.9283C161.556 78.1167 161.607 78.4755 161.028 79.9597C160.53 81.2377 160.394 80.5776 160.118 82.2004L160.208 82.3714L160.003 82.567L160.155 82.6757C161.001 82.4636 162.941 78.0771 163.529 77.0681C164.675 75.1037 165.319 72.4353 166.28 70.3334C168.005 66.2984 170.243 62.4726 171.702 58.3313C171.812 58.0162 172.757 55.9167 172.938 55.7874C173.244 57.1066 173.709 56.7289 173.842 57.3465C173.873 57.0164 173.904 56.686 173.931 56.3554C174.18 57.5159 174.121 63.9384 173.968 65.3619C173.495 69.7562 172.848 74.2361 172.761 78.7578C172.733 80.2152 172.064 84.0733 173.316 85.215C174.622 86.0936 176.184 83.2982 177.453 83.3646C177.766 83.6438 177.687 83.51 177.811 83.8709C177.714 84.4025 177.04 86.0981 177.069 86.298C177.225 87.3801 177.831 90.3901 178.369 91.2703C179.405 91.8125 179.903 91.0472 180.715 91.3461C175.189 93.0454 170.079 95.5946 164.408 96.8357C162.705 97.2086 161.031 97.6909 159.298 97.9475L156.833 98.4398C155.73 98.6422 154.8 98.8237 153.675 98.9045C151.81 97.0985 151.358 94.1075 150.448 91.7432C149.837 90.1582 149.32 89.0461 148.527 87.5663C148.335 86.2691 148.365 85.5556 148.374 84.2565C148.816 80.1481 149.49 75.8759 149.906 71.7392C150.017 70.6412 150.76 68.86 151.18 67.7849L151.542 67.312L151.604 67.4096C151.425 68.0718 150.733 69.462 150.808 69.7745C151.222 69.9731 151.05 69.9538 151.467 69.8857C152.195 69.3014 152.258 67.7288 152.683 67.4841L152.768 67.5198C152.831 67.4335 152.831 67.4445 152.872 67.3521C154.011 64.8058 154.42 63.0193 153.521 60.3668C153.398 59.6633 153.23 59.146 153.021 58.4676L153.083 58.4961C153.301 58.7217 153.901 60.5686 154.043 61.0165C154.312 60.8308 155.136 60.8882 155.669 60.5632C156.684 59.9436 156.267 59.1761 156.526 58.1984C156.617 57.8556 156.644 57.8724 156.885 57.7495C158.003 53.9701 159.572 49.893 161.306 46.3616C161.436 46.0982 161.6 45.9041 161.582 45.6038L161.392 45.8033L161.223 45.7855C161.178 45.5476 161.178 45.4209 161.173 45.178L161.017 45.1109C160.976 45.4167 161.024 45.4903 160.835 45.662L160.594 45.4057L160.68 44.9954L160.509 44.7958C160.35 44.7874 160.246 44.8014 160.12 44.7069C160.302 44.2617 160.366 44.2016 160.215 43.8281C160.353 42.3712 162.225 41.8429 162.424 40.5003Z" fill="#E37714"/>
<path d="M162.424 40.5003C162.735 40.1582 163.016 39.86 163.344 39.5353C165.355 40.9015 164.803 41.7447 165.817 42.963C165.3 44.2038 165.979 48.0213 165.904 48.8444C165.694 51.1398 162.001 60.8416 160.725 62.5032L160.513 62.5556C160.252 63.0284 159.179 65.0609 158.863 65.3784C158.295 65.9473 157.133 66.3573 156.551 67.2815C154.834 68.6164 153.13 72.0591 152.547 74.1168L152.409 74.0448C152.331 73.6162 152.245 73.293 152.402 72.8776L152.325 72.7326C152.067 73.286 152.106 73.8273 151.479 74.0279C150.765 72.7863 151.779 69.9717 152.305 68.7637L152.768 67.5198C152.831 67.4335 152.831 67.4445 152.872 67.3521C154.011 64.8058 154.42 63.0193 153.522 60.3668C153.399 59.6633 153.23 59.146 153.021 58.4676L153.083 58.4961C153.301 58.7217 153.901 60.5686 154.043 61.0164C154.313 60.8308 155.136 60.8882 155.67 60.5632C156.684 59.9436 156.267 59.1761 156.526 58.1984C156.618 57.8556 156.645 57.8724 156.885 57.7495C158.003 53.9701 159.572 49.893 161.306 46.3616C161.436 46.0982 161.6 45.9041 161.582 45.6038L161.392 45.8033L161.223 45.7855C161.179 45.5476 161.179 45.4209 161.173 45.178L161.017 45.1109C160.976 45.4167 161.024 45.4903 160.835 45.662L160.594 45.4057L160.681 44.9954L160.509 44.7958C160.35 44.7874 160.246 44.8014 160.12 44.7069C160.302 44.2617 160.366 44.2016 160.215 43.8281C160.354 42.3712 162.225 41.8429 162.424 40.5003Z" fill="#C5611D"/>
<path d="M153.021 58.4676L153.083 58.4961C153.301 58.7217 153.901 60.5686 154.043 61.0165C154.313 60.8308 155.136 60.8883 155.67 60.5632C156.684 59.9436 156.267 59.1762 156.526 58.1985C156.618 57.8556 156.645 57.8724 156.885 57.7495C156.316 60.3131 155.741 62.9407 155.298 65.5384C155.084 66.7917 153.721 68.7047 153.357 69.9931C153.156 70.5227 152.631 72.5666 152.402 72.8776L152.325 72.7326C152.067 73.286 152.106 73.8273 151.479 74.0279C150.765 72.7863 151.779 69.9717 152.305 68.7637L152.768 67.5198C152.831 67.4335 152.831 67.4445 152.872 67.3521C154.011 64.8058 154.42 63.0193 153.522 60.3668C153.399 59.6633 153.23 59.146 153.021 58.4676Z" fill="#CC5014"/>
<path d="M152.305 68.7638C152.452 69.4157 151.883 69.8199 151.997 70.1906C152.24 69.8685 152.232 69.7594 152.558 69.6592C152.747 69.8677 152.777 69.9079 152.902 70.1597C153.227 69.659 153.206 69.085 153.57 68.8042C153.553 69.1743 152.499 72.0627 152.325 72.7327C152.067 73.2861 152.106 73.8274 151.479 74.028C150.765 72.7864 151.779 69.9718 152.305 68.7638Z" fill="#9D2A04"/>
<path d="M160.215 43.8281C160.354 42.3713 162.225 41.843 162.424 40.5004C162.624 41.9323 161.405 42.8995 160.484 43.8877C160.393 43.8715 160.295 43.8617 160.215 43.8281Z" fill="#E68717"/>
<path d="M156.551 67.2815C157.133 66.3572 158.294 65.9473 158.863 65.3784C159.179 65.0609 160.251 63.0284 160.513 62.5556L160.725 62.5032C159.997 64.0137 159.373 64.7323 158.81 66.3578C158.428 67.4622 157.345 72.2204 156.894 72.7776C156.832 73.4629 155.867 76.128 155.471 76.5509C155.023 76.9725 154.844 77.5791 154.537 78.09C152.023 82.2825 153.238 86.8823 152.443 91.3749C152.98 91.402 154.568 91.4761 155.016 91.2285L156.11 91.0841C156.934 91.5767 156.319 93.4395 156.333 94.3545C156.348 95.2454 156.31 97.8071 156.833 98.4398C155.73 98.6422 154.8 98.8237 153.675 98.9044C151.81 97.0984 151.358 94.1075 150.448 91.7432C149.837 90.1581 149.32 89.046 148.527 87.5663C148.335 86.269 148.365 85.5556 148.374 84.2565C148.816 80.1481 149.49 75.8759 149.906 71.7392C150.017 70.6411 150.76 68.86 151.18 67.7848L151.542 67.312L151.604 67.4096C151.425 68.0718 150.733 69.462 150.808 69.7744C151.222 69.9731 151.05 69.9537 151.467 69.8856C152.195 69.3013 152.258 67.7288 152.683 67.4841L152.768 67.5197L152.305 68.7637C151.779 69.9716 150.765 72.7863 151.479 74.0279C152.106 73.8272 152.067 73.2859 152.325 72.7326L152.402 72.8775C152.245 73.293 152.331 73.6162 152.409 74.0447L152.546 74.1168C153.13 72.0591 154.834 68.6164 156.551 67.2815Z" fill="#941B03"/>
<path d="M156.551 67.2815C157.133 66.3572 158.294 65.9473 158.863 65.3784C159.179 65.0609 160.252 63.0284 160.513 62.5556L160.725 62.5032C159.997 64.0137 159.373 64.7323 158.81 66.3578C158.428 67.4622 157.345 72.2204 156.894 72.7776C156.859 72.2294 157.044 71.9351 156.877 71.5888C156.823 71.8481 156.825 71.9209 156.68 72.1352L156.487 72.0497C156.349 71.6584 156.371 71.8267 156.448 71.3842L156.456 71.4023L156.397 71.1218C155.9 71.8236 154.402 75.121 153.947 76.0783C153.694 75.771 153.234 75.1668 152.866 75.1109C152.462 75.3486 152.503 75.4458 152.235 75.9115L152.155 75.8676C152.429 74.1709 154.194 70.9277 154.942 69.3588C155.204 68.8079 156.166 68.0423 156.551 67.2815Z" fill="#BD4607"/>
<path d="M152.443 91.375C153.238 86.8824 152.023 82.2827 154.537 78.0902C154.845 77.5792 155.023 76.9727 155.471 76.551L155.445 76.6502C155.073 77.9929 154.204 79.0416 153.983 80.2601C153.829 81.1156 154.188 82.8468 154.213 83.7352C154.26 85.4635 154.13 87.721 153.68 89.3855C153.567 89.7994 153.723 90.2732 153.717 90.695C153.716 90.8 153.591 90.9547 153.545 91.2083C153.847 91.222 153.885 91.2204 154.139 91.0573C154.291 90.4551 153.946 90.5095 154.17 90.0063L154.377 89.9317C154.758 90.5115 154.207 90.6642 155.016 91.2286C154.568 91.4763 152.98 91.4021 152.443 91.375Z" fill="#9D2A04"/>
<path d="M156.11 91.0842C156.732 91.0294 157.383 90.9583 158.004 90.9569L157.962 91.0395C157.591 91.0979 157.138 91.1076 156.882 91.3169C156.581 92.6552 156.272 97.4013 157.484 98.1426C158.237 98.2616 158.912 97.4689 159.298 97.719V97.9475L156.833 98.4398C156.311 97.8071 156.348 95.2454 156.333 94.3545C156.319 93.4395 156.934 91.5767 156.11 91.0842Z" fill="#BD4607"/>
<path d="M114.141 48.0944C114.19 47.5815 114.115 47.3552 114.507 47.0159C115.318 46.3135 116.432 46.0955 117.341 45.6682C120.332 44.2611 123.191 43.2441 126.582 43.6512C129.159 43.9605 134.048 46.4098 135.657 48.4618C135.71 48.5272 135.759 48.5943 135.806 48.6631C136.068 51.0022 135.997 54.579 136.069 57.0351C136.068 58.2498 136.052 59.8088 136.084 61.0661C136.181 64.8275 135.989 65.2156 133.159 67.2835C132.039 68.1029 126.323 70.6885 125.955 71.084C124.998 71.0273 123.034 69.3866 122.156 68.7871C120.205 67.4548 116.445 65.7448 115.308 63.6237C115.057 63.1195 114.735 62.4623 114.655 61.9174C113.996 57.4428 114.478 52.5794 114.141 48.0944Z" fill="#3C180A"/>
<path d="M122.409 46.106C122.741 46.0593 123.264 45.8411 123.658 45.7609C124.557 45.5785 125.277 45.6809 126.184 45.6797C126.842 45.8229 128.81 46.2028 129.167 46.7875C128.592 48.4951 129.275 48.1979 129.369 49.231C129.526 49.6616 129.219 51.0953 129.143 51.688C130.232 51.5983 129.923 52.4966 130.612 52.952C130.856 53.5179 131.169 54.3082 131.463 54.8289C131.525 54.9074 131.624 55.0543 131.7 55.0951C131.982 55.5388 132.063 55.6565 132.211 56.155C132.82 57.3843 132.855 57.9438 132.394 59.3497C132.095 60.259 131.299 61.8172 130.801 62.6331C130.195 62.3686 129.607 62.1403 129.064 61.7618C128.838 62.1709 128.808 62.2487 128.4 62.4721C128.444 63.101 128.764 64.9396 128.707 65.2531C128.344 65.5683 127.84 65.3451 127.601 65.4894C126.878 65.9265 125.389 69.0659 124.296 67.6738C123.392 66.5229 123.62 64.2798 124.416 63.1273C124.024 62.3221 124.052 62.1781 123.157 62.0739C122.857 62.2607 122.25 62.6609 121.933 62.7431C120.395 63.1424 118.28 62.8253 117.758 61.086C117.633 60.8094 117.562 60.6581 117.476 60.3626C117.211 59.7688 117.038 58.4485 116.922 57.7526C116.798 57.4176 116.9 57.1158 116.976 56.7672C116.937 56.1354 116.962 55.8202 117.019 55.1958C116.213 53.8542 115.502 50.955 116.837 49.8141L116.879 49.4545C117.206 49.0232 118.07 48.8172 118.603 48.6499C119.266 48.2301 119.823 47.8839 120.443 47.3984C121.189 46.6629 121.481 46.5463 122.409 46.106Z" fill="#BC672E"/>
<path d="M129.143 51.688C130.232 51.5983 129.923 52.4966 130.612 52.952C130.856 53.5179 131.169 54.3082 131.463 54.8289C131.525 54.9074 131.624 55.0543 131.7 55.0951C131.982 55.5388 132.063 55.6565 132.211 56.155C132.82 57.3843 132.855 57.9438 132.394 59.3497C132.095 60.259 131.299 61.8172 130.801 62.6331C130.195 62.3686 129.607 62.1403 129.064 61.7618C128.838 62.1709 128.808 62.2487 128.4 62.4721C128.445 63.101 128.764 64.9396 128.707 65.2531C128.344 65.5683 127.84 65.3451 127.601 65.4894C126.878 65.9265 125.389 69.0659 124.296 67.6738C123.393 66.5229 123.62 64.2798 124.416 63.1273C124.024 62.3221 124.052 62.1781 123.157 62.0739C122.857 62.2607 122.25 62.6609 121.934 62.7431C120.395 63.1424 118.28 62.8253 117.758 61.086C117.633 60.8094 117.562 60.6581 117.476 60.3626C117.211 59.7688 117.038 58.4484 116.922 57.7526C116.798 57.4175 116.9 57.1158 116.976 56.7672C117.268 56.9271 117.375 57.0028 117.707 57.0797C118.86 57.5411 120.006 57.4616 120.614 58.1722C121.145 58.0418 122.624 57.4072 123.135 57.1505C124.216 57.1899 124.704 56.1659 125.718 56.3504L126.635 57.1599C127.035 56.6504 127.103 56.5908 127.683 56.2802C127.525 55.8559 128.186 54.9352 128.416 54.5216C128.808 53.7259 128.995 52.5572 129.143 51.688Z" fill="#C5611D"/>
<path d="M129.143 51.688C130.232 51.5983 129.924 52.4966 130.613 52.952C130.856 53.5179 131.169 54.3082 131.463 54.8289C131.525 54.9074 131.624 55.0543 131.7 55.0951C131.982 55.5388 132.063 55.6565 132.211 56.155L131.766 56.3156C130.828 56.4158 129.874 56.5797 129.632 57.6756C129.171 57.2712 128.687 57.1959 128.059 56.5954L127.683 56.2802C127.525 55.8559 128.186 54.9352 128.416 54.5216C128.808 53.7259 128.995 52.5572 129.143 51.688Z" fill="#E37714"/>
<path d="M131.463 54.8289C131.525 54.9074 131.624 55.0543 131.7 55.0951C131.982 55.5388 132.063 55.6564 132.211 56.155L131.765 56.3156C130.828 56.4158 129.874 56.5796 129.631 57.6756C129.171 57.2712 128.687 57.1959 128.059 56.5953C128.946 56.2888 130.128 55.3085 131.218 55.1433C131.218 55.1433 131.436 54.8632 131.463 54.8289Z" fill="#A1541C"/>
<path d="M132.211 56.1549C132.82 57.3842 132.855 57.9438 132.394 59.3497C132.095 60.2589 131.299 61.8172 130.801 62.633C130.195 62.3685 129.607 62.1403 129.064 61.7617C128.457 60.8439 131.763 61.3252 130.54 58.7892C130.234 58.453 129.918 58.0354 129.632 57.6755C129.874 56.5796 130.828 56.4158 131.766 56.3156L132.211 56.1549Z" fill="#A1541C"/>
<path d="M129.632 57.6756C129.874 56.5797 130.828 56.4159 131.766 56.3157C132.555 57.3975 131.541 58.3995 130.54 58.7893C130.234 58.4531 129.918 58.0355 129.632 57.6756Z" fill="#C5611D"/>
<path d="M127.683 56.2803L128.059 56.5954C128.687 57.196 129.171 57.2712 129.632 57.6756C129.918 58.0355 130.234 58.453 130.54 58.7893C131.763 61.3253 128.458 60.844 129.065 61.7618C128.838 62.1709 128.808 62.2487 128.4 62.4721C128.153 62.0389 128.072 61.9955 127.658 61.7066C127.883 61.2127 127.745 61.362 128.193 61.0498C128.456 61.0266 128.441 61.0302 128.644 60.8581C128.899 60.4093 128.89 59.7764 128.926 59.2468C128.227 58.4705 127.433 57.8313 126.635 57.1599C127.035 56.6505 127.103 56.5908 127.683 56.2803Z" fill="#702514"/>
<path d="M116.976 56.7672C117.268 56.9272 117.375 57.0029 117.707 57.0798C118.86 57.5411 120.006 57.4617 120.614 58.1723C119.21 59.1923 118.848 59.7366 117.758 61.086C117.633 60.8095 117.562 60.6582 117.476 60.3626C117.211 59.7689 117.038 58.4485 116.922 57.7526C116.798 57.4176 116.9 57.1158 116.976 56.7672Z" fill="#3C180A"/>
<path d="M116.922 57.7526C117.86 57.7313 117.839 59.6866 117.476 60.3626C117.211 59.7688 117.038 58.4485 116.922 57.7526Z" fill="#4E2F1B"/>
<path d="M123.408 58.7509C123.831 58.5136 123.707 58.5012 124.123 58.5493C124.856 59.1059 125.302 60.4096 125.568 61.2874C125.302 61.8135 124.805 62.6834 124.416 63.1273C124.024 62.3221 124.052 62.1781 123.157 62.0739C123.412 61.949 123.469 61.8958 123.685 61.7086C123.714 61.3024 123.711 61.4284 123.438 61.0293C122.733 59.9249 123.8 60.144 123.408 58.7509Z" fill="#9D2A04"/>
<path d="M120.861 60.7613C121.307 60.1463 122.76 59.1709 123.408 58.7509C123.8 60.144 122.733 59.9248 123.438 61.0292C121.921 60.929 121.967 62.153 120.561 62.3854C120.067 62.4671 119.939 61.9336 119.23 61.9109L119.542 61.6426C119.994 61.3171 120.389 61.0569 120.861 60.7613Z" fill="#A1541C"/>
<path d="M120.861 60.7614C121.133 61.0741 121.218 61.1423 121.309 61.5505C121.044 62.475 120.089 62.0087 119.542 61.6426C119.994 61.3172 120.389 61.0569 120.861 60.7614Z" fill="#703D1D"/>
<path d="M127.658 61.7066C127.437 61.7298 127.365 61.6964 127.155 61.6396C126.771 61.3207 126.431 60.7323 126.803 60.2915C127.584 60.1394 127.73 60.5553 128.192 61.0498C127.745 61.362 127.883 61.2127 127.658 61.7066Z" fill="#A1541C"/>
<path d="M126.184 45.6797C126.842 45.8229 128.81 46.2028 129.167 46.7875C128.592 48.4951 129.275 48.1979 129.369 49.2309C129.526 49.6616 129.219 51.0953 129.143 51.688C128.995 52.5572 128.808 53.7259 128.416 54.5216C128.185 54.9352 127.525 55.8559 127.683 56.2802C127.103 56.5908 127.035 56.6504 126.635 57.1598L125.717 56.3504C125.601 56.1998 125.485 55.9894 125.387 55.821C124.978 55.0475 123.534 54.6079 123.073 53.7898C122.441 52.6678 122.379 51.6998 122.353 50.4751C122.616 49.1757 124.226 48.9088 125.105 47.2412L124.68 46.4868C124.84 46.4597 124.999 46.4306 125.159 46.3997C125.841 46.2652 125.839 46.1946 126.184 45.6797Z" fill="#E37714"/>
<path d="M126.184 45.6797C126.843 45.8229 128.81 46.2028 129.168 46.7875C128.592 48.4951 129.275 48.1979 129.369 49.2309C129.105 49.2857 129.236 49.172 128.863 48.9413C128.855 49.2123 128.872 49.3739 128.754 49.6214L128.621 49.1104C128.335 48.8619 125.439 47.276 125.105 47.2412L124.68 46.4868C124.84 46.4597 124.999 46.4306 125.159 46.3997C125.841 46.2652 125.839 46.1946 126.184 45.6797Z" fill="#4E2F1B"/>
<path d="M128.622 49.1104L128.754 49.6214C128.872 49.3739 128.855 49.2123 128.863 48.9413C129.236 49.172 129.106 49.2857 129.369 49.231C129.526 49.6616 129.219 51.0953 129.143 51.688C128.995 52.5572 128.808 53.7259 128.416 54.5216C128.053 54.2436 127.99 54.2029 127.777 53.7989C128.02 53.1405 128.483 49.9697 128.622 49.1104Z" fill="#702514"/>
<path d="M127.776 53.799C127.99 54.2029 128.053 54.2436 128.416 54.5216C128.185 54.9352 127.524 55.8559 127.683 56.2803C127.103 56.5908 127.035 56.6505 126.635 57.1599L125.717 56.3505C125.601 56.1999 125.485 55.9894 125.387 55.821C126.685 55.0173 126.872 55.3715 127.776 53.799Z" fill="#A1541C"/>
<path d="M122.409 46.106C122.741 46.0593 123.264 45.8411 123.658 45.7609C124.557 45.5785 125.277 45.6809 126.184 45.6797C125.839 46.1946 125.841 46.2652 125.158 46.3997C124.999 46.4306 124.84 46.4597 124.68 46.4868L125.105 47.2412C124.226 48.9088 122.616 49.1758 122.353 50.4751C122.166 51.1112 122.171 51.7601 122.142 52.4234C121.643 51.9376 120.775 51.0485 120.257 50.6507C119.225 50.1209 119.394 49.075 118.603 48.6499C119.266 48.2301 119.823 47.8839 120.443 47.3984C121.189 46.6629 121.481 46.5463 122.409 46.106Z" fill="#3C180A"/>
<path d="M120.443 47.3983C120.908 47.5599 120.865 47.4687 121.135 47.8064L121.249 48.5787C121.233 50.4094 120.69 49.599 120.257 50.6506C119.225 50.1208 119.394 49.0749 118.603 48.6499C119.266 48.23 119.823 47.8838 120.443 47.3983Z" fill="#A1541C"/>
<path d="M122.409 46.106C122.741 46.0593 123.264 45.8411 123.659 45.7609C124.557 45.5785 125.277 45.6809 126.184 45.6797C125.839 46.1946 125.841 46.2652 125.159 46.3997C124.999 46.4306 124.84 46.4597 124.681 46.4868C124.286 46.5741 123.846 46.6616 123.459 46.7629C123.048 46.3054 122.99 46.2922 122.409 46.106Z" fill="#703D1D"/>
<path d="M120.443 47.3983C121.19 46.6628 121.481 46.5462 122.41 46.106C122.99 46.2922 123.048 46.3053 123.46 46.7628C122.151 47.3842 121.219 47.0055 121.249 48.5787L121.136 47.8063C120.865 47.4687 120.908 47.5599 120.443 47.3983Z" fill="#71543A"/>
<path d="M117.019 55.1958C117.279 54.5457 117.362 53.9417 118.085 53.7766C118.555 53.8792 119.205 54.4315 119.619 54.738C120.281 55.3493 121.009 55.5713 121.592 56.2905C121.642 56.1422 121.665 56.1208 121.742 55.9823L122.223 55.9724C122.498 56.3092 122.901 56.7887 123.135 57.1504C122.624 57.4072 121.145 58.0418 120.614 58.1722C120.006 57.4616 118.86 57.541 117.707 57.0797C117.375 57.0028 117.268 56.9271 116.976 56.7671C116.937 56.1354 116.962 55.8201 117.019 55.1958Z" fill="#C5611D"/>
<path d="M121.592 56.2906C121.642 56.1422 121.665 56.1209 121.742 55.9824L122.223 55.9724C122.498 56.3092 122.901 56.7887 123.135 57.1505C122.624 57.4073 121.145 58.0418 120.614 58.1723C120.006 57.4616 118.86 57.5411 117.707 57.0797C117.82 57.0787 117.933 57.0734 118.045 57.0638C118.839 56.9929 120.51 56.8253 121.339 56.5946C121.439 56.4755 121.523 56.3741 121.592 56.2906Z" fill="#702514"/>
<path d="M116.837 49.8141C118.446 51.6298 118.685 52.0192 120.032 53.8553C119.946 54.212 119.916 54.5214 119.619 54.7381C119.205 54.4315 118.555 53.8792 118.085 53.7767C117.362 53.9418 117.279 54.5458 117.019 55.1958C116.213 53.8542 115.502 50.955 116.837 49.8141Z" fill="#4B220F"/>
<path d="M120.032 53.8552C120.609 54.3764 121.808 55.3957 122.223 55.9723L121.743 55.9823C121.665 56.1208 121.642 56.1421 121.593 56.2905C121.009 55.5713 120.281 55.3492 119.619 54.738C119.916 54.5213 119.946 54.2119 120.032 53.8552Z" fill="#9D2A04"/>
<path d="M129.168 46.7875C130.002 47.3807 133.295 50.1007 133.561 51.1328C133.743 51.8342 133.168 53.3125 132.838 54.032C132.33 54.4294 132.136 54.6184 131.7 55.0951C131.624 55.0544 131.525 54.9074 131.463 54.8289C131.169 54.3082 130.856 53.5179 130.613 52.952C129.923 52.4966 130.232 51.5983 129.143 51.688C129.219 51.0953 129.526 49.6616 129.369 49.231C129.275 48.1979 128.592 48.4951 129.168 46.7875Z" fill="#A1541C"/>
<path d="M130.613 52.952C130.784 52.4734 130.843 52.1263 131.239 51.8655C132.013 52.1928 132.025 53.3902 132.838 54.032C132.331 54.4294 132.136 54.6184 131.7 55.0952C131.624 55.0544 131.525 54.9074 131.463 54.8289C131.169 54.3083 130.856 53.5179 130.613 52.952Z" fill="#703D1D"/>
<path d="M70.749 4.75532C71.5214 4.19588 72.9 3.34305 73.8232 3.24539C77.5185 2.8545 81.7971 3.22811 85.5076 3.4273C88.9153 3.61864 92.328 3.70711 95.7411 3.69259C99.5129 3.67744 103.284 3.57054 107.05 3.37198C109.548 3.25498 112.222 3.05256 114.714 3.18336C115.943 3.24791 117.508 4.00444 118.527 4.69313C117.926 8.53594 116.656 11.6996 113.465 14.0716L113.408 13.9848C112.792 13.0614 106.739 13.0644 105.644 13.2107C98.1246 14.215 90.707 13.5128 83.2071 12.9593C82.2733 12.8904 75.9712 12.8072 75.3978 13.195C75.3885 13.548 75.4137 13.4711 75.636 13.818L75.4977 13.8828C75.0876 13.5267 74.6939 13.1523 74.3176 12.7607C72.3479 10.7158 70.6917 7.6604 70.749 4.75532Z" fill="#9D2A04"/>
<path d="M75.4975 13.8827L75.6357 13.8179C75.4134 13.471 75.3882 13.5479 75.3976 13.1949C75.971 12.8072 82.2731 12.8904 83.2069 12.9593C90.7068 13.5128 98.1244 14.2149 105.644 13.2106C106.739 13.0644 112.792 13.0613 113.408 13.9848L113.465 14.0715C113.445 14.1005 113.424 14.1295 113.403 14.1586C109.081 18.2388 99.6388 21.1726 94.0441 20.9437C88.8347 20.7307 78.8003 17.3866 75.4975 13.8827Z" fill="#A1541C"/>
<path d="M95.5252 16.0422C95.6046 16.0585 95.8827 16.1619 95.9755 16.1943C96.5175 16.9344 95.6755 17.8513 95.077 18.2831C94.6845 18.2164 94.9268 17.8511 94.4136 17.4849C94.108 17.4402 94.0066 17.5097 93.744 17.6602C93.2877 17.9829 93.0521 18.299 92.5263 18.0739C92.29 16.8677 94.6902 16.4186 95.5252 16.0422Z" fill="#703D1D"/>
<path d="M55.4956 58.474C60.1819 58.5782 61.7357 57.4874 65.811 56.1615L74.3323 53.4293C72.7695 54.5674 71.1808 54.9259 69.4477 55.7376C67.3225 56.7328 65.1949 57.85 63.0766 58.8552C61.5399 59.5845 60.0543 60.7326 58.6202 61.3906C57.5623 61.7692 55.3785 62.8336 54.3768 62.3266C51.4965 60.8685 54.402 57.0332 55.0413 55.405L55.0803 55.304L55.3736 55.2641C55.6856 55.7182 55.4156 57.6243 55.4956 58.474Z" fill="#010000"/>
<path d="M115.308 63.6237C115.096 63.6008 113.267 63.0356 112.977 62.9447C111.348 62.434 103.549 61.223 102.748 60.3481L102.781 60.2678C104.243 60.0149 105.951 60.4291 107.453 60.0823C107.893 60.0434 108.354 59.9224 108.787 59.8735C110.471 59.6828 111.93 58.8708 113.545 58.514C114.535 57.7532 113.649 49.9518 114.141 48.0944C114.478 52.5794 113.996 57.4428 114.655 61.9173C114.735 62.4623 115.057 63.1194 115.308 63.6237Z" fill="#E08D20"/>
<path d="M169.75 34.3313C171.002 36.0888 172.832 40.1104 173.562 42.1694C174.095 43.672 174.642 46.0809 175.126 47.6908C176.531 52.3118 177.791 56.9758 178.904 61.6755C179.504 64.2632 179.944 67.3654 180.872 69.821C181.83 72.3582 182.34 74.7466 183.057 77.3393C183.691 79.5104 184.506 81.5623 185.157 83.7166C185.68 85.4413 185.875 87.3401 186.137 89.1249C185.004 89.7452 183.81 90.397 182.569 90.769C182.76 90.4725 185.114 89.2907 185.664 88.9721C185.134 88.8563 183.273 89.7299 182.627 89.3827C183.321 88.5159 184.878 89.3562 185.685 88.2434C186.192 86.1693 182.807 78.0208 182.221 75.644C181.731 73.6572 181.738 72.0868 180.708 70.1802L180.555 70.147C180.054 71.3037 179.46 75.8975 179.681 77.2656C179.841 78.2458 180.088 83.789 182.041 82.2957C182.226 82.1548 182.71 81.6135 182.897 81.4061L183.087 81.4226C183.114 81.5976 183.1 81.764 182.999 81.9163C182.702 82.3622 182.122 82.8207 181.585 82.8861C181.282 82.9231 181.028 82.8085 180.806 82.6081C179.1 81.0661 179.741 73.7395 179.612 71.3941C179.569 70.6195 179.285 69.1155 179.51 68.3961C179.601 68.1041 179.944 67.8533 179.921 67.5029C179.897 67.1273 179.634 66.6821 179.575 66.2828C179.467 65.5693 179.435 64.8395 179.301 64.1314C179.169 63.4247 178.883 62.718 178.723 62.0056C177.607 57.2029 176.326 52.4399 174.885 47.7249C174.125 45.1737 173.735 42.9588 172.646 40.4765C172.194 39.4457 169.753 34.7647 169.75 34.3313Z" fill="#F8AF46"/>
<path d="M92.4475 72.6106C92.8648 72.1873 93.3401 72.1737 93.9245 72.125C94.6382 72.4579 96.6714 73.271 97.2243 73.6368L97.0875 74.17C96.1854 74.5032 94.2049 72.9644 92.4475 72.6106Z" fill="#E68717"/>
<path d="M62.7762 26.4147C63.2752 26.2764 65.2189 26.2958 65.8054 26.5535L65.7264 26.6521L65.2904 26.4516C63.8087 26.4752 63.0121 28.4704 61.3292 28.861C60.7979 29.2352 60.1565 28.7426 59.7262 28.814C55.6181 29.4956 51.2452 28.8347 47.0214 28.6177C46.0572 28.5988 44.9866 28.6014 44.0375 28.4942L43.9555 28.3789L44.2963 28.3511L44.3472 28.1992C43.5855 27.3012 44.3458 26.924 43.2173 26.8247C43.3294 26.7369 44.516 26.7226 44.7445 26.6968C50.7953 26.013 56.722 27.0796 62.7762 26.4147Z" fill="#E37714"/>
<path d="M158.958 40.4275C159.244 40.379 159.127 40.369 159.399 40.4906C159.659 40.9253 159.742 41.5438 159.738 42.0442C159.724 44.1797 160.11 44.7555 158.583 46.4091L158.677 46.4546C158.114 46.2662 157.686 46.1546 157.199 45.8048C156.638 45.1005 156.081 44.3927 155.528 43.6813L155.604 43.5889C155.813 43.6594 156.089 43.9872 156.283 44.1656L156.498 44.135C157.023 43.5165 156.976 43.12 157.01 42.3474C157.069 40.9928 158.233 41.0801 158.958 40.4275Z" fill="#E68717"/>
<path d="M109.403 29.6515C111.419 29.7345 115.27 30.8191 117.066 31.6883C118.473 32.3688 119.074 32.797 120.693 33.3142C119.518 33.7726 117.339 31.0451 116.077 32.0503L116.439 32.2677C116.511 32.5777 116.415 32.6665 116.298 33.011L116.391 33.1399L116.608 32.918C116.971 32.9905 116.784 33.2039 116.885 33.2356C117.908 33.5591 118.627 33.8203 119.532 34.3495C119.817 34.3322 120.265 34.6868 120.49 34.8674C120.193 34.8952 118.609 33.9735 118.096 33.8189C115.16 32.9344 112.313 31.7007 109.372 30.8813C109.212 30.8366 109.242 30.9308 109.045 30.7833C109.846 30.5625 112.376 32.1429 113.131 30.8596C111.971 29.9762 110.876 30.041 109.403 29.6515Z" fill="#E68717"/>
<path d="M153.71 45.976C154.076 45.9447 154.839 45.904 155.156 46.0363C156.694 46.6785 155.014 49.6172 153.983 49.9273C153.689 50.0158 153.286 50.1428 152.972 50.2564L152.726 50.2504C152.474 49.9375 152.943 49.5394 152.866 49.3981C152.225 48.2125 154.076 46.7093 154.025 46.2153C153.871 46.2596 153.396 46.6577 153.238 46.782C153.368 46.4934 153.54 46.2432 153.71 45.976Z" fill="#E68717"/>
<path d="M94.676 68.3002C94.935 68.3302 96.5895 68.9376 96.9539 69.0742C98.5073 69.6565 99.4225 69.9333 101.037 70.1788C99.6195 71.3318 99.7869 71.4366 98.0293 70.9903C96.8568 70.6927 95.8852 70.5007 94.7125 70.069C93.589 69.7477 92.479 69.477 91.3037 69.4193C90.7986 69.3946 90.0608 69.5481 89.6309 69.4558C91.8136 69.0866 91.7666 69.2892 94.0256 69.7525C94.076 69.7628 94.4275 69.7976 94.4285 69.7968C94.76 69.5248 95.9419 69.2741 96.1249 69.1344C95.9648 68.8481 95.0432 68.4853 94.676 68.3002Z" fill="#E68717"/>
<path d="M162.333 30.9054C162.596 32.1345 158.339 35.3016 157.383 36.0362C156.679 36.5767 151.433 40.5103 151.025 40.5863L151.257 40.2437C152.107 39.8179 154.757 37.6962 155.641 37.0528C155.741 36.741 155.392 36.6511 155.884 36.2678C156.313 35.9344 155.811 35.6845 155.873 35.2391C156.329 34.8618 156.484 34.0925 156.85 33.9366C157.946 33.4676 158.851 34.3631 160.227 33.5095C160.997 33.0313 162.143 31.6995 162.333 30.9054Z" fill="#E68717"/>
<path d="M176.79 72.9092C177.759 73.1603 177.435 74.6023 177.32 75.3284C177.282 75.3841 177.204 75.4346 177.145 75.4806C176.61 74.7148 176.55 73.7908 176.79 72.9092Z" fill="#E68717"/>
<path d="M177.778 78.8053C178.35 79.2737 178.03 79.8949 177.792 80.4657C177.387 79.8689 177.327 79.4021 177.778 78.8053Z" fill="#E68717"/>
<path d="M177.492 77.3953C177.83 77.784 177.857 78.3543 177.68 78.813C177.259 78.3963 177.205 77.8869 177.492 77.3953Z" fill="#E68717"/>
</g>
<defs>
<clipPath id="clip0_9_933">
<rect width="189.844" height="120" fill="white"/>
</clipPath>
</defs>
</svg>
