<svg width="180" height="115" viewBox="0 0 180 115" fill="none" xmlns="http://www.w3.org/2000/svg">
<g clip-path="url(#clip0_9_1058)">
<path d="M0 0H179.688V1.14364V93.1984V96.9247V115H142.137H69.4744H60.5835H45.1814H35.8801H0V97.616V93.4244V1.1664V0Z" fill="#891D23"/>
<path d="M0 0H179.688V1.14364V93.1984C179.151 92.4998 178.342 87.9624 178.03 86.8106C176.568 80.782 175.095 74.5626 173.991 68.4569C173.236 64.2762 173.086 59.7492 171.981 55.5152C171.416 53.3512 171.233 51.0137 170.614 48.7502C169.49 44.6291 168.265 40.9366 166.081 37.2247C159.986 24.0509 146.276 22.1409 134.282 17.4398C127.898 14.9374 120.416 10.7615 114.534 7.32129C113.755 6.77542 112.537 5.93466 111.66 5.58757C109.178 4.60522 105.54 4.48058 102.899 4.38232C98.7132 4.60967 93.3639 4.18401 89.147 3.99834C87.1653 3.91108 85.1769 4.02387 83.2045 3.9347C78.373 4.06288 73.1637 3.88707 68.445 5.00197C67.0266 5.3371 65.6387 6.14737 64.4084 6.91286C60.2744 9.22327 56.0892 11.4412 51.8562 13.5648C48.464 15.2998 45.4905 16.9127 41.9462 18.3965C36.0554 20.8626 29.9533 22.6999 24.1635 25.3836C16.9413 28.7779 10.444 38.5439 8.35923 46.076C7.50783 49.1522 6.60173 52.6592 6.07517 55.8493C5.65118 58.4181 5.44289 60.7917 5.13627 63.3523C4.83348 65.8809 4.27725 68.4995 3.98769 71.076C3.5144 73.7614 2.99748 76.4389 2.43715 79.1076C1.80794 82.073 1.0982 84.6142 0.832037 87.6467C0.754298 88.5326 0.32459 93.0095 0 93.4244V1.1664V0Z" fill="#D4C8B5"/>
<path d="M0 0H179.688V1.14364L51.2774 1.09044L17.8168 1.12337C11.9492 1.12683 5.84575 1.04668 0 1.1664V0Z" fill="#A7A7A6"/>
<path d="M83.2046 3.9347C84.8025 3.69708 87.5064 3.89011 89.2261 3.78688C92.629 3.58261 95.9644 3.39373 99.3803 3.51073L99.4217 3.54478C98.1859 3.59957 97.0666 3.60573 95.8327 3.60089C98.2235 4.7194 100.378 3.77537 102.899 4.38233C98.7133 4.60968 93.364 4.18402 89.1471 3.99835C87.1654 3.91109 85.177 4.02387 83.2046 3.9347Z" fill="#B5908F"/>
<path d="M83.2045 3.93469C85.177 4.02386 87.1653 3.91107 89.147 3.99834C93.364 4.18401 98.7133 4.60967 102.899 4.38232C105.54 4.48057 109.178 4.60522 111.66 5.58757C112.537 5.93466 113.755 6.77542 114.534 7.32128C114.497 9.59512 115.03 10.8226 113.913 13.309C112.41 16.7901 109.68 18.7766 106.114 20.0519C94.7726 24.1072 82.3908 23.7984 71.224 19.358C67.4324 17.8502 64.663 13.9008 64.4767 9.88017C64.4416 9.12247 64.6619 7.46205 64.4084 6.91286C65.6387 6.14736 67.0266 5.3371 68.445 5.00197C73.1637 3.88706 78.373 4.06288 83.2045 3.93469Z" fill="#410605"/>
<path d="M143.421 100.663C143.803 99.4078 143.067 96.5789 144.774 96.4252C145.513 96.7969 145.045 97.2361 145.684 98.4066C145.846 99.3919 146.509 104.035 147.171 104.312C148.74 104.969 154.371 104.272 155.961 103.885C157.64 103.645 159.692 103.116 161.371 102.728C163.091 102.23 164.995 101.964 166.693 101.422C171.078 100.022 175.505 98.8288 179.688 96.9247V115H142.137C142.13 113.691 142.322 112.179 142.409 110.848C142.632 107.445 143.062 104.058 143.421 100.663Z" fill="#D4C8B5"/>
<path d="M34.0372 93.8622C34.2931 94.9747 34.4365 96.2986 34.5723 97.4407C34.9453 100.578 35.3361 103.835 35.538 106.988C35.6779 109.17 36.3657 112.616 36.2662 114.696L35.8801 115H0V97.6161C0.962035 98.0836 2.12278 98.6759 3.1631 98.9204C6.52497 99.7106 9.88615 100.545 13.2343 101.392C15.2354 101.898 17.3657 102.099 19.3797 102.582C21.9863 103.136 24.3477 103.651 27.0075 103.99C29.0076 104.27 30.6202 104.706 32.458 103.767C33.2611 101.032 33.1194 96.7701 34.0372 93.8622Z" fill="#D4C8B5"/>
<path d="M3.98769 71.0759L4.2104 71.3918C4.08876 71.9112 3.93421 72.1217 4.14679 72.5026L4.37867 72.5955C4.60149 72.3717 4.6328 72.2614 4.76414 71.9803L4.93923 71.9809C6.16557 73.3665 6.38433 75.3541 7.44448 76.8119C8.44021 78.1811 9.52381 79.5458 10.5284 80.9134C10.8252 81.3174 11.571 81.3275 11.7933 81.8091C13.0007 83.6186 13.8928 85.6388 15.2038 87.3735C16.5866 89.0232 18.331 90.5411 19.7383 92.2518C20.8929 93.6551 21.7908 95.2831 22.9341 96.5828C23.4145 97.209 23.594 97.3459 24.2048 97.8277C22.615 97.1486 22.599 96.2034 21.6047 95.5144C21.5997 95.7677 21.8484 95.8213 21.9478 96.3977C22.1093 97.3332 22.1518 98.3892 22.256 99.2846C22.3979 100.504 21.8901 100.189 22.0007 100.854L22.2168 101.018C22.1266 101.782 21.662 101.84 20.9994 102.1L21.0373 102.266C20.773 102.324 20.5623 102.343 20.3447 102.498C21.1579 102.952 21.831 102.262 21.9859 102.458C22.8367 103.534 24.8812 103.222 26.1481 103.551C26.6217 103.673 26.7368 103.526 27.0075 103.99C24.3477 103.651 21.9863 103.135 19.3797 102.581C17.3657 102.099 15.2354 101.898 13.2343 101.392C9.88615 100.545 6.52497 99.7105 3.1631 98.9203C2.12278 98.6758 0.962035 98.0835 0 97.616V93.4243C0.32459 93.0095 0.754298 88.5326 0.832037 87.6467C1.0982 84.6141 1.80794 82.073 2.43715 79.1076C2.99748 76.4389 3.5144 73.7614 3.98769 71.0759Z" fill="#1E442B"/>
<path d="M22.934 96.5828C23.3232 96.6769 23.6118 97.0201 24.0592 97.2641C25.6631 97.2887 25.3648 95.07 25.8312 94.1521C26.5223 92.7922 26.2552 91.5156 26.6043 90.0506C26.7267 89.5374 26.9769 88.7543 27.0896 88.2039C28.1494 86.4588 28.1115 84.3238 28.7295 82.3178L28.5478 81.9898L28.6245 81.7493L29.0234 81.5601L29.1002 81.3408C28.47 79.5314 25.5703 77.3211 24.3931 75.705C22.6207 73.2721 20.0953 70.306 18.6013 67.7598C18.8847 68.1116 19.3434 68.6774 19.7538 68.8374C20.0813 68.6002 19.9753 67.5955 20.1722 67.3875C21.4212 66.0689 19.5543 65.5912 19.8211 64.5785C20.6622 65.3217 20.2489 66.6527 22.1568 66.4502C22.8688 66.3747 23.3729 67.0857 23.8265 67.5846C24.5155 67.7464 25.9192 66.4519 26.2694 65.8737C26.31 65.4169 25.9763 65.2393 25.8516 64.8472C25.3202 63.1759 24.7719 61.2982 24.0291 59.7112C24.3359 60.1511 24.6709 60.681 25.0631 61.0347L25.3387 60.9797C25.6001 60.7082 25.5461 60.8353 25.5861 60.5039C25.2811 60.1796 25.0298 59.5002 25.1079 59.0612C25.1981 59.166 25.4127 59.8042 25.4833 59.9826C26.4091 62.3216 27.6485 63.0835 29.5025 64.5229C29.8024 65.1199 29.0989 68.1497 29.7618 68.8493C30.0862 68.3636 30.1534 67.6357 30.3902 67.1364C31.0797 65.6822 31.4227 63.5136 32.0615 62.1178C32.4278 61.9891 33.0856 62.1097 33.4975 62.1553C31.4409 65.6532 32.5201 71.0706 32.8595 74.9233C32.894 75.3147 33.8274 76.1889 33.855 76.7819C34.0131 80.2217 34.5214 83.5795 34.9276 86.9904C35.2238 89.4785 35.5305 90.9016 37.3136 92.7412L37.1421 92.8922L37.2359 92.9548C40.7862 95.3521 39.3652 95.0974 36.2007 96.3973C35.4998 96.6851 35.4024 96.6919 34.8749 97.2096C34.6434 96.3331 34.564 95.0974 34.4042 94.174C34.4034 94.1697 34.0795 93.8914 34.0372 93.8621C33.1194 96.77 33.261 101.032 32.4579 103.767C30.6202 104.706 29.0076 104.27 27.0074 103.99C26.7368 103.526 26.6217 103.673 26.1481 103.551C24.8812 103.223 22.8367 103.534 21.9858 102.458C21.831 102.262 21.1578 102.952 20.3446 102.498C20.5623 102.343 20.773 102.324 21.0372 102.266L20.9994 102.1C21.662 101.84 22.1266 101.782 22.2167 101.018L22.0007 100.854C21.89 100.189 22.3979 100.504 22.2559 99.2847C22.1517 98.3892 22.1093 97.3332 21.9478 96.3977C21.8484 95.8213 21.5996 95.7677 21.6047 95.5145C22.5989 96.2035 22.615 97.1486 24.2048 97.8277C23.5939 97.3459 23.4145 97.209 22.934 96.5828Z" fill="#410605"/>
<path d="M147.095 61.7758C147.85 64.3206 148.457 65.4604 149.302 67.7509L149.398 67.7919C149.425 64.6705 151.114 61.0381 151.954 58.027C152.502 56.0609 153.225 52.0857 153.247 50.0848C153.552 51.401 152.648 57.6405 151.964 58.7604C152.44 58.7171 153.566 58.5354 153.901 58.8579C154.035 58.9855 154.477 60.0602 154.621 60.1907L154.753 60.1348C155.112 58.86 155.538 58.1015 154.776 56.8366C154.503 56.3821 153.906 55.2859 153.983 54.7909C154.492 55.0583 154.553 56.192 155.195 56.7678L155.264 56.8276L155.277 56.9194C155.342 57.325 155.668 58.0705 155.617 58.3696C155.286 60.3524 154.292 62.1521 153.544 63.988C153.408 64.3218 153.196 64.2986 153.334 64.6445L153.799 64.6303C153.904 64.7597 154.017 64.9138 154.139 65.0226C155.22 63.5042 156.967 58.9987 157.859 57.1096C158.185 56.4206 158.52 55.1147 158.883 54.4034L158.951 54.5487C158.084 56.8767 156.935 61.0633 155.451 62.9816C155.771 63.3257 155.988 63.3067 156.073 63.6269C155.978 63.9207 155.97 63.7993 156.09 64.066L156.195 64.0932C156.592 63.2042 159.028 57.1105 159.32 56.8534C159.574 57.3613 154.498 69.4477 153.185 70.3214C152.897 70.5133 151.681 72.4496 151.884 72.7163C152.012 72.8852 152.181 73.1283 152.323 73.2723L152.483 73.3102C152.766 72.9848 152.878 72.7458 153.238 72.6223C153.415 73.0379 152.841 74.1898 153.341 74.4276C154.039 73.974 154.434 72.5331 155.087 71.8474C155.567 71.3438 156.35 70.3271 156.861 69.876C157.485 69.3244 158.276 69.4275 158.867 68.5372C160.242 66.4708 161.391 64.1979 162.642 62.0485C162.952 61.5149 163.555 59.9928 163.83 59.6945C163.573 60.9425 161.503 64.5044 160.718 65.8249C159.341 68.1398 158.3 70.3177 157.055 72.6816C156.064 74.561 155.423 75.1576 154.579 77.3356C154.404 77.2013 154.458 77.2376 154.389 76.9707C154.728 75.4627 158.654 70.2712 158.419 69.2367C157.993 69.3789 157.907 69.6045 157.564 69.8277C155.114 71.4766 153.759 74.6212 152.383 77.1572C151.181 79.5355 150.292 82.1255 149.683 84.7172C149.601 85.4483 150.282 86.7437 150.322 87.3923C150.573 91.4573 151.418 95.4121 151.626 99.4632C151.662 100.178 152.326 102.782 152.62 103.385C152.498 103.652 152.482 103.699 152.298 103.923L152.283 104.205L152.28 104.202C152.909 104.279 155.122 103.832 155.882 103.712C155.917 103.775 155.954 103.822 155.961 103.885C154.371 104.272 148.74 104.969 147.171 104.312C146.509 104.035 145.846 99.3919 145.684 98.4065C145.62 97.917 145.313 94.381 145.242 94.2742L144.671 94.361C144.327 94.3568 143.794 94.3902 143.51 94.2436C143.374 93.5598 143.548 91.3935 143.599 90.5807C143.719 88.2897 143.774 86.0099 144.101 83.7356C144.351 81.9933 145.003 80.1161 145.175 78.3926C145.558 74.5503 146.199 70.9667 147.059 67.2151C147.387 65.7789 146.959 63.3717 147.095 61.7758Z" fill="#3B0101"/>
<path d="M37.3136 92.7412C39.7366 94.0921 42.4173 97.6253 44.328 99.6295C45.2872 100.636 46.3047 101.396 47.3235 102.324C47.6045 102.579 48.0533 103.149 48.3889 103.49L48.5347 104.207C48.5382 105.036 48.4994 106.021 48.3308 106.815C48.0915 107.941 46.3944 114.254 45.8676 114.789L45.1813 115H35.88L36.2661 114.696C36.3656 112.616 35.6778 109.17 35.5379 106.988C35.336 103.835 34.9452 100.578 34.5722 97.4406C34.4365 96.2986 34.2931 94.9746 34.0371 93.8621C34.0794 93.8914 34.4033 94.1697 34.4041 94.174C34.5639 95.0974 34.6433 96.3331 34.8749 97.2096C35.4024 96.6919 35.4998 96.6851 36.2007 96.3973C39.3652 95.0974 40.7862 95.3521 37.2359 92.9548L37.1421 92.8921L37.3136 92.7412Z" fill="#22482D"/>
<path d="M48.5348 104.207C48.9663 104.995 49.7028 104.652 50.5231 104.729C51.5456 105.717 52.6001 106.929 53.5361 108.012C53.8657 108.393 53.9865 109.386 54.4281 109.759L54.4482 109.423C54.7289 109.213 54.5958 109.256 54.9497 109.265C55.3089 109.492 55.391 109.569 55.6939 109.865C55.7704 109.705 55.7661 109.787 55.7432 109.623C55.936 109.64 60.0449 113.577 60.1015 114.391L59.9263 114.551L59.9721 114.709C60.1713 114.789 60.4181 114.871 60.5835 115H45.1814L45.8677 114.789C46.3945 114.254 48.0915 107.941 48.3309 106.815C48.4994 106.021 48.5383 105.036 48.5348 104.207Z" fill="#143216"/>
<path d="M48.3889 103.49C49.2308 103.459 49.7039 103.491 50.2934 104.026C51.1516 104.804 53.0126 107.149 53.9505 107.589L54.1238 107.546L54.1644 107.315L54.1784 107.361C54.527 108.457 54.9615 108.311 55.7267 109.065C56.6794 110.004 57.4851 111.098 58.537 111.94C59.5531 112.773 61.8782 113.89 62.6614 114.803C64.0542 114.929 68.6887 114.719 69.4743 115H60.5835C60.4181 114.871 60.1712 114.789 59.9721 114.709L59.9263 114.551L60.1015 114.391C60.0449 113.577 55.936 109.64 55.7432 109.623C55.7661 109.787 55.7704 109.705 55.6939 109.865C55.391 109.569 55.3089 109.492 54.9496 109.265C54.5958 109.256 54.7289 109.213 54.4482 109.423L54.4281 109.759C53.9865 109.386 53.8657 108.393 53.5361 108.012C52.6001 106.929 51.5456 105.717 50.523 104.729C49.7028 104.652 48.9663 104.995 48.5348 104.207L48.3889 103.49Z" fill="#410605"/>
<path d="M144.671 94.361L145.242 94.2742C145.313 94.381 145.62 97.917 145.684 98.4065C145.045 97.2361 145.513 96.7969 144.774 96.4251C143.067 96.5789 143.803 99.4077 143.421 100.663C143.382 99.7199 143.444 95.4914 143.606 94.6325C143.904 94.4065 144.259 94.4215 144.671 94.361Z" fill="#B5908F"/>
<path d="M119.27 53.9272C118.557 52.6925 115.664 51.3518 115.521 50.1177C115.972 49.7406 122.287 49.9785 123.239 50.093C123.26 50.3579 123.336 51.0628 123.289 51.2816C123.291 51.567 123.303 51.9261 123.291 52.2067C123.15 52.5563 123.125 52.6116 123.139 53.0032C123.254 53.2392 123.255 53.2578 123.451 53.4265L123.299 53.6631C124.063 54.7716 124.882 55.543 125.992 56.2888C127.22 57.0463 126.912 57.2683 128.395 57.1166C129.336 56.7501 130.123 56.7992 131.126 56.6143C131.127 57.9489 131.239 66.3614 130.944 66.9575C130.629 66.946 128.537 64.4766 128.04 64.0311C127.678 65.5118 125.124 70.7828 123.964 71.44C123.762 72.0882 123.819 72.5511 123.844 73.2248C122.381 73.098 123.322 73.5541 121.919 72.7288L121.873 72.7022C121.41 72.2286 121.204 72.1435 120.626 71.8493C120.191 71.9006 120.026 72.1033 119.594 72.0018L119.402 71.6792C119.228 71.0514 118.314 69.5875 117.941 68.378C118.157 67.651 118.68 66.2038 118.532 65.5033L118.634 65.3474C118.31 63.3639 117.49 60.4545 117.614 58.692C116.744 58.8371 115.01 61.5985 113.749 58.1012C113.628 57.7674 113.79 57.4964 113.977 57.2205C114.468 57.1066 114.454 57.4512 114.559 57.39C114.884 57.1988 114.702 57.153 115.24 57.1008C115.163 56.8753 115.177 56.7918 115.177 56.5494C115.392 56.16 115.515 56.074 115.853 55.7806C116.678 55.5118 118.569 54.4588 119.27 53.9272Z" fill="#894948"/>
<path d="M117.614 58.692C118.505 58.5423 123.505 58.3718 124.542 58.7792C124.626 58.8115 124.742 59.2457 124.763 59.4004C124.806 60.6045 124.832 60.9248 124.438 62.0905C124.784 62.3434 124.788 62.4784 124.722 62.9287C124.621 63.6078 124.699 64.9519 124.285 65.4795C124.803 65.7322 124.81 65.6255 124.968 66.036C124.867 66.2628 124.42 67.2116 124.409 67.3881C124.265 67.9497 123.778 68.6761 123.467 69.1937C123.445 70.3117 123.408 70.475 123.964 71.44C123.762 72.0882 123.819 72.5511 123.844 73.2248C122.381 73.098 123.322 73.5541 121.919 72.7288L121.873 72.7021C121.41 72.2286 121.204 72.1435 120.626 71.8493C120.191 71.9006 120.026 72.1033 119.594 72.0018L119.402 71.6792C119.228 71.0514 118.314 69.5875 117.941 68.378C118.157 67.651 118.68 66.2037 118.532 65.5033L118.634 65.3474C118.31 63.3639 117.49 60.4545 117.614 58.692Z" fill="#D4C8B5"/>
<path d="M118.634 65.3474C119.363 68.1341 119.571 67.267 122.12 67.7469C123.14 67.9388 122.792 68.9065 124.409 67.3881C124.265 67.9497 123.778 68.6761 123.467 69.1937C123.445 70.3117 123.408 70.475 123.964 71.4399C123.762 72.0882 123.819 72.5511 123.844 73.2248C122.381 73.098 123.322 73.5541 121.919 72.7288L121.873 72.7021C121.41 72.2285 121.204 72.1435 120.626 71.8493C120.191 71.9006 120.026 72.1033 119.594 72.0018L119.402 71.6792C119.228 71.0514 118.314 69.5875 117.941 68.378C118.157 67.651 118.68 66.2037 118.532 65.5033L118.634 65.3474Z" fill="#9E635F"/>
<path d="M119.402 71.6791C120.45 71.1626 119.835 70.4313 120.401 69.8457L120.676 69.7632C121.644 70.2865 120.702 71.1945 120.626 71.8492C120.191 71.9006 120.026 72.1033 119.594 72.0018L119.402 71.6791Z" fill="#894948"/>
<path d="M120.529 60.9073C120.633 61.8656 121.691 62.2136 122.28 61.6712C122.585 62.045 123.954 62.1191 124.438 62.0904C124.784 62.3433 124.789 62.4783 124.722 62.9287C124.621 63.6078 124.699 64.9518 124.285 65.4794C122.566 65.2987 122.221 66.7575 121.047 66.4095C120.445 65.8884 120.327 65.2047 120.12 64.4495C120.041 64.0628 120.062 63.2839 120.059 62.8616C120 62.1608 120.086 61.4712 120.529 60.9073Z" fill="#A7A7A6"/>
<path d="M120.059 62.8617C120.423 63.119 120.5 63.164 120.762 63.524C120.816 63.9279 120.844 63.764 120.635 64.1412L120.12 64.4496C120.041 64.0629 120.062 63.284 120.059 62.8617Z" fill="#918B89"/>
<path d="M121.906 60.042C122.015 60.6205 122.097 61.1066 122.28 61.6712C121.691 62.2136 120.633 61.8656 120.529 60.9073C120.993 60.6261 121.451 60.3377 121.906 60.042Z" fill="#918B89"/>
<path d="M119.27 53.9272C118.557 52.6925 115.664 51.3518 115.521 50.1177C115.972 49.7406 122.287 49.9785 123.239 50.093C123.26 50.3579 123.336 51.0628 123.289 51.2816C123.291 51.567 123.303 51.9261 123.291 52.2067C123.15 52.5563 123.125 52.6116 123.139 53.0032C123.254 53.2392 123.255 53.2578 123.451 53.4265L123.299 53.6631C122.739 54.2116 122.146 54.955 122.187 55.7687C122.594 55.9343 122.841 55.9316 122.892 56.4402C122.247 56.6142 121.378 56.6965 120.707 56.6909C120.47 56.5162 120.33 56.5922 120.093 56.6719C120.094 57.0267 120.133 57.2315 119.9 57.5044C119.123 57.9501 118.301 57.3233 117.562 57.06C116.853 56.8079 115.975 57.0078 115.24 57.1008C115.163 56.8753 115.177 56.7918 115.177 56.5494C115.392 56.16 115.515 56.074 115.853 55.7806C116.678 55.5118 118.569 54.4588 119.27 53.9272Z" fill="#9E635F"/>
<path d="M119.27 53.9272C118.557 52.6925 115.664 51.3518 115.521 50.1177C115.972 49.7406 122.287 49.9785 123.239 50.093C123.26 50.3579 123.336 51.0628 123.289 51.2816C123.036 50.8565 123.297 50.6369 122.975 50.3486C122.247 50.6821 122.121 52.1604 121.077 52.2231C120.648 52.2079 120.267 52.1396 119.926 52.3823C119.867 52.4689 119.696 52.7068 119.657 52.7857C119.535 53.1712 119.246 53.6597 119.27 53.9272Z" fill="#994948"/>
<path d="M120.093 56.6719C119.292 56.6065 118.184 56.65 117.701 55.9299L117.775 55.7428C118.69 55.3126 121.185 55.5576 122.187 55.7688C122.594 55.9343 122.841 55.9316 122.892 56.4402C122.247 56.6142 121.378 56.6965 120.707 56.6909C120.47 56.5163 120.33 56.5922 120.093 56.6719Z" fill="#894948"/>
<path d="M119.657 52.7857C119.697 52.7067 119.867 52.4689 119.926 52.3823C120.267 52.1396 120.648 52.2079 121.077 52.223C121.176 52.9653 120.333 53.566 119.657 52.7857Z" fill="#D57955"/>
<path d="M122.187 55.7687C122.146 54.9549 122.739 54.2116 123.299 53.6631C124.063 54.7715 124.882 55.543 125.992 56.2888C126.211 56.7494 126.704 56.9833 126.64 57.2772C126.372 57.3714 126.286 57.3835 126.003 57.4195C125.948 57.3796 125.891 57.3425 125.833 57.3086C125.479 57.1037 123.983 56.5429 123.535 56.6541L123.525 56.8287L122.892 56.4402C122.841 55.9315 122.594 55.9342 122.187 55.7687Z" fill="#9B5753"/>
<path d="M125.992 56.2888C127.22 57.0463 126.912 57.2683 128.395 57.1166C129.126 57.876 127.667 59.5586 127.007 59.8128C126.692 59.787 126.812 59.8343 126.558 59.6154C126.537 58.8748 126.704 58.6598 126.699 57.9598C126.473 57.5453 126.512 57.6601 126.004 57.4194C126.287 57.3835 126.372 57.3714 126.64 57.2772C126.704 56.9832 126.211 56.7494 125.992 56.2888Z" fill="#994948"/>
<path d="M124.763 59.4004C124.959 60.4132 125.303 61.2617 125.443 62.0178C125.515 62.9538 125.618 65.3062 124.968 66.0359C124.81 65.6254 124.803 65.7321 124.285 65.4794C124.699 64.9518 124.621 63.6078 124.722 62.9287C124.789 62.4783 124.784 62.3433 124.438 62.0904C124.832 60.9247 124.806 60.6044 124.763 59.4004Z" fill="#B5908F"/>
<path d="M122.892 56.4402L123.525 56.8288L123.433 57.1139C123.169 57.4561 121.509 58.0881 121.049 58.1827C120.903 57.9336 120.769 57.026 120.707 56.6909C121.378 56.6965 122.247 56.6141 122.892 56.4402Z" fill="#9E635F"/>
<path d="M68.0402 57.7491C68.5077 57.7237 69.0171 57.6586 69.3875 57.9032L69.3022 58.0787C67.5502 58.6747 65.1208 59.966 63.3806 60.7251C61.5093 61.5412 59.7899 62.4193 57.9197 63.3066C55.0224 64.6458 52.2623 66.8164 49.1028 67.4478C47.7052 67.7272 46.4095 66.7235 46.239 65.3123C46.2894 63.5089 47.8115 60.6306 49.3388 59.7244L49.4827 59.7987C49.675 60.7728 48.817 62.3546 49.6243 63.0786C51.3352 63.9366 65.3363 58.5293 68.0402 57.7491Z" fill="#D57955"/>
<path d="M111.193 55.4306C112.557 55.579 114.715 55.5905 115.853 55.7807C115.515 56.074 115.392 56.16 115.177 56.5494C115.177 56.7918 115.163 56.8753 115.24 57.1008C114.702 57.153 114.884 57.1988 114.559 57.39C114.454 57.4512 114.468 57.1066 113.977 57.2205C113.79 57.4964 113.628 57.7674 113.749 58.1012C115.01 61.5985 116.744 58.8371 117.614 58.692C117.49 60.4546 118.31 63.3639 118.634 65.3474L118.532 65.5033C118.26 65.2561 118.004 64.7812 117.462 64.7623C116.762 64.7381 116.792 65.6625 116.279 66.1538C115.865 66.2933 116.042 66.286 115.611 66.1734C115.057 65.6662 115.502 65.0449 114.71 64.6463C113.726 64.6554 112.205 65.828 111.457 66.4425C111.391 64.7659 111.165 63.086 111.132 61.3778C111.093 59.3736 111.142 57.4329 111.193 55.4306Z" fill="#8F4A4A"/>
<path d="M123.239 50.093C124.147 50.0672 125.292 50.1264 125.972 50.7969C126.387 51.0274 126.399 50.9478 126.572 51.3027C126.291 51.946 125.079 52.2643 124.5 52.6618C124.139 52.9092 123.797 53.1616 123.451 53.4265C123.256 53.2578 123.254 53.2392 123.139 53.0032C123.125 52.6116 123.15 52.5563 123.291 52.2066C123.303 51.9261 123.291 51.567 123.289 51.2816C123.336 51.0628 123.26 50.3579 123.239 50.093Z" fill="#894948"/>
<path d="M125.972 50.7969C126.387 51.0274 126.399 50.9478 126.572 51.3027C126.291 51.946 125.079 52.2643 124.5 52.6618C124.139 52.9092 123.797 53.1616 123.451 53.4265C123.256 53.2578 123.254 53.2392 123.139 53.0032C123.125 52.6116 123.15 52.5562 123.291 52.2066C124.362 52.368 124.368 51.2519 125.972 50.7969Z" fill="#9B5753"/>
<path d="M121.873 72.7021L121.919 72.7288C123.322 73.5541 122.381 73.098 123.844 73.2248C123.383 73.5675 123.329 73.3619 123.156 73.4603C122.427 73.8741 121.025 75.6618 120.063 74.7523C119.733 74.4571 119.371 74.216 119.308 73.8143C119.51 73.5205 120.515 73.2035 120.951 73.0182C121.372 73.0196 121.508 72.9116 121.873 72.7021Z" fill="#994948"/>
<path d="M121.873 72.7021L121.919 72.7288C123.322 73.5541 122.381 73.098 123.844 73.2248C123.382 73.5675 123.329 73.3619 123.156 73.4603C122.427 73.8741 121.025 75.6618 120.063 74.7523C120.712 74.766 121.673 74.7362 121.746 73.9406C121.645 73.5634 121.254 73.2851 120.951 73.0182C121.372 73.0196 121.508 72.9116 121.873 72.7021Z" fill="#894948"/>
</g>
<defs>
<clipPath id="clip0_9_1058">
<rect width="179.688" height="115" fill="white"/>
</clipPath>
</defs>
</svg>
