<svg width="180" height="118" viewBox="0 0 180 118" fill="none" xmlns="http://www.w3.org/2000/svg">
<g clip-path="url(#clip0_9_810)">
<path d="M0 0H179.766V90.839V91.6246V118H140.138H38.1027H0V91.8946V87.0372V0Z" fill="#8C1215"/>
<path d="M0 0H179.766V90.839C179.219 90.1491 178.824 88.0485 178.548 87.1329C175.631 77.4913 173.953 67.5846 171.705 57.7847C170.903 54.2862 170.838 50.6669 169.661 47.1643C168.19 42.1815 167.534 38.4034 164.747 33.7997C156.722 19.6419 145.904 18.6377 132.049 13.2291C126.489 11.0586 121.13 8.15495 115.8 5.45351C115.195 4.90946 114.351 4.61435 113.65 3.92026C112.632 2.84345 111.183 1.39346 109.666 1.22863C106.505 0.885279 102.752 1.79194 99.5051 1.81948C92.4151 1.8796 84.9636 2.04239 77.9071 1.75614C73.3742 1.50693 69.7156 -0.0382073 65.9255 2.99567C65.6043 3.2664 63.6248 4.89974 63.4702 5.09352C59.7466 7.19638 55.8737 9.44222 51.9617 11.2006C44.6062 14.5069 36.8095 16.6562 29.4204 19.9065C22.3139 23.0326 16.5361 28.1266 13.2492 35.2531C11.6769 38.7857 9.67868 44.1819 8.87038 47.9622C7.24612 54.7946 6.67489 62.5546 4.84132 69.2061C4.1343 71.7709 1.05322 85.667 0 87.0372V0Z" fill="#D3C7B5"/>
<path d="M77.907 1.7562C84.9635 2.04245 92.415 1.87966 99.505 1.81954C102.752 1.792 106.505 0.885341 109.665 1.22869C111.183 1.39352 112.632 2.84352 113.65 3.92032C113.66 6.01257 113.931 9.09912 113.073 10.9915C111.445 14.5803 109.476 17.9726 106.717 20.8082C106.236 21.303 104.118 24.0868 103.686 24.3248C102.834 25.5274 96.0064 33.3255 94.9747 33.7924C94.6066 33.7119 93.6248 33.8808 93.1732 33.9079C91.0684 34.034 88.9627 34.1043 86.856 34.0476C85.7237 34.0173 84.7256 33.6585 83.8764 33.59L83.7944 33.5839C83.8008 34.0507 83.7131 34.1078 83.3424 34.3088C82.6054 34.3505 81.9528 33.7972 81.3727 33.3729C79.6286 31.9936 77.6037 29.4995 76.0295 27.8558C74.4112 26.1663 72.8799 23.9914 71.0829 22.4561C70.7641 21.9104 69.6607 20.5491 69.2534 20.039C67.0464 17.2747 64.6848 14.7818 63.8077 11.2333C63.3761 9.48656 62.9667 7.04708 63.9135 5.43086C63.7931 5.29279 63.6261 5.1985 63.4701 5.09358C63.6247 4.8998 65.6042 3.26646 65.9254 2.99573C69.7156 -0.0381454 73.3741 1.50699 77.907 1.7562Z" fill="#4B0708"/>
<path d="M63.4701 5.09346C63.6247 4.89968 65.6042 3.26634 65.9254 2.99561C66.1298 3.42799 66.3354 4.94008 66.5472 5.66826C66.7781 6.26771 68.3696 10.3482 68.4159 10.687C68.644 11.9646 71.0076 15.5739 71.9573 16.5372C74.1469 18.7584 75.9437 21.7626 78.2556 23.7293C81.3752 22.6536 90.2092 23.424 93.8807 23.2728C95.1761 23.2194 99.8378 23.0707 100.972 23.183C101.264 22.897 101.649 22.453 102.016 22.3484L101.912 22.3882L101.914 22.5835C101.509 22.9711 100.95 23.3741 100.662 23.8336C99.4935 25.692 98.1155 27.0997 96.6312 28.6717C95.8024 29.5495 93.2339 31.9268 92.7708 32.9041C92.7782 33.1832 92.7915 33.3512 92.7468 33.6312C93.055 33.8201 94.4522 33.6483 94.6495 33.569C97.1411 32.5675 101.789 25.3877 103.686 24.3246C102.834 25.5272 96.0064 33.3254 94.9747 33.7923C94.6066 33.7118 93.6248 33.8807 93.1732 33.9078C91.0684 34.0338 88.9627 34.1041 86.856 34.0474C85.7237 34.0171 84.7256 33.6584 83.8764 33.5898L83.7944 33.5837C83.8008 34.0505 83.7131 34.1077 83.3424 34.3087C82.6054 34.3504 81.9528 33.797 81.3727 33.3727C79.6286 31.9935 77.6037 29.4994 76.0295 27.8557C74.4112 26.1662 72.8799 23.9913 71.0829 22.456C70.7641 21.9103 69.6607 20.549 69.2534 20.0388C67.0464 17.2746 64.6848 14.7816 63.8077 11.2331C63.3761 9.48644 62.9667 7.04696 63.9135 5.43074C63.7931 5.29266 63.6261 5.19838 63.4701 5.09346Z" fill="#2D2035"/>
<path d="M63.9135 5.43075C64.2343 5.17796 64.2089 5.10337 64.5391 5.12762C64.5952 6.09954 64.6231 8.09655 64.8753 8.91772C65.4034 11.5803 66.962 14.0709 68.4163 16.329C69.9491 18.7093 71.9835 20.6715 73.7634 22.8061C76.1059 25.6154 78.3822 28.2517 80.9957 30.822C81.8625 31.6744 82.8618 32.8505 83.7944 33.5837C83.8008 34.0506 83.7131 34.1077 83.3424 34.3087C82.6054 34.3504 81.9528 33.797 81.3727 33.3727C79.6286 31.9935 77.6037 29.4994 76.0295 27.8557C74.4112 26.1662 72.8799 23.9913 71.0829 22.456C70.7641 21.9103 69.6607 20.549 69.2534 20.0389C67.0464 17.2746 64.6848 14.7816 63.8077 11.2331C63.3761 9.48645 62.9667 7.04697 63.9135 5.43075Z" fill="#D56B53"/>
<path d="M63.4702 5.09346C63.6249 4.89968 65.6044 3.26634 65.9255 2.99561C66.1299 3.42799 66.3355 4.94008 66.5473 5.66826L66.4092 5.82406C66.0356 5.3091 66.3029 4.11805 65.6737 3.68873C64.4769 4.30424 65.2404 7.77852 64.8754 8.91771C64.6233 8.09654 64.5954 6.09952 64.5392 5.1276C64.209 5.10336 64.2345 5.17795 63.9136 5.43074C63.7932 5.29266 63.6262 5.19838 63.4702 5.09346Z" fill="#754245"/>
<path d="M65.9255 2.99573C69.7157 -0.0381454 73.3743 1.50699 77.9071 1.7562C76.7936 2.3402 74.7795 2.17891 73.5827 1.87206L73.9994 1.85897C71.714 1.35352 69.1656 0.998675 67.1164 2.38794C67.3449 2.233 66.3771 3.71045 66.3188 3.78957C66.7566 6.28345 68.4285 10.4543 69.74 12.7161C69.8886 12.9722 70.7109 13.9355 70.5468 14.2393C69.7837 13.4723 68.9535 11.3151 68.4161 10.6872C68.3698 10.3484 66.7783 6.26783 66.5473 5.66838C66.3355 4.94021 66.13 3.42811 65.9255 2.99573Z" fill="#1F0606"/>
<path d="M68.6524 5.46405C70.1935 4.6672 75.4793 6.44637 76.6157 7.70527L76.5713 7.86177C76.3226 7.58647 75.0408 6.67464 74.6951 6.53086C74.2259 6.33569 73.453 6.44879 72.8001 6.15444C72.47 5.98551 71.7488 5.81065 71.3771 5.84193C70.9559 6.25316 71.2532 6.41181 70.8766 6.9779C70.6769 6.89582 70.5671 6.83276 70.3789 6.72581C70.074 7.08703 70.5981 8.12364 69.7229 8.48709C66.8829 7.96991 68.9847 6.65408 68.8774 5.81271C68.391 5.6362 68.0444 6.10243 67.5889 5.95558L67.6775 5.65628C67.9971 5.38568 68.1219 5.48051 68.6524 5.46405Z" fill="#1F0606"/>
<path d="M88.2812 13.7133C88.7497 13.3896 88.9951 13.1803 89.4205 12.7979C89.9351 13.3951 91.4808 14.8806 90.7986 15.5915C90.4101 15.7263 90.0386 15.6655 89.6265 15.6357C88.724 15.6874 88.0467 15.8968 87.2412 15.4879C86.7856 14.7755 87.7674 14.149 88.2812 13.7133Z" fill="#754245"/>
<path d="M88.2812 13.7133C88.406 14.6205 88.6355 15.4081 89.6265 15.6357C88.724 15.6873 88.0467 15.8968 87.2412 15.4879C86.7856 14.7755 87.7674 14.149 88.2812 13.7133Z" fill="#6E0F0B"/>
<path d="M109.22 5.43434C109.412 5.36286 111.127 5.49755 111.461 5.51358C111.375 6.78338 110.987 10.7375 110.179 11.5922L110.106 11.3803C110.615 10.7325 111.291 7.83278 110.83 7.11911C110.699 7.42373 110.66 7.48169 110.457 7.74495C109.783 8.08932 109.15 7.65327 108.79 7.09425L108.659 6.89934L108.738 6.70537C110.07 6.09377 109.766 6.41084 110.95 6.53348C111.12 6.2751 111.154 6.23438 111.19 5.92957L111.1 5.94445C109.405 6.19855 107.687 5.64721 105.995 6.28577C105.641 6.41964 105.009 6.74559 104.668 6.74362C105.483 6.06126 108.109 5.61486 109.22 5.43434Z" fill="#1F0606"/>
<path d="M143.745 88.3833C144.625 89.6572 146.213 97.7511 146.777 99.8896C150.792 99.9687 153.205 99.643 157.128 98.7535C157.461 98.6782 158.894 98.43 159.098 98.3189C161.374 97.977 163.257 97.229 165.402 96.6445C168.135 95.8996 170.595 95.1425 173.273 94.2059C175.599 93.3928 177.628 92.9597 179.766 91.6246V118H140.138C140.33 116.629 140.792 113.053 140.805 111.78C141.375 109.426 141.306 104.854 141.632 102.336C141.828 100.831 142.123 99.3627 142.373 97.8688C142.717 95.7092 143.047 93.5476 143.364 91.3841C143.426 90.7258 143.521 88.8429 143.745 88.3833Z" fill="#D7CAB9"/>
<path d="M31.1642 99.871C32.9179 96.7861 33.1312 92.8905 33.9197 89.4807C34.1072 88.6698 34.6036 88.6808 35.1885 89.1161C35.4264 89.5469 35.3751 90.3264 35.3832 90.8476C35.4773 94.9211 36.654 99.138 37.2293 103.173C37.7319 106.698 37.7597 110.31 38.0495 113.857C38.1503 115.09 38.5263 116.414 38.6453 117.719L38.1027 118H0V91.8946C2.15969 92.9386 4.11814 93.3033 6.37117 94.0517C10.6108 95.4601 15.7616 97.4273 20.0919 98.3196C20.3129 98.4164 21.3321 98.5826 21.6265 98.646C24.8344 99.3373 27.8563 100.009 31.1642 99.871Z" fill="#D3C7B5"/>
<path d="M8.87036 47.9621C9.67866 44.1819 11.6769 38.7857 13.2492 35.2531C16.5361 28.1266 22.3138 23.0326 29.4204 19.9065C36.8095 16.6562 44.6062 14.5068 51.9617 11.2006C55.8737 9.44221 59.7466 7.19636 63.4701 5.09351C63.6262 5.19843 63.7932 5.29271 63.9136 5.43079C62.9668 7.047 63.3761 9.48648 63.8078 11.2332C64.6848 14.7817 67.0464 17.2747 69.2534 20.0389C69.6608 20.549 70.7641 21.9103 71.083 22.4561C71.0701 23.3383 72.3516 23.5742 72.5097 24.3677L72.4708 24.5413C71.7035 24.6491 71.1003 23.3856 70.5619 24.0122C70.714 24.616 71.043 24.6017 70.4982 25.1714L70.1915 25.0802C69.8389 23.9798 69.3015 24.2607 69.1481 23.6264L69.4908 23.1568C69.0972 22.7383 68.7617 22.8734 68.2237 22.8852C67.1103 21.4925 66.0294 20.2901 65.0894 18.7674C63.9129 16.8614 63.2202 14.8115 62.0465 12.9224C61.8781 12.6511 61.347 12.3918 61.0567 12.237C58.9921 12.8951 57.4296 13.7859 55.5023 14.7109C46.097 19.2252 35.494 20.8225 26.2645 25.7041C24.064 26.8679 22.5508 28.9095 20.684 30.5175C20.0644 31.0536 19.6865 31.6418 18.9173 32.0396C18.4737 33.2866 17.4856 34.3461 16.754 35.4608C15.6702 37.112 15.0725 38.7011 14.5604 40.5865C14.1166 42.22 14.1939 42.4208 14.7141 44.001C14.3836 43.3613 13.6959 41.7591 13.9761 41.0797C14.1014 40.7756 14.2654 40.3396 14.219 40.0332C14.4922 39.7791 15.1368 37.8102 15.4546 37.1855L15.3976 37.03C14.1269 38.3839 12.0044 43.4256 11.6811 45.3839C11.6113 45.806 11.6057 47.0606 11.3509 47.44C11.2184 47.2831 11.2628 45.9142 11.295 45.6535C11.6596 42.7003 13.2732 39.9071 14.6268 37.3007C14.704 37.1521 14.7617 36.8594 14.741 36.6935L14.6579 36.7501C14.5502 36.8224 14.5273 36.831 14.4006 36.8739C14.2291 37.096 13.5106 38.3183 13.4614 38.3625C11.1929 40.4062 10.4698 42.9939 9.63433 45.8199C9.55201 46.0985 9.13343 47.917 9.02194 48.0364L8.87036 47.9621Z" fill="#68303E"/>
<path d="M69.4907 23.1569C69.8734 22.9351 69.8145 22.8886 70.1878 22.9175L70.3022 23.0783C70.0409 23.3614 70.1794 23.2924 69.778 23.3256L69.4907 23.1569Z" fill="#4B0708"/>
<path d="M67.4561 20.6844C68.5599 20.5574 69.541 21.1779 69.7278 22.3034C69.4682 22.4759 69.4032 22.464 69.0871 22.4653C68.701 22.1402 69.156 21.8607 68.808 21.3314L68.404 21.4815C68.051 21.1461 67.8565 20.956 67.4561 20.6844Z" fill="#4B0708"/>
<path d="M144.196 74.0773C144.561 71.9777 145.29 70.6045 145.823 68.7167C146.712 65.5771 147.718 62.27 147.905 59.0262C148.004 59.3819 147.882 61.9161 147.869 62.4909C148.361 62.5882 150.34 61.0611 151.101 61.1194C151.423 61.144 152.955 61.0898 153.198 61.2836C153.551 61.564 153.866 62.3075 154.516 61.6699C156.917 59.3145 159.428 55.5607 160.374 52.3169C160.953 53.2472 157.466 58.744 156.788 59.5521C154.589 62.1749 152.493 64.6902 151.106 67.8786C150.017 70.354 151.269 68.8881 151.912 70.5984L152.067 70.6856C153.891 68.1078 156.14 65.6057 157.852 62.9329C158.117 62.518 158.23 62.1415 158.603 61.793L158.7 61.8877C157.214 65.0506 154.567 67.6246 152.66 70.4898C151.039 72.9243 150.949 76.525 151.947 79.22C152.017 79.4082 152.144 79.5802 152.173 79.7778C152.218 80.1545 152.012 80.5209 152.205 80.8202C152.388 79.1543 152.771 78.1962 153.825 76.8761C153.958 76.7102 154.244 76.0439 154.39 75.88L154.519 75.8947C154.61 76.7968 153.408 77.7065 153.141 78.4813C152.632 79.9539 152.491 81.6737 152.106 83.1852C151.858 84.279 150.81 86.0702 150.866 87.1512C151.009 89.9082 152.182 92.7978 153.163 95.3554C153.604 96.5084 153.352 97.0736 154.465 98.0504C154.698 98.255 154.322 98.6441 154.521 98.9202C155.245 98.752 158.371 98.1668 159.004 98.2243L159.098 98.3189C158.895 98.43 157.461 98.6782 157.128 98.7535C153.205 99.643 150.792 99.9687 146.778 99.8896C146.213 97.751 144.625 89.6572 143.745 88.3833L143.54 88.2788C143.124 87.5008 143.038 79.6813 143.187 78.2437C143.273 77.4178 144.134 75.4485 144.196 74.0773Z" fill="#440000"/>
<path d="M29.2161 59.5838C29.7051 60.1923 29.861 61.4914 30.3297 61.6209C30.9008 61.4082 31.6799 61.0435 32.2546 61.2613C32.4423 61.4277 32.6141 61.5808 32.7943 61.7569C32.8496 61.3814 32.7998 57.1773 32.8113 56.3381C33.039 56.6293 32.9479 66.9134 33.1277 68.3548C33.4859 71.2275 34.2758 72.1406 35.0533 74.8659C35.4109 76.1196 35.2999 79.3691 35.4795 80.9154C35.801 83.6829 36.7669 86.5979 36.531 89.3645C36.4814 89.9461 36.2125 90.9093 35.7672 91.3319L35.5467 91.3344L35.3832 90.8477C35.3751 90.3265 35.4264 89.547 35.1885 89.1162C34.6036 88.6809 34.1072 88.6699 33.9197 89.4808C33.1311 92.8906 32.9178 96.7862 31.1642 99.871C27.8563 100.01 24.8344 99.3374 21.6265 98.6461C21.3321 98.5827 20.3129 98.4164 20.0919 98.3196L19.635 97.9818L19.7634 97.9076C20.4418 98.1636 24.0809 98.8509 24.9984 99.0273C25.3422 98.8143 24.9478 98.4914 25.3102 98.0869C25.4069 97.979 25.9262 97.2673 25.9669 97.1241C26.8732 93.9302 27.4455 89.8735 27.2846 86.5592C27.04 85.2715 26.5685 83.5827 26.5719 82.2908C26.5776 80.1269 27.1897 77.9435 27.2627 75.7885C27.3321 73.7401 27.4482 71.6189 27.8025 69.6075C28.0039 68.4633 27.3233 68.351 27.4303 67.6379C28.1974 66.5573 29.817 66.3896 29.9703 64.9222C30.0453 64.203 30.0077 64.3431 29.577 63.767L30.1947 64.2286L30.2922 64.1721C30.7104 63.1264 29.5533 60.9028 29.2416 59.6857L29.2161 59.5838Z" fill="#440100"/>
<path d="M113.65 3.92029C114.351 4.61438 115.195 4.90948 115.8 5.45354C116.402 8.29518 115.725 10.6773 114.346 13.1758C114.045 13.7208 113.29 14.9512 113.071 15.4412C112.009 16.9586 111.07 18.6293 109.909 20.0682C108.699 21.5673 107.261 22.8795 105.968 24.3046C104.41 26.0194 97.9164 33.9112 96.1921 34.272C95.8971 34.3338 95.5045 34.214 95.2584 34.0441C95.1531 33.9714 95.0637 33.8834 94.9746 33.7924C96.0063 33.3255 102.834 25.5273 103.685 24.3247C104.118 24.0868 106.235 21.3029 106.717 20.8081C109.476 17.9726 111.445 14.5803 113.073 10.9915C113.931 9.09908 113.66 6.01253 113.65 3.92029Z" fill="#C27D6F"/>
<path d="M115.8 5.45349C121.13 8.15493 126.489 11.0586 132.049 13.2291C145.904 18.6376 156.722 19.6419 164.747 33.7997C167.533 38.4033 168.19 42.1815 169.661 47.1643C169.005 46.5925 168.362 43.4923 167.918 42.5479C167.855 42.4203 167.213 42.1145 167.242 41.9879C167.524 40.7086 166.926 40.717 166.72 40.0768C166.825 40.0056 166.852 39.9926 166.968 39.9476L167.07 39.9077C166.79 39.8094 166.721 39.8405 166.536 39.5718C165.539 38.13 167.294 37.4391 165.428 36.4117C165.383 36.3867 165.543 35.6863 165.557 35.7095C165.217 35.1198 164.812 34.5158 164.526 33.8986L164.5 33.8422C164.261 33.8388 164.252 33.8383 164.019 33.7787C164.033 33.4752 164.056 33.3957 163.794 33.2343C163.13 33.5272 163.014 33.6979 162.41 33.2867C163.008 35.3953 164.363 37.4656 165.182 39.5068C165.935 41.3856 166.71 43.2561 167.471 45.1318C167.681 45.649 167.907 45.9496 168.093 46.3615L167.857 46.4593C167.079 45.6326 165.077 40.0035 164.477 38.6769C163.885 37.3622 161.773 33.0316 160.958 32.0797C159.369 30.2235 156.647 27.5895 154.742 26.0004C153.842 25.2492 151.766 24.1325 150.754 23.4078C149.929 22.8172 147.845 22.0743 147.246 21.6033L147.435 21.4934C148.497 21.6857 154.328 25.1354 155.444 26.0065C156.084 26.5058 157.706 28.4965 158.407 28.7193L158.672 28.4177L158.584 28.0808C158.316 28.0332 158.084 28.0541 157.843 27.9498C158.012 27.8264 158.151 27.6985 158.309 27.5605C158.204 27.1173 157.681 27.5169 157.485 27.3182C157.348 27.1786 157.487 26.5928 157.294 26.3925C156.721 25.7999 155.608 25.3701 155.154 24.7585C154.76 24.2273 155.248 23.5155 154.627 22.9248C154.023 22.3503 153.199 21.9223 152.483 21.5078C148.417 19.1595 144.075 17.948 139.705 16.3572C135.569 14.8507 131.374 13.3736 127.36 11.559C126.072 10.9767 116.679 6.09596 116.351 6.10612C116.297 6.16299 116.244 6.21987 116.19 6.27674C116.276 7.22625 116.233 8.15836 116.097 9.0996C115.897 10.4945 115.363 11.7971 114.712 13.0363C114.246 13.9237 113.683 14.75 113.236 15.6409L113.071 15.4412C113.29 14.9512 114.045 13.7207 114.346 13.1758C115.725 10.6773 116.402 8.29514 115.8 5.45349Z" fill="#754245"/>
<path d="M71.0829 22.4561C72.8799 23.9913 74.4113 26.1663 76.0295 27.8557C77.6037 29.4994 79.6286 31.9935 81.3727 33.3728C80.4253 34.3337 79.3265 34.1338 78.0641 34.0909C76.5982 33.348 75.2681 31.1787 74.1814 29.9534C72.8275 28.4268 71.4772 26.862 70.1744 25.2919C69.4351 24.4444 68.8916 23.8023 68.2236 22.8852C68.7617 22.8734 69.0971 22.7383 69.4907 23.1568L69.148 23.6264C69.3014 24.2607 69.8389 23.9798 70.1915 25.0802L70.4981 25.1714C71.043 24.6017 70.714 24.616 70.5618 24.0122C71.1002 23.3857 71.7035 24.6491 72.4707 24.5413L72.5097 24.3677C72.3516 23.5742 71.07 23.3383 71.0829 22.4561Z" fill="#4B0708"/>
<path d="M144.196 74.0773C144.134 75.4484 143.273 77.4178 143.187 78.2437C143.038 79.6812 143.123 87.5008 143.539 88.2788L143.744 88.3833C143.521 88.8428 143.426 90.7258 143.364 91.3841L143.207 91.3706C143.062 89.1454 143.982 90.1495 142.276 88.1044C142.102 88.2344 141.958 88.9583 141.83 89.182C141.548 89.6752 141.864 90.0961 141.699 90.7134C141.663 90.6317 140.973 84.1478 140.972 83.7465C141.125 84.1263 141.139 84.3447 141.424 84.5699C141.418 84.3473 141.414 84.1247 141.412 83.9019C141.409 83.3571 141.361 83.2224 141.721 82.8564L141.698 82.5941C141.374 82.3267 141.079 82.3868 140.636 82.3389C141.11 82.3214 141.29 82.3166 141.746 82.2037C142.078 81.7502 141.82 80.6219 142.038 79.9946C142.726 78.0111 143.51 76.0655 144.196 74.0773Z" fill="#4B0708"/>
<path d="M29.5771 63.7669C29.5612 63.7523 29.5452 63.7379 29.5292 63.7235C27.802 61.1137 26.9093 58.0904 26.9654 54.9557C26.9769 54.3142 26.9761 53.3557 27.3466 52.9863L27.5451 52.9919C27.6411 53.0685 28.0494 53.3903 28.0541 53.4644C28.1541 54.6615 28.1234 55.9896 28.2739 57.1763C28.3526 57.797 29.1684 58.8906 29.2161 59.5837L29.2417 59.6856C29.5534 60.9027 30.7105 63.1263 30.2923 64.172L30.1948 64.2285L29.5771 63.7669Z" fill="#6E0F0B"/>
<path d="M143.208 91.3706L143.364 91.3841C143.047 93.5476 142.717 95.7092 142.373 97.8688C142.123 99.3627 141.828 100.831 141.632 102.336C141.306 104.854 141.375 109.426 140.805 111.78C140.466 108.594 140.849 104.365 141.072 101.105C141.13 100.254 141.894 98.2621 141.993 97.1723C142.064 96.3798 141.931 94.8351 142.258 94.3053C142.547 94.3449 142.286 94.8777 142.595 95.2729L142.649 95.2405C142.807 93.9283 142.948 92.6701 143.208 91.3706Z" fill="#4B0708"/>
<path d="M110.579 41.8636C112.76 41.7229 115.549 41.8441 117.757 41.8828C122.356 41.9634 126.682 41.7157 131.169 42.9334C131.026 47.3993 131.311 52.0595 131.148 56.561C131.083 58.3947 131.171 60.1173 130.988 61.9919C130.751 64.4212 129.687 65.3043 127.864 66.765C125.725 68.2711 122.447 70.1089 119.762 69.2014C116.638 68.1457 112.859 65.7706 111.069 62.9125C110.639 62.225 110.468 60.9761 110.364 60.1665C110.221 56.8782 109.843 44.4073 110.579 41.8636Z" fill="#D56B53"/>
<path d="M111.764 43.401L111.806 43.0563C112.157 42.8831 119.792 43.0005 120.679 43.1542C124.037 43.7357 126.608 44.1594 130.058 44.1942C130.018 47.4482 129.996 50.7023 129.994 53.9565C129.992 56.7025 130.138 59.8361 129.62 62.5157C129.053 65.4536 125.321 66.8105 122.962 68.1292C120.36 69.5846 115.516 65.6527 113.589 64.0518C113.023 63.7839 112.531 63.2804 112.211 62.7479C111.693 61.8873 111.142 60.4406 110.998 59.4591C110.731 57.6409 111.321 45.2819 111.764 43.401Z" fill="#AE3623"/>
<path d="M113.589 64.0517C113.023 63.7838 112.531 63.2803 112.211 62.7478C111.693 61.8872 111.142 60.4405 110.998 59.459C110.731 57.6409 111.321 45.2818 111.764 43.4009C111.807 45.1046 112.374 46.558 112.361 48.2074C112.341 50.7062 112.331 53.194 112.233 55.7018C112.162 57.5245 111.826 59.7788 111.948 61.6213C112.007 62.515 113.076 63.4141 113.589 64.0517Z" fill="#C05331"/>
<path d="M116.497 47.9433C119.411 45.9972 119.441 46.3815 122.392 48.3706C122.675 48.5615 124.052 49.5755 124.18 49.5924C123.418 49.6318 123.4 49.945 122.868 50.2319C122.703 50.3202 122.18 49.8307 121.431 49.8891C121.715 50.248 121.994 50.5886 122.243 50.9736C122.669 51.1441 123.067 51.3072 123.485 51.4962L123.504 51.3086C123.712 50.8154 123.61 50.8207 123.983 50.6603C124.593 50.8997 124.481 51.5956 124.474 52.1668C124.638 52.8336 124.536 59.8758 124.49 60.7849C122.778 60.88 119.627 61.0034 118.01 60.5134C117.438 59.9592 116.968 59.5516 116.54 58.8758L116.364 58.9735L116.423 59.1163C115.857 59.7039 116.372 60.4559 115.777 60.637C115.512 60.5175 115.319 60.4718 115.179 60.2278L115.194 59.9494C114.63 60.6611 114.287 60.7337 113.448 61.0407C113.285 58.6499 113.407 54.4847 113.39 51.9503C113.4 51.1799 113.391 50.5763 113.341 49.8079C113.245 49.5021 113.221 47.2809 113.137 46.6848C113.683 47.13 114.946 47.9206 115.183 48.5189C115.283 48.6445 115.504 48.9389 115.604 49.039C115.96 49.5291 116.126 49.7241 116.257 50.3324C116.38 50.9136 117.087 50.9754 117.539 50.7427C117.86 49.8927 116.535 49.018 116.497 47.9433Z" fill="#C05331"/>
<path d="M116.497 47.9433C119.41 45.9972 119.44 46.3815 122.392 48.3706C122.675 48.5615 124.052 49.5755 124.18 49.5924C123.418 49.6318 123.4 49.945 122.867 50.2319C122.703 50.3202 122.18 49.8307 121.43 49.8891C121.715 50.248 121.994 50.5886 122.243 50.9736C122.669 51.1441 123.067 51.3072 123.485 51.4962L123.504 51.3086C123.712 50.8154 123.61 50.8207 123.983 50.6603C124.593 50.8997 124.481 51.5956 124.474 52.1668C124.366 53.804 123.958 53.2125 122.635 53.9415L122.563 54.006C122.32 54.2253 122.253 54.2904 121.935 54.4092C121.633 54.793 121.341 55.4029 121.184 55.5804C121.072 55.9294 121.038 56.1277 120.77 56.3881L120.578 56.349C120.195 55.7291 120.207 55.0164 120.191 54.3089C117.649 53.2775 117.886 52.3223 117.78 49.9152C117.3 49.29 116.909 48.6153 116.497 47.9433Z" fill="#D56B53"/>
<path d="M123.504 51.3086C123.712 50.8154 123.61 50.8207 123.983 50.6603C124.593 50.8997 124.481 51.5956 124.474 52.1669C124.366 53.804 123.958 53.2125 122.635 53.9415L122.563 54.006C122.32 54.2253 122.253 54.2904 121.935 54.4092C121.633 54.793 121.341 55.4029 121.184 55.5804C121.789 53.1513 120.595 53.9382 119.79 51.7495C120.383 52.2501 120.701 52.3241 121.496 52.2524C121.686 52.2344 121.876 52.2117 122.064 52.1841C122.77 51.9793 123.01 52.0332 123.485 51.4962L123.504 51.3086Z" fill="#C45E30"/>
<path d="M119.79 51.7494C119.693 51.2606 118.545 50.4126 119.091 49.7969C119.617 49.6628 120.884 49.8008 121.431 49.8891C121.715 50.2479 121.994 50.5885 122.243 50.9735C122.669 51.1441 123.067 51.3072 123.485 51.4961C123.01 52.0331 122.77 51.9792 122.064 52.1841C121.877 52.2116 121.686 52.2343 121.496 52.2523C120.701 52.3241 120.383 52.25 119.79 51.7494Z" fill="#B1421B"/>
<path d="M113.341 49.8079C113.245 49.5021 113.221 47.2809 113.137 46.6848C113.683 47.13 114.946 47.9206 115.183 48.5189C115.283 48.6445 115.504 48.9389 115.604 49.0391C115.942 50.3611 116.003 50.695 115.913 52.071C115.846 52.7747 115.748 54.4883 115.835 55.16C115.816 56.7623 116.068 58.6549 115.194 59.9494C114.63 60.6611 114.287 60.7337 113.448 61.0407C113.285 58.6499 113.407 54.4847 113.39 51.9503C113.4 51.1799 113.391 50.5763 113.341 49.8079Z" fill="#D56B53"/>
<path d="M113.341 49.8079C113.245 49.5021 113.221 47.2809 113.137 46.6848C113.683 47.13 114.946 47.9206 115.183 48.5189C114.835 48.9534 114.201 49.8036 113.661 49.903L113.341 49.8079Z" fill="#C05331"/>
<path d="M113.341 49.8079L113.661 49.9029C113.469 50.2521 113.49 50.1069 113.534 50.4593C113.851 50.7205 114.392 51.1518 114.576 51.4969C114.423 51.9934 113.854 51.9252 113.39 51.9503C113.4 51.1798 113.391 50.5762 113.341 49.8079Z" fill="#C05331"/>
<path d="M115.835 55.1599C116.206 54.6512 115.751 53.9049 116.126 53.327L116.32 53.3755C116.643 54.0682 115.82 54.6826 116.387 55.3106C116.356 56.2653 116.27 57.9797 116.54 58.8758L116.364 58.9735L116.422 59.1163C115.857 59.7039 116.372 60.4559 115.777 60.637C115.512 60.5175 115.319 60.4718 115.179 60.2278L115.194 59.9494C116.068 58.6549 115.816 56.7623 115.835 55.1599Z" fill="#B1421B"/>
<path d="M115.913 52.0709C116.328 52.0128 116.383 52.0252 116.785 52.1197L116.948 52.3141C116.845 52.6272 116.221 55.5427 116.387 55.3105C115.82 54.6826 116.643 54.0682 116.32 53.3755L116.126 53.327C115.751 53.9049 116.206 54.6511 115.835 55.1599C115.748 54.4882 115.846 52.7746 115.913 52.0709Z" fill="#C45E30"/>
<path d="M126.623 49.7374C127.098 49.6114 127.369 49.4935 127.83 49.6425C127.947 49.8806 128.35 50.6704 128.37 50.9255C128.537 53.1848 128.058 55.4942 128.122 57.7822C128.144 58.5257 128.322 60.3164 128.189 60.7702C127.959 61.0565 128.082 60.9808 127.722 61.055C126.651 60.7921 125.279 59.1184 125.524 57.963C125.623 57.4896 126.19 57.7861 126.546 57.2731C126.673 56.0053 126.544 54.6879 126.549 53.4093C126.552 52.9824 126.654 52.4989 126.614 52.1411C126.363 50.4836 125.637 50.9349 125.479 50.1991C125.82 49.8104 126.063 49.8475 126.623 49.7374Z" fill="#D56B53"/>
<path d="M127.83 49.6425C127.947 49.8805 128.35 50.6703 128.37 50.9255C128.537 53.1848 128.058 55.4942 128.122 57.7822C128.144 58.5256 128.322 60.3164 128.189 60.7702C127.959 61.0564 128.082 60.9807 127.722 61.0549C126.651 60.7921 125.279 59.1184 125.524 57.963C125.623 57.4896 126.19 57.7861 126.546 57.273C126.673 56.0052 126.544 54.6879 126.549 53.4092C126.552 52.9824 126.654 52.4989 126.614 52.1411L126.773 52.1908C126.804 53.4636 126.701 54.1962 126.877 55.4866C126.824 55.6236 126.773 56.5042 126.803 56.67C126.949 57.4904 126.262 61.1362 127.614 60.8596C127.945 60.4649 127.552 59.6705 127.579 59.1645C127.656 57.782 127.673 56.4177 127.669 55.0334C127.835 53.4346 127.616 50.8089 127.83 49.6425Z" fill="#C05331"/>
<path d="M126.614 52.1411C126.363 50.4836 125.637 50.9348 125.479 50.1991C125.82 49.8104 126.063 49.8475 126.623 49.7374C126.69 50.5496 126.773 51.3769 126.773 52.1908L126.614 52.1411Z" fill="#C05331"/>
<path d="M124.18 49.5924C124.845 47.4768 124.726 46.477 122.209 46.6868L122.19 46.7626C122.569 47.1702 123.205 47.7028 123.304 48.146L123.174 48.2384C122.915 47.994 123.03 48.0768 122.882 47.8579C122.397 47.1402 121.932 47.6157 121.979 46.6197C122.541 46.0973 123.809 46.58 124.386 46.9691C124.461 47.0195 124.715 47.6491 124.766 47.7816C124.67 48.4045 124.584 49.2554 124.323 49.8056C123.659 50.07 123.252 50.163 122.825 50.7578L122.82 50.9896C123.045 51.1514 123.218 51.2766 123.503 51.3086L123.485 51.4962C123.067 51.3072 122.669 51.1442 122.243 50.9736C121.994 50.5886 121.715 50.248 121.43 49.8892C122.179 49.8307 122.703 50.3203 122.867 50.232C123.4 49.9451 123.418 49.6318 124.18 49.5924Z" fill="#C05331"/>
<path d="M58.4179 48.6111L58.6139 48.6137C59.2476 48.9714 64.6979 57.8737 65.4464 59.3238C64.3743 59.1728 63.0094 59.3346 61.9091 59.4339L60.4965 59.4851C58.433 56.8959 57.0411 53.7856 54.7832 51.4278C56.09 50.14 56.8423 49.5159 58.4179 48.6111Z" fill="#F89546"/>
<path d="M54.0765 52.3822C55.1716 52.7572 58.3146 58.2172 59.0223 59.53C58.045 59.5578 57.2664 59.6344 56.2921 59.7427C55.7814 59.8351 54.8633 59.9135 54.3198 59.9773C53.3548 58.5088 52.4086 57.0075 51.4607 55.5263C52.3512 54.4938 53.2233 53.4456 54.0765 52.3822Z" fill="#F89546"/>
<path d="M50.7737 56.5391C52.011 57.8046 52.3096 58.4929 52.9915 60.1167C51.914 60.2366 50.8342 60.3357 49.753 60.414C49.6229 60.4301 49.4924 60.4429 49.3618 60.4522C48.9948 60.4775 48.2813 60.4583 48.0492 60.178C47.1053 59.0386 50.1011 57.0803 50.7737 56.5391Z" fill="#D56B53"/>
<path d="M120.607 36.2646C121.24 36.5463 121.794 37.4138 122.207 37.9778C122.207 38.5457 122.166 40.3582 121.822 40.7546C121.511 40.5775 121.543 40.4331 121.383 40.0249C120.67 39.4404 120.077 39.6628 119.092 39.191C118.461 38.3964 120.039 36.8945 120.607 36.2646Z" fill="#D56B53"/>
</g>
<defs>
<clipPath id="clip0_9_810">
<rect width="179.766" height="118" fill="white"/>
</clipPath>
</defs>
</svg>
