<svg width="180" height="120" viewBox="0 0 180 120" fill="none" xmlns="http://www.w3.org/2000/svg">
<g clip-path="url(#clip0_9_747)">
<path d="M0 0H180V120H138.866H138.389H127.778H122.162H59.9159H54.2477H47.8775H44.8575H39.2582H0V89.1387V0Z" fill="#5F98BF"/>
<path d="M0 0H180V120H138.866C138.998 118.233 139.143 116.466 139.3 114.7C139.669 109.948 140.929 104.292 141.356 99.4271C141.625 96.3761 141.562 93.808 141.533 90.7639C141.991 90.7453 142.382 90.6957 142.835 90.6393C142.993 90.9627 143.28 94.0004 143.844 95.3686C144.231 95.2144 146.839 94.7152 147.463 94.5857C148.867 94.3738 150.391 93.9709 151.787 93.8256C152.33 93.6143 153.694 93.4157 154.417 93.2013C155.958 92.966 158.44 91.9397 160.172 91.5746C162.893 90.7164 175.567 86.2595 177.186 84.6734C176.891 84.0687 175.941 77.8264 175.557 76.448C175.071 74.6941 174.081 72.1842 173.687 70.5497L170.966 59.2427C170.565 57.533 170.321 55.6132 169.849 53.9532C167.332 45.0933 164.782 35.8973 158.19 29.0948C156.639 27.4861 155.088 25.8517 153.213 24.6043C149.541 22.1609 146.162 20.6387 142.052 19.1638C138.001 17.71 133.843 16.211 129.859 14.6014C126.859 13.3894 123.926 11.9584 120.92 10.7507C120.196 10.4433 117.504 8.92446 117.126 8.84078C116.89 9.01845 116.966 8.96565 116.906 9.36648L116.778 9.07079C115.91 8.42843 112.391 5.85976 111.385 6.41067C110.58 5.59089 110.864 5.05168 109.272 4.27535C108.779 4.27272 108.287 4.27484 107.795 4.29891C106.056 4.3374 104.272 4.77582 102.546 4.84975C95.3863 5.15644 88.2672 6.13522 81.1189 5.04C79.2452 4.87639 77.3817 4.81417 75.5222 4.50648C73.9167 4.24082 72.3785 3.87225 70.7378 3.97323C69.3514 4.05855 68.8723 4.87888 68.0195 5.82335C67.2516 4.84041 63.113 8.41211 62.6269 8.45764C61.8216 8.55097 58.4953 10.8214 57.3177 11.2234C54.4677 12.1964 51.6309 13.8843 48.8272 14.9711L38.8011 18.845C36.8123 19.5974 34.3233 20.3449 32.4599 21.2877C26.9739 24.0634 24.1443 25.2787 20.1482 30.0155C13.6328 37.7384 10.9513 46.6786 8.49063 56.3009C8.10966 57.7574 8.03791 59.4852 7.59723 60.9073C5.85725 66.5218 4.56384 72.0144 3.66605 77.8328C3.40999 79.4921 2.27053 82.6781 1.58864 84.3302L1.63431 84.6649C1.29391 85.1955 0.856 88.1779 0 89.1387V0Z" fill="#D1C8B7"/>
<path d="M177.186 84.6733C177.553 85.0122 178.983 91.5897 179.02 92.5793C179.023 92.656 179.025 92.7328 179.026 92.8097C178.198 93.0317 177.391 93.3219 176.591 93.627C173.163 94.9343 169.635 95.9481 166.161 97.1209C165.725 97.2679 165.292 97.3997 164.838 97.4757L164.999 97.4726C165.425 96.8851 173.419 94.9267 173.835 94.216C173.033 92.465 172.55 91.1252 171.833 89.3355C171.666 88.9189 171.51 88.1928 171.336 87.8621C169.61 88.0557 161.704 91.8432 160.172 91.5746C162.893 90.7163 175.567 86.2595 177.186 84.6733Z" fill="#ECF1EC"/>
<path d="M147.463 94.5856C148.867 94.3738 150.392 93.9709 151.787 93.8256C151.385 94.202 150.694 94.1389 150.478 94.3582C149.918 94.9288 148.822 100.822 148.787 101.781C148.78 101.954 148.749 102.112 148.849 102.258C149.731 102.283 150.542 101.94 151.197 102.084L151.164 102.209C150.17 102.047 146.926 103.198 146.347 102.106C145.375 100.269 144.372 97.393 143.844 95.3686C144.231 95.2143 146.84 94.7151 147.463 94.5856Z" fill="#8B8F96"/>
<path d="M1.63431 84.6649C2.35241 84.8754 3.06518 85.2872 3.73153 85.6353C5.86982 86.7528 8.20495 87.4168 10.4346 88.3229C13.4527 89.5494 16.4386 90.74 19.5946 91.5859C20.3136 91.7775 22.063 92.3688 22.7346 92.464C23.0362 92.5618 24.1223 92.891 24.3475 93.005C25.9023 93.4189 28.213 94.095 29.7684 94.3915C31.045 94.7528 32.2482 95.0951 33.5079 95.5164C33.9696 95.6387 34.4781 95.8601 34.8748 95.7396C35.4075 94.0322 35.7589 91.8486 36.3724 90.3532C37.7777 93.5245 37.5267 97.7552 37.8886 101.224C38.312 105.282 39.5757 110.323 39.3466 114.398C39.2314 115.595 39.2834 117.104 39.2726 118.334L39.2582 120H0V89.1387C0.856 88.1778 1.29391 85.1955 1.63431 84.6649Z" fill="#D3CDBF"/>
<path d="M24.3474 93.005C25.9023 93.4189 28.213 94.095 29.7684 94.3914C31.0449 94.7527 32.2482 95.095 33.5078 95.5163C33.9696 95.6387 34.478 95.86 34.8747 95.7396C34.1107 97.8811 33.9914 100.975 32.2394 102.589C31.1453 102.538 26.2141 102.165 25.5744 101.683C26.2086 101.79 28.5421 102.164 29.0491 101.964C29.7696 101.137 28.9303 96.2872 28.9055 95.0579C28.9019 94.8774 28.8553 94.5009 28.7646 94.3422C28.3453 94.4047 24.7376 93.4303 24.3474 93.005Z" fill="#8C9095"/>
<path d="M68.0196 5.82338C68.8724 4.87891 69.3515 4.05858 70.7379 3.97326C72.3786 3.87228 73.9168 4.24084 75.5223 4.50651C77.3818 4.81419 79.2453 4.87642 81.119 5.04003C88.2672 6.13525 95.3864 5.15646 102.546 4.84977C104.272 4.77585 106.056 4.33743 107.795 4.29893C108.287 4.27486 108.78 4.27274 109.272 4.27538C110.864 5.05171 110.58 5.59091 111.385 6.4107C111.664 7.26693 111.85 8.8816 111.638 9.73821C111.361 11.0161 110.118 14.1376 109.298 15.0941C108.375 17.1941 104.477 20.6071 102.445 21.4998C100.241 23.0019 98.2515 23.833 95.7441 24.6357C95.0509 24.8576 92.8578 25.5654 92.3809 25.8733C90.3764 24.925 88.9758 25.4186 86.8254 25.0523C83.8752 24.5881 77.3557 22.1113 75.1951 20.139C73.9061 19.4328 72.0136 17.7154 71.1466 16.5405C70.9193 16.4073 70.4909 15.8194 70.3234 15.5972C68.8844 13.6887 68.1379 11.9828 67.5322 9.70035C67.2556 8.6972 67.6101 6.81926 68.0196 5.82338Z" fill="#244F77"/>
<path d="M68.0196 5.82338C68.8724 4.87891 69.3515 4.05858 70.7379 3.97326C72.3786 3.87228 73.9168 4.24084 75.5223 4.50651C77.3818 4.81419 79.2453 4.87642 81.119 5.04003C88.2672 6.13525 95.3864 5.15646 102.546 4.84977C104.272 4.77585 106.056 4.33743 107.795 4.29893C108.287 4.27486 108.78 4.27274 109.272 4.27538C110.864 5.05171 110.58 5.59091 111.385 6.4107C111.664 7.26693 111.85 8.8816 111.638 9.73821C111.629 9.384 111.651 9.0776 111.478 8.76657C110.781 8.72365 108.761 9.17117 108.045 9.35414C98.1527 11.8867 87.7888 11.9861 77.7159 10.6077C74.5066 10.1685 70.9071 9.03237 67.7297 8.84287C67.532 9.06306 67.5706 9.34648 67.5322 9.70035C67.2556 8.6972 67.6101 6.81926 68.0196 5.82338Z" fill="#B4B5B6"/>
<path d="M102.445 21.4998L102.393 21.303C102.975 20.9412 103.111 20.8659 103.537 20.3398L103.35 20.4464C103.557 20.1829 105.02 19.0949 105.436 18.717C106.537 17.7174 107.506 16.6625 108.504 15.563C108.867 15.1621 108.795 15.7687 109.272 14.8778L109.298 15.0941C108.375 17.1941 104.477 20.6071 102.445 21.4998Z" fill="#0E3358"/>
<path d="M71.1465 16.5404C71.4614 16.7006 72.222 17.0471 72.4851 17.2111C73.1441 17.6218 75.003 19.5036 75.195 20.139C73.906 19.4327 72.0134 17.7153 71.1465 16.5404Z" fill="#0E3358"/>
<path d="M87.0505 17.0991C87.4121 17.0932 87.7736 17.0905 88.1352 17.0909C88.7124 17.0921 90.9541 17.0708 91.331 17.4487C91.2607 17.8332 90.8097 18.3401 90.5556 18.6724C89.6533 19.4826 88.3492 19.365 87.1939 19.3759C87.0993 18.5268 87.0612 17.9529 87.0505 17.0991Z" fill="#286591"/>
<path d="M154.988 57.9328C153.689 61.0559 151.944 62.4573 154.384 65.5288L154.536 65.5705C155.511 64.948 158.061 60.3102 158.278 58.9318C158.432 57.9572 158.047 55.3368 158.141 55.0222C159.13 54.5636 160.092 55.6414 160.103 56.5371L159.989 56.5115C159.546 55.5269 159.526 54.9984 158.256 55.1601C158.409 56.1011 158.591 57.2729 158.62 58.2249C158.637 58.814 158.033 60.8307 158.101 61.2286L158.283 61.3024L158.395 61.636C158.756 61.333 158.775 59.7018 158.971 59.4289C160.697 61.503 152.875 71.7931 151.359 73.5797C150.717 74.3359 153.684 75.89 154.248 75.6516C154.87 74.5538 155.324 72.2865 156.104 71.2764L156.207 71.3193C154.972 73.9701 154.526 76.3726 152.898 78.8607C150.664 82.2741 150.156 87.4707 151.208 91.3419C151.322 91.7561 153.858 93.1952 154.264 93.0605L154.417 93.2013C153.694 93.4156 152.33 93.6143 151.787 93.8256C150.391 93.9709 148.867 94.3737 147.463 94.5856C146.839 94.7151 144.231 95.2143 143.844 95.3686C143.28 94.0004 142.993 90.9627 142.835 90.6392C142.846 90.4375 143.031 90.0377 142.99 89.7264C142.745 87.8538 142.275 87.6233 142.739 85.7479C142.754 85.2617 143.181 83.2543 143.343 82.7843C143.653 81.2673 144.252 80.6902 145.399 79.7913C146.332 75.8695 148.972 71.9893 150.634 68.3986C151.52 66.4869 152.014 64.0195 152.839 62.0267C153.387 60.7033 154.512 58.7097 154.788 57.4019L154.988 57.9328Z" fill="#1C5785"/>
<path d="M145.964 85.4152C147.558 86.8246 146.525 92.0249 147.463 94.5857C146.839 94.7152 144.231 95.2144 143.844 95.3686C143.28 94.0004 142.993 90.9627 142.835 90.6393C142.846 90.4376 143.031 90.0377 142.99 89.7265C142.745 87.8538 142.275 87.6233 142.739 85.748C142.89 86.405 142.589 87.5259 142.887 87.9443C143.873 87.373 145.131 86.1847 145.964 85.4152Z" fill="#03244D"/>
<path d="M143.343 82.7842C143.653 81.2672 144.252 80.6902 145.399 79.7913C144.601 81.3358 143.569 84.35 145.154 85.6766L145.318 85.6875C145.612 85.2567 145.492 85.3046 145.917 85.1152L146.05 85.2187L145.964 85.4151C145.131 86.1847 143.873 87.3729 142.887 87.9442C142.589 87.5259 142.89 86.405 142.739 85.7479C142.754 85.2617 143.181 83.2543 143.343 82.7842Z" fill="#0E3358"/>
<path d="M111.385 6.41062C112.391 5.85971 115.91 8.42837 116.778 9.07074L116.906 9.36643C117 10.1533 116.865 11.0374 116.751 11.8332C114.815 25.2957 97.8576 31.1717 85.9125 30.0206C84.7466 29.9083 83.4906 29.6451 82.5326 28.9935L82.4014 28.7576C82.6949 28.3286 91.0955 27.1656 92.3807 25.8732C92.8577 25.5653 95.0507 24.8575 95.744 24.6356C98.2513 23.833 100.241 23.0019 102.445 21.4997C104.477 20.607 108.375 17.194 109.298 15.094C110.118 14.1376 111.361 11.016 111.638 9.73813C111.849 8.88152 111.663 7.26685 111.385 6.41062Z" fill="#ECF1EC"/>
<path d="M22.7346 92.4639C23.2739 92.1876 23.4593 92.6221 24.2522 92.6214C25.0501 92.2845 27.7458 89.6878 27.6012 88.8326C26.6585 87.9646 25.4655 84.179 24.7581 82.835C23.2748 80.0176 21.6424 77.3462 20.2478 74.4774C19.0207 71.9531 16.9106 69.6466 15.7405 67.1185C15.6675 66.9608 15.82 66.7809 15.9116 66.6881C15.9988 67.2097 16.9139 68.5896 17.2421 69.0784C17.8188 69.0653 17.5164 68.2576 17.9995 67.8372C17.9085 67.4775 17.7431 67.3957 17.5757 67.0225C16.7693 65.2256 16.0912 63.2183 14.8545 61.6604C14.7362 61.5114 14.7877 61.6487 14.7766 61.4012C15.0177 61.5134 16.0042 63.0297 16.159 63.3742C18.3221 68.1309 20.8105 72.719 23.1016 77.4191C24.1095 79.4865 25.4958 81.3201 26.5486 83.4472L26.7874 83.4711C27.1546 83.1425 27.2423 82.6605 27.214 82.1878C26.4464 81.1495 24.3332 77.1813 24.8365 76.0058C25.0653 76.3293 24.9701 77.2035 25.3377 77.641L25.5482 77.6178C26.1371 76.9673 26.7373 74.5496 26.5413 73.6862C26.2856 73.3699 26.1751 73.2696 26.0727 72.8738C26.18 72.623 26.212 72.5889 26.1986 72.325C25.1246 71.0282 24.1607 68.8654 23.1118 67.338C21.7726 65.3876 18.7398 62.3016 19.8145 59.7225C20.4202 58.2691 19.4538 58.0317 19.0821 56.6122L19.1612 56.4949C19.3086 57.0352 19.8572 57.8164 20.105 58.3744C21.6371 61.8239 23.9193 64.8206 25.91 68.0057C26.4666 68.8962 26.9258 69.8533 27.4966 70.7096L27.6762 70.6947L27.6693 70.781C27.8643 70.3795 27.8039 70.4919 28.3309 70.2958C28.4191 69.8893 28.0761 69.3841 27.8509 69.0628C26.5222 67.1666 23.27 60.2987 23.6955 58.2841C23.9573 58.5713 24.911 62.7823 25.3477 63.7571C26.5167 66.3662 27.936 68.6015 29.2136 71.1134C30.7882 74.2095 32.1893 78.0544 34.0278 81.0189C34.1325 81.2103 34.3877 81.7091 34.5138 81.8509C34.682 82.4412 34.8266 82.9601 34.9575 83.5626C34.091 86.0152 31.4986 85.3436 31.0615 87.4449C30.7662 88.865 32.6373 91.153 31.1548 93.3199C30.9758 93.5814 30.8168 94.1202 30.4125 94.3209C30.1992 94.2718 30.0477 94.2385 29.831 94.2093L29.7684 94.3914C28.213 94.095 25.9023 93.4189 24.3475 93.005C24.1223 92.891 23.0362 92.5618 22.7346 92.4639Z" fill="#1E5B88"/>
<path d="M62.6267 8.45771C63.1128 8.41217 67.2514 4.84047 68.0193 5.82342C67.6099 6.8193 67.2554 8.69724 67.532 9.70039C68.1377 11.9828 68.8842 13.6887 70.3231 15.5973C70.4907 15.8194 70.919 16.4074 71.1464 16.5405C72.0133 17.7154 73.9059 19.4328 75.1948 20.1391C77.3554 22.1114 83.8749 24.5881 86.8251 25.0523L86.9183 25.4353L86.7897 25.5466C84.7768 25.9695 77.3735 26.4808 75.4948 26.1261C68.4685 24.799 61.1182 15.8569 62.6267 8.45771Z" fill="#ECF1EC"/>
<path d="M23.6956 58.2842C23.4853 56.9802 23.4488 56.841 23.0113 55.6208C22.5807 54.4203 19.8689 50.695 20.2047 49.7671L20.4099 49.7524C21.0796 50.3719 21.4763 51.0092 22.0439 51.6592C23.5662 53.403 24.6785 54.3877 25.2331 56.7337C25.4521 57.6594 25.6767 59.5176 26.1692 60.2017C26.5121 60.1739 26.972 60.0169 27.0744 60.0233C27.8141 60.0697 29.1234 60.411 29.6522 60.9129C30.5851 61.7987 31.2582 64.2495 32.5847 64.5514C32.9982 64.314 34.0676 61.0133 35.2861 61.0275C35.1654 61.1636 35.0209 61.3362 34.896 61.4635C35.2874 61.6849 35.6873 61.731 35.8003 61.7898C33.8503 64.2169 33.9677 66.0586 34.1696 69.1617C34.3509 71.9488 35.9671 74.9789 36.3394 77.6528C36.1337 78.1726 35.9689 78.7083 35.5345 79.073L35.4422 79.572L35.3097 79.4965C34.5899 80.0497 35.0844 81.6157 34.028 81.019C32.1894 78.0545 30.7883 74.2096 29.2137 71.1135C27.9361 68.6016 26.5168 66.3662 25.3478 63.7572C24.9111 62.7824 23.9574 58.5714 23.6956 58.2842Z" fill="#1A507C"/>
<path d="M34.8958 61.4634C35.2872 61.6849 35.6872 61.7309 35.8001 61.7898C33.8501 64.2168 33.9676 66.0585 34.1695 69.1617C34.3508 71.9487 35.9669 74.9789 36.3392 77.6527C36.1335 78.1726 35.9688 78.7082 35.5344 79.0729C35.4185 78.6287 35.9473 78.389 36.0827 77.6477C35.1983 77.0919 35.3084 77.1193 34.632 76.3489C33.9222 71.2945 30.4243 66.1779 34.8958 61.4634Z" fill="#00123C"/>
<path d="M44.8574 120C45.9885 115.816 47.114 111.649 49.0683 107.77C49.4577 106.997 49.8886 106.003 50.1825 105.194L53.4413 96.3434C54.0119 94.8358 54.5052 93.1845 55.2596 91.7649C55.407 92.3934 54.6605 92.9393 54.6216 93.6436C55.2981 93.7568 57.3104 93.9395 57.9027 94.2196C58.1439 94.6354 58.1395 94.8494 58.4631 94.9476C58.7215 94.5406 58.7775 94.4104 58.9504 93.9582C59.278 94.4999 58.5766 95.3472 58.5027 95.8919C58.2209 97.9697 57.205 99.7745 56.5563 101.764C56.1729 102.939 56.0286 104.799 55.5655 105.862L55.4591 105.671C54.2679 106.085 53.263 108.444 52.7628 109.539C52.0032 111.203 51.379 111.106 50.5969 112.863C49.9427 114.333 49.8888 115.343 49.435 116.747C49.2091 117.445 48.2468 119.227 47.8775 120H44.8574Z" fill="#286591"/>
<path d="M34.028 81.019C35.0844 81.6157 34.5899 80.0497 35.3098 79.4965L35.4422 79.5719C35.7735 79.991 36.3209 80.6566 36.5286 81.1251C37.9758 83.8196 39.8384 104.787 40.1899 109.107C40.2625 110 39.9015 112.975 39.9697 114.008L39.3468 114.398C39.5759 110.323 38.3121 105.282 37.8887 101.224C37.5268 97.7552 37.7779 93.5245 36.3725 90.3532C35.7591 91.8486 35.4076 94.0322 34.8749 95.7396C34.4782 95.8601 33.9697 95.6387 33.508 95.5163C32.2484 95.0951 31.0451 94.7527 29.7686 94.3915L29.8311 94.2093C30.0478 94.2385 30.1993 94.2718 30.4126 94.3209C30.8169 94.1202 30.9759 93.5815 31.1549 93.3199C32.6374 91.153 30.7663 88.865 31.0616 87.4449C31.4987 85.3437 34.0911 86.0152 34.9576 83.5626C34.8267 82.9602 34.6821 82.4413 34.5139 81.8509C34.3879 81.7091 34.1326 81.2103 34.028 81.019Z" fill="#020818"/>
<path d="M34.9576 83.5626C35.0959 84.4569 35.3077 85.5948 35.2512 86.4542C35.1094 88.6141 34.6341 90.2877 35.4701 92.3744C35.42 92.2495 34.8861 94.7341 34.8554 94.8903L34.7815 94.8599L34.6155 94.4061L34.4974 94.3953C34.2967 94.8018 34.3044 94.8945 34.2818 95.34C33.9858 95.4737 33.8255 95.4757 33.508 95.5163C32.2484 95.095 31.0451 94.7527 29.7686 94.3915L29.8311 94.2093C30.0478 94.2385 30.1993 94.2718 30.4126 94.3209C30.8169 94.1202 30.9759 93.5815 31.1549 93.3199C32.6374 91.153 30.7663 88.865 31.0616 87.4449C31.4987 85.3436 34.0911 86.0152 34.9576 83.5626Z" fill="#0E3358"/>
<path d="M34.0278 81.019C35.0843 81.6157 34.5897 80.0497 35.3096 79.4965L35.442 79.5719C35.7733 79.991 36.3207 80.6566 36.5285 81.1251L36.4533 81.0774C35.917 80.7338 36.0522 80.6041 35.4626 80.3481L35.4342 80.4279C35.2797 80.8528 34.8957 81.5993 34.5138 81.8509C34.3877 81.7091 34.1325 81.2103 34.0278 81.019Z" fill="#03244D"/>
<path d="M54.2478 120C56.3291 114.486 58.7551 109.132 60.9738 103.674C61.8791 101.447 64.3083 98.1853 64.8633 96.0765C64.9825 96.6707 64.7021 96.5095 64.7801 96.9354C65.1221 97.0732 65.2638 97.0109 65.6142 96.9286C69.2258 98.7243 60.9533 111.239 60.7846 113.793C60.705 115 59.328 119.204 59.3966 119.527C59.7616 119.721 59.8019 119.671 59.9159 120H54.2478Z" fill="#286591"/>
<path d="M122.162 120C122.328 119.78 122.393 119.696 122.597 119.511C123.018 118.699 121.968 115.386 121.705 114.424C121.13 112.362 120.069 110.475 119.337 108.478C118.659 106.634 118.617 104.49 117.562 102.797C117.248 102.294 117.28 100.613 117.405 100.034C117.83 99.7646 118.191 99.3719 118.605 99.3586C119.335 99.6077 119.216 100.159 120.273 100.021L120.554 100.16C120.76 100.031 120.725 99.9479 120.81 99.6609C120.765 99.4145 120.059 97.9528 119.907 97.6929L119.991 97.6432C121.076 99.0865 121.41 101.269 121.963 102.95L125.208 112.686C125.934 114.844 126.819 116.941 127.469 119.121C127.556 119.414 127.717 119.705 127.778 120H122.162Z" fill="#286591"/>
<path d="M147.197 65.5906C147.269 66.2976 147.77 67.8509 148.453 68.1307C148.931 67.8274 150.234 64.459 150.628 63.7018C152.264 60.5561 153.907 57.2145 155.578 54.1095C155.528 55.2745 155.208 56.3231 154.788 57.4019C154.512 58.7097 153.387 60.7033 152.839 62.0267C152.014 64.0195 151.52 66.4868 150.634 68.3985C148.972 71.9893 146.332 75.8695 145.399 79.7913C144.252 80.6902 143.653 81.2672 143.343 82.7842C143.317 82.0861 143.439 80.9751 142.861 80.5544L142.359 80.655C142.532 80.0133 142.859 80.176 142.927 79.6822C143.143 78.111 142.85 76.3567 143.235 74.78C143.703 72.854 144.655 70.7809 145.112 68.8827C145.778 66.1172 145.393 63.6248 143.618 61.3652C142.968 60.5388 142.056 59.4334 141.52 58.5566C144.921 60.4176 145.983 62.0417 147.197 65.5906Z" fill="#072C59"/>
<path d="M142.359 80.6551L142.861 80.5544C143.439 80.9751 143.317 82.0862 143.342 82.7843C143.181 83.2543 142.754 85.2617 142.739 85.748C142.275 87.6233 142.745 87.8538 142.99 89.7265C143.031 90.0377 142.846 90.4376 142.835 90.6392C142.382 90.6957 141.991 90.7453 141.533 90.7639C141.562 93.808 141.625 96.376 141.356 99.4271C140.928 104.292 139.669 109.948 139.299 114.7L139.182 114.682C139.024 114.458 139.093 113.979 139.104 113.669L139.003 113.615C138.674 114.023 139.042 114.097 138.811 114.709C138.749 114.413 138.752 113.96 138.742 113.646C138.796 111.019 139.155 108.178 139.187 105.498C139.212 103.451 139.708 101.106 139.813 99.0211C140.124 92.7347 140.946 86.7969 142.359 80.6551Z" fill="#000001"/>
<path d="M147.197 65.5907L147.412 65.5041C149.099 62.5677 148.73 55.3296 149.023 51.863C149.175 50.0625 149.647 48.1286 149.925 46.3321C149.987 45.9449 150.137 45.6016 150.227 45.2174C150.358 44.6645 150.098 42.9959 150.51 42.6394C151.008 43.9492 149.502 49.5637 149.416 51.2452C149.352 52.4999 149.005 55.1383 149.401 56.2776C149.478 56.3002 149.942 56.4498 149.947 56.5156C149.993 57.1006 150.279 57.516 150.465 57.9976C150.886 59.0822 150.873 59.8591 151.684 60.7717L151.844 60.7116C152.085 60.0064 152.735 59.2422 153.107 58.4657C153.891 56.8493 154.667 55.233 155.475 53.6301C155.714 53.1549 156.04 52.7344 156.608 53.0343L156.571 53.2102C156.265 53.1224 156.368 53.1068 156.097 53.1898C155.084 54.3582 155.896 53.8895 155.834 55.1098C155.555 55.5185 155.115 57.351 154.987 57.9328L154.788 57.402C155.208 56.3232 155.528 55.2746 155.578 54.1096C153.907 57.2146 152.264 60.5562 150.628 63.7019C150.234 64.4591 148.931 67.8275 148.453 68.1309C147.77 67.851 147.269 66.2977 147.197 65.5907Z" fill="#255B89"/>
<path d="M138.742 113.646C138.752 113.96 138.749 114.413 138.811 114.709C139.042 114.097 138.674 114.023 139.003 113.615L139.104 113.669C139.093 113.979 139.024 114.458 139.183 114.682L139.3 114.7C139.143 116.466 138.999 118.233 138.866 120H138.389C138.413 118.337 138.484 115.245 138.742 113.646Z" fill="#0E191A"/>
<path d="M39.3467 114.398L39.9697 114.008C39.9672 114.847 39.9827 117.748 39.6187 118.356L39.2726 118.334C39.2834 117.104 39.2315 115.595 39.3467 114.398Z" fill="#244F77"/>
<path d="M38.7455 59.2567C37.6709 60.1793 36.8578 60.8072 35.8003 61.7898C35.6874 61.731 35.2874 61.685 34.896 61.4635C35.0209 61.3362 35.1654 61.1636 35.2861 61.0275C36.5654 60.2 37.3229 59.8118 38.7455 59.2567Z" fill="#0E3358"/>
<path d="M111.317 46.9487C117.438 47.0049 123.423 47.5828 129.535 47.9216L129.595 55.5672C129.617 60.0738 130.011 65.0124 126.658 68.3972C124.955 70.0719 122.891 71.1258 120.576 71.6824C118.645 71.191 116.364 69.5006 114.96 68.1054C111.122 64.2934 111.312 59.3124 111.312 54.3188L111.317 46.9487Z" fill="#ECF1EC"/>
<path d="M121.786 49.6638C122.814 49.6502 123.986 49.6256 125.01 49.6949C124.573 49.8663 123.507 50.1932 123.347 50.4976L123.531 51.0331L123.436 51.1376L123.116 51.0166C122.939 51.985 123.226 52.2174 123.488 53.0731C124.33 55.8427 123.383 58.3853 123.803 61.207L123.642 61.2317C123.189 61.8633 122.687 61.5349 121.8 61.987L121.682 62.2586L121.487 62.5995C121.538 63.3678 121.554 63.6378 121.328 64.3705L121.161 64.7871C120.465 63.6902 119.766 63.9966 118.9 63.2088C118.74 62.7394 118.853 62.8819 118.505 62.6111C118.083 62.6472 117.543 62.6511 117.11 62.667C117.004 62.1863 117.198 61.5639 117.309 61.0673L117.716 60.3145C117.621 59.7712 117.472 58.9274 117.222 58.4449C116.898 57.8242 116.392 58.2407 115.8 58.0889L115.714 57.8433L115.437 57.8504C115.13 57.601 115.199 57.7278 115.141 57.3847L115.332 57.2198L114.873 57.2266C114.845 56.3442 114.874 51.05 115.065 50.4606L115.433 50.396C116.158 50.1978 117.854 49.6815 118.553 49.8057L119.145 49.7558C119.881 49.6503 121.011 49.6709 121.786 49.6638Z" fill="#B88748"/>
<path d="M115.433 50.3958C116.158 50.1977 117.854 49.6813 118.553 49.8056L118.594 49.8845C118.391 49.8986 118.118 49.8713 118.045 50.0042C117.484 51.0387 117.683 53.629 117.764 54.6885C117.633 55.5668 117.79 56.5553 117.619 57.1728C117.403 57.3214 117.226 57.428 117 57.5588L116.973 57.8106C117.728 58.336 117.689 58.2307 117.757 59.1295C117.763 59.3693 117.819 60.1626 117.716 60.3143C117.621 59.7711 117.472 58.9273 117.222 58.4447C116.898 57.8241 116.392 58.2406 115.8 58.0887L115.714 57.8432L115.437 57.8502C115.13 57.6009 115.199 57.7277 115.141 57.3845L115.332 57.2197L114.873 57.2265C114.845 56.344 114.874 51.0498 115.065 50.4605L115.433 50.3958Z" fill="#D1C8B7"/>
<path d="M114.873 57.2265C114.845 56.3441 114.874 51.0499 115.065 50.4606L115.433 50.3959C115.431 51.3267 115.616 56.7918 115.332 57.2197L114.873 57.2265Z" fill="#BBB08C"/>
<path d="M121.786 49.6638C122.814 49.6502 123.986 49.6256 125.01 49.6949C124.573 49.8663 123.507 50.1932 123.347 50.4976L123.531 51.0331L123.436 51.1376L123.116 51.0166C122.939 51.985 123.226 52.2174 123.487 53.0731C124.33 55.8427 123.383 58.3853 123.803 61.207L123.642 61.2317C123.189 61.8633 122.687 61.5349 121.8 61.987C121.528 61.5669 121.547 61.0523 121.3 60.4627C121.45 60.468 121.717 60.4259 121.877 60.406C121.998 60.0035 121.98 59.947 121.871 59.5461C121.084 58.0508 122.231 58.5394 121.869 56.7394C121.703 56.0083 121.559 55.2851 121.383 54.5539C121.443 54.0867 121.515 54.004 121.923 53.8699C122.367 53.9289 122.568 54.1496 122.913 54.4375L122.927 54.0099C122.987 53.3583 122.808 51.5055 122.677 50.8304C122.579 50.3328 122.508 50.2859 122.153 50.0526C121.951 49.9838 121.902 49.8497 121.786 49.6638Z" fill="#D1C8B7"/>
<path d="M121.383 54.5538C121.443 54.0865 121.515 54.0039 121.923 53.8698C122.367 53.9288 122.568 54.1495 122.913 54.4374L122.927 54.0098C123.196 55.0706 124.248 57.3683 123.037 58.2531C122.191 58.4892 122.419 58.8628 121.871 59.546C121.084 58.0507 122.231 58.5393 121.869 56.7393C121.703 56.0082 121.559 55.285 121.383 54.5538Z" fill="#B88748"/>
<path d="M121.383 54.5538C121.443 54.0865 121.515 54.0039 121.923 53.8698C122.367 53.9288 122.568 54.1495 122.913 54.4374C122.987 55.2057 122.774 56.4153 121.989 56.7623L121.869 56.7393C121.703 56.0082 121.559 55.285 121.383 54.5538Z" fill="#AD7738"/>
<path d="M121.871 59.546C122.419 58.8628 122.191 58.4892 123.037 58.2532C122.848 58.8068 123.435 60.6731 123.642 61.2316C123.189 61.8633 122.687 61.5348 121.8 61.9869C121.528 61.5668 121.547 61.0522 121.3 60.4626C121.45 60.4679 121.717 60.4258 121.877 60.4059C121.998 60.0034 121.98 59.9469 121.871 59.546Z" fill="#C29C6A"/>
<path d="M117.757 59.1295C117.884 59.5006 118.01 60.0321 118.294 60.2639L118.501 60.2645L118.64 59.8892L118.739 59.9246L118.752 59.9666C119.571 61.1612 120.14 60.353 121.3 60.4626C121.547 61.0522 121.528 61.5668 121.8 61.9869L121.682 62.2585L121.487 62.5994C121.538 63.3677 121.554 63.6377 121.328 64.3704L121.161 64.787C120.465 63.6901 119.766 63.9965 118.9 63.2087C118.74 62.7394 118.853 62.8819 118.505 62.611C118.083 62.6471 117.543 62.651 117.11 62.6669C117.004 62.1862 117.198 61.5639 117.309 61.0672L117.716 60.3144C117.819 60.1626 117.763 59.3694 117.757 59.1295Z" fill="#BBB08C"/>
<path d="M117.11 62.667C117.004 62.1863 117.198 61.5639 117.309 61.0673C117.734 62.1144 118.624 61.2491 119.135 62.3888L119.259 62.5779C120.13 62.6353 120.649 62.3703 121.487 62.5995C121.538 63.3678 121.554 63.6378 121.328 64.3704L121.161 64.787C120.465 63.6902 119.766 63.9966 118.9 63.2087C118.74 62.7394 118.853 62.8819 118.505 62.6111C118.083 62.6472 117.543 62.651 117.11 62.667Z" fill="#D1C8B7"/>
<path d="M117.757 59.1295C117.689 58.2308 117.728 58.3361 116.972 57.8107L117 57.5589C117.226 57.4281 117.403 57.3215 117.619 57.1729C117.79 56.5554 117.633 55.5669 117.764 54.6886C117.843 55.8408 117.879 56.8207 118.089 57.962C119.545 57.9713 119.691 58.0518 121.008 57.6597L121.023 57.5835C121.36 57.3792 121.487 57.0884 121.685 56.7455L121.869 56.7394C122.231 58.5394 121.084 58.0507 121.871 59.546C121.98 59.9469 121.998 60.0034 121.877 60.4059C121.717 60.4259 121.45 60.4679 121.3 60.4627C120.139 60.353 119.571 61.1612 118.752 59.9666L118.739 59.9247L118.639 59.8893L118.501 60.2645L118.294 60.2639C118.01 60.0321 117.884 59.5007 117.757 59.1295Z" fill="#C29C6A"/>
<path d="M118.752 59.9666C119.727 58.9805 120.711 60.1272 121.877 60.406C121.717 60.4259 121.45 60.4679 121.3 60.4627C120.139 60.353 119.571 61.1612 118.752 59.9666Z" fill="#B88748"/>
<path d="M119.145 49.7557C119.88 49.6502 121.011 49.6708 121.786 49.6637C121.902 49.8497 121.951 49.9837 122.153 50.0525C121.672 50.5601 121.2 51.0755 120.737 51.5986C120.38 52.2416 119.973 53.5223 119.31 53.687L119.108 53.4609C118.946 52.9261 118.991 51.7437 119.252 51.2525C119.279 50.7523 119.024 50.1449 118.594 49.8846L118.553 49.8056L119.145 49.7557Z" fill="#D3A05D"/>
<path d="M118.553 49.8057L119.145 49.7557C119.868 49.8563 119.937 49.7106 120.041 50.4733L120.198 50.6601C119.906 51.0553 119.783 51.2384 119.252 51.2526C119.279 50.7523 119.024 50.1449 118.594 49.8846L118.553 49.8057Z" fill="#C29C6A"/>
<path d="M118.848 55.0907C119.768 54.8356 120.424 54.5747 121.383 54.5538C121.559 55.2851 121.703 56.0082 121.869 56.7394L121.685 56.7455C121.487 57.0884 121.361 57.3792 121.023 57.5835C120.408 57.2537 119.343 55.7179 118.848 55.0907Z" fill="#D3A05D"/>
<path d="M114.873 57.2265L115.332 57.2197L115.141 57.3846C115.199 57.7277 115.13 57.6009 115.437 57.8503L115.714 57.8433L115.799 58.0888C116.392 58.2407 116.898 57.8242 117.221 58.4448C117.472 58.9274 117.621 59.7711 117.716 60.3144L117.309 61.0672C117.198 61.5639 117.004 62.1863 117.11 62.667C117.542 62.651 118.083 62.6471 118.505 62.6111C118.853 62.8819 118.74 62.7394 118.9 63.2087C118.823 63.9347 119.159 64.4836 119.081 64.9023C118.792 64.9525 118.75 64.9284 118.475 64.8156C118.285 65.1989 118.213 65.3055 118.182 65.7357C117.81 65.1858 115.348 63.7724 114.636 63.3759C114.609 62.6128 114.695 61.3404 115.074 60.6696L114.9 60.5988C114.654 59.9317 114.559 58.3964 115.051 57.8381C114.853 57.6158 114.907 57.5678 114.873 57.2265Z" fill="#E0DFC6"/>
<path d="M117.11 62.667C117.543 62.651 118.083 62.6472 118.505 62.6111C118.853 62.8819 118.74 62.7394 118.9 63.2087C118.823 63.9347 119.159 64.4836 119.081 64.9023C118.792 64.9525 118.75 64.9285 118.475 64.8156C118.56 64.6203 118.546 64.5618 118.542 64.3541C118.275 63.968 117.734 63.9549 117.2 63.5113C116.983 63.0517 117.036 63.2148 117.11 62.667Z" fill="#8B8F96"/>
<path d="M115.051 57.8381C115.782 58.3214 115.695 59.5063 115.554 60.3051C115.316 60.5923 115.352 60.5088 114.9 60.5988C114.654 59.9317 114.559 58.3964 115.051 57.8381Z" fill="#BBB08C"/>
<path d="M123.803 61.2069C124 61.3578 123.995 61.347 124.24 61.4061C124.358 60.8909 124.355 60.6661 124.887 60.506C125.821 60.6478 126.123 60.7576 127.018 61.0711C126.258 61.3067 125.559 61.3711 124.772 61.4722C124.321 61.7584 124.323 62.1764 124.126 62.6163C124.085 62.7091 123.88 62.6406 123.741 62.9851C123.35 63.3636 123.235 63.4272 122.755 63.6913C122.314 64.1395 122.451 64.2095 122.253 64.4881C121.889 64.6479 121.615 64.6211 121.328 64.3704C121.554 63.6377 121.537 63.3677 121.487 62.5994L121.682 62.2585L121.8 61.9869C122.687 61.5348 123.189 61.8632 123.642 61.2316L123.803 61.2069Z" fill="#D1C8B7"/>
<path d="M121.682 62.2585C122.737 62.867 123.494 62.8353 123.741 62.9851C123.35 63.3636 123.235 63.4273 122.755 63.6913C122.314 64.1395 122.451 64.2095 122.253 64.4882C121.889 64.6479 121.615 64.6212 121.328 64.3704C121.554 63.6377 121.537 63.3677 121.487 62.5994L121.682 62.2585Z" fill="#91907B"/>
<path d="M124.887 60.506C125.821 60.6478 126.123 60.7576 127.018 61.0711C126.258 61.3067 125.559 61.3711 124.772 61.4722L124.627 61.2909C124.579 60.8686 124.627 60.9527 124.887 60.506Z" fill="#B4B5B6"/>
<path d="M119.081 64.9023C119.159 64.4836 118.824 63.9347 118.9 63.2087C119.766 63.9966 120.465 63.6901 121.161 64.787L121.328 64.3704C121.615 64.6212 121.889 64.6479 122.254 64.4882L122.168 64.6609C122.528 65.2419 122.37 66.1534 122.188 66.7857C121.501 66.8541 121.256 66.7883 120.592 66.6603C119.978 66.2337 120.004 66.0578 119.82 65.3219C119.786 65.29 119.568 64.9844 119.526 64.9269L119.081 64.9023Z" fill="#959686"/>
<path d="M122.168 64.6609C122.528 65.2419 122.37 66.1534 122.188 66.7856C121.501 66.8541 121.256 66.7883 120.592 66.6602C121.062 66.5576 121.076 66.6362 121.341 66.3424C121.413 65.7177 121.822 65.1703 122.168 64.6609Z" fill="#E0DFC6"/>
<path d="M124.289 56.7339C124.794 56.0471 125.775 55.6568 126.318 56.5111C126.34 57.2205 126.461 58.6481 126.325 59.253C125.985 59.563 124.896 59.3948 124.519 59.0527C124.454 58.4485 125.179 57.9052 125.575 57.508C125.052 57.1616 124.991 57.5193 124.468 57.1628C124.369 57.0022 124.296 56.9228 124.289 56.7339Z" fill="#C29C6A"/>
<path d="M124.289 56.7339C124.794 56.0471 125.775 55.6568 126.318 56.5111L126.152 57.0137C125.578 57.2605 124.723 57.2108 124.289 56.7339Z" fill="#C2A480"/>
<path d="M122.254 64.4882C122.452 64.2095 122.315 64.1395 122.755 63.6913C122.589 64.8234 123.096 66.2501 124.396 66.467C124.228 67.0417 122.93 68.0563 122.266 67.9342C121.914 67.5275 122.033 67.2676 122.188 66.7856C122.37 66.1534 122.528 65.2419 122.168 64.6609L122.254 64.4882Z" fill="#BBB08C"/>
<path d="M118.475 64.8156C118.75 64.9284 118.792 64.9524 119.081 64.9023L119.525 64.9269C119.568 64.9843 119.786 65.2899 119.82 65.3218L119.438 65.4028C118.938 66.6625 118.601 67.8235 116.991 66.7176L116.972 66.4925C117.449 66.027 117.881 66.1888 118.182 65.7357C118.213 65.3055 118.286 65.1989 118.475 64.8156Z" fill="#91907B"/>
<path d="M124.501 62.7954C124.979 62.791 126.128 62.9148 126.572 63.0653L126.621 63.1956C126.354 63.4793 125.97 63.574 125.597 63.7085L125.514 63.909C125.432 64.3376 125.402 64.6461 125.163 65.0126C125.005 64.8833 124.961 63.9333 124.928 63.6386C124.647 63.3017 124.565 63.2339 124.501 62.7954Z" fill="#B4B5B6"/>
<path d="M62.6647 55.3471C64.5793 54.6256 66.2495 54.0137 68.3137 53.9404C67.6598 54.3412 64.3246 55.8946 63.6298 56.0884C62.7015 56.7085 60.8176 57.3883 59.7373 57.8018C56.9594 58.8646 54.587 60.5833 51.836 61.7192C50.2747 62.3639 47.0856 63.6751 46.4668 61.1735C46.1564 59.868 46.6848 58.3659 47.4262 57.3028C48.2013 56.2503 48.4917 55.8673 49.0297 54.6597C49.027 55.2663 49.2034 58.1263 49.1446 58.3959C49.3089 58.7475 49.4021 59.0605 49.7142 59.2654C50.8121 59.3476 57.8476 57.0386 59.5174 56.5972C59.8885 56.4991 62.0767 55.5765 62.6647 55.3471Z" fill="#D2EFF7"/>
<path d="M49.0297 54.6598C49.027 55.2664 49.2034 58.1263 49.1446 58.396C48.5683 58.1699 47.9366 57.6736 47.4263 57.3028C48.2013 56.2504 48.4917 55.8674 49.0297 54.6598Z" fill="#9CCCEA"/>
<path d="M62.6646 55.3471C64.5792 54.6256 66.2493 54.0137 68.3136 53.9404C67.6597 54.3412 64.3244 55.8946 63.6296 56.0884C63.9814 55.5295 65.479 55.164 66.1842 54.67C65.2601 54.399 63.8873 55.41 62.6646 55.3471Z" fill="#9CCCEA"/>
</g>
<defs>
<clipPath id="clip0_9_747">
<rect width="180" height="120" fill="white"/>
</clipPath>
</defs>
</svg>
